<svg width="34" height="379" viewBox="0 0 34 379" fill="none" xmlns="http://www.w3.org/2000/svg">
<g clip-path="url(#clip0_877_1450)">
<path d="M32.2773 377.412L32.2679 377.912H32.7774V377.403L32.2773 377.412ZM8.11254 7.62969C7.91371 7.82491 7.90793 8.14144 8.09963 8.33666L11.2236 11.518C11.4153 11.7132 11.7319 11.7132 11.9308 11.518C12.1296 11.3227 12.1354 11.0062 11.9437 10.811L9.16678 7.98317L12.047 5.15527C12.2458 4.96005 12.2516 4.64353 12.0599 4.44831C11.8682 4.25308 11.5516 4.25309 11.3527 4.44831L8.11254 7.62969ZM32.2774 7.98302L32.7775 7.97389V7.48312H32.2865L32.2774 7.98302ZM11.4278 8.48306C11.7039 8.48305 11.9319 8.25924 11.9369 7.98315C11.942 7.70706 11.7222 7.48325 11.446 7.48325L11.4278 8.48306ZM17.4005 7.48321C17.1243 7.48322 16.8963 7.70703 16.8913 7.98312C16.8863 8.25921 17.106 8.48302 17.3822 8.48302L17.4005 7.48321ZM23.3366 8.48298C23.6128 8.48298 23.8407 8.25916 23.8458 7.98308C23.8508 7.70699 23.631 7.48317 23.3549 7.48318L23.3366 8.48298ZM29.3093 7.48314C29.0332 7.48314 28.8052 7.70696 28.8002 7.98304C28.7951 8.25913 29.0149 8.48295 29.291 8.48294L29.3093 7.48314ZM31.7773 10.9714C31.7773 11.2474 32.0012 11.4671 32.2774 11.4621C32.5536 11.457 32.7775 11.2292 32.7775 10.9531L31.7773 10.9714ZM32.7775 16.9117C32.7775 16.6356 32.5536 16.4159 32.2774 16.421C32.0012 16.426 31.7773 16.6539 31.7773 16.9299L32.7775 16.9117ZM31.7773 22.8885C31.7773 23.1645 32.0012 23.3842 32.2774 23.3791C32.5536 23.3741 32.7775 23.1462 32.7775 22.8702L31.7773 22.8885ZM32.7775 28.8287C32.7775 28.5527 32.5536 28.333 32.2774 28.338C32.0012 28.3431 31.7773 28.571 31.7773 28.847L32.7775 28.8287ZM31.7773 34.8055C31.7773 35.0816 32.0012 35.3013 32.2774 35.2962C32.5536 35.2912 32.7775 35.0633 32.7775 34.7873L31.7773 34.8055ZM32.7775 40.7458C32.7775 40.4698 32.5536 40.2501 32.2774 40.2551C32.0012 40.2602 31.7773 40.488 31.7773 40.7641L32.7775 40.7458ZM31.7773 46.7226C31.7773 46.9986 32.0012 47.2183 32.2774 47.2133C32.5536 47.2083 32.7775 46.9804 32.7775 46.7043L31.7773 46.7226ZM32.7775 52.6629C32.7775 52.3868 32.5536 52.1672 32.2774 52.1722C32.0012 52.1772 31.7773 52.4051 31.7773 52.6811L32.7775 52.6629ZM31.7773 58.6397C31.7773 58.9157 32.0012 59.1354 32.2774 59.1304C32.5536 59.1253 32.7775 58.8975 32.7775 58.6214L31.7773 58.6397ZM32.7775 64.58C32.7775 64.3039 32.5536 64.0842 32.2774 64.0893C32.0012 64.0943 31.7773 64.3222 31.7773 64.5982L32.7775 64.58ZM31.7773 70.5568C31.7773 70.8328 32.0012 71.0525 32.2774 71.0474C32.5536 71.0424 32.7775 70.8145 32.7775 70.5385L31.7773 70.5568ZM32.7775 76.497C32.7775 76.221 32.5536 76.0013 32.2774 76.0063C32.0012 76.0114 31.7773 76.2392 31.7773 76.5153L32.7775 76.497ZM31.7773 82.4738C31.7773 82.7499 32.0012 82.9696 32.2774 82.9645C32.5536 82.9595 32.7775 82.7316 32.7775 82.4556L31.7773 82.4738ZM32.7775 88.4141C32.7775 88.1381 32.5536 87.9184 32.2774 87.9234C32.0012 87.9285 31.7773 88.1563 31.7773 88.4324L32.7775 88.4141ZM31.7773 94.3909C31.7773 94.6669 32.0012 94.8866 32.2774 94.8816C32.5536 94.8765 32.7775 94.6487 32.7775 94.3726L31.7773 94.3909ZM32.7775 100.331C32.7775 100.055 32.5536 99.8354 32.2774 99.8405C32.0012 99.8455 31.7773 100.073 31.7773 100.349L32.7775 100.331ZM31.7773 106.308C31.7773 106.584 32.0012 106.804 32.2774 106.799C32.5536 106.794 32.7775 106.566 32.7775 106.29L31.7773 106.308ZM32.7775 112.248C32.7775 111.972 32.5536 111.753 32.2774 111.758C32.0012 111.763 31.7773 111.99 31.7773 112.266L32.7775 112.248ZM31.7773 118.225C31.7773 118.501 32.0012 118.721 32.2774 118.716C32.5536 118.711 32.7775 118.483 32.7775 118.207L31.7773 118.225ZM32.7775 124.165C32.7775 123.889 32.5535 123.67 32.2774 123.675C32.0012 123.68 31.7773 123.908 31.7773 124.184L32.7775 124.165ZM31.7773 130.142C31.7773 130.418 32.0012 130.638 32.2774 130.633C32.5535 130.628 32.7774 130.4 32.7774 130.124L31.7773 130.142ZM32.7774 136.082C32.7774 135.806 32.5535 135.587 32.2773 135.592C32.0012 135.597 31.7773 135.825 31.7773 136.101L32.7774 136.082ZM31.7773 142.059C31.7773 142.335 32.0012 142.555 32.2773 142.55C32.5535 142.545 32.7774 142.317 32.7774 142.041L31.7773 142.059ZM32.7774 147.999C32.7774 147.723 32.5535 147.504 32.2773 147.509C32.0012 147.514 31.7772 147.742 31.7772 148.018L32.7774 147.999ZM31.7772 153.976C31.7772 154.252 32.0011 154.472 32.2773 154.467C32.5535 154.462 32.7774 154.234 32.7774 153.958L31.7772 153.976ZM32.7774 159.917C32.7774 159.64 32.5535 159.421 32.2773 159.426C32.0011 159.431 31.7772 159.659 31.7772 159.935L32.7774 159.917ZM31.7772 165.893C31.7772 166.169 32.0011 166.389 32.2773 166.384C32.5535 166.379 32.7774 166.151 32.7774 165.875L31.7772 165.893ZM32.7774 171.834C32.7774 171.558 32.5535 171.338 32.2773 171.343C32.0011 171.348 31.7772 171.576 31.7772 171.852L32.7774 171.834ZM31.7772 177.81C31.7772 178.086 32.0011 178.306 32.2773 178.301C32.5535 178.296 32.7774 178.068 32.7774 177.792L31.7772 177.81ZM32.7774 183.751C32.7774 183.475 32.5535 183.255 32.2773 183.26C32.0011 183.265 31.7772 183.493 31.7772 183.769L32.7774 183.751ZM31.7772 189.727C31.7772 190.004 32.0011 190.223 32.2773 190.218C32.5535 190.213 32.7774 189.985 32.7774 189.709L31.7772 189.727ZM32.7774 195.668C32.7774 195.392 32.5535 195.172 32.2773 195.177C32.0011 195.182 31.7772 195.41 31.7772 195.686L32.7774 195.668ZM31.7772 201.645C31.7772 201.921 32.0011 202.14 32.2773 202.135C32.5535 202.13 32.7774 201.902 32.7774 201.626L31.7772 201.645ZM32.7774 207.585C32.7774 207.309 32.5535 207.089 32.2773 207.094C32.0011 207.099 31.7772 207.327 31.7772 207.603L32.7774 207.585ZM31.7772 213.562C31.7772 213.838 32.0011 214.057 32.2773 214.052C32.5535 214.047 32.7774 213.819 32.7774 213.543L31.7772 213.562ZM32.7774 219.502C32.7774 219.226 32.5535 219.006 32.2773 219.011C32.0011 219.016 31.7772 219.244 31.7772 219.52L32.7774 219.502ZM31.7772 225.479C31.7772 225.755 32.0011 225.974 32.2773 225.969C32.5535 225.964 32.7774 225.736 32.7774 225.46L31.7772 225.479ZM32.7774 231.419C32.7774 231.143 32.5535 230.923 32.2773 230.928C32.0011 230.933 31.7772 231.161 31.7772 231.437L32.7774 231.419ZM31.7772 237.396C31.7772 237.672 32.0011 237.891 32.2773 237.886C32.5535 237.881 32.7774 237.654 32.7774 237.377L31.7772 237.396ZM32.7774 243.336C32.7774 243.06 32.5535 242.84 32.2773 242.845C32.0011 242.85 31.7772 243.078 31.7772 243.354L32.7774 243.336ZM31.7772 249.313C31.7772 249.589 32.0011 249.809 32.2773 249.804C32.5535 249.798 32.7774 249.571 32.7774 249.295L31.7772 249.313ZM32.7774 255.253C32.7774 254.977 32.5535 254.757 32.2773 254.762C32.0011 254.767 31.7772 254.995 31.7772 255.271L32.7774 255.253ZM31.7772 261.23C31.7772 261.506 32.0011 261.726 32.2773 261.721C32.5535 261.716 32.7774 261.488 32.7774 261.212L31.7772 261.23ZM32.7774 267.17C32.7774 266.894 32.5535 266.674 32.2773 266.679C32.0011 266.685 31.7772 266.912 31.7772 267.188L32.7774 267.17ZM31.7772 273.147C31.7772 273.423 32.0011 273.643 32.2773 273.638C32.5535 273.633 32.7774 273.405 32.7774 273.129L31.7772 273.147ZM32.7774 279.087C32.7774 278.811 32.5535 278.592 32.2773 278.597C32.0011 278.602 31.7772 278.829 31.7772 279.106L32.7774 279.087ZM31.7772 285.064C31.7772 285.34 32.0011 285.56 32.2773 285.555C32.5535 285.55 32.7774 285.322 32.7774 285.046L31.7772 285.064ZM32.7774 291.004C32.7774 290.728 32.5535 290.509 32.2773 290.514C32.0011 290.519 31.7772 290.747 31.7772 291.023L32.7774 291.004ZM31.7772 296.981C31.7772 297.257 32.0011 297.477 32.2773 297.472C32.5535 297.467 32.7774 297.239 32.7774 296.963L31.7772 296.981ZM32.7774 302.921C32.7774 302.645 32.5535 302.426 32.2773 302.431C32.0011 302.436 31.7772 302.664 31.7772 302.94L32.7774 302.921ZM31.7772 308.898C31.7772 309.174 32.0011 309.394 32.2773 309.389C32.5535 309.384 32.7774 309.156 32.7774 308.88L31.7772 308.898ZM32.7774 314.838C32.7774 314.562 32.5535 314.343 32.2773 314.348C32.0011 314.353 31.7772 314.581 31.7772 314.857L32.7774 314.838ZM31.7772 320.815C31.7772 321.091 32.0011 321.311 32.2773 321.306C32.5535 321.301 32.7774 321.073 32.7774 320.797L31.7772 320.815ZM32.7774 326.756C32.7774 326.479 32.5535 326.26 32.2773 326.265C32.0011 326.27 31.7772 326.498 31.7772 326.774L32.7774 326.756ZM31.7772 332.732C31.7772 333.008 32.0011 333.228 32.2773 333.223C32.5535 333.218 32.7774 332.99 32.7774 332.714L31.7772 332.732ZM32.7774 338.673C32.7774 338.397 32.5535 338.177 32.2773 338.182C32.0011 338.187 31.7772 338.415 31.7772 338.691L32.7774 338.673ZM31.7772 344.649C31.7772 344.925 32.0011 345.145 32.2773 345.14C32.5535 345.135 32.7774 344.907 32.7774 344.631L31.7772 344.649ZM32.7774 350.59C32.7774 350.314 32.5535 350.094 32.2773 350.099C32.0011 350.104 31.7772 350.332 31.7772 350.608L32.7774 350.59ZM31.7772 356.566C31.7772 356.843 32.0011 357.062 32.2773 357.057C32.5535 357.052 32.7774 356.824 32.7774 356.548L31.7772 356.566ZM32.7774 362.507C32.7774 362.231 32.5535 362.011 32.2773 362.016C32.0011 362.021 31.7772 362.249 31.7772 362.525L32.7774 362.507ZM31.7772 368.484C31.7772 368.76 32.0011 368.979 32.2773 368.974C32.5535 368.969 32.7774 368.741 32.7774 368.465L31.7772 368.484ZM32.7774 374.424C32.7774 374.148 32.5535 373.928 32.2773 373.933C32.0011 373.938 31.7772 374.166 31.7772 374.442L32.7774 374.424ZM29.6418 376.911C29.3656 376.911 29.1376 377.135 29.1324 377.411C29.1272 377.687 29.3468 377.911 29.623 377.911L29.6418 376.911ZM24.3332 377.908C24.6093 377.908 24.8374 377.684 24.8426 377.408C24.8478 377.132 24.6281 376.908 24.352 376.908L24.3332 377.908ZM19.0621 376.905C18.786 376.905 18.5579 377.129 18.5527 377.405C18.5475 377.681 18.7672 377.905 19.0433 377.905L19.0621 376.905ZM13.7535 377.902C14.0297 377.902 14.2577 377.679 14.2629 377.403C14.2681 377.127 14.0485 376.903 13.7723 376.902L13.7535 377.902ZM8.48247 376.9C8.20632 376.899 7.97825 377.123 7.97305 377.399C7.96786 377.675 8.18752 377.899 8.46366 377.899L8.48247 376.9ZM3.17384 377.897C3.44999 377.897 3.67806 377.673 3.68325 377.397C3.68845 377.121 3.46879 376.897 3.19265 376.897L3.17384 377.897ZM8.45052 8.48307L11.4278 8.48306L11.446 7.48325L8.46878 7.48327L8.45052 8.48307ZM17.3822 8.48302L23.3366 8.48298L23.3549 7.48318L17.4005 7.48321L17.3822 8.48302ZM29.291 8.48294L32.2683 8.48293L32.2865 7.48312L29.3093 7.48314L29.291 8.48294ZM31.7773 7.99215V10.9714L32.7775 10.9531V7.97389L31.7773 7.99215ZM31.7773 16.9299V22.8885L32.7775 22.8702V16.9117L31.7773 16.9299ZM31.7773 28.847V34.8055L32.7775 34.7873V28.8287L31.7773 28.847ZM31.7773 40.7641V46.7226L32.7775 46.7043V40.7458L31.7773 40.7641ZM31.7773 52.6811V58.6397L32.7775 58.6214V52.6629L31.7773 52.6811ZM31.7773 64.5982V70.5568L32.7775 70.5385V64.58L31.7773 64.5982ZM31.7773 76.5153V82.4738L32.7775 82.4556V76.497L31.7773 76.5153ZM31.7773 88.4324V94.3909L32.7775 94.3726V88.4141L31.7773 88.4324ZM31.7773 100.349V106.308L32.7775 106.29V100.331L31.7773 100.349ZM31.7773 112.266V118.225L32.7775 118.207V112.248L31.7773 112.266ZM31.7773 124.184V130.142L32.7774 130.124L32.7775 124.165L31.7773 124.184ZM31.7773 136.101V142.059L32.7774 142.041V136.082L31.7773 136.101ZM31.7772 148.018V153.976L32.7774 153.958V147.999L31.7772 148.018ZM31.7772 159.935V165.893L32.7774 165.875V159.917L31.7772 159.935ZM31.7772 171.852V177.81L32.7774 177.792V171.834L31.7772 171.852ZM31.7772 183.769V189.727L32.7774 189.709V183.751L31.7772 183.769ZM31.7772 195.686V201.645L32.7774 201.626V195.668L31.7772 195.686ZM31.7772 207.603V213.562L32.7774 213.543V207.585L31.7772 207.603ZM31.7772 219.52V225.479L32.7774 225.46V219.502L31.7772 219.52ZM31.7772 231.437V237.396L32.7774 237.377V231.419L31.7772 231.437ZM31.7772 243.354V249.313L32.7774 249.295V243.336L31.7772 243.354ZM31.7772 255.271V261.23L32.7774 261.212V255.253L31.7772 255.271ZM31.7772 267.188V273.147L32.7774 273.129V267.17L31.7772 267.188ZM31.7772 279.106V285.064L32.7774 285.046V279.087L31.7772 279.106ZM31.7772 291.023V296.981L32.7774 296.963V291.004L31.7772 291.023ZM31.7772 302.94V308.898L32.7774 308.88V302.921L31.7772 302.94ZM31.7772 314.857V320.815L32.7774 320.797V314.838L31.7772 314.857ZM31.7772 326.774V332.732L32.7774 332.714V326.756L31.7772 326.774ZM31.7772 338.691V344.649L32.7774 344.631V338.673L31.7772 338.691ZM31.7772 350.608V356.566L32.7774 356.548V350.59L31.7772 350.608ZM31.7772 362.525V368.484L32.7774 368.465V362.507L31.7772 362.525ZM31.7772 374.442V377.421L32.7774 377.403V374.424L31.7772 374.442ZM32.2867 376.912L29.6418 376.911L29.623 377.911L32.2679 377.912L32.2867 376.912ZM24.352 376.908L19.0621 376.905L19.0433 377.905L24.3332 377.908L24.352 376.908ZM13.7723 376.902L8.48247 376.9L8.46366 377.899L13.7535 377.902L13.7723 376.902ZM3.19265 376.897L0.547735 376.895L0.528932 377.895L3.17384 377.897L3.19265 376.897ZM32.2773 377.412L32.2585 378.412L33.2775 378.413V377.394L32.2773 377.412ZM7.76544 7.27621C7.36777 7.66666 7.35621 8.2997 7.73961 8.69014L13.9876 15.0528C14.371 15.4432 15.0042 15.4432 15.4018 15.0528C15.7995 14.6623 15.8111 14.0293 15.4277 13.6388L9.87391 7.98316L15.6342 2.32738C16.0319 1.93693 16.0435 1.30389 15.6601 0.913437C15.2767 0.522992 14.6435 0.522996 14.2458 0.913446L7.76544 7.27621ZM32.2774 7.98302L33.2776 7.96476V6.98321L32.2956 6.98322L32.2774 7.98302ZM11.4186 8.98296C11.9709 8.98295 12.4268 8.53532 12.4369 7.98315C12.447 7.43097 12.0075 6.98335 11.4552 6.98335L11.4186 8.98296ZM17.4096 6.98331C16.8573 6.98331 16.4014 7.43095 16.3913 7.98312C16.3812 8.5353 16.8208 8.98292 17.3731 8.98292L17.4096 6.98331ZM23.3275 8.98288C23.8798 8.98288 24.3357 8.53525 24.3458 7.98307C24.3559 7.4309 23.9163 6.98327 23.364 6.98327L23.3275 8.98288ZM29.3184 6.98324C28.7661 6.98324 28.3102 7.43087 28.3001 7.98305C28.2901 8.53522 28.7296 8.98285 29.2819 8.98285L29.3184 6.98324ZM31.2772 10.9805C31.2772 11.5326 31.725 11.972 32.2774 11.9619C32.8298 11.9518 33.2776 11.4961 33.2776 10.944L31.2772 10.9805ZM33.2776 16.9025C33.2776 16.3504 32.8298 15.9111 32.2774 15.9212C31.725 15.9312 31.2772 16.387 31.2772 16.939L33.2776 16.9025ZM31.2772 22.8976C31.2772 23.4497 31.725 23.889 32.2774 23.879C32.8298 23.8689 33.2776 23.4132 33.2776 22.8611L31.2772 22.8976ZM33.2776 28.8196C33.2776 28.2675 32.8298 27.8281 32.2774 27.8382C31.725 27.8483 31.2772 28.304 31.2772 28.8561L33.2776 28.8196ZM31.2772 34.8147C31.2772 35.3667 31.725 35.8061 32.2774 35.796C32.8298 35.786 33.2776 35.3302 33.2776 34.7781L31.2772 34.8147ZM33.2776 40.7367C33.2776 40.1846 32.8298 39.7452 32.2774 39.7553C31.725 39.7654 31.2772 40.2211 31.2772 40.7732L33.2776 40.7367ZM31.2772 46.7317C31.2772 47.2838 31.725 47.7232 32.2774 47.7131C32.8298 47.703 33.2776 47.2473 33.2776 46.6952L31.2772 46.7317ZM33.2776 52.6538C33.2776 52.1017 32.8298 51.6623 32.2774 51.6724C31.725 51.6825 31.2772 52.1382 31.2772 52.6903L33.2776 52.6538ZM31.2772 58.6488C31.2772 59.2009 31.725 59.6403 32.2774 59.6302C32.8298 59.6201 33.2776 59.1644 33.2776 58.6123L31.2772 58.6488ZM33.2776 64.5708C33.2776 64.0187 32.8298 63.5794 32.2774 63.5894C31.725 63.5995 31.2772 64.0553 31.2772 64.6073L33.2776 64.5708ZM31.2772 70.5659C31.2772 71.118 31.725 71.5573 32.2774 71.5473C32.8298 71.5372 33.2776 71.0814 33.2776 70.5294L31.2772 70.5659ZM33.2776 76.4879C33.2776 75.9358 32.8298 75.4964 32.2774 75.5065C31.725 75.5166 31.2772 75.9723 31.2772 76.5244L33.2776 76.4879ZM31.2772 82.4829C31.2772 83.035 31.725 83.4744 32.2774 83.4643C32.8298 83.4542 33.2776 82.9985 33.2776 82.4464L31.2772 82.4829ZM33.2776 88.405C33.2776 87.8529 32.8298 87.4135 32.2774 87.4236C31.725 87.4337 31.2772 87.8894 31.2772 88.4415L33.2776 88.405ZM31.2772 94.4C31.2772 94.9521 31.725 95.3915 32.2774 95.3814C32.8298 95.3713 33.2776 94.9156 33.2776 94.3635L31.2772 94.4ZM33.2776 100.322C33.2776 99.77 32.8298 99.3306 32.2774 99.3407C31.725 99.3507 31.2772 99.8065 31.2772 100.359L33.2776 100.322ZM31.2772 106.317C31.2772 106.869 31.725 107.309 32.2774 107.298C32.8298 107.288 33.2776 106.833 33.2776 106.281L31.2772 106.317ZM33.2776 112.239C33.2776 111.687 32.8297 111.248 32.2774 111.258C31.725 111.268 31.2772 111.724 31.2772 112.276L33.2776 112.239ZM31.2772 118.234C31.2772 118.786 31.725 119.226 32.2774 119.216C32.8297 119.205 33.2775 118.75 33.2775 118.198L31.2772 118.234ZM33.2775 124.156C33.2775 123.604 32.8297 123.165 32.2774 123.175C31.725 123.185 31.2772 123.641 31.2772 124.193L33.2775 124.156ZM31.2772 130.151C31.2772 130.703 31.725 131.143 32.2774 131.133C32.8297 131.123 33.2775 130.667 33.2775 130.115L31.2772 130.151ZM33.2775 136.073C33.2775 135.521 32.8297 135.082 32.2773 135.092C31.725 135.102 31.2772 135.558 31.2772 136.11L33.2775 136.073ZM31.2772 142.068C31.2772 142.62 31.725 143.06 32.2773 143.05C32.8297 143.04 33.2775 142.584 33.2775 142.032L31.2772 142.068ZM33.2775 147.99C33.2775 147.438 32.8297 146.999 32.2773 147.009C31.725 147.019 31.2772 147.475 31.2772 148.027L33.2775 147.99ZM31.2771 153.985C31.2771 154.537 31.725 154.977 32.2773 154.967C32.8297 154.957 33.2775 154.501 33.2775 153.949L31.2771 153.985ZM33.2775 159.907C33.2775 159.355 32.8297 158.916 32.2773 158.926C31.725 158.936 31.2771 159.392 31.2771 159.944L33.2775 159.907ZM31.2771 165.902C31.2771 166.455 31.7249 166.894 32.2773 166.884C32.8297 166.874 33.2775 166.418 33.2775 165.866L31.2771 165.902ZM33.2775 171.824C33.2775 171.272 32.8297 170.833 32.2773 170.843C31.7249 170.853 31.2771 171.309 31.2771 171.861L33.2775 171.824ZM31.2771 177.82C31.2771 178.372 31.7249 178.811 32.2773 178.801C32.8297 178.791 33.2775 178.335 33.2775 177.783L31.2771 177.82ZM33.2775 183.742C33.2775 183.189 32.8297 182.75 32.2773 182.76C31.7249 182.77 31.2771 183.226 31.2771 183.778L33.2775 183.742ZM31.2771 189.737C31.2771 190.289 31.7249 190.728 32.2773 190.718C32.8297 190.708 33.2775 190.252 33.2775 189.7L31.2771 189.737ZM33.2775 195.659C33.2775 195.107 32.8297 194.667 32.2773 194.677C31.7249 194.687 31.2771 195.143 31.2771 195.695L33.2775 195.659ZM31.2771 201.654C31.2771 202.206 31.7249 202.645 32.2773 202.635C32.8297 202.625 33.2775 202.169 33.2775 201.617L31.2771 201.654ZM33.2775 207.576C33.2775 207.024 32.8297 206.584 32.2773 206.594C31.7249 206.604 31.2771 207.06 31.2771 207.612L33.2775 207.576ZM31.2771 213.571C31.2771 214.123 31.7249 214.562 32.2773 214.552C32.8297 214.542 33.2775 214.086 33.2775 213.534L31.2771 213.571ZM33.2775 219.493C33.2775 218.941 32.8297 218.501 32.2773 218.511C31.7249 218.521 31.2771 218.977 31.2771 219.529L33.2775 219.493ZM31.2771 225.488C31.2771 226.04 31.7249 226.479 32.2773 226.469C32.8297 226.459 33.2775 226.003 33.2775 225.451L31.2771 225.488ZM33.2775 231.41C33.2775 230.858 32.8297 230.418 32.2773 230.428C31.7249 230.439 31.2771 230.894 31.2771 231.446L33.2775 231.41ZM31.2771 237.405C31.2771 237.957 31.7249 238.396 32.2773 238.386C32.8297 238.376 33.2775 237.92 33.2775 237.368L31.2771 237.405ZM33.2775 243.327C33.2775 242.775 32.8297 242.335 32.2773 242.346C31.7249 242.356 31.2771 242.811 31.2771 243.363L33.2775 243.327ZM31.2771 249.322C31.2771 249.874 31.7249 250.313 32.2773 250.303C32.8297 250.293 33.2775 249.838 33.2775 249.285L31.2771 249.322ZM33.2775 255.244C33.2775 254.692 32.8297 254.253 32.2773 254.263C31.7249 254.273 31.2771 254.728 31.2771 255.28L33.2775 255.244ZM31.2771 261.239C31.2771 261.791 31.7249 262.23 32.2773 262.22C32.8297 262.21 33.2775 261.755 33.2775 261.203L31.2771 261.239ZM33.2775 267.161C33.2775 266.609 32.8297 266.17 32.2773 266.18C31.7249 266.19 31.2771 266.645 31.2771 267.198L33.2775 267.161ZM31.2771 273.156C31.2771 273.708 31.7249 274.148 32.2773 274.137C32.8297 274.127 33.2775 273.672 33.2775 273.12L31.2771 273.156ZM33.2775 279.078C33.2775 278.526 32.8297 278.087 32.2773 278.097C31.7249 278.107 31.2771 278.563 31.2771 279.115L33.2775 279.078ZM31.2771 285.073C31.2771 285.625 31.7249 286.065 32.2773 286.055C32.8297 286.044 33.2775 285.589 33.2775 285.037L31.2771 285.073ZM33.2775 290.995C33.2775 290.443 32.8297 290.004 32.2773 290.014C31.7249 290.024 31.2771 290.48 31.2771 291.032L33.2775 290.995ZM31.2771 296.99C31.2771 297.542 31.7249 297.982 32.2773 297.972C32.8297 297.962 33.2775 297.506 33.2775 296.954L31.2771 296.99ZM33.2775 302.912C33.2775 302.36 32.8297 301.921 32.2773 301.931C31.7249 301.941 31.2771 302.397 31.2771 302.949L33.2775 302.912ZM31.2771 308.907C31.2771 309.459 31.7249 309.899 32.2773 309.889C32.8297 309.879 33.2775 309.423 33.2775 308.871L31.2771 308.907ZM33.2775 314.829C33.2775 314.277 32.8297 313.838 32.2773 313.848C31.7249 313.858 31.2771 314.314 31.2771 314.866L33.2775 314.829ZM31.2771 320.824C31.2771 321.376 31.7249 321.816 32.2773 321.806C32.8297 321.796 33.2775 321.34 33.2775 320.788L31.2771 320.824ZM33.2775 326.746C33.2775 326.194 32.8297 325.755 32.2773 325.765C31.7249 325.775 31.2771 326.231 31.2771 326.783L33.2775 326.746ZM31.2771 332.741C31.2771 333.294 31.7249 333.733 32.2773 333.723C32.8297 333.713 33.2775 333.257 33.2775 332.705L31.2771 332.741ZM33.2775 338.663C33.2775 338.111 32.8297 337.672 32.2773 337.682C31.7249 337.692 31.2771 338.148 31.2771 338.7L33.2775 338.663ZM31.2771 344.659C31.2771 345.211 31.7249 345.65 32.2773 345.64C32.8297 345.63 33.2775 345.174 33.2775 344.622L31.2771 344.659ZM33.2775 350.581C33.2775 350.028 32.8297 349.589 32.2773 349.599C31.7249 349.609 31.2771 350.065 31.2771 350.617L33.2775 350.581ZM31.2771 356.576C31.2771 357.128 31.7249 357.567 32.2773 357.557C32.8297 357.547 33.2775 357.091 33.2775 356.539L31.2771 356.576ZM33.2775 362.498C33.2775 361.946 32.8297 361.506 32.2773 361.516C31.7249 361.526 31.2771 361.982 31.2771 362.534L33.2775 362.498ZM31.2771 368.493C31.2771 369.045 31.7249 369.484 32.2773 369.474C32.8297 369.464 33.2775 369.008 33.2775 368.456L31.2771 368.493ZM33.2775 374.415C33.2775 373.863 32.8297 373.423 32.2773 373.433C31.7249 373.443 31.2771 373.899 31.2771 374.451L33.2775 374.415ZM29.6512 376.411C29.0989 376.411 28.6427 376.858 28.6324 377.41C28.622 377.963 29.0613 378.41 29.6136 378.411L29.6512 376.411ZM24.3238 378.408C24.876 378.408 25.3322 377.961 25.3426 377.409C25.353 376.856 24.9137 376.409 24.3614 376.408L24.3238 378.408ZM19.0715 376.405C18.5192 376.405 18.0631 376.852 18.0527 377.405C18.0423 377.957 18.4816 378.405 19.0339 378.405L19.0715 376.405ZM13.7441 378.402C14.2964 378.402 14.7525 377.955 14.7629 377.403C14.7733 376.851 14.334 376.403 13.7817 376.403L13.7441 378.402ZM8.49187 376.4C7.93957 376.399 7.48343 376.847 7.47305 377.399C7.46266 377.951 7.90197 378.399 8.45426 378.399L8.49187 376.4ZM3.16444 378.396C3.71674 378.397 4.17288 377.949 4.18326 377.397C4.19365 376.845 3.75434 376.397 3.20205 376.397L3.16444 378.396ZM8.44139 8.98298L11.4186 8.98296L11.4552 6.98335L8.47791 6.98337L8.44139 8.98298ZM17.3731 8.98292L23.3275 8.98288L23.364 6.98327L17.4096 6.98331L17.3731 8.98292ZM29.2819 8.98285L32.2591 8.98283L32.2956 6.98322L29.3184 6.98324L29.2819 8.98285ZM31.2772 8.00128V10.9805L33.2776 10.944V7.96476L31.2772 8.00128ZM31.2772 16.939V22.8976L33.2776 22.8611V16.9025L31.2772 16.939ZM31.2772 28.8561V34.8147L33.2776 34.7781V28.8196L31.2772 28.8561ZM31.2772 40.7732V46.7317L33.2776 46.6952V40.7367L31.2772 40.7732ZM31.2772 52.6903V58.6488L33.2776 58.6123V52.6538L31.2772 52.6903ZM31.2772 64.6073V70.5659L33.2776 70.5294V64.5708L31.2772 64.6073ZM31.2772 76.5244V82.4829L33.2776 82.4464V76.4879L31.2772 76.5244ZM31.2772 88.4415V94.4L33.2776 94.3635V88.405L31.2772 88.4415ZM31.2772 100.359V106.317L33.2776 106.281V100.322L31.2772 100.359ZM31.2772 112.276V118.234L33.2775 118.198L33.2776 112.239L31.2772 112.276ZM31.2772 124.193V130.151L33.2775 130.115V124.156L31.2772 124.193ZM31.2772 136.11V142.068L33.2775 142.032V136.073L31.2772 136.11ZM31.2772 148.027L31.2771 153.985L33.2775 153.949V147.99L31.2772 148.027ZM31.2771 159.944V165.902L33.2775 165.866V159.907L31.2771 159.944ZM31.2771 171.861V177.82L33.2775 177.783V171.824L31.2771 171.861ZM31.2771 183.778V189.737L33.2775 189.7V183.742L31.2771 183.778ZM31.2771 195.695V201.654L33.2775 201.617V195.659L31.2771 195.695ZM31.2771 207.612V213.571L33.2775 213.534V207.576L31.2771 207.612ZM31.2771 219.529V225.488L33.2775 225.451V219.493L31.2771 219.529ZM31.2771 231.446V237.405L33.2775 237.368V231.41L31.2771 231.446ZM31.2771 243.363V249.322L33.2775 249.285V243.327L31.2771 243.363ZM31.2771 255.28V261.239L33.2775 261.203V255.244L31.2771 255.28ZM31.2771 267.198V273.156L33.2775 273.12V267.161L31.2771 267.198ZM31.2771 279.115V285.073L33.2775 285.037V279.078L31.2771 279.115ZM31.2771 291.032V296.99L33.2775 296.954V290.995L31.2771 291.032ZM31.2771 302.949V308.907L33.2775 308.871V302.912L31.2771 302.949ZM31.2771 314.866V320.824L33.2775 320.788V314.829L31.2771 314.866ZM31.2771 326.783V332.741L33.2775 332.705V326.746L31.2771 326.783ZM31.2771 338.7V344.659L33.2775 344.622V338.663L31.2771 338.7ZM31.2771 350.617V356.576L33.2775 356.539V350.581L31.2771 350.617ZM31.2771 362.534V368.493L33.2775 368.456V362.498L31.2771 362.534ZM31.2771 374.451V377.431L33.2775 377.394V374.415L31.2771 374.451ZM32.2961 376.413L29.6512 376.411L29.6136 378.411L32.2585 378.412L32.2961 376.413ZM24.3614 376.408L19.0715 376.405L19.0339 378.405L24.3238 378.408L24.3614 376.408ZM13.7817 376.403L8.49187 376.4L8.45426 378.399L13.7441 378.402L13.7817 376.403ZM3.20205 376.397L0.557136 376.395L0.519531 378.395L3.16444 378.396L3.20205 376.397Z" fill="#749CC7"/>
</g>
<defs>
<clipPath id="clip0_877_1450">
<rect width="34" height="379" fill="white"/>
</clipPath>
</defs>
</svg>
