<svg width="16" height="32" viewBox="0 0 16 32" fill="none" xmlns="http://www.w3.org/2000/svg">
<path d="M8.19321 1.03549C7.99805 0.846628 7.68164 0.85701 7.48648 1.05868L4.30621 4.34501C4.11105 4.54667 4.11105 4.86326 4.30621 5.05212C4.50137 5.24097 4.81778 5.23059 5.01294 5.02893L7.83984 2.10774L10.6667 4.84341C10.8619 5.03227 11.1783 5.02189 11.3735 4.82022C11.5686 4.61856 11.5686 4.30197 11.3735 4.11312L8.19321 1.03549ZM7.48648 30.7824C7.68164 30.9712 7.99805 30.9608 8.19321 30.7592L11.3735 27.4728C11.5686 27.2712 11.5686 26.9546 11.3735 26.7657C11.1783 26.5769 10.8619 26.5873 10.6667 26.7889L7.83984 29.7101L5.01294 26.9744C4.81778 26.7856 4.50137 26.796 4.30621 26.9976C4.11105 27.1993 4.11105 27.5159 4.30621 27.7047L7.48648 30.7824ZM7.34011 5.0441C7.34011 5.32025 7.56385 5.53676 7.83984 5.52771C8.11584 5.51865 8.33957 5.28745 8.33957 5.01131L7.34011 5.0441ZM8.33957 12.2655C8.33957 11.9893 8.11584 11.7728 7.83984 11.7819C7.56385 11.7909 7.34011 12.0221 7.34011 12.2982L8.33957 12.2655ZM7.34011 19.5524C7.34011 19.8285 7.56385 20.0451 7.83984 20.036C8.11584 20.0269 8.33957 19.7957 8.33957 19.5196L7.34011 19.5524ZM8.33957 26.7737C8.33957 26.4976 8.11584 26.2811 7.83984 26.2901C7.56385 26.2992 7.34011 26.5304 7.34011 26.8065L8.33957 26.7737ZM7.34011 1.41703L7.34011 5.0441L8.33957 5.01131L8.33957 1.38424L7.34011 1.41703ZM7.34011 12.2982L7.34011 19.5524L8.33957 19.5196L8.33957 12.2655L7.34011 12.2982ZM7.34011 26.8065L7.34011 30.4336L8.33957 30.4008L8.33957 26.7737L7.34011 26.8065ZM8.54657 0.670339C8.15626 0.292621 7.52343 0.313386 7.13312 0.716717L0.772579 7.28938C0.382265 7.69271 0.382265 8.32588 0.772579 8.7036C1.16289 9.08131 1.79572 9.06055 2.18603 8.65722L7.83984 2.81485L13.4937 8.28619C13.884 8.66391 14.5168 8.64314 14.9071 8.23981C15.2974 7.83648 15.2974 7.20331 14.9071 6.8256L8.54657 0.670339ZM7.13312 31.1475C7.52343 31.5252 8.15626 31.5045 8.54657 31.1011L14.9071 24.5285C15.2974 24.1251 15.2974 23.492 14.9071 23.1142C14.5168 22.7365 13.884 22.7573 13.4937 23.1606L7.83984 29.003L2.18603 23.5317C1.79572 23.1539 1.16289 23.1747 0.772579 23.578C0.382265 23.9814 0.382265 24.6145 0.772579 24.9922L7.13312 31.1475ZM6.84038 5.0605C6.84038 5.61279 7.28786 6.04582 7.83984 6.02771C8.39183 6.00959 8.83931 5.5472 8.83931 4.99491L6.84038 5.0605ZM8.83931 12.2491C8.83931 11.6968 8.39183 11.2637 7.83984 11.2819C7.28786 11.3 6.84038 11.7624 6.84038 12.3146L8.83931 12.2491ZM6.84038 19.5688C6.84038 20.1211 7.28786 20.5541 7.83984 20.536C8.39183 20.5179 8.83931 20.0555 8.83931 19.5032L6.84038 19.5688ZM8.83931 26.7573C8.83931 26.2051 8.39183 25.772 7.83984 25.7901C7.28786 25.8082 6.84038 26.2706 6.84038 26.8229L8.83931 26.7573ZM6.84038 1.43343L6.84038 5.0605L8.83931 4.99491L8.83931 1.36784L6.84038 1.43343ZM6.84038 12.3146L6.84038 19.5688L8.83931 19.5032L8.83931 12.2491L6.84038 12.3146ZM6.84038 26.8229L6.84038 30.45L8.83931 30.3844L8.83931 26.7573L6.84038 26.8229Z" fill="#F2F2F2"/>
</svg>
