<svg width="28" height="218" viewBox="0 0 28 218" fill="none" xmlns="http://www.w3.org/2000/svg">
<path fill-rule="evenodd" clip-rule="evenodd" d="M1.86046 217.943L0.829794 217.943L0.825903 216.914L0.814281 213.838C0.812197 213.287 1.25849 212.853 1.81111 212.87C2.36372 212.886 2.8134 213.347 2.81548 213.899L2.82321 215.944H4.84867C5.40097 215.944 5.8639 216.392 5.88266 216.944C5.90141 217.496 5.46889 217.943 4.91658 217.943L1.86046 217.943ZM2.79224 207.748C2.79432 208.3 2.34803 208.733 1.79541 208.717C1.2428 208.7 0.793125 208.239 0.79104 207.688L0.767799 201.537C0.765715 200.985 1.21201 200.551 1.76462 200.568C2.31724 200.585 2.76691 201.045 2.769 201.597L2.79224 207.748ZM2.74576 195.446C2.74784 195.998 2.30155 196.432 1.74893 196.415C1.19632 196.398 0.746643 195.938 0.744558 195.386L0.721315 189.235C0.719231 188.683 1.16553 188.25 1.71814 188.266C2.27076 188.283 2.72043 188.744 2.72252 189.295L2.74576 195.446ZM2.69927 183.145C2.70136 183.696 2.25506 184.13 1.70245 184.113C1.14983 184.097 0.700159 183.636 0.698074 183.084L0.674833 176.933C0.672749 176.382 1.11904 175.948 1.67166 175.965C2.22427 175.981 2.67395 176.442 2.67603 176.994L2.69927 183.145ZM2.65279 170.843C2.65487 171.395 2.20858 171.828 1.65597 171.812C1.10335 171.795 0.653677 171.334 0.651592 170.783L0.628349 164.632C0.626265 164.08 1.07256 163.646 1.62518 163.663C2.17779 163.68 2.62746 164.14 2.62955 164.692L2.65279 170.843ZM2.60631 158.541C2.60839 159.093 2.1621 159.527 1.60948 159.51C1.05687 159.493 0.607193 159.033 0.605108 158.481L0.581867 152.33C0.579782 151.778 1.02608 151.345 1.57869 151.361C2.13131 151.378 2.58098 151.839 2.58307 152.39L2.60631 158.541ZM2.55982 146.24C2.56191 146.791 2.11562 147.225 1.563 147.208C1.01038 147.192 0.560711 146.731 0.558626 146.179L0.535383 140.028C0.533298 139.477 0.979593 139.043 1.53221 139.06C2.08482 139.076 2.5345 139.537 2.53658 140.089L2.55982 146.24ZM2.51334 133.938C2.51542 134.49 2.06913 134.923 1.51652 134.907C0.9639 134.89 0.514227 134.429 0.512142 133.878L0.488901 127.727C0.486816 127.175 0.933109 126.741 1.48573 126.758C2.03834 126.775 2.48801 127.235 2.4901 127.787L2.51334 133.938ZM2.46686 121.636C2.46894 122.188 2.02265 122.622 1.47003 122.605C0.917418 122.588 0.467745 122.128 0.46566 121.576L0.442417 115.425C0.440334 114.873 0.886627 114.44 1.43924 114.456C1.99186 114.473 2.44153 114.934 2.44362 115.485L2.46686 121.636ZM2.42038 109.335C2.42246 109.886 1.97617 110.32 1.42355 110.303C0.870935 110.287 0.421261 109.826 0.419176 109.274L0.395935 103.123C0.394327 102.698 0.659142 102.343 1.03371 102.21L1.03505 101.244L1.03574 100.744L4.16088 100.813C4.71302 100.825 5.16001 101.283 5.15924 101.835C5.15847 102.388 4.71025 102.825 4.1581 102.813L2.30802 102.772C2.36476 102.898 2.39658 103.038 2.39713 103.184L2.42038 109.335ZM2.37389 97.033C2.37598 97.5847 1.92968 98.0184 1.37707 98.0018C0.824451 97.9851 0.374779 97.5244 0.372694 96.9727L0.349451 90.8219C0.347366 90.2702 0.793661 89.8364 1.34628 89.8531C1.89889 89.8697 2.34857 90.3305 2.35065 90.8821L2.37389 97.033ZM2.32741 84.7313C2.32949 85.283 1.8832 85.7168 1.33058 85.7001C0.777967 85.6835 0.328295 85.2227 0.32621 84.671L0.302969 78.5202C0.300884 77.9685 0.747177 77.5348 1.29979 77.5514C1.85241 77.5681 2.30208 78.0288 2.30417 78.5805L2.32741 84.7313ZM2.28093 72.4297C2.28301 72.9814 1.83672 73.4151 1.2841 73.3985C0.731485 73.3818 0.281813 72.9211 0.279728 72.3694L0.256485 66.2186C0.2544 65.6669 0.700695 65.2331 1.25331 65.2498C1.80593 65.2664 2.2556 65.7272 2.25768 66.2789L2.28093 72.4297ZM2.23444 60.1281C2.23653 60.6797 1.79023 61.1135 1.23762 61.0968C0.685003 61.0802 0.235329 60.6195 0.233244 60.0678L0.210003 53.9169C0.207918 53.3652 0.654211 52.9315 1.20683 52.9481C1.75944 52.9648 2.20912 53.4255 2.2112 53.9772L2.23444 60.1281ZM2.18796 47.8264C2.19004 48.3781 1.74375 48.8118 1.19114 48.7952C0.638519 48.7785 0.188847 48.3178 0.186762 47.7661L0.163521 41.6153C0.161436 41.0636 0.607729 40.6298 1.16035 40.6465C1.71296 40.6631 2.16263 41.1239 2.16472 41.6756L2.18796 47.8264ZM2.14148 35.5248C2.14356 36.0765 1.69727 36.5102 1.14465 36.4935C0.592035 36.4769 0.142363 36.0162 0.140278 35.4645L0.117037 29.3136C0.114952 28.7619 0.561245 28.3282 1.11386 28.3449C1.66648 28.3615 2.11615 28.8222 2.11823 29.3739L2.14148 35.5248ZM2.09499 23.2231C2.09708 23.7748 1.65079 24.2086 1.09817 24.1919C0.545553 24.1753 0.0958805 23.7145 0.0937958 23.1628L0.0705547 17.012C0.06847 16.4603 0.514763 16.0266 1.06738 16.0432C1.61999 16.0599 2.06967 16.5206 2.07175 17.0723L2.09499 23.2231ZM2.04851 10.9215C2.0506 11.4732 1.6043 11.9069 1.05169 11.8903C0.499071 11.8736 0.0493965 11.4129 0.0473118 10.8612L0.0356922 7.78576L0.0320282 6.81641L1.00244 6.81652L3.88298 6.81684C4.43528 6.8169 4.89816 7.26439 4.91686 7.81634C4.93555 8.36829 4.50298 8.81568 3.95067 8.81562L2.04055 8.81541L2.04851 10.9215ZM11.0288 217.943C10.4765 217.943 10.0136 217.496 9.99485 216.944C9.97609 216.392 10.4086 215.944 10.9609 215.944H17.0732C17.6255 215.944 18.0884 216.392 18.1072 216.944C18.1259 217.496 17.6934 217.943 17.1411 217.943L11.0288 217.943ZM9.71174 8.81625C9.15944 8.81619 8.69655 8.3687 8.67786 7.81675C8.65917 7.2648 9.09174 6.81741 9.64404 6.81747L15.4051 6.8181C15.9574 6.81816 16.4203 7.26565 16.439 7.8176C16.4577 8.36955 16.0251 8.81695 15.4728 8.81689L9.71174 8.81625ZM23.2533 217.943C22.701 217.943 22.2381 217.496 22.2193 216.944C22.2006 216.392 22.6331 215.944 23.1854 215.944H26.2415L26.2585 216.444L26.2925 217.444L26.3095 217.943L23.2533 217.943ZM24.7638 7.11184C25.1675 7.50217 25.1889 8.13495 24.8116 8.5252L18.6629 14.8846C18.2855 15.2748 17.6524 15.2748 17.2486 14.8844C16.8448 14.4941 16.8234 13.8613 17.2007 13.4711L21.7001 8.81757L21.2339 8.81752C20.6816 8.81746 20.2187 8.36997 20.2 7.81802C20.1813 7.26607 20.6139 6.81867 21.1662 6.81873L21.6324 6.81878L16.8178 2.16425C16.414 1.77391 16.3926 1.14113 16.7699 0.75089C17.1472 0.360645 17.7804 0.360715 18.1842 0.751045L24.7638 7.11184ZM26.7414 103.023C27.1323 102.641 27.1332 102.008 26.7433 101.608L20.3898 95.1029C19.9999 94.7037 19.3669 94.6896 18.9759 95.0714C18.5849 95.4533 18.584 96.0864 18.9739 96.4856L23.6232 101.246L22.9117 101.23C22.3595 101.218 21.9113 101.656 21.9105 102.208C21.9098 102.76 22.3567 103.218 22.9089 103.23L23.6204 103.246L18.9582 107.799C18.5673 108.181 18.5664 108.814 18.9563 109.214C19.3462 109.613 19.9792 109.627 20.3701 109.245L26.7414 103.023ZM16.6586 103.091C17.2108 103.103 17.659 102.666 17.6598 102.113C17.6605 101.561 17.2135 101.103 16.6614 101.091L10.4111 100.952C9.85899 100.94 9.41076 101.378 9.41 101.93C9.40923 102.482 9.85621 102.94 10.4084 102.952L16.6586 103.091Z" fill="#BB6BD9"/>
</svg>
