<svg width="30" height="402" viewBox="0 0 30 402" fill="none" xmlns="http://www.w3.org/2000/svg">
<g clip-path="url(#clip0_877_1448)">
<path d="M1.59511 400.845L1.60387 401.345H1.0955L1.09533 400.836L1.59511 400.845ZM27.4334 7.27392C27.632 7.46941 27.6375 7.78613 27.4458 7.98133L24.3214 11.1623C24.1297 11.3575 23.8133 11.3573 23.6147 11.1618C23.4161 10.9663 23.4106 10.6496 23.6023 10.4544L26.3796 7.62686L23.5033 4.79516C23.3047 4.59967 23.2991 4.28295 23.4909 4.08775C23.6826 3.89254 23.999 3.89277 24.1976 4.08826L27.4334 7.27392ZM1.46474 7.60871L0.964955 7.59974L0.964792 7.10813L1.45599 7.10849L1.46474 7.60871ZM23.8923 8.12525C23.6163 8.12505 23.3887 7.90094 23.3839 7.62467C23.379 7.34841 23.5988 7.12462 23.8748 7.12482L23.8923 8.12525ZM17.4694 7.12016C17.7454 7.12036 17.9731 7.34448 17.9779 7.62074C17.9827 7.897 17.7629 8.12079 17.4869 8.12059L17.4694 7.12016ZM11.0816 8.11592C10.8056 8.11572 10.5779 7.8916 10.5731 7.61534C10.5683 7.33908 10.7881 7.11529 11.064 7.11549L11.0816 8.11592ZM4.65868 7.11082C4.93466 7.11103 5.16231 7.33514 5.16714 7.6114C5.17198 7.88766 4.95217 8.11145 4.67619 8.11125L4.65868 7.11082ZM1.96551 10.5967C1.96561 10.8729 1.74192 11.0928 1.4659 11.0879C1.18987 11.0829 0.966034 10.855 0.965942 10.5788L1.96551 10.5967ZM0.967918 16.5369C0.967826 16.2607 1.19152 16.0408 1.46754 16.0457C1.74356 16.0507 1.9674 16.2786 1.96749 16.5548L0.967918 16.5369ZM1.96947 22.513C1.96956 22.7892 1.74587 23.0091 1.46985 23.0041C1.19382 22.9992 0.969985 22.7713 0.969893 22.495L1.96947 22.513ZM0.971868 28.4532C0.971777 28.177 1.19547 27.957 1.47149 27.962C1.74751 27.9669 1.97135 28.1949 1.97144 28.4711L0.971868 28.4532ZM1.97342 34.4292C1.97351 34.7054 1.74982 34.9253 1.4738 34.9204C1.19777 34.9154 0.973935 34.6875 0.973844 34.4113L1.97342 34.4292ZM0.975819 40.3694C0.975728 40.0932 1.19942 39.8733 1.47544 39.8783C1.75146 39.8832 1.9753 40.1111 1.97539 40.3873L0.975819 40.3694ZM1.97737 46.3455C1.97746 46.6217 1.75377 46.8416 1.47775 46.8366C1.20172 46.8317 0.977886 46.6038 0.977794 46.3276L1.97737 46.3455ZM0.97977 52.2857C0.979678 52.0095 1.20337 51.7896 1.47939 51.7945C1.75541 51.7995 1.97925 52.0274 1.97934 52.3036L0.97977 52.2857ZM1.98132 58.2617C1.98141 58.5379 1.75772 58.7579 1.4817 58.7529C1.20567 58.748 0.981837 58.52 0.981745 58.2438L1.98132 58.2617ZM0.98372 64.2019C0.983629 63.9257 1.20732 63.7058 1.48334 63.7108C1.75937 63.7157 1.9832 63.9436 1.98329 64.2199L0.98372 64.2019ZM1.98527 70.178C1.98536 70.4542 1.76167 70.6741 1.48565 70.6692C1.20962 70.6642 0.985787 70.4363 0.985696 70.1601L1.98527 70.178ZM0.987671 76.1182C0.987579 75.842 1.21127 75.6221 1.48729 75.627C1.76332 75.632 1.98715 75.8599 1.98724 76.1361L0.987671 76.1182ZM1.98922 82.0942C1.98931 82.3705 1.76562 82.5904 1.4896 82.5854C1.21358 82.5805 0.989738 82.3525 0.989646 82.0763L1.98922 82.0942ZM0.991622 88.0345C0.99153 87.7582 1.21522 87.5383 1.49124 87.5433C1.76727 87.5482 1.9911 87.7762 1.99119 88.0524L0.991622 88.0345ZM1.99317 94.0105C1.99326 94.2867 1.76957 94.5066 1.49355 94.5017C1.21753 94.4967 0.993689 94.2688 0.993597 93.9926L1.99317 94.0105ZM0.995572 99.9507C0.995481 99.6745 1.21917 99.4546 1.49519 99.4595C1.77122 99.4645 1.99505 99.6924 1.99514 99.9686L0.995572 99.9507ZM1.99712 105.927C1.99721 106.203 1.77352 106.423 1.4975 106.418C1.22148 106.413 0.997639 106.185 0.997548 105.909L1.99712 105.927ZM0.999523 111.867C0.999431 111.591 1.22312 111.371 1.49914 111.376C1.77517 111.381 1.999 111.609 1.9991 111.885L0.999523 111.867ZM2.00107 117.843C2.00116 118.119 1.77747 118.339 1.50145 118.334C1.22543 118.329 1.00159 118.101 1.0015 117.825L2.00107 117.843ZM1.00347 123.783C1.00338 123.507 1.22707 123.287 1.50309 123.292C1.77912 123.297 2.00295 123.525 2.00305 123.801L1.00347 123.783ZM2.00502 129.759C2.00511 130.036 1.78143 130.256 1.5054 130.251C1.22938 130.246 1.00554 130.018 1.00545 129.741L2.00502 129.759ZM1.00742 135.7C1.00733 135.423 1.23102 135.203 1.50705 135.208C1.78307 135.213 2.0069 135.441 2.007 135.718L1.00742 135.7ZM2.00897 141.676C2.00906 141.952 1.78538 142.172 1.50935 142.167C1.23333 142.162 1.00949 141.934 1.0094 141.658L2.00897 141.676ZM1.01137 147.616C1.01128 147.34 1.23497 147.12 1.511 147.125C1.78702 147.13 2.01086 147.358 2.01095 147.634L1.01137 147.616ZM2.01292 153.592C2.01301 153.868 1.78933 154.088 1.5133 154.083C1.23728 154.078 1.01344 153.85 1.01335 153.574L2.01292 153.592ZM1.01532 159.532C1.01523 159.256 1.23892 159.036 1.51495 159.041C1.79097 159.046 2.01481 159.274 2.0149 159.55L1.01532 159.532ZM2.01687 165.508C2.01696 165.784 1.79328 166.004 1.51725 165.999C1.24123 165.994 1.01739 165.766 1.0173 165.49L2.01687 165.508ZM1.01928 171.448C1.01918 171.172 1.24287 170.952 1.5189 170.957C1.79492 170.962 2.01876 171.19 2.01885 171.466L1.01928 171.448ZM2.02082 177.424C2.02092 177.701 1.79723 177.921 1.5212 177.916C1.24518 177.911 1.02134 177.683 1.02125 177.407L2.02082 177.424ZM1.02323 183.365C1.02313 183.088 1.24682 182.869 1.52285 182.873C1.79887 182.878 2.02271 183.106 2.0228 183.383L1.02323 183.365ZM2.02477 189.341C2.02487 189.617 1.80118 189.837 1.52515 189.832C1.24913 189.827 1.02529 189.599 1.0252 189.323L2.02477 189.341ZM1.02718 195.281C1.02709 195.005 1.25077 194.785 1.5268 194.79C1.80282 194.795 2.02666 195.023 2.02675 195.299L1.02718 195.281ZM2.02872 201.257C2.02882 201.533 1.80513 201.753 1.52911 201.748C1.25308 201.743 1.02924 201.515 1.02915 201.239L2.02872 201.257ZM1.03113 207.197C1.03104 206.921 1.25473 206.701 1.53075 206.706C1.80677 206.711 2.03061 206.939 2.0307 207.215L1.03113 207.197ZM2.03268 213.173C2.03277 213.449 1.80908 213.669 1.53306 213.664C1.25703 213.659 1.03319 213.432 1.0331 213.155L2.03268 213.173ZM1.03508 219.113C1.03499 218.837 1.25868 218.617 1.5347 218.622C1.81072 218.627 2.03456 218.855 2.03465 219.131L1.03508 219.113ZM2.03663 225.089C2.03672 225.366 1.81303 225.586 1.53701 225.581C1.26098 225.576 1.03715 225.348 1.03706 225.072L2.03663 225.089ZM1.03903 231.03C1.03894 230.753 1.26263 230.534 1.53865 230.539C1.81467 230.543 2.03851 230.771 2.0386 231.048L1.03903 231.03ZM2.04058 237.006C2.04067 237.282 1.81698 237.502 1.54096 237.497C1.26493 237.492 1.0411 237.264 1.04101 236.988L2.04058 237.006ZM1.04298 242.946C1.04289 242.67 1.26658 242.45 1.5426 242.455C1.81862 242.46 2.04246 242.688 2.04255 242.964L1.04298 242.946ZM2.04453 248.922C2.04462 249.198 1.82093 249.418 1.54491 249.413C1.26888 249.408 1.04505 249.18 1.04496 248.904L2.04453 248.922ZM1.04693 254.862C1.04684 254.586 1.27053 254.366 1.54655 254.371C1.82258 254.376 2.04641 254.604 2.0465 254.88L1.04693 254.862ZM2.04848 260.838C2.04857 261.114 1.82488 261.334 1.54886 261.329C1.27284 261.324 1.049 261.097 1.04891 260.82L2.04848 260.838ZM1.05088 266.778C1.05079 266.502 1.27448 266.282 1.5505 266.287C1.82653 266.292 2.05036 266.52 2.05045 266.796L1.05088 266.778ZM2.05243 272.755C2.05252 273.031 1.82883 273.251 1.55281 273.246C1.27679 273.241 1.05295 273.013 1.05286 272.737L2.05243 272.755ZM1.05483 278.695C1.05474 278.418 1.27843 278.199 1.55445 278.204C1.83048 278.208 2.05431 278.436 2.0544 278.713L1.05483 278.695ZM2.05638 284.671C2.05647 284.947 1.83278 285.167 1.55676 285.162C1.28074 285.157 1.0569 284.929 1.05681 284.653L2.05638 284.671ZM1.05878 290.611C1.05869 290.335 1.28238 290.115 1.5584 290.12C1.83443 290.125 2.05826 290.353 2.05835 290.629L1.05878 290.611ZM2.06033 296.587C2.06042 296.863 1.83673 297.083 1.56071 297.078C1.28469 297.073 1.06085 296.845 1.06076 296.569L2.06033 296.587ZM1.06274 302.527C1.06264 302.251 1.28633 302.031 1.56235 302.036C1.83838 302.041 2.06221 302.269 2.06231 302.545L1.06274 302.527ZM2.06428 308.503C2.06437 308.779 1.84068 308.999 1.56466 308.994C1.28864 308.989 1.0648 308.761 1.06471 308.485L2.06428 308.503ZM1.06669 314.443C1.06659 314.167 1.29028 313.947 1.56631 313.952C1.84233 313.957 2.06616 314.185 2.06626 314.461L1.06669 314.443ZM2.06823 320.419C2.06832 320.696 1.84464 320.916 1.56861 320.911C1.29259 320.906 1.06875 320.678 1.06866 320.401L2.06823 320.419ZM1.07064 326.36C1.07054 326.083 1.29423 325.863 1.57026 325.868C1.84628 325.873 2.07011 326.101 2.07021 326.378L1.07064 326.36ZM2.07218 332.336C2.07227 332.612 1.84859 332.832 1.57256 332.827C1.29654 332.822 1.0727 332.594 1.07261 332.318L2.07218 332.336ZM1.07459 338.276C1.0745 338 1.29818 337.78 1.57421 337.785C1.85023 337.79 2.07407 338.018 2.07416 338.294L1.07459 338.276ZM2.07613 344.252C2.07622 344.528 1.85254 344.748 1.57651 344.743C1.30049 344.738 1.07665 344.51 1.07656 344.234L2.07613 344.252ZM1.07854 350.192C1.07845 349.916 1.30213 349.696 1.57816 349.701C1.85418 349.706 2.07802 349.934 2.07811 350.21L1.07854 350.192ZM2.08008 356.168C2.08017 356.444 1.85649 356.664 1.58046 356.659C1.30444 356.654 1.0806 356.426 1.08051 356.15L2.08008 356.168ZM1.08249 362.108C1.0824 361.832 1.30608 361.612 1.58211 361.617C1.85813 361.622 2.08197 361.85 2.08206 362.126L1.08249 362.108ZM2.08403 368.084C2.08413 368.361 1.86044 368.58 1.58441 368.576C1.30839 368.571 1.08456 368.343 1.08446 368.066L2.08403 368.084ZM1.08644 374.025C1.08635 373.748 1.31003 373.528 1.58606 373.533C1.86208 373.538 2.08592 373.766 2.08601 374.042L1.08644 374.025ZM2.08798 380.001C2.08808 380.277 1.86439 380.497 1.58837 380.492C1.31234 380.487 1.08851 380.259 1.08841 379.983L2.08798 380.001ZM1.09039 385.941C1.0903 385.665 1.31399 385.445 1.59001 385.45C1.86603 385.455 2.08987 385.682 2.08996 385.959L1.09039 385.941ZM2.09193 391.917C2.09203 392.193 1.86834 392.413 1.59232 392.408C1.31629 392.403 1.09246 392.175 1.09236 391.899L2.09193 391.917ZM1.09434 397.857C1.09425 397.581 1.31794 397.361 1.59396 397.366C1.86998 397.371 2.09382 397.599 2.09391 397.875L1.09434 397.857ZM5.09192 400.348C5.3679 400.348 5.59555 400.572 5.60039 400.848C5.60522 401.124 5.38542 401.348 5.10944 401.348L5.09192 400.348ZM12.1586 401.353C11.8827 401.353 11.655 401.129 11.6502 400.852C11.6453 400.576 11.8651 400.352 12.1411 400.353L12.1586 401.353ZM19.1851 400.358C19.4611 400.358 19.6888 400.582 19.6936 400.858C19.6984 401.135 19.4786 401.358 19.2027 401.358L19.1851 400.358ZM26.2524 401.363C25.9765 401.363 25.7488 401.139 25.744 400.863C25.7391 400.586 25.9589 400.363 26.2349 400.363L26.2524 401.363ZM27.095 8.12759L23.8923 8.12525L23.8748 7.12482L27.0775 7.12716L27.095 8.12759ZM17.4869 8.12059L11.0816 8.11592L11.064 7.11549L17.4694 7.12016L17.4869 8.12059ZM4.67619 8.11125L1.4735 8.10892L1.45599 7.10849L4.65868 7.11082L4.67619 8.11125ZM1.96453 7.61767L1.96551 10.5967L0.965942 10.5788L0.964955 7.59974L1.96453 7.61767ZM1.96749 16.5548L1.96947 22.513L0.969893 22.495L0.967918 16.5369L1.96749 16.5548ZM1.97144 28.4711L1.97342 34.4292L0.973844 34.4113L0.971868 28.4532L1.97144 28.4711ZM1.97539 40.3873L1.97737 46.3455L0.977794 46.3276L0.975819 40.3694L1.97539 40.3873ZM1.97934 52.3036L1.98132 58.2617L0.981745 58.2438L0.97977 52.2857L1.97934 52.3036ZM1.98329 64.2199L1.98527 70.178L0.985696 70.1601L0.98372 64.2019L1.98329 64.2199ZM1.98724 76.1361L1.98922 82.0942L0.989646 82.0763L0.987671 76.1182L1.98724 76.1361ZM1.99119 88.0524L1.99317 94.0105L0.993597 93.9926L0.991622 88.0345L1.99119 88.0524ZM1.99514 99.9686L1.99712 105.927L0.997548 105.909L0.995572 99.9507L1.99514 99.9686ZM1.9991 111.885L2.00107 117.843L1.0015 117.825L0.999523 111.867L1.9991 111.885ZM2.00305 123.801L2.00502 129.759L1.00545 129.741L1.00347 123.783L2.00305 123.801ZM2.007 135.718L2.00897 141.676L1.0094 141.658L1.00742 135.7L2.007 135.718ZM2.01095 147.634L2.01292 153.592L1.01335 153.574L1.01137 147.616L2.01095 147.634ZM2.0149 159.55L2.01687 165.508L1.0173 165.49L1.01532 159.532L2.0149 159.55ZM2.01885 171.466L2.02082 177.424L1.02125 177.407L1.01928 171.448L2.01885 171.466ZM2.0228 183.383L2.02477 189.341L1.0252 189.323L1.02323 183.365L2.0228 183.383ZM2.02675 195.299L2.02872 201.257L1.02915 201.239L1.02718 195.281L2.02675 195.299ZM2.0307 207.215L2.03268 213.173L1.0331 213.155L1.03113 207.197L2.0307 207.215ZM2.03465 219.131L2.03663 225.089L1.03706 225.072L1.03508 219.113L2.03465 219.131ZM2.0386 231.048L2.04058 237.006L1.04101 236.988L1.03903 231.03L2.0386 231.048ZM2.04255 242.964L2.04453 248.922L1.04496 248.904L1.04298 242.946L2.04255 242.964ZM2.0465 254.88L2.04848 260.838L1.04891 260.82L1.04693 254.862L2.0465 254.88ZM2.05045 266.796L2.05243 272.755L1.05286 272.737L1.05088 266.778L2.05045 266.796ZM2.0544 278.713L2.05638 284.671L1.05681 284.653L1.05483 278.695L2.0544 278.713ZM2.05835 290.629L2.06033 296.587L1.06076 296.569L1.05878 290.611L2.05835 290.629ZM2.06231 302.545L2.06428 308.503L1.06471 308.485L1.06274 302.527L2.06231 302.545ZM2.06626 314.461L2.06823 320.419L1.06866 320.401L1.06669 314.443L2.06626 314.461ZM2.07021 326.378L2.07218 332.336L1.07261 332.318L1.07064 326.36L2.07021 326.378ZM2.07416 338.294L2.07613 344.252L1.07656 344.234L1.07459 338.276L2.07416 338.294ZM2.07811 350.21L2.08008 356.168L1.08051 356.15L1.07854 350.192L2.07811 350.21ZM2.08206 362.126L2.08403 368.084L1.08446 368.066L1.08249 362.108L2.08206 362.126ZM2.08601 374.042L2.08798 380.001L1.08841 379.983L1.08644 374.025L2.08601 374.042ZM2.08996 385.959L2.09193 391.917L1.09236 391.899L1.09039 385.941L2.08996 385.959ZM2.09391 397.875L2.0949 400.854L1.09533 400.836L1.09434 397.857L2.09391 397.875ZM1.59511 400.845C1.58635 400.345 1.58636 400.345 1.58637 400.345C1.58635 400.345 1.58638 400.345 1.58637 400.345C1.58703 400.345 1.58904 400.345 1.59037 400.345C1.59303 400.345 1.59703 400.345 1.60233 400.345C1.61293 400.345 1.62874 400.345 1.64964 400.345C1.69142 400.345 1.75349 400.345 1.83462 400.345C1.99689 400.345 2.23544 400.345 2.54053 400.346C3.15072 400.346 4.02711 400.347 5.09192 400.348L5.10944 401.348C4.04463 401.347 3.16824 401.347 2.55805 401.346C2.25296 401.346 2.01441 401.346 1.85214 401.346C1.77101 401.346 1.70894 401.345 1.66715 401.345C1.64626 401.345 1.63044 401.345 1.61984 401.345C1.61455 401.345 1.61055 401.345 1.60788 401.345C1.60655 401.345 1.60554 401.345 1.60488 401.345C1.60455 401.345 1.60504 401.345 1.60488 401.345C1.60487 401.345 1.60387 401.345 1.59511 400.845ZM12.1411 400.353C14.4665 400.354 16.9132 400.356 19.1851 400.358L19.2027 401.358C16.9307 401.356 14.484 401.355 12.1586 401.353L12.1411 400.353ZM26.2349 400.363C27.4158 400.364 28.2078 400.364 28.4299 400.364C28.4576 400.364 28.4765 400.364 28.4861 400.364C28.4884 400.364 28.4948 400.364 28.4978 400.365C29.0017 400.856 28.5234 401.365 28.514 401.365C28.5133 401.365 28.5123 401.365 28.512 401.365C28.5116 401.365 28.5122 401.365 28.512 401.365C28.5116 401.365 28.5102 401.365 28.5096 401.365C28.5084 401.365 28.5066 401.365 28.5043 401.365C28.4857 401.365 28.4286 401.365 28.3304 401.365C28.1338 401.365 27.7721 401.364 27.2227 401.364L27.2051 400.364C27.7546 400.364 28.1163 400.364 28.3128 400.364C28.4111 400.364 28.4676 400.364 28.4861 400.364C28.4884 400.364 28.4906 400.364 28.4916 400.364C28.4922 400.364 28.4925 400.364 28.4926 400.364C28.4927 400.364 28.4929 400.364 28.4926 400.364C28.4924 400.364 28.491 400.364 28.4903 400.364C28.481 400.365 28.0027 400.873 28.5066 401.365C28.5093 401.365 28.5117 401.365 28.5043 401.365C28.4948 401.365 28.4751 401.365 28.4473 401.365C28.2253 401.365 27.4333 401.364 26.2524 401.363L26.2349 400.363ZM1.59511 400.845L1.61263 401.846L0.595878 401.845L0.595541 400.827L1.59511 400.845ZM27.7806 6.92048C28.1777 7.31145 28.1888 7.94489 27.8053 8.3353L21.5565 14.6973C21.1731 15.0877 20.5403 15.0873 20.1431 14.6963C19.746 14.3053 19.7349 13.6719 20.1184 13.2815L25.6729 7.62634L19.9203 1.96294C19.5231 1.57196 19.512 0.938527 19.8955 0.548119C20.2789 0.157712 20.9117 0.158173 21.3089 0.549149L27.7806 6.92048ZM1.46474 7.60871L0.46517 7.59078L0.464844 6.60756L1.44723 6.60828L1.46474 7.60871ZM23.9011 8.62547C23.3491 8.62507 22.8938 8.17683 22.8841 7.62431C22.8745 7.07179 23.3141 6.62421 23.8661 6.62461L23.9011 8.62547ZM17.4607 6.61994C18.0126 6.62035 18.4679 7.06858 18.4776 7.6211C18.4873 8.17362 18.0477 8.6212 17.4957 8.6208L17.4607 6.61994ZM11.0903 8.61614C10.5383 8.61573 10.0831 8.1675 10.0734 7.61498C10.0637 7.06246 10.5033 6.61487 11.0553 6.61528L11.0903 8.61614ZM4.64992 6.61061C5.20188 6.61101 5.65718 7.05925 5.66685 7.61177C5.67652 8.16429 5.23691 8.61187 4.68494 8.61147L4.64992 6.61061ZM2.4653 10.6057C2.46548 11.1581 2.01811 11.5979 1.46606 11.588C0.914012 11.5781 0.466341 11.1223 0.466157 10.5698L2.4653 10.6057ZM0.468133 16.528C0.46795 15.9755 0.915324 15.5357 1.46737 15.5456C2.01942 15.5555 2.46709 16.0114 2.46727 16.5638L0.468133 16.528ZM2.46925 22.5219C2.46943 23.0744 2.02206 23.5142 1.47001 23.5043C0.917962 23.4944 0.470291 23.0385 0.470108 22.4861L2.46925 22.5219ZM0.472083 28.4442C0.4719 27.8918 0.919275 27.452 1.47132 27.4619C2.02337 27.4718 2.47104 27.9276 2.47123 28.4801L0.472083 28.4442ZM2.4732 34.4382C2.47338 34.9906 2.02601 35.4304 1.47396 35.4205C0.921913 35.4106 0.474242 34.9548 0.474059 34.4023L2.4732 34.4382ZM0.476034 40.3605C0.475851 39.808 0.923225 39.3682 1.47527 39.3781C2.02732 39.388 2.47499 39.8439 2.47518 40.3963L0.476034 40.3605ZM2.47715 46.3544C2.47733 46.9069 2.02996 47.3467 1.47791 47.3368C0.925864 47.3269 0.478193 46.871 0.478009 46.3186L2.47715 46.3544ZM0.479985 52.2767C0.479802 51.7243 0.927176 51.2845 1.47923 51.2944C2.03127 51.3043 2.47894 51.7601 2.47913 52.3126L0.479985 52.2767ZM2.4811 58.2707C2.48129 58.8231 2.03391 59.2629 1.48186 59.253C0.929814 59.2431 0.482143 58.7873 0.48196 58.2348L2.4811 58.2707ZM0.483935 64.193C0.483752 63.6405 0.931126 63.2007 1.48318 63.2106C2.03522 63.2205 2.48289 63.6764 2.48308 64.2288L0.483935 64.193ZM2.48505 70.1869C2.48524 70.7394 2.03786 71.1792 1.48581 71.1693C0.933765 71.1594 0.486094 70.7035 0.485911 70.1511L2.48505 70.1869ZM0.487886 76.1092C0.487703 75.5568 0.935077 75.117 1.48713 75.1269C2.03917 75.1368 2.48684 75.5926 2.48703 76.1451L0.487886 76.1092ZM2.489 82.1032C2.48919 82.6556 2.04181 83.0955 1.48976 83.0856C0.937716 83.0757 0.490044 82.6198 0.489861 82.0674L2.489 82.1032ZM0.491837 88.0255C0.491653 87.4731 0.939028 87.0332 1.49108 87.0431C2.04312 87.053 2.4908 87.5089 2.49098 88.0613L0.491837 88.0255ZM2.49295 94.0195C2.49314 94.5719 2.04576 95.0117 1.49372 95.0018C0.941666 94.9919 0.493995 94.5361 0.493812 93.9836L2.49295 94.0195ZM0.495787 99.9418C0.495604 99.3893 0.942978 98.9495 1.49503 98.9594C2.04708 98.9693 2.49475 99.4252 2.49493 99.9776L0.495787 99.9418ZM2.4969 105.936C2.49709 106.488 2.04971 106.928 1.49767 106.918C0.945617 106.908 0.497946 106.452 0.497763 105.9L2.4969 105.936ZM0.499738 111.858C0.499555 111.306 0.946929 110.866 1.49898 110.876C2.05103 110.886 2.4987 111.342 2.49888 111.894L0.499738 111.858ZM2.50086 117.852C2.50104 118.405 2.05366 118.844 1.50162 118.834C0.949568 118.825 0.501896 118.369 0.501713 117.816L2.50086 117.852ZM0.503689 123.774C0.503505 123.222 0.95088 122.782 1.50293 122.792C2.05498 122.802 2.50265 123.258 2.50283 123.81L0.503689 123.774ZM2.50481 129.768C2.50499 130.321 2.05761 130.761 1.50557 130.751C0.953518 130.741 0.505847 130.285 0.505664 129.732L2.50481 129.768ZM0.507639 135.691C0.507456 135.138 0.95483 134.698 1.50688 134.708C2.05893 134.718 2.5066 135.174 2.50678 135.726L0.507639 135.691ZM2.50876 141.685C2.50894 142.237 2.06157 142.677 1.50952 142.667C0.957469 142.657 0.509798 142.201 0.509614 141.649L2.50876 141.685ZM0.51159 147.607C0.511407 147.054 0.958781 146.615 1.51083 146.625C2.06288 146.634 2.51055 147.09 2.51073 147.643L0.51159 147.607ZM2.51271 153.601C2.51289 154.153 2.06552 154.593 1.51347 154.583C0.96142 154.573 0.513748 154.117 0.513565 153.565L2.51271 153.601ZM0.51554 159.523C0.515357 158.971 0.962732 158.531 1.51478 158.541C2.06683 158.551 2.5145 159.007 2.51468 159.559L0.51554 159.523ZM2.51666 165.517C2.51684 166.07 2.06947 166.509 1.51742 166.499C0.96537 166.49 0.517699 166.034 0.517516 165.481L2.51666 165.517ZM0.519491 171.439C0.519308 170.887 0.966682 170.447 1.51873 170.457C2.07078 170.467 2.51845 170.923 2.51863 171.475L0.519491 171.439ZM2.52061 177.433C2.52079 177.986 2.07342 178.426 1.52137 178.416C0.969321 178.406 0.52165 177.95 0.521466 177.398L2.52061 177.433ZM0.523442 183.356C0.523259 182.803 0.970633 182.363 1.52268 182.373C2.07473 182.383 2.5224 182.839 2.52258 183.392L0.523442 183.356ZM2.52456 189.35C2.52474 189.902 2.07737 190.342 1.52532 190.332C0.973271 190.322 0.5256 189.866 0.525417 189.314L2.52456 189.35ZM0.527392 195.272C0.527209 194.72 0.974584 194.28 1.52663 194.29C2.07868 194.299 2.52635 194.755 2.52653 195.308L0.527392 195.272ZM2.52851 201.266C2.52869 201.818 2.08132 202.258 1.52927 202.248C0.977222 202.238 0.529551 201.782 0.529368 201.23L2.52851 201.266ZM0.531343 207.188C0.53116 206.636 0.978534 206.196 1.53058 206.206C2.08263 206.216 2.5303 206.672 2.53049 207.224L0.531343 207.188ZM2.53246 213.182C2.53264 213.735 2.08527 214.174 1.53322 214.165C0.981173 214.155 0.533501 213.699 0.533318 213.146L2.53246 213.182ZM0.535294 219.104C0.53511 218.552 0.982485 218.112 1.53453 218.122C2.08658 218.132 2.53425 218.588 2.53444 219.14L0.535294 219.104ZM2.53641 225.098C2.53659 225.651 2.08922 226.091 1.53717 226.081C0.985123 226.071 0.537452 225.615 0.537269 225.063L2.53641 225.098ZM0.539244 231.021C0.539061 230.468 0.986435 230.028 1.53848 230.038C2.09053 230.048 2.5382 230.504 2.53839 231.057L0.539244 231.021ZM2.54036 237.015C2.54054 237.567 2.09317 238.007 1.54112 237.997C0.989074 237.987 0.541403 237.531 0.54122 236.979L2.54036 237.015ZM0.543195 242.937C0.543012 242.385 0.990386 241.945 1.54244 241.955C2.09448 241.965 2.54215 242.42 2.54234 242.973L0.543195 242.937ZM2.54431 248.931C2.5445 249.483 2.09712 249.923 1.54507 249.913C0.993025 249.903 0.545353 249.448 0.54517 248.895L2.54431 248.931ZM0.547146 254.853C0.546962 254.301 0.994337 253.861 1.54639 253.871C2.09843 253.881 2.5461 254.337 2.54629 254.889L0.547146 254.853ZM2.54826 260.847C2.54845 261.4 2.10107 261.839 1.54902 261.83C0.996975 261.82 0.549304 261.364 0.549121 260.811L2.54826 260.847ZM0.551096 266.77C0.550913 266.217 0.998287 265.777 1.55034 265.787C2.10238 265.797 2.55006 266.253 2.55024 266.805L0.551096 266.77ZM2.55221 272.763C2.5524 273.316 2.10502 273.756 1.55298 273.746C1.00093 273.736 0.553255 273.28 0.553072 272.728L2.55221 272.763ZM0.555047 278.686C0.554864 278.133 1.00224 277.693 1.55429 277.703C2.10633 277.713 2.55401 278.169 2.55419 278.722L0.555047 278.686ZM2.55616 284.68C2.55635 285.232 2.10897 285.672 1.55693 285.662C1.00488 285.652 0.557205 285.196 0.557022 284.644L2.55616 284.68ZM0.558997 290.602C0.558814 290.05 1.00619 289.61 1.55824 289.62C2.11029 289.63 2.55796 290.085 2.55814 290.638L0.558997 290.602ZM2.56011 296.596C2.5603 297.148 2.11292 297.588 1.56088 297.578C1.00883 297.568 0.561156 297.113 0.560973 296.56L2.56011 296.596ZM0.562948 302.518C0.562765 301.966 1.01014 301.526 1.56219 301.536C2.11424 301.546 2.56191 302.002 2.56209 302.554L0.562948 302.518ZM2.56407 308.512C2.56425 309.065 2.11687 309.504 1.56483 309.495C1.01278 309.485 0.565107 309.029 0.564923 308.476L2.56407 308.512ZM0.566899 314.434C0.566716 313.882 1.01409 313.442 1.56614 313.452C2.11819 313.462 2.56586 313.918 2.56604 314.47L0.566899 314.434ZM2.56802 320.428C2.5682 320.981 2.12083 321.421 1.56878 321.411C1.01673 321.401 0.569057 320.945 0.568874 320.393L2.56802 320.428ZM0.570849 326.351C0.570666 325.798 1.01804 325.358 1.57009 325.368C2.12214 325.378 2.56981 325.834 2.56999 326.387L0.570849 326.351ZM2.57197 332.345C2.57215 332.897 2.12478 333.337 1.57273 333.327C1.02068 333.317 0.573008 332.861 0.572825 332.309L2.57197 332.345ZM0.5748 338.267C0.574617 337.714 1.02199 337.275 1.57404 337.285C2.12609 337.294 2.57376 337.75 2.57394 338.303L0.5748 338.267ZM2.57592 344.261C2.5761 344.813 2.12873 345.253 1.57668 345.243C1.02463 345.233 0.576958 344.777 0.576775 344.225L2.57592 344.261ZM0.578751 350.183C0.578567 349.631 1.02594 349.191 1.57799 349.201C2.13004 349.211 2.57771 349.667 2.57789 350.219L0.578751 350.183ZM2.57987 356.177C2.58005 356.73 2.13268 357.169 1.58063 357.159C1.02858 357.15 0.580909 356.694 0.580726 356.141L2.57987 356.177ZM0.582701 362.099C0.582518 361.547 1.02989 361.107 1.58194 361.117C2.13399 361.127 2.58166 361.583 2.58184 362.135L0.582701 362.099ZM2.58382 368.093C2.584 368.646 2.13663 369.086 1.58458 369.076C1.03253 369.066 0.58486 368.61 0.584677 368.057L2.58382 368.093ZM0.586652 374.016C0.586469 373.463 1.03384 373.023 1.58589 373.033C2.13794 373.043 2.58561 373.499 2.58579 374.051L0.586652 374.016ZM2.58777 380.01C2.58795 380.562 2.14058 381.002 1.58853 380.992C1.03648 380.982 0.58881 380.526 0.588627 379.974L2.58777 380.01ZM0.590603 385.932C0.590419 385.379 1.0378 384.94 1.58984 384.949C2.14189 384.959 2.58956 385.415 2.58974 385.968L0.590603 385.932ZM2.59172 391.926C2.5919 392.478 2.14453 392.918 1.59248 392.908C1.04043 392.898 0.592761 392.442 0.592578 391.89L2.59172 391.926ZM0.594553 397.848C0.59437 397.296 1.04175 396.856 1.59379 396.866C2.14584 396.876 2.59351 397.331 2.5937 397.884L0.594553 397.848ZM5.08316 399.847C5.63512 399.848 6.09042 400.296 6.10009 400.848C6.10977 401.401 5.67016 401.849 5.1182 401.848L5.08316 399.847ZM12.1674 401.853C11.6154 401.853 11.1601 401.405 11.1505 400.852C11.1408 400.3 11.5804 399.852 12.1324 399.852L12.1674 401.853ZM19.1764 399.857C19.7283 399.858 20.1836 400.306 20.1933 400.859C20.203 401.411 19.7634 401.859 19.2114 401.858L19.1764 399.857ZM26.2612 401.863C25.7092 401.863 25.2539 401.415 25.2443 400.862C25.2346 400.31 25.6742 399.862 26.2262 399.863L26.2612 401.863ZM27.1038 8.6278L23.9011 8.62547L23.8661 6.62461L27.0687 6.62694L27.1038 8.6278ZM17.4957 8.6208L11.0903 8.61614L11.0553 6.61528L17.4607 6.61994L17.4957 8.6208ZM4.68494 8.61147L1.48225 8.60914L1.44723 6.60828L4.64992 6.61061L4.68494 8.61147ZM2.46431 7.62663L2.4653 10.6057L0.466157 10.5698L0.46517 7.59078L2.46431 7.62663ZM2.46727 16.5638L2.46925 22.5219L0.470108 22.4861L0.468133 16.528L2.46727 16.5638ZM2.47123 28.4801L2.4732 34.4382L0.474059 34.4023L0.472083 28.4442L2.47123 28.4801ZM2.47518 40.3963L2.47715 46.3544L0.478009 46.3186L0.476034 40.3605L2.47518 40.3963ZM2.47913 52.3126L2.4811 58.2707L0.48196 58.2348L0.479985 52.2767L2.47913 52.3126ZM2.48308 64.2288L2.48505 70.1869L0.485911 70.1511L0.483935 64.193L2.48308 64.2288ZM2.48703 76.1451L2.489 82.1032L0.489861 82.0674L0.487886 76.1092L2.48703 76.1451ZM2.49098 88.0613L2.49295 94.0195L0.493812 93.9836L0.491837 88.0255L2.49098 88.0613ZM2.49493 99.9776L2.4969 105.936L0.497763 105.9L0.495787 99.9418L2.49493 99.9776ZM2.49888 111.894L2.50086 117.852L0.501713 117.816L0.499738 111.858L2.49888 111.894ZM2.50283 123.81L2.50481 129.768L0.505664 129.732L0.503689 123.774L2.50283 123.81ZM2.50678 135.726L2.50876 141.685L0.509614 141.649L0.507639 135.691L2.50678 135.726ZM2.51073 147.643L2.51271 153.601L0.513565 153.565L0.51159 147.607L2.51073 147.643ZM2.51468 159.559L2.51666 165.517L0.517516 165.481L0.51554 159.523L2.51468 159.559ZM2.51863 171.475L2.52061 177.433L0.521466 177.398L0.519491 171.439L2.51863 171.475ZM2.52258 183.392L2.52456 189.35L0.525417 189.314L0.523442 183.356L2.52258 183.392ZM2.52653 195.308L2.52851 201.266L0.529368 201.23L0.527392 195.272L2.52653 195.308ZM2.53049 207.224L2.53246 213.182L0.533318 213.146L0.531343 207.188L2.53049 207.224ZM2.53444 219.14L2.53641 225.098L0.537269 225.063L0.535294 219.104L2.53444 219.14ZM2.53839 231.057L2.54036 237.015L0.54122 236.979L0.539244 231.021L2.53839 231.057ZM2.54234 242.973L2.54431 248.931L0.54517 248.895L0.543195 242.937L2.54234 242.973ZM2.54629 254.889L2.54826 260.847L0.549121 260.811L0.547146 254.853L2.54629 254.889ZM2.55024 266.805L2.55221 272.763L0.553072 272.728L0.551096 266.77L2.55024 266.805ZM2.55419 278.722L2.55616 284.68L0.557022 284.644L0.555047 278.686L2.55419 278.722ZM2.55814 290.638L2.56011 296.596L0.560973 296.56L0.558997 290.602L2.55814 290.638ZM2.56209 302.554L2.56407 308.512L0.564923 308.476L0.562948 302.518L2.56209 302.554ZM2.56604 314.47L2.56802 320.428L0.568874 320.393L0.566899 314.434L2.56604 314.47ZM2.56999 326.387L2.57197 332.345L0.572825 332.309L0.570849 326.351L2.56999 326.387ZM2.57394 338.303L2.57592 344.261L0.576775 344.225L0.5748 338.267L2.57394 338.303ZM2.57789 350.219L2.57987 356.177L0.580726 356.141L0.578751 350.183L2.57789 350.219ZM2.58184 362.135L2.58382 368.093L0.584677 368.057L0.582701 362.099L2.58184 362.135ZM2.58579 374.051L2.58777 380.01L0.588627 379.974L0.586652 374.016L2.58579 374.051ZM2.58974 385.968L2.59172 391.926L0.592578 391.89L0.590603 385.932L2.58974 385.968ZM2.5937 397.884L2.59468 400.863L0.595541 400.827L0.594553 397.848L2.5937 397.884ZM1.59511 400.845C1.57759 399.845 1.5776 399.845 1.57761 399.845C1.57759 399.845 1.57762 399.845 1.57761 399.845C1.57827 399.845 1.58028 399.845 1.58161 399.845C1.58428 399.845 1.58826 399.845 1.59357 399.845C1.60417 399.845 1.61998 399.845 1.64088 399.845C1.68266 399.845 1.74473 399.845 1.82586 399.845C1.98813 399.845 2.22668 399.845 2.53177 399.845C3.14196 399.846 4.01835 399.847 5.08316 399.847L5.1182 401.848C4.05339 401.847 3.177 401.847 2.56681 401.846C2.26172 401.846 2.02317 401.846 1.8609 401.846C1.77977 401.846 1.7177 401.846 1.67591 401.846C1.65502 401.846 1.6392 401.846 1.6286 401.846C1.62331 401.846 1.6193 401.846 1.61664 401.846C1.61531 401.846 1.61431 401.846 1.61364 401.846C1.61326 401.846 1.61386 401.846 1.61364 401.846C1.61363 401.846 1.61263 401.846 1.59511 400.845ZM12.1324 399.852C14.4578 399.854 16.9045 399.856 19.1764 399.857L19.2114 401.858C16.9395 401.857 14.4928 401.855 12.1674 401.853L12.1324 399.852ZM26.2262 399.863C27.407 399.863 28.199 399.864 28.4211 399.864C28.4489 399.864 28.4678 399.864 28.4775 399.864C28.4799 399.864 28.4818 399.864 28.4832 399.864C28.4838 399.864 28.4844 399.864 28.485 399.864C28.4846 399.864 28.4852 399.864 28.485 399.864C28.4852 399.864 28.4868 399.864 28.4872 399.864C28.4879 399.864 28.4909 399.864 28.4933 399.864C29.5012 400.848 28.5445 401.865 28.5259 401.865C28.5245 401.865 28.5225 401.865 28.5219 401.865C28.5212 401.865 28.5205 401.865 28.5204 401.865C28.5198 401.865 28.5192 401.865 28.5186 401.865C28.5174 401.865 28.5155 401.865 28.5132 401.865C28.4945 401.865 28.4374 401.865 28.3392 401.865C28.1426 401.865 27.7809 401.865 27.2314 401.864L27.1964 399.863C27.7458 399.864 28.1075 399.864 28.304 399.864C28.4024 399.864 28.4591 399.864 28.4775 399.864C28.4799 399.864 28.4818 399.864 28.4832 399.864C28.4831 399.864 28.4835 399.864 28.4832 399.864C28.4827 399.864 28.4789 399.864 28.4775 399.864C28.4589 399.865 27.5032 400.881 28.5111 401.865C28.5166 401.865 28.521 401.865 28.5111 401.865C28.5016 401.865 28.4838 401.865 28.456 401.865C28.234 401.865 27.4421 401.864 26.2612 401.863L26.2262 399.863Z" fill="#749CC7"/>
</g>
<defs>
<clipPath id="clip0_877_1448">
<rect width="29" height="402" fill="white" transform="translate(0.0351562)"/>
</clipPath>
</defs>
</svg>
