<svg width="29" height="402" viewBox="0 0 29 402" fill="none" xmlns="http://www.w3.org/2000/svg">
<path d="M1.55999 400.845L1.56875 401.345L1.06038 401.345L1.06021 400.836L1.55999 400.845ZM27.3983 7.274C27.5969 7.46949 27.6024 7.78621 27.4107 7.98141L24.2863 11.1624C24.0946 11.3576 23.7782 11.3574 23.5796 11.1619C23.381 10.9664 23.3755 10.6497 23.5672 10.4545L26.3445 7.62694L23.4682 4.79524C23.2696 4.59975 23.264 4.28303 23.4558 4.08783C23.6475 3.89262 23.9639 3.89285 24.1625 4.08834L27.3983 7.274ZM1.42962 7.60879L0.929837 7.59982L0.929674 7.10821L1.42087 7.10857L1.42962 7.60879ZM23.8572 8.12533C23.5812 8.12513 23.3536 7.90102 23.3488 7.62475C23.3439 7.34849 23.5637 7.1247 23.8397 7.1249L23.8572 8.12533ZM17.4343 7.12024C17.7103 7.12044 17.938 7.34456 17.9428 7.62082C17.9476 7.89708 17.7278 8.12087 17.4518 8.12067L17.4343 7.12024ZM11.0465 8.116C10.7705 8.1158 10.5428 7.89168 10.538 7.61542C10.5332 7.33916 10.753 7.11537 11.0289 7.11557L11.0465 8.116ZM4.62356 7.1109C4.89954 7.11111 5.12719 7.33522 5.13202 7.61148C5.13686 7.88774 4.91705 8.11153 4.64107 8.11133L4.62356 7.1109ZM1.93039 10.5968C1.93049 10.873 1.7068 11.0929 1.43078 11.088C1.15475 11.083 0.930916 10.8551 0.930824 10.5789L1.93039 10.5968ZM0.9328 16.537C0.932708 16.2608 1.1564 16.0409 1.43242 16.0458C1.70844 16.0508 1.93228 16.2787 1.93237 16.5549L0.9328 16.537ZM1.93435 22.5131C1.93444 22.7893 1.71075 23.0092 1.43473 23.0042C1.1587 22.9993 0.934867 22.7714 0.934775 22.4951L1.93435 22.5131ZM0.93675 28.4533C0.936659 28.1771 1.16035 27.9571 1.43637 27.9621C1.71239 27.967 1.93623 28.195 1.93632 28.4712L0.93675 28.4533ZM1.9383 34.4293C1.93839 34.7055 1.7147 34.9254 1.43868 34.9205C1.16265 34.9155 0.938817 34.6876 0.938726 34.4114L1.9383 34.4293ZM0.940701 40.3695C0.94061 40.0933 1.1643 39.8734 1.44032 39.8784C1.71634 39.8833 1.94018 40.1112 1.94027 40.3874L0.940701 40.3695ZM1.94225 46.3456C1.94234 46.6218 1.71865 46.8417 1.44263 46.8367C1.1666 46.8318 0.942768 46.6039 0.942676 46.3277L1.94225 46.3456ZM0.944652 52.2858C0.94456 52.0096 1.16825 51.7897 1.44427 51.7946C1.72029 51.7996 1.94413 52.0275 1.94422 52.3037L0.944652 52.2858ZM1.9462 58.2618C1.94629 58.538 1.7226 58.758 1.44658 58.753C1.17055 58.7481 0.946719 58.5201 0.946627 58.2439L1.9462 58.2618ZM0.948602 64.202C0.948511 63.9258 1.1722 63.7059 1.44822 63.7109C1.72425 63.7158 1.94808 63.9437 1.94817 64.22L0.948602 64.202ZM1.95015 70.1781C1.95024 70.4543 1.72655 70.6742 1.45053 70.6693C1.1745 70.6643 0.950669 70.4364 0.950578 70.1602L1.95015 70.1781ZM0.952553 76.1183C0.952461 75.8421 1.17615 75.6222 1.45217 75.6271C1.7282 75.6321 1.95203 75.86 1.95212 76.1362L0.952553 76.1183ZM1.9541 82.0943C1.95419 82.3706 1.7305 82.5905 1.45448 82.5855C1.17846 82.5806 0.95462 82.3526 0.954528 82.0764L1.9541 82.0943ZM0.956504 88.0346C0.956412 87.7583 1.1801 87.5384 1.45612 87.5434C1.73215 87.5483 1.95598 87.7763 1.95607 88.0525L0.956504 88.0346ZM1.95805 94.0106C1.95814 94.2868 1.73445 94.5067 1.45843 94.5018C1.18241 94.4968 0.958571 94.2689 0.958479 93.9927L1.95805 94.0106ZM0.960454 99.9508C0.960363 99.6746 1.18405 99.4547 1.46007 99.4596C1.7361 99.4646 1.95993 99.6925 1.96002 99.9687L0.960454 99.9508ZM1.962 105.927C1.96209 106.203 1.7384 106.423 1.46238 106.418C1.18636 106.413 0.962521 106.185 0.96243 105.909L1.962 105.927ZM0.964405 111.867C0.964313 111.591 1.188 111.371 1.46402 111.376C1.74005 111.381 1.96388 111.609 1.96398 111.885L0.964405 111.867ZM1.96595 117.843C1.96604 118.119 1.74235 118.339 1.46633 118.334C1.19031 118.329 0.966472 118.101 0.96638 117.825L1.96595 117.843ZM0.968356 123.783C0.968264 123.507 1.19195 123.287 1.46797 123.292C1.744 123.297 1.96783 123.525 1.96793 123.801L0.968356 123.783ZM1.9699 129.759C1.96999 130.036 1.74631 130.256 1.47028 130.251C1.19426 130.246 0.970422 130.018 0.970331 129.741L1.9699 129.759ZM0.972306 135.7C0.972215 135.423 1.1959 135.203 1.47193 135.208C1.74795 135.213 1.97178 135.441 1.97188 135.718L0.972306 135.7ZM1.97385 141.676C1.97394 141.952 1.75026 142.172 1.47423 142.167C1.19821 142.162 0.974373 141.934 0.974282 141.658L1.97385 141.676ZM0.976257 147.616C0.976165 147.34 1.19985 147.12 1.47588 147.125C1.7519 147.13 1.97574 147.358 1.97583 147.634L0.976257 147.616ZM1.9778 153.592C1.97789 153.868 1.75421 154.088 1.47818 154.083C1.20216 154.078 0.978324 153.85 0.978232 153.574L1.9778 153.592ZM0.980207 159.532C0.980116 159.256 1.2038 159.036 1.47983 159.041C1.75585 159.046 1.97969 159.274 1.97978 159.55L0.980207 159.532ZM1.98175 165.508C1.98184 165.784 1.75816 166.004 1.48213 165.999C1.20611 165.994 0.982274 165.766 0.982183 165.49L1.98175 165.508ZM0.984158 171.448C0.984067 171.172 1.20775 170.952 1.48378 170.957C1.7598 170.962 1.98364 171.19 1.98373 171.466L0.984158 171.448ZM1.9857 177.424C1.9858 177.701 1.76211 177.921 1.48608 177.916C1.21006 177.911 0.986225 177.683 0.986133 177.407L1.9857 177.424ZM0.988109 183.365C0.988017 183.088 1.2117 182.869 1.48773 182.873C1.76375 182.878 1.98759 183.106 1.98768 183.383L0.988109 183.365ZM1.98965 189.341C1.98975 189.617 1.76606 189.837 1.49003 189.832C1.21401 189.827 0.990176 189.599 0.990084 189.323L1.98965 189.341ZM0.992059 195.281C0.991968 195.005 1.21565 194.785 1.49168 194.79C1.7677 194.795 1.99154 195.023 1.99163 195.299L0.992059 195.281ZM1.9936 201.257C1.9937 201.533 1.77001 201.753 1.49399 201.748C1.21796 201.743 0.994126 201.515 0.994035 201.239L1.9936 201.257ZM0.99601 207.197C0.995918 206.921 1.21961 206.701 1.49563 206.706C1.77165 206.711 1.99549 206.939 1.99558 207.215L0.99601 207.197ZM1.99756 213.173C1.99765 213.449 1.77396 213.669 1.49794 213.664C1.22191 213.659 0.998077 213.432 0.997985 213.155L1.99756 213.173ZM0.999961 219.113C0.999869 218.837 1.22356 218.617 1.49958 218.622C1.7756 218.627 1.99944 218.855 1.99953 219.131L0.999961 219.113ZM2.00151 225.089C2.0016 225.366 1.77791 225.586 1.50189 225.581C1.22586 225.576 1.00203 225.348 1.00194 225.072L2.00151 225.089ZM1.00391 231.03C1.00382 230.753 1.22751 230.534 1.50353 230.539C1.77955 230.543 2.00339 230.771 2.00348 231.048L1.00391 231.03ZM2.00546 237.006C2.00555 237.282 1.78186 237.502 1.50584 237.497C1.22981 237.492 1.00598 237.264 1.00589 236.988L2.00546 237.006ZM1.00786 242.946C1.00777 242.67 1.23146 242.45 1.50748 242.455C1.7835 242.46 2.00734 242.688 2.00743 242.964L1.00786 242.946ZM2.00941 248.922C2.0095 249.198 1.78581 249.418 1.50979 249.413C1.23376 249.408 1.00993 249.18 1.00984 248.904L2.00941 248.922ZM1.01181 254.862C1.01172 254.586 1.23541 254.366 1.51143 254.371C1.78746 254.376 2.01129 254.604 2.01138 254.88L1.01181 254.862ZM2.01336 260.838C2.01345 261.114 1.78976 261.334 1.51374 261.329C1.23772 261.324 1.01388 261.097 1.01379 260.82L2.01336 260.838ZM1.01576 266.778C1.01567 266.502 1.23936 266.282 1.51538 266.287C1.79141 266.292 2.01524 266.52 2.01533 266.796L1.01576 266.778ZM2.01731 272.755C2.0174 273.031 1.79371 273.251 1.51769 273.246C1.24167 273.241 1.01783 273.013 1.01774 272.737L2.01731 272.755ZM1.01971 278.695C1.01962 278.418 1.24331 278.199 1.51933 278.204C1.79536 278.208 2.01919 278.436 2.01928 278.713L1.01971 278.695ZM2.02126 284.671C2.02135 284.947 1.79766 285.167 1.52164 285.162C1.24562 285.157 1.02178 284.929 1.02169 284.653L2.02126 284.671ZM1.02366 290.611C1.02357 290.335 1.24726 290.115 1.52328 290.12C1.79931 290.125 2.02314 290.353 2.02323 290.629L1.02366 290.611ZM2.02521 296.587C2.0253 296.863 1.80161 297.083 1.52559 297.078C1.24957 297.073 1.02573 296.845 1.02564 296.569L2.02521 296.587ZM1.02762 302.527C1.02752 302.251 1.25121 302.031 1.52723 302.036C1.80326 302.041 2.02709 302.269 2.02719 302.545L1.02762 302.527ZM2.02916 308.503C2.02925 308.779 1.80556 308.999 1.52954 308.994C1.25352 308.989 1.02968 308.761 1.02959 308.485L2.02916 308.503ZM1.03157 314.443C1.03147 314.167 1.25516 313.947 1.53119 313.952C1.80721 313.957 2.03104 314.185 2.03114 314.461L1.03157 314.443ZM2.03311 320.419C2.0332 320.696 1.80952 320.916 1.53349 320.911C1.25747 320.906 1.03363 320.678 1.03354 320.401L2.03311 320.419ZM1.03552 326.36C1.03542 326.083 1.25911 325.863 1.53514 325.868C1.81116 325.873 2.03499 326.101 2.03509 326.378L1.03552 326.36ZM2.03706 332.336C2.03715 332.612 1.81347 332.832 1.53744 332.827C1.26142 332.822 1.03758 332.594 1.03749 332.318L2.03706 332.336ZM1.03947 338.276C1.03938 338 1.26306 337.78 1.53909 337.785C1.81511 337.79 2.03895 338.018 2.03904 338.294L1.03947 338.276ZM2.04101 344.252C2.0411 344.528 1.81742 344.748 1.54139 344.743C1.26537 344.738 1.04153 344.51 1.04144 344.234L2.04101 344.252ZM1.04342 350.192C1.04333 349.916 1.26701 349.696 1.54304 349.701C1.81906 349.706 2.0429 349.934 2.04299 350.21L1.04342 350.192ZM2.04496 356.168C2.04505 356.444 1.82137 356.664 1.54534 356.659C1.26932 356.654 1.04548 356.426 1.04539 356.15L2.04496 356.168ZM1.04737 362.108C1.04728 361.832 1.27096 361.612 1.54699 361.617C1.82301 361.622 2.04685 361.85 2.04694 362.126L1.04737 362.108ZM2.04891 368.084C2.04901 368.361 1.82532 368.58 1.54929 368.576C1.27327 368.571 1.04944 368.343 1.04934 368.066L2.04891 368.084ZM1.05132 374.025C1.05123 373.748 1.27491 373.528 1.55094 373.533C1.82696 373.538 2.0508 373.766 2.05089 374.042L1.05132 374.025ZM2.05286 380.001C2.05296 380.277 1.82927 380.497 1.55325 380.492C1.27722 380.487 1.05339 380.259 1.05329 379.983L2.05286 380.001ZM1.05527 385.941C1.05518 385.665 1.27887 385.445 1.55489 385.45C1.83091 385.455 2.05475 385.682 2.05484 385.959L1.05527 385.941ZM2.05681 391.917C2.05691 392.193 1.83322 392.413 1.5572 392.408C1.28117 392.403 1.05734 392.175 1.05724 391.899L2.05681 391.917ZM1.05922 397.857C1.05913 397.581 1.28282 397.361 1.55884 397.366C1.83486 397.371 2.0587 397.599 2.05879 397.875L1.05922 397.857ZM5.0568 400.348C5.33278 400.348 5.56043 400.572 5.56527 400.848C5.5701 401.124 5.3503 401.348 5.07432 401.348L5.0568 400.348ZM12.1235 401.353C11.8476 401.353 11.6199 401.129 11.6151 400.852C11.6102 400.576 11.83 400.352 12.106 400.353L12.1235 401.353ZM19.15 400.358C19.426 400.358 19.6537 400.582 19.6585 400.858C19.6633 401.135 19.4435 401.358 19.1676 401.358L19.15 400.358ZM26.2173 401.363C25.9414 401.363 25.7137 401.139 25.7089 400.863C25.704 400.586 25.9238 400.363 26.1998 400.363L26.2173 401.363ZM27.0599 8.12767L23.8572 8.12533L23.8397 7.1249L27.0424 7.12724L27.0599 8.12767ZM17.4518 8.12067L11.0465 8.116L11.0289 7.11557L17.4343 7.12024L17.4518 8.12067ZM4.64107 8.11133L1.43838 8.109L1.42087 7.10857L4.62356 7.1109L4.64107 8.11133ZM1.92941 7.61775L1.93039 10.5968L0.930824 10.5789L0.929837 7.59982L1.92941 7.61775ZM1.93237 16.5549L1.93435 22.5131L0.934775 22.4951L0.9328 16.537L1.93237 16.5549ZM1.93632 28.4712L1.9383 34.4293L0.938726 34.4114L0.93675 28.4533L1.93632 28.4712ZM1.94027 40.3874L1.94225 46.3456L0.942676 46.3277L0.940701 40.3695L1.94027 40.3874ZM1.94422 52.3037L1.9462 58.2618L0.946627 58.2439L0.944652 52.2858L1.94422 52.3037ZM1.94817 64.22L1.95015 70.1781L0.950578 70.1602L0.948602 64.202L1.94817 64.22ZM1.95212 76.1362L1.9541 82.0943L0.954528 82.0764L0.952553 76.1183L1.95212 76.1362ZM1.95607 88.0525L1.95805 94.0106L0.958479 93.9927L0.956504 88.0346L1.95607 88.0525ZM1.96002 99.9687L1.962 105.927L0.96243 105.909L0.960454 99.9508L1.96002 99.9687ZM1.96398 111.885L1.96595 117.843L0.96638 117.825L0.964405 111.867L1.96398 111.885ZM1.96793 123.801L1.9699 129.759L0.970331 129.741L0.968356 123.783L1.96793 123.801ZM1.97188 135.718L1.97385 141.676L0.974282 141.658L0.972306 135.7L1.97188 135.718ZM1.97583 147.634L1.9778 153.592L0.978232 153.574L0.976257 147.616L1.97583 147.634ZM1.97978 159.55L1.98175 165.508L0.982183 165.49L0.980207 159.532L1.97978 159.55ZM1.98373 171.466L1.9857 177.424L0.986133 177.407L0.984158 171.448L1.98373 171.466ZM1.98768 183.383L1.98965 189.341L0.990084 189.323L0.988109 183.365L1.98768 183.383ZM1.99163 195.299L1.9936 201.257L0.994035 201.239L0.992059 195.281L1.99163 195.299ZM1.99558 207.215L1.99756 213.173L0.997985 213.155L0.99601 207.197L1.99558 207.215ZM1.99953 219.131L2.00151 225.089L1.00194 225.072L0.999961 219.113L1.99953 219.131ZM2.00348 231.048L2.00546 237.006L1.00589 236.988L1.00391 231.03L2.00348 231.048ZM2.00743 242.964L2.00941 248.922L1.00984 248.904L1.00786 242.946L2.00743 242.964ZM2.01138 254.88L2.01336 260.838L1.01379 260.82L1.01181 254.862L2.01138 254.88ZM2.01533 266.796L2.01731 272.755L1.01774 272.737L1.01576 266.778L2.01533 266.796ZM2.01928 278.713L2.02126 284.671L1.02169 284.653L1.01971 278.695L2.01928 278.713ZM2.02323 290.629L2.02521 296.587L1.02564 296.569L1.02366 290.611L2.02323 290.629ZM2.02719 302.545L2.02916 308.503L1.02959 308.485L1.02762 302.527L2.02719 302.545ZM2.03114 314.461L2.03311 320.419L1.03354 320.401L1.03157 314.443L2.03114 314.461ZM2.03509 326.378L2.03706 332.336L1.03749 332.318L1.03552 326.36L2.03509 326.378ZM2.03904 338.294L2.04101 344.252L1.04144 344.234L1.03947 338.276L2.03904 338.294ZM2.04299 350.21L2.04496 356.168L1.04539 356.15L1.04342 350.192L2.04299 350.21ZM2.04694 362.126L2.04891 368.084L1.04934 368.066L1.04737 362.108L2.04694 362.126ZM2.05089 374.042L2.05286 380.001L1.05329 379.983L1.05132 374.025L2.05089 374.042ZM2.05484 385.959L2.05681 391.917L1.05724 391.899L1.05527 385.941L2.05484 385.959ZM2.05879 397.875L2.05978 400.854L1.06021 400.836L1.05922 397.857L2.05879 397.875ZM1.55999 400.845C1.55123 400.345 1.55124 400.345 1.55125 400.345C1.55126 400.345 1.55128 400.345 1.5513 400.345C1.55141 400.345 1.55133 400.345 1.55149 400.345C1.5517 400.345 1.55186 400.345 1.55224 400.345C1.5529 400.345 1.55392 400.345 1.55525 400.345C1.55791 400.345 1.56191 400.345 1.56721 400.345C1.57781 400.345 1.59362 400.345 1.61452 400.345C1.6563 400.345 1.71837 400.345 1.7995 400.345C1.96177 400.345 2.20032 400.345 2.50541 400.346C3.1156 400.346 3.99199 400.347 5.0568 400.348L5.07432 401.348C4.00951 401.347 3.13312 401.347 2.52293 401.346C2.21784 401.346 1.97929 401.346 1.81702 401.346C1.73589 401.346 1.67382 401.345 1.63203 401.345C1.61114 401.345 1.59532 401.345 1.58472 401.345C1.57943 401.345 1.57543 401.345 1.57276 401.345C1.57143 401.345 1.57042 401.345 1.56976 401.345C1.56943 401.345 1.56916 401.345 1.569 401.345C1.56894 401.345 1.56884 401.345 1.56882 401.345C1.56879 401.345 1.56878 401.345 1.56877 401.345C1.56876 401.345 1.56875 401.345 1.55999 400.845ZM12.106 400.353C14.4314 400.354 16.8781 400.356 19.15 400.358L19.1676 401.358C16.8956 401.356 14.4489 401.355 12.1235 401.353L12.106 400.353ZM26.1998 400.363C27.3807 400.364 28.1727 400.364 28.3948 400.364C28.4225 400.364 28.4414 400.364 28.451 400.364C28.4533 400.364 28.4597 400.364 28.4627 400.365C28.9666 400.856 28.4883 401.365 28.4789 401.365C28.4782 401.365 28.4772 401.365 28.4769 401.365C28.4765 401.365 28.4762 401.365 28.476 401.365C28.4756 401.365 28.4751 401.365 28.4745 401.365C28.4733 401.365 28.4715 401.365 28.4692 401.365C28.4506 401.365 28.3935 401.365 28.2953 401.365C28.0987 401.365 27.737 401.364 27.1876 401.364L27.17 400.364C27.7195 400.364 28.0812 400.364 28.2777 400.364C28.376 400.364 28.433 400.364 28.4515 400.364C28.4538 400.364 28.4555 400.364 28.4565 400.364C28.4571 400.364 28.4574 400.364 28.4575 400.364C28.4576 400.364 28.4574 400.364 28.4571 400.364C28.4569 400.364 28.4559 400.364 28.4552 400.364C28.4459 400.365 27.9676 400.873 28.4715 401.365C28.4742 401.365 28.4757 401.365 28.4683 401.365C28.4588 401.365 28.44 401.365 28.4122 401.365C28.1902 401.365 27.3982 401.364 26.2173 401.363L26.1998 400.363ZM1.55999 400.845L1.57751 401.846L0.56076 401.845L0.560423 400.827L1.55999 400.845ZM27.7455 6.92056C28.1426 7.31153 28.1537 7.94497 27.7702 8.33538L21.5214 14.6974C21.138 15.0878 20.5052 15.0874 20.108 14.6964C19.7109 14.3054 19.6998 13.672 20.0833 13.2816L25.6378 7.62642L19.8852 1.96302C19.488 1.57204 19.4769 0.938607 19.8604 0.548199C20.2438 0.157792 20.8766 0.158253 21.2738 0.549229L27.7455 6.92056ZM1.42962 7.60879L0.430052 7.59086L0.429726 6.60764L1.41211 6.60836L1.42962 7.60879ZM23.866 8.62555C23.314 8.62515 22.8587 8.17691 22.849 7.62439C22.8394 7.07187 23.279 6.62429 23.831 6.62469L23.866 8.62555ZM17.4256 6.62002C17.9775 6.62043 18.4328 7.06866 18.4425 7.62118C18.4522 8.1737 18.0126 8.62128 17.4606 8.62088L17.4256 6.62002ZM11.0552 8.61622C10.5032 8.61581 10.048 8.16758 10.0383 7.61506C10.0286 7.06254 10.4682 6.61495 11.0202 6.61536L11.0552 8.61622ZM4.6148 6.61069C5.16676 6.61109 5.62206 7.05933 5.63173 7.61185C5.6414 8.16437 5.20179 8.61195 4.64982 8.61155L4.6148 6.61069ZM2.43018 10.6058C2.43036 11.1582 1.98299 11.598 1.43094 11.5881C0.878894 11.5782 0.431223 11.1224 0.431039 10.5699L2.43018 10.6058ZM0.433015 16.5281C0.432832 15.9756 0.880206 15.5358 1.43225 15.5457C1.9843 15.5556 2.43197 16.0115 2.43215 16.5639L0.433015 16.5281ZM2.43413 22.522C2.43431 23.0745 1.98694 23.5143 1.43489 23.5044C0.882844 23.4945 0.435173 23.0386 0.43499 22.4862L2.43413 22.522ZM0.436965 28.4443C0.436782 27.8919 0.884157 27.4521 1.4362 27.462C1.98825 27.4719 2.43592 27.9277 2.43611 28.4802L0.436965 28.4443ZM2.43808 34.4383C2.43826 34.9907 1.99089 35.4305 1.43884 35.4206C0.886795 35.4107 0.439124 34.9549 0.438941 34.4024L2.43808 34.4383ZM0.440916 40.3606C0.440733 39.8081 0.888107 39.3683 1.44015 39.3782C1.9922 39.3881 2.43987 39.844 2.44006 40.3964L0.440916 40.3606ZM2.44203 46.3545C2.44221 46.907 1.99484 47.3468 1.44279 47.3369C0.890746 47.327 0.443075 46.8711 0.442891 46.3187L2.44203 46.3545ZM0.444867 52.2768C0.444684 51.7244 0.892058 51.2846 1.44411 51.2945C1.99615 51.3044 2.44382 51.7602 2.44401 52.3127L0.444867 52.2768ZM2.44598 58.2708C2.44617 58.8232 1.99879 59.263 1.44674 59.2531C0.894696 59.2432 0.447025 58.7874 0.446842 58.2349L2.44598 58.2708ZM0.448817 64.1931C0.448634 63.6406 0.896008 63.2008 1.44806 63.2107C2.0001 63.2206 2.44777 63.6765 2.44796 64.2289L0.448817 64.1931ZM2.44993 70.187C2.45012 70.7395 2.00274 71.1793 1.45069 71.1694C0.898647 71.1595 0.450976 70.7036 0.450793 70.1512L2.44993 70.187ZM0.452768 76.1093C0.452585 75.5569 0.899959 75.1171 1.45201 75.127C2.00405 75.1369 2.45172 75.5927 2.45191 76.1452L0.452768 76.1093ZM2.45388 82.1033C2.45407 82.6557 2.00669 83.0956 1.45464 83.0857C0.902598 83.0758 0.454926 82.6199 0.454743 82.0675L2.45388 82.1033ZM0.456719 88.0256C0.456535 87.4732 0.90391 87.0333 1.45596 87.0432C2.008 87.0531 2.45568 87.509 2.45586 88.0614L0.456719 88.0256ZM2.45783 94.0196C2.45802 94.572 2.01064 95.0118 1.4586 95.0019C0.906548 94.992 0.458877 94.5362 0.458694 93.9837L2.45783 94.0196ZM0.460669 99.9419C0.460486 99.3894 0.90786 98.9496 1.45991 98.9595C2.01196 98.9694 2.45963 99.4253 2.45981 99.9777L0.460669 99.9419ZM2.46178 105.936C2.46197 106.488 2.01459 106.928 1.46255 106.918C0.910499 106.908 0.462828 106.452 0.462645 105.9L2.46178 105.936ZM0.46462 111.858C0.464437 111.306 0.911811 110.866 1.46386 110.876C2.01591 110.886 2.46358 111.342 2.46376 111.894L0.46462 111.858ZM2.46574 117.852C2.46592 118.405 2.01854 118.844 1.4665 118.834C0.91445 118.825 0.466778 118.369 0.466595 117.816L2.46574 117.852ZM0.468571 123.774C0.468387 123.222 0.915762 122.782 1.46781 122.792C2.01986 122.802 2.46753 123.258 2.46771 123.81L0.468571 123.774ZM2.46969 129.768C2.46987 130.321 2.02249 130.761 1.47045 130.751C0.9184 130.741 0.470729 130.285 0.470546 129.732L2.46969 129.768ZM0.472521 135.691C0.472338 135.138 0.919712 134.698 1.47176 134.708C2.02381 134.718 2.47148 135.174 2.47166 135.726L0.472521 135.691ZM2.47364 141.685C2.47382 142.237 2.02645 142.677 1.4744 142.667C0.922351 142.657 0.47468 142.201 0.474496 141.649L2.47364 141.685ZM0.476472 147.607C0.476289 147.054 0.923663 146.615 1.47571 146.625C2.02776 146.634 2.47543 147.09 2.47561 147.643L0.476472 147.607ZM2.47759 153.601C2.47777 154.153 2.0304 154.593 1.47835 154.583C0.926302 154.573 0.47863 154.117 0.478447 153.565L2.47759 153.601ZM0.480422 159.523C0.480239 158.971 0.927614 158.531 1.47966 158.541C2.03171 158.551 2.47938 159.007 2.47956 159.559L0.480422 159.523ZM2.48154 165.517C2.48172 166.07 2.03435 166.509 1.4823 166.499C0.930252 166.49 0.482581 166.034 0.482398 165.481L2.48154 165.517ZM0.484373 171.439C0.48419 170.887 0.931564 170.447 1.48361 170.457C2.03566 170.467 2.48333 170.923 2.48351 171.475L0.484373 171.439ZM2.48549 177.433C2.48567 177.986 2.0383 178.426 1.48625 178.416C0.934203 178.406 0.486532 177.95 0.486348 177.398L2.48549 177.433ZM0.488324 183.356C0.488141 182.803 0.935515 182.363 1.48756 182.373C2.03961 182.383 2.48728 182.839 2.48746 183.392L0.488324 183.356ZM2.48944 189.35C2.48962 189.902 2.04225 190.342 1.4902 190.332C0.938153 190.322 0.490482 189.866 0.490299 189.314L2.48944 189.35ZM0.492274 195.272C0.492091 194.72 0.939466 194.28 1.49151 194.29C2.04356 194.299 2.49123 194.755 2.49141 195.308L0.492274 195.272ZM2.49339 201.266C2.49357 201.818 2.0462 202.258 1.49415 202.248C0.942104 202.238 0.494433 201.782 0.49425 201.23L2.49339 201.266ZM0.496225 207.188C0.496042 206.636 0.943416 206.196 1.49546 206.206C2.04751 206.216 2.49518 206.672 2.49537 207.224L0.496225 207.188ZM2.49734 213.182C2.49752 213.735 2.05015 214.174 1.4981 214.165C0.946055 214.155 0.498383 213.699 0.4982 213.146L2.49734 213.182ZM0.500176 219.104C0.499992 218.552 0.947367 218.112 1.49941 218.122C2.05146 218.132 2.49913 218.588 2.49932 219.14L0.500176 219.104ZM2.50129 225.098C2.50147 225.651 2.0541 226.091 1.50205 226.081C0.950005 226.071 0.502334 225.615 0.502151 225.063L2.50129 225.098ZM0.504126 231.021C0.503943 230.468 0.951317 230.028 1.50336 230.038C2.05541 230.048 2.50308 230.504 2.50327 231.057L0.504126 231.021ZM2.50524 237.015C2.50542 237.567 2.05805 238.007 1.506 237.997C0.953956 237.987 0.506285 237.531 0.506102 236.979L2.50524 237.015ZM0.508077 242.937C0.507894 242.385 0.955268 241.945 1.50732 241.955C2.05936 241.965 2.50703 242.42 2.50722 242.973L0.508077 242.937ZM2.50919 248.931C2.50938 249.483 2.062 249.923 1.50995 249.913C0.957907 249.903 0.510235 249.448 0.510052 248.895L2.50919 248.931ZM0.512028 254.853C0.511844 254.301 0.959219 253.861 1.51127 253.871C2.06331 253.881 2.51098 254.337 2.51117 254.889L0.512028 254.853ZM2.51314 260.847C2.51333 261.4 2.06595 261.839 1.5139 261.83C0.961857 261.82 0.514186 261.364 0.514003 260.811L2.51314 260.847ZM0.515978 266.77C0.515795 266.217 0.963169 265.777 1.51522 265.787C2.06726 265.797 2.51494 266.253 2.51512 266.805L0.515978 266.77ZM2.51709 272.763C2.51728 273.316 2.0699 273.756 1.51786 273.746C0.965808 273.736 0.518137 273.28 0.517954 272.728L2.51709 272.763ZM0.519929 278.686C0.519746 278.133 0.96712 277.693 1.51917 277.703C2.07121 277.713 2.51889 278.169 2.51907 278.722L0.519929 278.686ZM2.52104 284.68C2.52123 285.232 2.07385 285.672 1.52181 285.662C0.969759 285.652 0.522087 285.196 0.521904 284.644L2.52104 284.68ZM0.523879 290.602C0.523696 290.05 0.971071 289.61 1.52312 289.62C2.07517 289.63 2.52284 290.085 2.52302 290.638L0.523879 290.602ZM2.52499 296.596C2.52518 297.148 2.0778 297.588 1.52576 297.578C0.973709 297.568 0.526038 297.113 0.525855 296.56L2.52499 296.596ZM0.52783 302.518C0.527647 301.966 0.975021 301.526 1.52707 301.536C2.07912 301.546 2.52679 302.002 2.52697 302.554L0.52783 302.518ZM2.52895 308.512C2.52913 309.065 2.08175 309.504 1.52971 309.495C0.97766 309.485 0.529989 309.029 0.529805 308.476L2.52895 308.512ZM0.531781 314.434C0.531598 313.882 0.978972 313.442 1.53102 313.452C2.08307 313.462 2.53074 313.918 2.53092 314.47L0.531781 314.434ZM2.5329 320.428C2.53308 320.981 2.08571 321.421 1.53366 321.411C0.98161 321.401 0.533939 320.945 0.533756 320.393L2.5329 320.428ZM0.535731 326.351C0.535548 325.798 0.982923 325.358 1.53497 325.368C2.08702 325.378 2.53469 325.834 2.53487 326.387L0.535731 326.351ZM2.53685 332.345C2.53703 332.897 2.08966 333.337 1.53761 333.327C0.985561 333.317 0.53789 332.861 0.537707 332.309L2.53685 332.345ZM0.539682 338.267C0.539499 337.714 0.986873 337.275 1.53892 337.285C2.09097 337.294 2.53864 337.75 2.53882 338.303L0.539682 338.267ZM2.5408 344.261C2.54098 344.813 2.09361 345.253 1.54156 345.243C0.989512 345.233 0.54184 344.777 0.541657 344.225L2.5408 344.261ZM0.543633 350.183C0.543449 349.631 0.990824 349.191 1.54287 349.201C2.09492 349.211 2.54259 349.667 2.54277 350.219L0.543633 350.183ZM2.54475 356.177C2.54493 356.73 2.09756 357.169 1.54551 357.159C0.993462 357.15 0.545791 356.694 0.545608 356.141L2.54475 356.177ZM0.547583 362.099C0.5474 361.547 0.994774 361.107 1.54682 361.117C2.09887 361.127 2.54654 361.583 2.54672 362.135L0.547583 362.099ZM2.5487 368.093C2.54888 368.646 2.10151 369.086 1.54946 369.076C0.997413 369.066 0.549742 368.61 0.549559 368.057L2.5487 368.093ZM0.551534 374.016C0.551351 373.463 0.998725 373.023 1.55077 373.033C2.10282 373.043 2.55049 373.499 2.55067 374.051L0.551534 374.016ZM2.55265 380.01C2.55283 380.562 2.10546 381.002 1.55341 380.992C1.00136 380.982 0.553692 380.526 0.553509 379.974L2.55265 380.01ZM0.555485 385.932C0.555301 385.379 1.00268 384.94 1.55472 384.949C2.10677 384.959 2.55444 385.415 2.55462 385.968L0.555485 385.932ZM2.5566 391.926C2.55678 392.478 2.10941 392.918 1.55736 392.908C1.00531 392.898 0.557643 392.442 0.55746 391.89L2.5566 391.926ZM0.559435 397.848C0.559252 397.296 1.00663 396.856 1.55867 396.866C2.11072 396.876 2.55839 397.331 2.55858 397.884L0.559435 397.848ZM5.04804 399.847C5.6 399.848 6.0553 400.296 6.06497 400.848C6.07465 401.401 5.63504 401.849 5.08308 401.848L5.04804 399.847ZM12.1323 401.853C11.5803 401.853 11.125 401.405 11.1154 400.852C11.1057 400.3 11.5453 399.852 12.0973 399.852L12.1323 401.853ZM19.1413 399.857C19.6932 399.858 20.1485 400.306 20.1582 400.859C20.1679 401.411 19.7283 401.859 19.1763 401.858L19.1413 399.857ZM26.2261 401.863C25.6741 401.863 25.2188 401.415 25.2092 400.862C25.1995 400.31 25.6391 399.862 26.1911 399.863L26.2261 401.863ZM27.0687 8.62788L23.866 8.62555L23.831 6.62469L27.0336 6.62702L27.0687 8.62788ZM17.4606 8.62088L11.0552 8.61622L11.0202 6.61536L17.4256 6.62002L17.4606 8.62088ZM4.64982 8.61155L1.44713 8.60922L1.41211 6.60836L4.6148 6.61069L4.64982 8.61155ZM2.42919 7.62671L2.43018 10.6058L0.431039 10.5699L0.430052 7.59086L2.42919 7.62671ZM2.43215 16.5639L2.43413 22.522L0.43499 22.4862L0.433015 16.5281L2.43215 16.5639ZM2.43611 28.4802L2.43808 34.4383L0.438941 34.4024L0.436965 28.4443L2.43611 28.4802ZM2.44006 40.3964L2.44203 46.3545L0.442891 46.3187L0.440916 40.3606L2.44006 40.3964ZM2.44401 52.3127L2.44598 58.2708L0.446842 58.2349L0.444867 52.2768L2.44401 52.3127ZM2.44796 64.2289L2.44993 70.187L0.450793 70.1512L0.448817 64.1931L2.44796 64.2289ZM2.45191 76.1452L2.45388 82.1033L0.454743 82.0675L0.452768 76.1093L2.45191 76.1452ZM2.45586 88.0614L2.45783 94.0196L0.458694 93.9837L0.456719 88.0256L2.45586 88.0614ZM2.45981 99.9777L2.46178 105.936L0.462645 105.9L0.460669 99.9419L2.45981 99.9777ZM2.46376 111.894L2.46574 117.852L0.466595 117.816L0.46462 111.858L2.46376 111.894ZM2.46771 123.81L2.46969 129.768L0.470546 129.732L0.468571 123.774L2.46771 123.81ZM2.47166 135.726L2.47364 141.685L0.474496 141.649L0.472521 135.691L2.47166 135.726ZM2.47561 147.643L2.47759 153.601L0.478447 153.565L0.476472 147.607L2.47561 147.643ZM2.47956 159.559L2.48154 165.517L0.482398 165.481L0.480422 159.523L2.47956 159.559ZM2.48351 171.475L2.48549 177.433L0.486348 177.398L0.484373 171.439L2.48351 171.475ZM2.48746 183.392L2.48944 189.35L0.490299 189.314L0.488324 183.356L2.48746 183.392ZM2.49141 195.308L2.49339 201.266L0.49425 201.23L0.492274 195.272L2.49141 195.308ZM2.49537 207.224L2.49734 213.182L0.4982 213.146L0.496225 207.188L2.49537 207.224ZM2.49932 219.14L2.50129 225.098L0.502151 225.063L0.500176 219.104L2.49932 219.14ZM2.50327 231.057L2.50524 237.015L0.506102 236.979L0.504126 231.021L2.50327 231.057ZM2.50722 242.973L2.50919 248.931L0.510052 248.895L0.508077 242.937L2.50722 242.973ZM2.51117 254.889L2.51314 260.847L0.514003 260.811L0.512028 254.853L2.51117 254.889ZM2.51512 266.805L2.51709 272.763L0.517954 272.728L0.515978 266.77L2.51512 266.805ZM2.51907 278.722L2.52104 284.68L0.521904 284.644L0.519929 278.686L2.51907 278.722ZM2.52302 290.638L2.52499 296.596L0.525855 296.56L0.523879 290.602L2.52302 290.638ZM2.52697 302.554L2.52895 308.512L0.529805 308.476L0.52783 302.518L2.52697 302.554ZM2.53092 314.47L2.5329 320.428L0.533756 320.393L0.531781 314.434L2.53092 314.47ZM2.53487 326.387L2.53685 332.345L0.537707 332.309L0.535731 326.351L2.53487 326.387ZM2.53882 338.303L2.5408 344.261L0.541657 344.225L0.539682 338.267L2.53882 338.303ZM2.54277 350.219L2.54475 356.177L0.545608 356.141L0.543633 350.183L2.54277 350.219ZM2.54672 362.135L2.5487 368.093L0.549559 368.057L0.547583 362.099L2.54672 362.135ZM2.55067 374.051L2.55265 380.01L0.553509 379.974L0.551534 374.016L2.55067 374.051ZM2.55462 385.968L2.5566 391.926L0.55746 391.89L0.555485 385.932L2.55462 385.968ZM2.55858 397.884L2.55956 400.863L0.560423 400.827L0.559435 397.848L2.55858 397.884ZM1.55999 400.845C1.54247 399.845 1.54248 399.845 1.54249 399.845C1.5425 399.845 1.54252 399.845 1.54254 399.845C1.54259 399.845 1.54263 399.845 1.54273 399.845C1.54289 399.845 1.54315 399.845 1.54348 399.845C1.54414 399.845 1.54516 399.845 1.54649 399.845C1.54916 399.845 1.55314 399.845 1.55845 399.845C1.56905 399.845 1.58486 399.845 1.60576 399.845C1.64754 399.845 1.70961 399.845 1.79074 399.845C1.95301 399.845 2.19156 399.845 2.49665 399.845C3.10684 399.846 3.98323 399.847 5.04804 399.847L5.08308 401.848C4.01827 401.847 3.14188 401.847 2.53169 401.846C2.2266 401.846 1.98805 401.846 1.82578 401.846C1.74465 401.846 1.68258 401.846 1.64079 401.846C1.6199 401.846 1.60408 401.846 1.59348 401.846C1.58819 401.846 1.58418 401.846 1.58152 401.846C1.58019 401.846 1.57919 401.846 1.57852 401.846C1.57814 401.846 1.57798 401.846 1.57776 401.846C1.57764 401.846 1.57766 401.846 1.57757 401.846C1.57755 401.846 1.57754 401.846 1.57753 401.846C1.57752 401.846 1.57751 401.846 1.55999 400.845ZM12.0973 399.852C14.4227 399.854 16.8694 399.856 19.1413 399.857L19.1763 401.858C16.9044 401.857 14.4577 401.855 12.1323 401.853L12.0973 399.852ZM26.1911 399.863C27.3719 399.863 28.1639 399.864 28.386 399.864C28.4138 399.864 28.4327 399.864 28.4424 399.864C28.4448 399.864 28.4467 399.864 28.4481 399.864C28.4487 399.864 28.4493 399.864 28.4499 399.864C28.4501 399.864 28.4505 399.864 28.4509 399.864C28.4511 399.864 28.4517 399.864 28.4521 399.864C28.4528 399.864 28.4558 399.864 28.4582 399.864C29.4661 400.848 28.5094 401.865 28.4908 401.865C28.4894 401.865 28.4874 401.865 28.4868 401.865C28.4861 401.865 28.4854 401.865 28.4853 401.865C28.4847 401.865 28.4841 401.865 28.4835 401.865C28.4823 401.865 28.4804 401.865 28.4781 401.865C28.4594 401.865 28.4023 401.865 28.3041 401.865C28.1075 401.865 27.7458 401.865 27.1963 401.864L27.1613 399.863C27.7107 399.864 28.0724 399.864 28.2689 399.864C28.3673 399.864 28.4242 399.864 28.4426 399.864C28.4449 399.864 28.4465 399.864 28.4475 399.864C28.448 399.864 28.4482 399.864 28.4482 399.864C28.4482 399.864 28.4481 399.864 28.448 399.864C28.4479 399.864 28.4475 399.864 28.4472 399.864C28.4467 399.864 28.4448 399.864 28.4434 399.864C28.4248 399.865 27.4681 400.881 28.476 401.865C28.4815 401.865 28.4869 401.865 28.477 401.865C28.4675 401.865 28.4487 401.865 28.4209 401.865C28.1989 401.865 27.407 401.864 26.2261 401.863L26.1911 399.863Z" fill="#749CC7"/>
</svg>
