<svg width="15" height="31" viewBox="0 0 15 31" fill="none" xmlns="http://www.w3.org/2000/svg">
<path d="M7.75961 1.41C7.56446 1.22114 7.24804 1.23152 7.05289 1.43319L3.87262 4.71952C3.67746 4.92119 3.67746 5.23777 3.87262 5.42663C4.06777 5.61549 4.38419 5.6051 4.57934 5.40344L7.40625 2.48225L10.2332 5.21792C10.4283 5.40678 10.7447 5.3964 10.9399 5.19473C11.135 4.99307 11.135 4.67649 10.9399 4.48763L7.75961 1.41ZM6.90652 5.41862C6.90652 5.69476 7.13026 5.91127 7.40625 5.90222C7.68224 5.89316 7.90598 5.66196 7.90598 5.38582L6.90652 5.41862ZM7.90598 12.64C7.90598 12.3638 7.68224 12.1473 7.40625 12.1564C7.13026 12.1654 6.90652 12.3966 6.90652 12.6728L7.90598 12.64ZM6.90652 19.9269C6.90652 20.203 7.13026 20.4196 7.40625 20.4105C7.68224 20.4014 7.90598 20.1702 7.90598 19.8941L6.90652 19.9269ZM7.90598 27.1483C7.90598 26.8721 7.68224 26.6556 7.40625 26.6646C7.13026 26.6737 6.90652 26.9049 6.90652 27.181L7.90598 27.1483ZM6.90652 1.79154L6.90652 5.41862L7.90598 5.38582V1.75875L6.90652 1.79154ZM6.90652 12.6728L6.90652 19.9269L7.90598 19.8941L7.90598 12.64L6.90652 12.6728ZM6.90652 27.181L6.90652 30.8081L7.90598 30.7753V27.1483L6.90652 27.181ZM8.11298 1.04485C7.72266 0.667133 7.08984 0.687898 6.69952 1.09123L0.338986 7.66389C-0.0513287 8.06723 -0.0513287 8.70039 0.338986 9.07811C0.7293 9.45582 1.36212 9.43506 1.75244 9.03173L7.40625 3.18936L13.0601 8.6607C13.4504 9.03842 14.0832 9.01765 14.4735 8.61432C14.8638 8.21099 14.8638 7.57782 14.4735 7.20011L8.11298 1.04485ZM6.40679 5.43501C6.40679 5.9873 6.85426 6.42033 7.40625 6.40222C7.95824 6.38411 8.40571 5.92171 8.40571 5.36942L6.40679 5.43501ZM8.40571 12.6236C8.40571 12.0713 7.95824 11.6382 7.40625 11.6564C6.85426 11.6745 6.40679 12.1369 6.40679 12.6892L8.40571 12.6236ZM6.40679 19.9433C6.40679 20.4956 6.85426 20.9286 7.40625 20.9105C7.95824 20.8924 8.40571 20.43 8.40571 19.8777L6.40679 19.9433ZM8.40571 27.1319C8.40571 26.5796 7.95824 26.1465 7.40625 26.1646C6.85426 26.1828 6.40679 26.6452 6.40679 27.1974L8.40571 27.1319ZM6.40679 1.80794L6.40679 5.43501L8.40571 5.36942V1.74235L6.40679 1.80794ZM6.40679 12.6892L6.40679 19.9433L8.40571 19.8777V12.6236L6.40679 12.6892ZM6.40679 27.1974L6.40679 30.8245L8.40571 30.7589V27.1319L6.40679 27.1974Z" fill="#F2F2F2"/>
</svg>
