<svg width="215" height="219" viewBox="0 0 215 219" fill="none" xmlns="http://www.w3.org/2000/svg">
<g clip-path="url(#clip0_877_1452)">
<path d="M213.726 9.36623C213.923 9.15145 213.925 8.80149 213.731 8.58458L210.57 5.04985C210.376 4.83294 210.059 4.83121 209.862 5.046C209.666 5.26078 209.664 5.61073 209.858 5.82764L212.668 8.96963L209.818 12.0808C209.621 12.2956 209.619 12.6456 209.813 12.8625C210.007 13.0794 210.323 13.081 210.52 12.8663L213.726 9.36623ZM41.3713 8.03653L41.3748 7.48382L40.8684 7.48107L40.871 8.0405L41.3713 8.03653ZM42.3316 217.607L42.328 218.16L42.8344 218.163L42.8319 217.604L42.3316 217.607ZM210.307 8.40404C210.031 8.40254 209.805 8.64878 209.803 8.95403C209.801 9.25928 210.024 9.50796 210.3 9.50946L210.307 8.40404ZM204.157 9.47599C204.433 9.4775 204.659 9.23126 204.661 8.92601C204.663 8.62076 204.44 8.37209 204.164 8.37058L204.157 9.47599ZM198.021 8.33713C197.745 8.33562 197.519 8.58185 197.517 8.8871C197.515 9.19235 197.738 9.44103 198.014 9.44253L198.021 8.33713ZM191.871 9.40906C192.147 9.41057 192.373 9.16434 192.375 8.85909C192.377 8.55384 192.154 8.30516 191.878 8.30366L191.871 9.40906ZM185.735 8.2702C185.459 8.26869 185.233 8.51492 185.231 8.82017C185.229 9.12543 185.452 9.3741 185.728 9.3756L185.735 8.2702ZM179.585 9.34215C179.861 9.34365 180.087 9.09741 180.089 8.79216C180.091 8.48691 179.868 8.23823 179.592 8.23673L179.585 9.34215ZM173.449 8.20327C173.173 8.20176 172.947 8.448 172.945 8.75325C172.943 9.0585 173.166 9.30717 173.442 9.30868L173.449 8.20327ZM167.299 9.27522C167.575 9.27672 167.801 9.03049 167.803 8.72524C167.805 8.41999 167.582 8.17132 167.306 8.16981L167.299 9.27522ZM161.163 8.13634C160.887 8.13484 160.661 8.38107 160.659 8.68632C160.657 8.99157 160.88 9.24025 161.156 9.24175L161.163 8.13634ZM155.013 9.20829C155.289 9.2098 155.515 8.96356 155.517 8.65831C155.519 8.35306 155.296 8.10439 155.02 8.10288L155.013 9.20829ZM148.877 8.06941C148.601 8.06791 148.375 8.31415 148.373 8.6194C148.371 8.92465 148.594 9.17333 148.87 9.17483L148.877 8.06941ZM142.727 9.14136C143.003 9.14287 143.229 8.89664 143.231 8.59139C143.233 8.28614 143.01 8.03746 142.734 8.03596L142.727 9.14136ZM136.591 8.0025C136.315 8.00099 136.089 8.24722 136.087 8.55247C136.085 8.85773 136.308 9.1064 136.584 9.1079L136.591 8.0025ZM130.441 9.07444C130.717 9.07595 130.943 8.82971 130.945 8.52446C130.947 8.21921 130.724 7.97053 130.448 7.96903L130.441 9.07444ZM124.305 7.93557C124.029 7.93407 123.803 8.1803 123.801 8.48555C123.799 8.7908 124.022 9.03947 124.298 9.04098L124.305 7.93557ZM118.155 9.00752C118.431 9.00902 118.657 8.76278 118.659 8.45753C118.661 8.15228 118.438 7.90362 118.162 7.9021L118.155 9.00752ZM112.019 7.86864C111.743 7.86714 111.517 8.11337 111.515 8.41862C111.513 8.72387 111.736 8.97255 112.012 8.97405L112.019 7.86864ZM105.869 8.94059C106.145 8.9421 106.371 8.69586 106.373 8.39061C106.375 8.08536 106.152 7.83669 105.876 7.83518L105.869 8.94059ZM99.7333 7.80171C99.457 7.80021 99.2315 8.04644 99.2295 8.35169C99.2276 8.65694 99.45 8.90562 99.7263 8.90712L99.7333 7.80171ZM93.5833 8.87366C93.8595 8.87517 94.0851 8.62894 94.0871 8.32369C94.089 8.01844 93.8666 7.76976 93.5903 7.76826L93.5833 8.87366ZM87.4473 7.73479C87.171 7.73328 86.9455 7.97952 86.9435 8.28477C86.9416 8.59003 87.164 8.8387 87.4403 8.84021L87.4473 7.73479ZM81.2973 8.80674C81.5735 8.80824 81.7991 8.56201 81.8011 8.25676C81.803 7.95151 81.5806 7.70283 81.3043 7.70133L81.2973 8.80674ZM75.1613 7.66787C74.885 7.66637 74.6595 7.9126 74.6575 8.21785C74.6556 8.5231 74.878 8.77177 75.1542 8.77328L75.1613 7.66787ZM69.0112 8.73981C69.2875 8.74132 69.5131 8.49508 69.5151 8.18983C69.517 7.88458 69.2946 7.6359 69.0183 7.6344L69.0112 8.73981ZM62.8753 7.60094C62.599 7.59944 62.3735 7.84567 62.3715 8.15092C62.3696 8.45617 62.592 8.70485 62.8682 8.70635L62.8753 7.60094ZM56.7253 8.67289C57.0015 8.6744 57.2271 8.42815 57.2291 8.1229C57.231 7.81765 57.0086 7.56899 56.7323 7.56747L56.7253 8.67289ZM50.5893 7.53401C50.313 7.53251 50.0875 7.77874 50.0855 8.08399C50.0836 8.38924 50.306 8.63792 50.5823 8.63942L50.5893 7.53401ZM44.4393 8.60596C44.7155 8.60747 44.9411 8.36124 44.9431 8.05599C44.945 7.75074 44.7226 7.50206 44.4463 7.50056L44.4393 8.60596ZM40.886 11.3151C40.8874 11.6202 41.1125 11.866 41.3888 11.8638C41.6651 11.8616 41.888 11.6124 41.8866 11.3071L40.886 11.3151ZM41.9166 17.8562C41.9152 17.5509 41.6901 17.3053 41.4138 17.3075C41.1375 17.3097 40.9146 17.5589 40.916 17.8642L41.9166 17.8562ZM40.946 24.4133C40.9474 24.7185 41.1725 24.9642 41.4488 24.962C41.7251 24.9598 41.948 24.7106 41.9466 24.4053L40.946 24.4133ZM41.9766 30.9544C41.9752 30.6491 41.7501 30.4035 41.4738 30.4057C41.1975 30.4079 40.9746 30.6571 40.976 30.9624L41.9766 30.9544ZM41.006 37.5115C41.0074 37.8167 41.2326 38.0624 41.5088 38.0602C41.7851 38.058 42.008 37.8088 42.0066 37.5035L41.006 37.5115ZM42.0366 44.0526C42.0352 43.7473 41.8101 43.5017 41.5338 43.5039C41.2575 43.5061 41.0346 43.7553 41.036 44.0606L42.0366 44.0526ZM41.0661 50.6097C41.0675 50.9149 41.2926 51.1606 41.5689 51.1584C41.8452 51.1562 42.068 50.907 42.0666 50.6017L41.0661 50.6097ZM42.0966 57.1508C42.0952 56.8455 41.8701 56.5999 41.5938 56.6021C41.3175 56.6043 41.0947 56.8535 41.0961 57.1587L42.0966 57.1508ZM41.1261 63.7078C41.1275 64.0131 41.3526 64.2588 41.6289 64.2566C41.9052 64.2544 42.128 64.0052 42.1266 63.6999L41.1261 63.7078ZM42.1566 70.249C42.1552 69.9437 41.9301 69.698 41.6538 69.7003C41.3775 69.7025 41.1547 69.9517 41.1561 70.2569L42.1566 70.249ZM41.1861 76.806C41.1875 77.1113 41.4126 77.357 41.6889 77.3548C41.9652 77.3525 42.1881 77.1033 42.1867 76.7981L41.1861 76.806ZM42.2167 83.3472C42.2153 83.0419 41.9901 82.7962 41.7138 82.7985C41.4376 82.8007 41.2147 83.0499 41.2161 83.3551L42.2167 83.3472ZM41.2461 89.9042C41.2475 90.2095 41.4726 90.4552 41.7489 90.453C42.0252 90.4507 42.2481 90.2015 42.2467 89.8963L41.2461 89.9042ZM42.2767 96.4454C42.2753 96.1401 42.0502 95.8944 41.7739 95.8967C41.4976 95.8989 41.2747 96.1481 41.2761 96.4533L42.2767 96.4454ZM41.3061 103.002C41.3075 103.308 41.5326 103.553 41.8089 103.551C42.0852 103.549 42.3081 103.3 42.3067 102.994L41.3061 103.002ZM42.3367 109.544C42.3353 109.238 42.1102 108.993 41.8339 108.995C41.5576 108.997 41.3347 109.246 41.3361 109.552L42.3367 109.544ZM41.3661 116.101C41.3675 116.406 41.5927 116.652 41.869 116.65C42.1453 116.647 42.3681 116.397 42.3667 116.093L41.3661 116.101ZM42.3967 122.642C42.3953 122.337 42.1702 122.091 41.8939 122.094C41.6176 122.096 41.3948 122.345 41.3962 122.65L42.3967 122.642ZM41.4262 129.199C41.4276 129.504 41.6527 129.75 41.929 129.748C42.2053 129.745 42.4281 129.496 42.4267 129.191L41.4262 129.199ZM42.4567 135.74C42.4553 135.435 42.2302 135.189 41.9539 135.192C41.6776 135.194 41.4548 135.443 41.4562 135.748L42.4567 135.74ZM41.4862 142.297C41.4876 142.602 41.7127 142.848 41.989 142.845C42.2653 142.843 42.4881 142.594 42.4868 142.289L41.4862 142.297ZM42.5168 148.838C42.5154 148.533 42.2902 148.287 42.0139 148.29C41.7376 148.292 41.5148 148.541 41.5162 148.846L42.5168 148.838ZM41.5462 155.395C41.5476 155.7 41.7727 155.946 42.049 155.943C42.3253 155.941 42.5482 155.692 42.5468 155.387L41.5462 155.395ZM42.5768 161.936C42.5754 161.631 42.3503 161.385 42.074 161.387C41.7977 161.39 41.5748 161.639 41.5762 161.944L42.5768 161.936ZM41.6062 168.494C41.6076 168.798 41.8327 169.045 42.109 169.043C42.3853 169.04 42.6082 168.79 42.6068 168.485L41.6062 168.494ZM42.6368 175.034C42.6354 174.729 42.4103 174.483 42.134 174.485C41.8577 174.488 41.6348 174.738 41.6362 175.043L42.6368 175.034ZM41.6662 181.592C41.6676 181.897 41.8928 182.143 42.1691 182.141C42.4454 182.138 42.6682 181.889 42.6668 181.584L41.6662 181.592ZM42.6968 188.133C42.6954 187.828 42.4703 187.582 42.194 187.585C41.9177 187.587 41.6949 187.836 41.6963 188.141L42.6968 188.133ZM41.7263 194.69C41.7277 194.995 41.9528 195.241 42.2291 195.238C42.5054 195.236 42.7282 194.987 42.7268 194.682L41.7263 194.69ZM42.7568 201.231C42.7554 200.926 42.5303 200.68 42.254 200.683C41.9777 200.685 41.7549 200.934 41.7563 201.239L42.7568 201.231ZM41.7863 207.788C41.7877 208.093 42.0128 208.339 42.2891 208.336C42.5654 208.334 42.7882 208.085 42.7868 207.78L41.7863 207.788ZM42.8169 214.329C42.8155 214.024 42.5903 213.778 42.314 213.78C42.0377 213.783 41.8149 214.032 41.8163 214.337L42.8169 214.329ZM38.8833 217.036C38.607 217.035 38.3814 217.281 38.3795 217.586C38.3775 217.892 38.5999 218.141 38.8762 218.142L38.8833 217.036ZM31.9725 218.104C32.2488 218.105 32.4744 217.86 32.4763 217.554C32.4783 217.249 32.2559 217 31.9796 216.998L31.9725 218.104ZM25.0759 216.96C24.7996 216.959 24.574 217.206 24.5721 217.511C24.5701 217.817 24.7925 218.065 25.0688 218.066L25.0759 216.96ZM18.1651 218.029C18.4414 218.03 18.667 217.784 18.6689 217.479C18.6709 217.174 18.4485 216.925 18.1722 216.923L18.1651 218.029ZM11.2685 216.885C10.9922 216.884 10.7666 217.131 10.7647 217.436C10.7627 217.741 10.9851 217.99 11.2614 217.991L11.2685 216.885ZM4.35773 217.954C4.63402 217.955 4.85958 217.709 4.86153 217.404C4.86349 217.099 4.64109 216.85 4.36479 216.848L4.35773 217.954ZM213.379 8.42078L210.307 8.40404L210.3 9.50946L213.371 9.52618L213.379 8.42078ZM204.164 8.37058L198.021 8.33713L198.014 9.44253L204.157 9.47599L204.164 8.37058ZM191.878 8.30366L185.735 8.2702L185.728 9.3756L191.871 9.40906L191.878 8.30366ZM179.592 8.23673L173.449 8.20327L173.442 9.30868L179.585 9.34215L179.592 8.23673ZM167.306 8.16981L161.163 8.13634L161.156 9.24175L167.299 9.27522L167.306 8.16981ZM155.02 8.10288L148.877 8.06941L148.87 9.17483L155.013 9.20829L155.02 8.10288ZM142.734 8.03596L136.591 8.0025L136.584 9.1079L142.727 9.14136L142.734 8.03596ZM130.448 7.96903L124.305 7.93557L124.298 9.04098L130.441 9.07444L130.448 7.96903ZM118.162 7.9021L112.019 7.86864L112.012 8.97405L118.155 9.00752L118.162 7.9021ZM105.876 7.83518L99.7333 7.80171L99.7263 8.90712L105.869 8.94059L105.876 7.83518ZM93.5903 7.76826L87.4473 7.73479L87.4403 8.84021L93.5833 8.87366L93.5903 7.76826ZM81.3043 7.70133L75.1613 7.66787L75.1542 8.77328L81.2973 8.80674L81.3043 7.70133ZM69.0183 7.6344L62.8753 7.60094L62.8682 8.70635L69.0112 8.73981L69.0183 7.6344ZM56.7323 7.56747L50.5893 7.53401L50.5823 8.63942L56.7253 8.67289L56.7323 7.56747ZM44.4463 7.50056L41.3748 7.48382L41.3677 8.58923L44.4393 8.60596L44.4463 7.50056ZM40.871 8.0405L40.886 11.3151L41.8866 11.3071L41.8716 8.03255L40.871 8.0405ZM40.916 17.8642L40.946 24.4133L41.9466 24.4053L41.9166 17.8562L40.916 17.8642ZM40.976 30.9624L41.006 37.5115L42.0066 37.5035L41.9766 30.9544L40.976 30.9624ZM41.036 44.0606L41.0661 50.6097L42.0666 50.6017L42.0366 44.0526L41.036 44.0606ZM41.0961 57.1587L41.1261 63.7078L42.1266 63.6999L42.0966 57.1508L41.0961 57.1587ZM41.1561 70.2569L41.1861 76.806L42.1867 76.7981L42.1566 70.249L41.1561 70.2569ZM41.2161 83.3551L41.2461 89.9042L42.2467 89.8963L42.2167 83.3472L41.2161 83.3551ZM41.2761 96.4533L41.3061 103.002L42.3067 102.994L42.2767 96.4454L41.2761 96.4533ZM41.3361 109.552L41.3661 116.101L42.3667 116.093L42.3367 109.544L41.3361 109.552ZM41.3962 122.65L41.4262 129.199L42.4267 129.191L42.3967 122.642L41.3962 122.65ZM41.4562 135.748L41.4862 142.297L42.4868 142.289L42.4567 135.74L41.4562 135.748ZM41.5162 148.846L41.5462 155.395L42.5468 155.387L42.5168 148.838L41.5162 148.846ZM41.5762 161.944L41.6062 168.494L42.6068 168.485L42.5768 161.936L41.5762 161.944ZM41.6362 175.043L41.6662 181.592L42.6668 181.584L42.6368 175.034L41.6362 175.043ZM41.6963 188.141L41.7263 194.69L42.7268 194.682L42.6968 188.133L41.6963 188.141ZM41.7563 201.239L41.7863 207.788L42.7868 207.78L42.7568 201.231L41.7563 201.239ZM41.8163 214.337L41.8313 217.612L42.8319 217.604L42.8169 214.329L41.8163 214.337ZM42.3351 217.054L38.8833 217.036L38.8762 218.142L42.328 218.16L42.3351 217.054ZM31.9796 216.998L25.0759 216.96L25.0688 218.066L31.9725 218.104L31.9796 216.998ZM18.1722 216.923L11.2685 216.885L11.2614 217.991L18.1651 218.029L18.1722 216.923ZM4.36479 216.848L0.912943 216.829L0.905877 217.935L4.35773 217.954L4.36479 216.848ZM214.078 9.75898C214.471 9.32942 214.475 8.62951 214.087 8.19569L207.765 1.12622C207.377 0.692401 206.743 0.68895 206.35 1.11851C205.957 1.54807 205.952 2.24798 206.34 2.68179L211.96 8.96578L206.26 15.1881C205.867 15.6177 205.862 16.3176 206.25 16.7514C206.638 17.1852 207.272 17.1886 207.665 16.7591L214.078 9.75898ZM41.3713 8.03653L41.3783 6.93111L40.3656 6.9256L40.3707 8.04448L41.3713 8.03653ZM42.3316 217.607L42.3245 218.714L43.3373 218.719L43.3321 217.6L42.3316 217.607ZM210.311 7.85134C209.758 7.84833 209.307 8.3408 209.303 8.9513C209.299 9.5618 209.744 10.0592 210.296 10.0622L210.311 7.85134ZM204.153 10.0287C204.706 10.0317 205.157 9.53924 205.161 8.92873C205.165 8.31823 204.72 7.82089 204.168 7.81787L204.153 10.0287ZM198.025 7.78442C197.472 7.78141 197.021 8.27387 197.017 8.88437C197.013 9.49487 197.458 9.99222 198.01 9.99523L198.025 7.78442ZM191.867 9.96177C192.42 9.96478 192.871 9.47232 192.875 8.86182C192.879 8.25132 192.434 7.75397 191.882 7.75096L191.867 9.96177ZM185.739 7.71749C185.186 7.71448 184.735 8.20695 184.731 8.81745C184.727 9.42796 185.172 9.9253 185.724 9.92832L185.739 7.71749ZM179.581 9.89485C180.134 9.89785 180.585 9.40539 180.589 8.79489C180.593 8.18439 180.148 7.68704 179.596 7.68403L179.581 9.89485ZM173.453 7.65056C172.9 7.64755 172.449 8.14002 172.445 8.75053C172.441 9.36103 172.886 9.85838 173.438 9.86139L173.453 7.65056ZM167.295 9.82792C167.848 9.83094 168.299 9.33846 168.303 8.72796C168.307 8.11746 167.862 7.62011 167.31 7.6171L167.295 9.82792ZM161.167 7.58364C160.614 7.58062 160.163 8.0731 160.159 8.6836C160.155 9.2941 160.6 9.79145 161.152 9.79446L161.167 7.58364ZM155.009 9.761C155.562 9.76401 156.013 9.27154 156.017 8.66103C156.021 8.05053 155.576 7.55318 155.024 7.55017L155.009 9.761ZM148.881 7.51672C148.328 7.51371 147.877 8.00617 147.873 8.61667C147.869 9.22717 148.314 9.72452 148.866 9.72753L148.881 7.51672ZM142.723 9.69407C143.276 9.69708 143.727 9.20461 143.731 8.59411C143.735 7.98361 143.29 7.48627 142.738 7.48325L142.723 9.69407ZM136.594 7.44979C136.042 7.44678 135.591 7.93924 135.587 8.54974C135.583 9.16024 136.028 9.6576 136.58 9.6606L136.594 7.44979ZM130.437 9.62714C130.99 9.63015 131.441 9.13769 131.445 8.52719C131.449 7.91669 131.004 7.41934 130.451 7.41633L130.437 9.62714ZM124.308 7.38286C123.756 7.37985 123.305 7.87232 123.301 8.48283C123.297 9.09333 123.742 9.59068 124.294 9.59369L124.308 7.38286ZM118.151 9.56022C118.704 9.56323 119.155 9.07076 119.159 8.46026C119.163 7.84976 118.718 7.35241 118.165 7.3494L118.151 9.56022ZM112.022 7.31593C111.47 7.31292 111.019 7.8054 111.015 8.4159C111.011 9.0264 111.456 9.52375 112.008 9.52676L112.022 7.31593ZM105.865 9.49329C106.418 9.49631 106.869 9.00384 106.873 8.39333C106.877 7.78283 106.432 7.28548 105.879 7.28247L105.865 9.49329ZM99.7369 7.24902C99.1843 7.24601 98.7331 7.73847 98.7292 8.34897C98.7253 8.95947 99.1701 9.45682 99.7227 9.45983L99.7369 7.24902ZM93.5797 9.42637C94.1323 9.42938 94.5834 8.93691 94.5873 8.32641C94.5912 7.71591 94.1464 7.21855 93.5939 7.21555L93.5797 9.42637ZM87.4509 7.18209C86.8983 7.17908 86.4471 7.67154 86.4432 8.28204C86.4393 8.89254 86.8841 9.3899 87.4367 9.3929L87.4509 7.18209ZM81.2937 9.35945C81.8463 9.36245 82.2974 8.86998 82.3013 8.25948C82.3052 7.64898 81.8604 7.15164 81.3078 7.14862L81.2937 9.35945ZM75.1648 7.11516C74.6123 7.11215 74.1611 7.60461 74.1572 8.21513C74.1533 8.82563 74.5981 9.32297 75.1507 9.32598L75.1648 7.11516ZM69.0077 9.29252C69.5603 9.29553 70.0114 8.80306 70.0153 8.19256C70.0192 7.58206 69.5744 7.08471 69.0218 7.0817L69.0077 9.29252ZM62.8788 7.04823C62.3263 7.04522 61.8751 7.5377 61.8712 8.1482C61.8673 8.7587 62.3121 9.25605 62.8647 9.25906L62.8788 7.04823ZM56.7217 9.22559C57.2743 9.2286 57.7254 8.73614 57.7293 8.12563C57.7332 7.51513 57.2884 7.01778 56.7359 7.01477L56.7217 9.22559ZM50.5929 6.9813C50.0403 6.9783 49.5891 7.47077 49.5852 8.08127C49.5813 8.69177 50.0261 9.18912 50.5787 9.19213L50.5929 6.9813ZM44.4357 9.15867C44.9883 9.16168 45.4394 8.66921 45.4433 8.05871C45.4472 7.44821 45.0024 6.95085 44.4498 6.94785L44.4357 9.15867ZM40.3857 11.3191C40.3885 11.9295 40.8387 12.4208 41.3913 12.4165C41.9439 12.4121 42.3896 11.9136 42.3868 11.3031L40.3857 11.3191ZM42.4168 17.8522C42.4141 17.2417 41.9638 16.7504 41.4112 16.7548C40.8586 16.7591 40.4129 17.2576 40.4157 17.8682L42.4168 17.8522ZM40.4457 24.4173C40.4485 25.0277 40.8988 25.519 41.4514 25.5147C42.004 25.5103 42.4497 25.0118 42.4469 24.4013L40.4457 24.4173ZM42.4769 30.9504C42.4741 30.3399 42.0238 29.8486 41.4712 29.853C40.9186 29.8574 40.4729 30.3558 40.4757 30.9664L42.4769 30.9504ZM40.5058 37.5154C40.5086 38.1259 40.9588 38.6173 41.5114 38.6129C42.064 38.6085 42.5097 38.11 42.5069 37.4995L40.5058 37.5154ZM42.5369 44.0486C42.5341 43.4381 42.0839 42.9468 41.5313 42.9512C40.9787 42.9556 40.533 43.454 40.5358 44.0645L42.5369 44.0486ZM40.5658 50.6136C40.5686 51.2241 41.0188 51.7155 41.5714 51.7111C42.124 51.7066 42.5697 51.2083 42.5669 50.5977L40.5658 50.6136ZM42.5969 57.1468C42.5941 56.5364 42.1439 56.0449 41.5913 56.0494C41.0387 56.0538 40.593 56.5522 40.5958 57.1627L42.5969 57.1468ZM40.6258 63.7118C40.6286 64.3223 41.0788 64.8137 41.6314 64.8093C42.184 64.8048 42.6297 64.3064 42.6269 63.6959L40.6258 63.7118ZM42.6569 70.245C42.6541 69.6346 42.2039 69.1431 41.6513 69.1476C41.0987 69.152 40.653 69.6504 40.6558 70.2609L42.6569 70.245ZM40.6858 76.81C40.6886 77.4205 41.1388 77.9119 41.6914 77.9075C42.244 77.903 42.6897 77.4046 42.6869 76.7941L40.6858 76.81ZM42.7169 83.3432C42.7141 82.7328 42.2639 82.2413 41.7113 82.2458C41.1587 82.2502 40.713 82.7486 40.7158 83.3591L42.7169 83.3432ZM40.7458 89.9082C40.7486 90.5187 41.1989 91.0101 41.7515 91.0056C42.3041 91.0012 42.7498 90.5028 42.747 89.8923L40.7458 89.9082ZM42.777 96.4414C42.7742 95.831 42.3239 95.3395 41.7713 95.3439C41.2187 95.3484 40.773 95.8468 40.7758 96.4573L42.777 96.4414ZM40.8058 103.006C40.8086 103.617 41.2589 104.108 41.8115 104.104C42.3641 104.099 42.8098 103.601 42.807 102.99L40.8058 103.006ZM42.837 109.54C42.8342 108.929 42.384 108.438 41.8314 108.442C41.2788 108.447 40.8331 108.945 40.8359 109.556L42.837 109.54ZM40.8659 116.104C40.8687 116.715 41.3189 117.206 41.8715 117.203C42.4241 117.198 42.8698 116.699 42.867 116.089L40.8659 116.104ZM42.897 122.638C42.8942 122.027 42.444 121.536 41.8914 121.541C41.3388 121.545 40.8931 122.043 40.8959 122.653L42.897 122.638ZM40.9259 129.203C40.9287 129.813 41.3789 130.305 41.9315 130.301C42.4841 130.296 42.9298 129.797 42.927 129.187L40.9259 129.203ZM42.957 135.736C42.9542 135.125 42.504 134.634 41.9514 134.639C41.3988 134.643 40.9531 135.142 40.9559 135.752L42.957 135.736ZM40.9859 142.301C40.9887 142.912 41.4389 143.403 41.9915 143.399C42.5441 143.394 42.9898 142.895 42.987 142.285L40.9859 142.301ZM43.017 148.834C43.0142 148.223 42.564 147.732 42.0114 147.736C41.4588 147.741 41.0131 148.24 41.0159 148.85L43.017 148.834ZM41.0459 155.399C41.0487 156.01 41.499 156.501 42.0516 156.496C42.6041 156.492 43.0498 155.993 43.0471 155.384L41.0459 155.399ZM43.0771 161.933C43.0743 161.322 42.624 160.83 42.0714 160.834C41.5188 160.839 41.0731 161.338 41.0759 161.948L43.0771 161.933ZM41.1059 168.497C41.1087 169.108 41.559 169.599 42.1116 169.594C42.6642 169.59 43.1099 169.092 43.1071 168.482L41.1059 168.497ZM43.1371 175.031C43.1343 174.42 42.684 173.929 42.1315 173.934C41.5789 173.938 41.1332 174.436 41.136 175.046L43.1371 175.031ZM41.166 181.595C41.1688 182.206 41.619 182.698 42.1716 182.694C42.7242 182.689 43.1699 182.19 43.1671 181.58L41.166 181.595ZM43.1971 188.129C43.1943 187.518 42.7441 187.027 42.1915 187.032C41.6389 187.036 41.1932 187.534 41.196 188.144L43.1971 188.129ZM41.226 194.694C41.2288 195.304 41.679 195.796 42.2316 195.792C42.7842 195.787 43.2299 195.288 43.2271 194.678L41.226 194.694ZM43.2571 201.227C43.2543 200.616 42.8041 200.125 42.2515 200.129C41.6989 200.134 41.2532 200.633 41.256 201.243L43.2571 201.227ZM41.286 207.792C41.2888 208.403 41.739 208.894 42.2916 208.889C42.8442 208.885 43.2899 208.386 43.2871 207.776L41.286 207.792ZM43.3171 214.325C43.3143 213.715 42.8641 213.223 42.3115 213.227C41.7589 213.232 41.3132 213.731 41.316 214.341L43.3171 214.325ZM38.8868 216.484C38.3342 216.48 37.8831 216.973 37.8792 217.583C37.8753 218.194 38.3201 218.691 38.8727 218.695L38.8868 216.484ZM31.969 218.657C32.5216 218.659 32.9727 218.167 32.9766 217.557C32.9805 216.946 32.5357 216.448 31.9831 216.446L31.969 218.657ZM25.0794 216.408C24.5268 216.405 24.0757 216.897 24.0718 217.508C24.0679 218.118 24.5127 218.616 25.0653 218.619L25.0794 216.408ZM18.1616 218.582C18.7142 218.584 19.1653 218.092 19.1692 217.481C19.1731 216.871 18.7283 216.373 18.1757 216.371L18.1616 218.582ZM11.272 216.333C10.7194 216.33 10.2683 216.822 10.2644 217.433C10.2605 218.043 10.7053 218.541 11.2579 218.544L11.272 216.333ZM4.35419 218.507C4.90678 218.509 5.35791 218.017 5.36181 217.406C5.36571 216.796 4.92091 216.298 4.36832 216.296L4.35419 218.507ZM213.382 7.86808L210.311 7.85134L210.296 10.0622L213.368 10.0789L213.382 7.86808ZM204.168 7.81787L198.025 7.78442L198.01 9.99523L204.153 10.0287L204.168 7.81787ZM191.882 7.75096L185.739 7.71749L185.724 9.92832L191.867 9.96177L191.882 7.75096ZM179.596 7.68403L173.453 7.65056L173.438 9.86139L179.581 9.89485L179.596 7.68403ZM167.31 7.6171L161.167 7.58364L161.152 9.79446L167.295 9.82792L167.31 7.6171ZM155.024 7.55017L148.881 7.51672L148.866 9.72753L155.009 9.761L155.024 7.55017ZM142.738 7.48325L136.594 7.44979L136.58 9.6606L142.723 9.69407L142.738 7.48325ZM130.451 7.41633L124.308 7.38286L124.294 9.59369L130.437 9.62714L130.451 7.41633ZM118.165 7.3494L112.022 7.31593L112.008 9.52676L118.151 9.56022L118.165 7.3494ZM105.879 7.28247L99.7369 7.24902L99.7227 9.45983L105.865 9.49329L105.879 7.28247ZM93.5939 7.21555L87.4509 7.18209L87.4367 9.3929L93.5797 9.42637L93.5939 7.21555ZM81.3078 7.14862L75.1648 7.11516L75.1507 9.32598L81.2937 9.35945L81.3078 7.14862ZM69.0218 7.0817L62.8788 7.04823L62.8647 9.25906L69.0077 9.29252L69.0218 7.0817ZM56.7359 7.01477L50.5929 6.9813L50.5787 9.19213L56.7217 9.22559L56.7359 7.01477ZM44.4498 6.94785L41.3783 6.93111L41.3642 9.14194L44.4357 9.15867L44.4498 6.94785ZM40.3707 8.04448L40.3857 11.3191L42.3868 11.3031L42.3718 8.02858L40.3707 8.04448ZM40.4157 17.8682L40.4457 24.4173L42.4469 24.4013L42.4168 17.8522L40.4157 17.8682ZM40.4757 30.9664L40.5058 37.5154L42.5069 37.4995L42.4769 30.9504L40.4757 30.9664ZM40.5358 44.0645L40.5658 50.6136L42.5669 50.5977L42.5369 44.0486L40.5358 44.0645ZM40.5958 57.1627L40.6258 63.7118L42.6269 63.6959L42.5969 57.1468L40.5958 57.1627ZM40.6558 70.2609L40.6858 76.81L42.6869 76.7941L42.6569 70.245L40.6558 70.2609ZM40.7158 83.3591L40.7458 89.9082L42.747 89.8923L42.7169 83.3432L40.7158 83.3591ZM40.7758 96.4573L40.8058 103.006L42.807 102.99L42.777 96.4414L40.7758 96.4573ZM40.8359 109.556L40.8659 116.104L42.867 116.089L42.837 109.54L40.8359 109.556ZM40.8959 122.653L40.9259 129.203L42.927 129.187L42.897 122.638L40.8959 122.653ZM40.9559 135.752L40.9859 142.301L42.987 142.285L42.957 135.736L40.9559 135.752ZM41.0159 148.85L41.0459 155.399L43.0471 155.384L43.017 148.834L41.0159 148.85ZM41.0759 161.948L41.1059 168.497L43.1071 168.482L43.0771 161.933L41.0759 161.948ZM41.136 175.046L41.166 181.595L43.1671 181.58L43.1371 175.031L41.136 175.046ZM41.196 188.144L41.226 194.694L43.2271 194.678L43.1971 188.129L41.196 188.144ZM41.256 201.243L41.286 207.792L43.2871 207.776L43.2571 201.227L41.256 201.243ZM41.316 214.341L41.331 217.615L43.3321 217.6L43.3171 214.325L41.316 214.341ZM42.3386 216.502L38.8868 216.484L38.8727 218.695L42.3245 218.714L42.3386 216.502ZM31.9831 216.446L25.0794 216.408L25.0653 218.619L31.969 218.657L31.9831 216.446ZM18.1757 216.371L11.272 216.333L11.2579 218.544L18.1616 218.582L18.1757 216.371ZM4.36832 216.296L0.916476 216.277L0.902344 218.488L4.35419 218.507L4.36832 216.296Z" fill="#BB6BD9"/>
</g>
<defs>
<clipPath id="clip0_877_1452">
<rect width="215" height="219" fill="white"/>
</clipPath>
</defs>
</svg>
