<svg width="16" height="30" viewBox="0 0 16 30" fill="none" xmlns="http://www.w3.org/2000/svg">
<path d="M7.58806 28.7063C7.78321 28.8948 8.0996 28.8839 8.29475 28.6819L11.4748 25.3902C11.67 25.1882 11.67 24.8716 11.4748 24.6831C11.2797 24.4945 10.9633 24.5055 10.7682 24.7075L7.94141 27.6334L5.11466 24.9026C4.91952 24.714 4.60312 24.725 4.40798 24.927C4.21283 25.129 4.21283 25.4455 4.40798 25.6341L7.58806 28.7063ZM7.4417 3.84244C7.4417 4.11858 7.66543 4.33472 7.94141 4.32519C8.21738 4.31567 8.44111 4.08409 8.44111 3.80795L7.4417 3.84244ZM8.44111 10.8123C8.44111 10.5362 8.21738 10.3201 7.94141 10.3296C7.66543 10.3391 7.4417 10.5707 7.4417 10.8468L8.44111 10.8123ZM7.4417 17.8512C7.4417 18.1274 7.66543 18.3435 7.94141 18.334C8.21738 18.3244 8.44111 18.0929 8.44111 17.8167L7.4417 17.8512ZM8.44111 24.8211C8.44111 24.545 8.21738 24.3288 7.94141 24.3384C7.66543 24.3479 7.4417 24.5795 7.4417 24.8556L8.44111 24.8211ZM7.4417 0.340244V3.84244L8.44111 3.80795V0.305752L7.4417 0.340244ZM7.4417 10.8468L7.4417 17.8512L8.44111 17.8167V10.8123L7.4417 10.8468ZM7.4417 24.8556L7.4417 28.3578L8.44111 28.3233V24.8211L7.4417 24.8556ZM7.23472 29.072C7.62501 29.4491 8.2578 29.4273 8.64809 29.0233L15.0083 22.4398C15.3986 22.0358 15.3986 21.4026 15.0083 21.0256C14.618 20.6485 13.9852 20.6704 13.5949 21.0744L7.94141 26.9263L2.28792 21.4646C1.89763 21.0875 1.26484 21.1094 0.874546 21.5134C0.484254 21.9174 0.484254 22.5505 0.874546 22.9276L7.23472 29.072ZM6.942 3.85968C6.942 4.41197 7.38945 4.84424 7.94141 4.82519C8.49336 4.80614 8.94081 4.34298 8.94081 3.7907L6.942 3.85968ZM8.94081 10.7951C8.94081 10.2428 8.49336 9.81053 7.94141 9.82958C7.38945 9.84863 6.942 10.3118 6.942 10.8641L8.94081 10.7951ZM6.942 17.8685C6.942 18.4207 7.38945 18.853 7.94141 18.834C8.49336 18.8149 8.94081 18.3518 8.94081 17.7995L6.942 17.8685ZM8.94081 24.8039C8.94081 24.2516 8.49336 23.8193 7.94141 23.8384C7.38945 23.8574 6.942 24.3206 6.942 24.8728L8.94081 24.8039ZM6.942 0.357491V3.85968L8.94081 3.7907V0.288505L6.942 0.357491ZM6.942 10.8641L6.942 17.8685L8.94081 17.7995V10.7951L6.942 10.8641ZM6.942 24.8728L6.942 28.375L8.94081 28.3061V24.8039L6.942 24.8728Z" fill="#BB6BD9"/>
</svg>
