<svg width="37" height="37" viewBox="0 0 37 37" fill="none" xmlns="http://www.w3.org/2000/svg">
<rect x="0.589844" y="0.479004" width="36" height="36" rx="18" fill="#97AFD5" fill-opacity="0.05"/>
<path d="M23.5648 17.3853H19.9086V13.729C19.9086 13.2974 19.5277 12.9165 19.0961 12.9165H18.2836C17.8266 12.9165 17.4711 13.2974 17.4711 13.729V17.3853H13.8148C13.3578 17.3853 13.0023 17.7661 13.0023 18.1978V19.0103C13.0023 19.4673 13.3578 19.8228 13.8148 19.8228H17.4711V23.479C17.4711 23.936 17.8266 24.2915 18.2836 24.2915H19.0961C19.5277 24.2915 19.9086 23.936 19.9086 23.479V19.8228H23.5648C23.9965 19.8228 24.3773 19.4673 24.3773 19.0103V18.1978C24.3773 17.7661 23.9965 17.3853 23.5648 17.3853Z" fill="#97AFD5"/>
</svg>
