<svg width="19" height="19" viewBox="0 0 19 19" fill="none" xmlns="http://www.w3.org/2000/svg">
<g clip-path="url(#clip0_264_57490)">
<path d="M16.5192 4.36512C16.1362 3.98187 15.6814 3.67785 15.1808 3.47043C14.6802 3.26301 14.1436 3.15625 13.6018 3.15625C13.0599 3.15625 12.5233 3.26301 12.0227 3.47043C11.5221 3.67785 11.0673 3.98187 10.6842 4.36512L9.88925 5.16012L9.09425 4.36512C8.32048 3.59135 7.27102 3.15665 6.17675 3.15665C5.08247 3.15665 4.03302 3.59135 3.25925 4.36512C2.48548 5.13889 2.05078 6.18834 2.05078 7.28262C2.05078 8.37689 2.48548 9.42635 3.25925 10.2001L4.05425 10.9951L9.88925 16.8301L15.7242 10.9951L16.5192 10.2001C16.9025 9.81705 17.2065 9.36223 17.4139 8.86164C17.6214 8.36104 17.7281 7.82448 17.7281 7.28262C17.7281 6.74075 17.6214 6.2042 17.4139 5.7036C17.2065 5.20301 16.9025 4.74819 16.5192 4.36512Z" stroke="#97AFD5" stroke-linecap="round" stroke-linejoin="round"/>
</g>
<defs>
<clipPath id="clip0_264_57490">
<rect width="18" height="18" fill="white" transform="translate(0.890625 0.908203)"/>
</clipPath>
</defs>
</svg>
