<svg width="13" height="11" viewBox="0 0 13 11" fill="none" xmlns="http://www.w3.org/2000/svg">
<path d="M11.5013 2.87648C11.5013 2.99309 11.5013 3.08637 11.5013 3.20297C11.5013 6.44449 9.05267 10.1524 4.55185 10.1524C3.15263 10.1524 1.87002 9.75598 0.797281 9.05637C0.983844 9.07969 1.17041 9.10301 1.38029 9.10301C2.52298 9.10301 3.5724 8.70656 4.41193 8.05359C3.3392 8.03027 2.4297 7.33066 2.12654 6.35121C2.28978 6.37453 2.4297 6.39785 2.59295 6.39785C2.80283 6.39785 3.03603 6.35121 3.22259 6.30457C2.10322 6.07137 1.26369 5.09191 1.26369 3.90258V3.87926C1.59017 4.06582 1.98662 4.1591 2.38306 4.18242C1.70677 3.73934 1.28701 2.99309 1.28701 2.15355C1.28701 1.68715 1.40361 1.26738 1.61349 0.917578C2.82615 2.38676 4.64513 3.36621 6.674 3.48281C6.62736 3.29625 6.60404 3.10969 6.60404 2.92312C6.60404 1.57055 7.70009 0.474492 9.05267 0.474492C9.75228 0.474492 10.3819 0.754336 10.8483 1.24406C11.3847 1.12746 11.9211 0.917578 12.3875 0.637734C12.2009 1.22074 11.8278 1.68715 11.3147 1.99031C11.8045 1.94367 12.2942 1.80375 12.714 1.61719C12.3875 2.10691 11.9677 2.52668 11.5013 2.87648Z" fill="#97AFD5"/>
</svg>
