<svg width="63" height="62" viewBox="0 0 63 62" fill="none" xmlns="http://www.w3.org/2000/svg">
<path d="M49.294 11.428C46.1244 5.9932 41.8432 3 37.24 3H23.8C19.1968 3 14.9156 5.9932 11.76 11.428C8.68 16.6752 7 23.6248 7 31C7 38.3752 8.68 45.3248 11.76 50.572C14.9156 56.0068 19.1968 59 23.8 59H37.24C41.8432 59 46.1244 56.0068 49.294 50.572C52.36 45.3248 54.04 38.3752 54.04 31C54.04 23.6248 52.36 16.6752 49.294 11.428ZM48.2356 47.8H37.268C39.2952 43.2808 40.4516 37.8516 40.5832 32.12H51.7832C51.6432 37.9356 50.4 43.3984 48.2356 47.8ZM40.5832 29.88C40.4516 24.1484 39.2952 18.7192 37.268 14.2H48.2356C50.4028 18.6016 51.6432 24.0644 51.7832 29.88H40.5832ZM37.24 5.24C40.8492 5.24 44.2932 7.6228 46.9952 11.96H36.1508C36.0528 11.7836 35.9548 11.6016 35.854 11.428C34.2916 8.7512 32.4604 6.668 30.4528 5.24H37.24ZM13.6808 49.4436C10.8164 44.5352 9.24 38 9.24 31C9.24 24 10.8164 17.4648 13.6808 12.5564C16.4332 7.8384 20.0256 5.24 23.8 5.24C27.5744 5.24 31.1668 7.8384 33.9192 12.5564C36.7836 17.4648 38.36 24.014 38.36 31C38.36 37.986 36.7836 44.5352 33.9192 49.4436C31.1668 54.1616 27.5744 56.76 23.8 56.76C20.0256 56.76 16.4332 54.1616 13.6808 49.4436ZM37.24 56.76H30.4528C32.4604 55.3348 34.2916 53.2488 35.854 50.572C35.9548 50.3984 36.0528 50.2164 36.1508 50.04H46.9952C44.2932 54.3772 40.8492 56.76 37.24 56.76Z" fill="#EC474E" fill-opacity="0.7"/>
</svg>
