<svg width="62" height="62" viewBox="0 0 62 62" fill="none" xmlns="http://www.w3.org/2000/svg">
<path d="M44.9488 6.2C44.5377 6.2 44.1435 6.3633 43.8528 6.65399C43.5621 6.94467 43.3988 7.33892 43.3988 7.75C43.3988 8.16109 43.5621 8.55533 43.8528 8.84602C44.1435 9.1367 44.5377 9.3 44.9488 9.3H50.5071L35.6488 24.1583L27.4462 15.9526C27.3023 15.8083 27.1312 15.6937 26.9429 15.6156C26.7546 15.5375 26.5527 15.4972 26.3488 15.4972C26.145 15.4972 25.9431 15.5375 25.7548 15.6156C25.5665 15.6937 25.3954 15.8083 25.2514 15.9526L9.75143 31.4526C9.46038 31.7436 9.29687 32.1384 9.29688 32.55C9.29688 32.9616 9.46038 33.3564 9.75143 33.6474C10.0425 33.9384 10.4372 34.102 10.8488 34.102C11.2604 34.102 11.6552 33.9384 11.9462 33.6474L26.3488 19.2417L34.5514 27.4474C34.6954 27.5917 34.8665 27.7063 35.0548 27.7844C35.2431 27.8625 35.445 27.9028 35.6488 27.9028C35.8527 27.9028 36.0546 27.8625 36.2429 27.7844C36.4312 27.7063 36.6022 27.5917 36.7462 27.4474L52.6988 11.4917V17.05C52.6988 17.4611 52.8621 17.8553 53.1528 18.146C53.4435 18.4367 53.8377 18.6 54.2488 18.6C54.6599 18.6 55.0542 18.4367 55.3448 18.146C55.6355 17.8553 55.7988 17.4611 55.7988 17.05V7.75C55.7988 7.33892 55.6355 6.94467 55.3448 6.65399C55.0542 6.3633 54.6599 6.2 54.2488 6.2H44.9488ZM48.0488 27.9C47.6377 27.9 47.2435 28.0633 46.9528 28.354C46.6621 28.6447 46.4988 29.0389 46.4988 29.45V54.25C46.4988 54.6611 46.6621 55.0553 46.9528 55.346C47.2435 55.6367 47.6377 55.8 48.0488 55.8C48.4599 55.8 48.8542 55.6367 49.1448 55.346C49.4355 55.0553 49.5988 54.6611 49.5988 54.25V29.45C49.5988 29.0389 49.4355 28.6447 49.1448 28.354C48.8542 28.0633 48.4599 27.9 48.0488 27.9ZM23.2488 34.1C22.8377 34.1 22.4435 34.2633 22.1528 34.554C21.8621 34.8447 21.6988 35.2389 21.6988 35.65V54.25C21.6988 54.6611 21.8621 55.0553 22.1528 55.346C22.4435 55.6367 22.8377 55.8 23.2488 55.8C23.6599 55.8 24.0542 55.6367 24.3448 55.346C24.6355 55.0553 24.7988 54.6611 24.7988 54.25V35.65C24.7988 35.2389 24.6355 34.8447 24.3448 34.554C24.0542 34.2633 23.6599 34.1 23.2488 34.1ZM34.0988 41.85C34.0988 41.4389 34.2621 41.0447 34.5528 40.754C34.8435 40.4633 35.2377 40.3 35.6488 40.3C36.0599 40.3 36.4542 40.4633 36.7448 40.754C37.0355 41.0447 37.1988 41.4389 37.1988 41.85V54.25C37.1988 54.6611 37.0355 55.0553 36.7448 55.346C36.4542 55.6367 36.0599 55.8 35.6488 55.8C35.2377 55.8 34.8435 55.6367 34.5528 55.346C34.2621 55.0553 34.0988 54.6611 34.0988 54.25V41.85ZM9.29883 44.95C9.29883 44.5389 9.46214 44.1447 9.75282 43.854C10.0435 43.5633 10.4377 43.4 10.8488 43.4C11.2599 43.4 11.6542 43.5633 11.9448 43.854C12.2355 44.1447 12.3988 44.5389 12.3988 44.95V54.25C12.3988 54.6611 12.2355 55.0553 11.9448 55.346C11.6542 55.6367 11.2599 55.8 10.8488 55.8C10.4377 55.8 10.0435 55.6367 9.75282 55.346C9.46214 55.0553 9.29883 54.6611 9.29883 54.25V44.95Z" fill="#EC474E" fill-opacity="0.7"/>
</svg>
