<svg width="62" height="62" viewBox="0 0 62 62" fill="none" xmlns="http://www.w3.org/2000/svg">
<path d="M11.8864 2C9.26434 2 6.7497 3.0416 4.89565 4.89565C3.0416 6.7497 2 9.26434 2 11.8864V21.1136C2 21.638 2.20832 22.141 2.57913 22.5118C2.94994 22.8826 3.45287 23.0909 3.97727 23.0909C4.50168 23.0909 5.00461 22.8826 5.37542 22.5118C5.74623 22.141 5.95455 21.638 5.95455 21.1136V11.8864C5.95455 10.3131 6.5795 8.80437 7.69194 7.69194C8.80437 6.5795 10.3131 5.95455 11.8864 5.95455H21.1163C21.6407 5.95455 22.1436 5.74623 22.5144 5.37542C22.8852 5.00461 23.0935 4.50168 23.0935 3.97727C23.0935 3.45287 22.8852 2.94994 22.5144 2.57913C22.1436 2.20832 21.6407 2 21.1163 2H11.8864ZM40.8864 2C40.362 2 39.859 2.20832 39.4882 2.57913C39.1174 2.94994 38.9091 3.45287 38.9091 3.97727C38.9091 4.50168 39.1174 5.00461 39.4882 5.37542C39.859 5.74623 40.362 5.95455 40.8864 5.95455H50.1136C51.6869 5.95455 53.1956 6.5795 54.3081 7.69194C55.4205 8.80437 56.0455 10.3131 56.0455 11.8864V21.1136C56.0455 21.638 56.2538 22.141 56.6246 22.5118C56.9954 22.8826 57.4983 23.0909 58.0227 23.0909C58.5471 23.0909 59.0501 22.8826 59.4209 22.5118C59.7917 22.141 60 21.638 60 21.1136V11.8864C60 9.26434 58.9584 6.7497 57.1044 4.89565C55.2503 3.0416 52.7357 2 50.1136 2H40.8864ZM5.95455 40.8864C5.95455 40.362 5.74623 39.859 5.37542 39.4882C5.00461 39.1174 4.50168 38.9091 3.97727 38.9091C3.45287 38.9091 2.94994 39.1174 2.57913 39.4882C2.20832 39.859 2 40.362 2 40.8864V50.1136C2 52.7357 3.0416 55.2503 4.89565 57.1044C6.7497 58.9584 9.26434 60 11.8864 60H21.1136C21.638 60 22.141 59.7917 22.5118 59.4209C22.8826 59.0501 23.0909 58.5471 23.0909 58.0227C23.0909 57.4983 22.8826 56.9954 22.5118 56.6246C22.141 56.2538 21.638 56.0455 21.1136 56.0455H11.8864C10.3131 56.0455 8.80437 55.4205 7.69194 54.3081C6.5795 53.1956 5.95455 51.6869 5.95455 50.1136V40.8864ZM60 40.8864C60 40.362 59.7917 39.859 59.4209 39.4882C59.0501 39.1174 58.5471 38.9091 58.0227 38.9091C57.4983 38.9091 56.9954 39.1174 56.6246 39.4882C56.2538 39.859 56.0455 40.362 56.0455 40.8864V50.1136C56.0455 51.6869 55.4205 53.1956 54.3081 54.3081C53.1956 55.4205 51.6869 56.0455 50.1136 56.0455H40.8864C40.362 56.0455 39.859 56.2538 39.4882 56.6246C39.1174 56.9954 38.9091 57.4983 38.9091 58.0227C38.9091 58.5471 39.1174 59.0501 39.4882 59.4209C39.859 59.7917 40.362 60 40.8864 60H50.1136C52.7357 60 55.2503 58.9584 57.1044 57.1044C58.9584 55.2503 60 52.7357 60 50.1136V40.8864ZM15.8409 29.0227C15.3165 29.0227 14.8136 29.231 14.4428 29.6019C14.072 29.9727 13.8636 30.4756 13.8636 31C13.8636 31.5244 14.072 32.0273 14.4428 32.3981C14.8136 32.769 15.3165 32.9773 15.8409 32.9773H46.1591C46.6835 32.9773 47.1864 32.769 47.5572 32.3981C47.928 32.0273 48.1364 31.5244 48.1364 31C48.1364 30.4756 47.928 29.9727 47.5572 29.6019C47.1864 29.231 46.6835 29.0227 46.1591 29.0227H15.8409Z" fill="#EC474E" fill-opacity="0.7"/>
</svg>
