<svg width="144" height="44" viewBox="0 0 144 44" fill="none" xmlns="http://www.w3.org/2000/svg">
<g clip-path="url(#clip0_5_58311)">
<path fill-rule="evenodd" clip-rule="evenodd" d="M19.3954 24.9712H22.3063C26.7555 24.9712 28.9839 23.2759 28.9839 19.8662C28.9839 18.1546 28.4021 16.8987 27.2399 16.0925C26.0808 15.2863 24.2903 14.8898 21.8575 14.8898H19.3938V24.9712H19.3954ZM19.3954 37.6429V41.5246C19.3954 42.7125 18.2951 43.6799 16.9472 43.6799H14.714C13.3661 43.6799 12.2658 42.7125 12.2658 41.5246V37.6429V35.7923V9.01696H22.9268C25.536 9.01696 27.6252 9.26697 29.1975 9.76993C30.7775 10.264 32.1502 11.1205 33.3279 12.3424C35.3289 14.409 36.3317 16.9238 36.3317 19.8942C36.3317 23.3928 35.2623 26.0969 33.1252 27.9934C30.988 29.8884 27.9532 30.8426 24.0271 30.8426H19.3969V35.7923L19.3954 37.6429ZM47.8872 24.165V29.8943C47.8872 31.0837 46.8596 32.0556 45.6076 32.0556H43.5277C42.2727 32.0556 41.2482 31.0837 41.2482 29.8943V24.165V24.1621V9.54953H47.8857V24.1621L47.8872 24.165ZM6.62966 2.59384V6.72554H0V2.59384C0 1.40448 1.01983 0.439941 2.27489 0.439941H4.35633C5.60984 0.439941 6.62966 1.40596 6.62966 2.59384ZM47.8872 2.59384V6.72554H41.2497V2.59384C41.2497 1.40448 42.2743 0.439941 43.5293 0.439941H45.6092C46.8596 0.439941 47.8872 1.40596 47.8872 2.59384ZM6.62966 9.55103V24.1635V24.1665V29.8958C6.62966 31.0852 5.60984 32.0571 4.35633 32.0571H2.27489C1.01829 32.0571 0 31.0852 0 29.8958V24.1665V24.1635V9.55103H6.62966Z" fill="#EF484F"/>
<path fill-rule="evenodd" clip-rule="evenodd" d="M74.8437 11.6313V12.8676C74.8437 13.5838 74.5155 14.2004 73.9024 14.6209C73.288 15.0414 72.5662 15.1469 71.8455 14.924C71.0463 14.6759 70.2452 14.5525 69.4265 14.5525C67.4696 14.5525 65.834 15.1498 64.5198 16.3593C63.2093 17.5688 62.5593 19.0844 62.5593 20.9045C62.5593 22.7485 63.2093 24.264 64.5198 25.4542C65.8359 26.6458 67.5224 27.2387 69.5667 27.2387C70.3445 27.2387 71.1098 27.1228 71.8644 26.894C72.5787 26.6771 73.3019 26.7855 73.9087 27.2075C74.5168 27.628 74.845 28.2461 74.845 28.9593V30.1049C74.845 31.0366 74.2558 31.8285 73.3314 32.1464C71.7946 32.6695 70.2106 32.928 68.5851 32.928C64.9568 32.928 61.8997 31.7824 59.4057 29.4778C56.9165 27.1793 55.6719 24.3591 55.6719 21.013C55.6719 17.548 56.9367 14.6625 59.4649 12.346C61.9899 10.0222 65.1498 8.86621 68.9335 8.86621C70.4734 8.86621 71.9487 9.11136 73.3547 9.60321C74.2696 9.9167 74.8437 10.7057 74.8437 11.6313Z" fill="#749CC7"/>
<path fill-rule="evenodd" clip-rule="evenodd" d="M120.572 9.59133H127.239V12.3966C129.192 10.0356 131.721 8.86321 134.817 8.86321C137.405 8.86321 139.526 9.59127 141.18 11.0548C142.076 11.8468 142.703 12.7517 143.064 13.7606C143.42 14.7695 143.602 16.1364 143.602 17.8511V24.2714V27.1525V30.0261C143.602 31.2208 142.579 32.197 141.317 32.197H139.223C137.961 32.197 136.937 31.2208 136.937 30.0261V27.1525V24.2714V19.6847C136.937 17.7204 136.587 16.3192 135.876 15.4827C135.184 14.658 133.998 14.2405 132.345 14.2405C128.933 14.2405 127.237 16.3267 127.237 20.5049V24.2714V27.1525V30.0261C127.237 31.2208 126.21 32.197 124.952 32.197H122.854C121.596 32.197 120.569 31.2208 120.569 30.0261V27.1525V24.2714V9.59133H120.572ZM114.406 2.60337V6.75334H107.74V2.60337C107.74 1.40875 108.767 0.439941 110.025 0.439941H112.122C113.383 0.439941 114.406 1.41024 114.406 2.60337ZM114.406 24.27V30.0246C114.406 31.2193 113.383 32.1955 112.121 32.1955H110.024C108.765 32.1955 107.738 31.2193 107.738 30.0246V24.27V24.267V9.58983H114.405V24.267V24.27H114.406Z" fill="#749CC7"/>
<path fill-rule="evenodd" clip-rule="evenodd" d="M90.4331 8.71484C97.6319 8.71484 103.463 14.1768 103.463 20.9166C103.463 27.6564 97.6319 33.1228 90.4331 33.1228C83.2312 33.1228 77.3945 27.6564 77.3945 20.9166C77.3945 14.1768 83.2312 8.71484 90.4331 8.71484ZM90.4331 14.5973C86.7055 14.5973 83.6809 17.4264 83.6809 20.9166C83.6809 24.4083 86.7042 27.2374 90.4331 27.2374C94.1595 27.2374 97.1823 24.4083 97.1823 20.9166C97.1823 17.4264 94.1595 14.5973 90.4331 14.5973Z" fill="#749CC7"/>
</g>
<defs>
<clipPath id="clip0_5_58311">
<rect width="144" height="43.24" fill="white" transform="translate(0 0.439941)"/>
</clipPath>
</defs>
</svg>
