<svg width="18" height="102" viewBox="0 0 18 102" fill="none" xmlns="http://www.w3.org/2000/svg">
<path d="M5.14663 101.038L5.14611 101.288L5.39678 101.288L5.39678 101.037L5.14663 101.038ZM17.3303 4.67528C17.4282 4.5777 17.4285 4.4195 17.331 4.32193L15.7425 2.73185C15.645 2.63428 15.4866 2.63428 15.3888 2.73185C15.2909 2.82943 15.2905 2.98763 15.388 3.0852L16.8 4.4986L15.382 5.912C15.2841 6.00958 15.2837 6.16778 15.3812 6.26535C15.4787 6.36293 15.6371 6.36293 15.735 6.26535L17.3303 4.67528ZM5.14667 4.4986L5.14721 4.24875L4.89653 4.24875L4.89653 4.49914L5.14667 4.4986ZM14.1525 4.24875C14.0144 4.24875 13.9021 4.36061 13.9018 4.4986C13.9016 4.63659 14.0133 4.74846 14.1515 4.74846L14.1525 4.24875ZM8.14791 4.74846C8.28606 4.74846 8.39829 4.63659 8.39859 4.4986C8.39888 4.36061 8.28713 4.24875 8.14898 4.24875L8.14791 4.74846ZM4.89653 6.91261C4.89653 7.0506 5.00852 7.16223 5.14667 7.16193C5.28482 7.16164 5.39681 7.04954 5.39682 6.91155L4.89653 6.91261ZM5.39681 11.7385C5.39681 11.6005 5.28482 11.4889 5.14667 11.4892C5.00852 11.4895 4.89653 11.6016 4.89653 11.7396L5.39681 11.7385ZM4.89652 16.5665C4.89652 16.7045 5.00852 16.8161 5.14667 16.8158C5.28482 16.8155 5.39681 16.7034 5.39681 16.5655L4.89652 16.5665ZM5.39681 21.3924C5.39681 21.2544 5.28482 21.1428 5.14667 21.1431C5.00851 21.1434 4.89652 21.2555 4.89652 21.3935L5.39681 21.3924ZM4.89652 26.2204C4.89652 26.3584 5.00851 26.47 5.14666 26.4697C5.28481 26.4695 5.39681 26.3573 5.39681 26.2194L4.89652 26.2204ZM5.39681 31.0463C5.3968 30.9083 5.28481 30.7967 5.14666 30.797C5.00851 30.7973 4.89652 30.9094 4.89652 31.0474L5.39681 31.0463ZM4.89652 35.8743C4.89651 36.0123 5.00851 36.1239 5.14666 36.1236C5.28481 36.1234 5.3968 36.0113 5.3968 35.8733L4.89652 35.8743ZM5.3968 40.7002C5.3968 40.5622 5.28481 40.4506 5.14666 40.4509C5.00851 40.4512 4.89651 40.5633 4.89651 40.7013L5.3968 40.7002ZM4.89651 45.5282C4.89651 45.6662 5.00851 45.7778 5.14666 45.7775C5.28481 45.7773 5.3968 45.6652 5.3968 45.5272L4.89651 45.5282ZM5.3968 50.3541C5.3968 50.2161 5.2848 50.1045 5.14665 50.1048C5.0085 50.1051 4.89651 50.2172 4.89651 50.3552L5.3968 50.3541ZM4.89651 55.1821C4.89651 55.3201 5.0085 55.4317 5.14665 55.4315C5.2848 55.4312 5.3968 55.3191 5.3968 55.1811L4.89651 55.1821ZM5.39679 60.008C5.39679 59.87 5.2848 59.7584 5.14665 59.7587C5.0085 59.759 4.89651 59.8711 4.89651 60.0091L5.39679 60.008ZM4.8965 64.836C4.8965 64.974 5.0085 65.0856 5.14665 65.0854C5.2848 65.0851 5.39679 64.973 5.39679 64.835L4.8965 64.836ZM5.39679 69.6619C5.39679 69.5239 5.2848 69.4123 5.14665 69.4126C5.0085 69.4129 4.8965 69.525 4.8965 69.663L5.39679 69.6619ZM4.8965 74.4899C4.8965 74.6279 5.00849 74.7396 5.14664 74.7393C5.2848 74.739 5.39679 74.6269 5.39679 74.4889L4.8965 74.4899ZM5.39679 79.3158C5.39679 79.1778 5.28479 79.0662 5.14664 79.0665C5.00849 79.0668 4.8965 79.1789 4.8965 79.3169L5.39679 79.3158ZM4.8965 84.1438C4.8965 84.2818 5.00849 84.3935 5.14664 84.3932C5.28479 84.3929 5.39679 84.2808 5.39678 84.1428L4.8965 84.1438ZM5.39678 88.9697C5.39678 88.8317 5.28479 88.7201 5.14664 88.7204C5.00849 88.7207 4.89649 88.8328 4.8965 88.9708L5.39678 88.9697ZM4.89649 93.7977C4.89649 93.9357 5.00849 94.0474 5.14664 94.0471C5.28479 94.0468 5.39678 93.9347 5.39678 93.7967L4.89649 93.7977ZM5.39678 98.6236C5.39678 98.4856 5.28478 98.374 5.14663 98.3743C5.00848 98.3746 4.89649 98.4867 4.89649 98.6247L5.39678 98.6236ZM4.08667 100.788C3.94852 100.788 3.8363 100.9 3.836 101.038C3.83571 101.176 3.94747 101.288 4.08562 101.288L4.08667 100.788ZM1.96465 101.288C2.1028 101.288 2.21503 101.176 2.21532 101.038C2.21561 100.9 2.10386 100.788 1.9657 100.788L1.96465 101.288ZM17.1543 4.24875L14.1525 4.24875L14.1515 4.74846L17.1532 4.74846L17.1543 4.24875ZM8.14898 4.24875L5.14721 4.24875L5.14614 4.74846L8.14791 4.74846L8.14898 4.24875ZM4.89653 4.49914L4.89653 6.91261L5.39682 6.91155L5.39682 4.49807L4.89653 4.49914ZM4.89653 11.7396L4.89652 16.5665L5.39681 16.5655L5.39681 11.7385L4.89653 11.7396ZM4.89652 21.3935L4.89652 26.2204L5.39681 26.2194L5.39681 21.3924L4.89652 21.3935ZM4.89652 31.0474L4.89652 35.8743L5.3968 35.8733L5.39681 31.0463L4.89652 31.0474ZM4.89651 40.7013L4.89651 45.5282L5.3968 45.5272L5.3968 40.7002L4.89651 40.7013ZM4.89651 50.3552L4.89651 55.1821L5.3968 55.1811L5.3968 50.3541L4.89651 50.3552ZM4.89651 60.0091L4.8965 64.836L5.39679 64.835L5.39679 60.008L4.89651 60.0091ZM4.8965 69.663L4.8965 74.4899L5.39679 74.4889L5.39679 69.6619L4.8965 69.663ZM4.8965 79.3169L4.8965 84.1438L5.39678 84.1428L5.39679 79.3158L4.8965 79.3169ZM4.8965 88.9708L4.89649 93.7977L5.39678 93.7967L5.39678 88.9697L4.8965 88.9708ZM4.89649 98.6247L4.89649 101.038L5.39678 101.037L5.39678 98.6236L4.89649 98.6247ZM5.14716 100.788L4.08667 100.788L4.08562 101.288L5.14611 101.288L5.14716 100.788ZM1.9657 100.788L0.905218 100.788L0.904165 101.288L1.96465 101.288L1.9657 100.788ZM5.14663 101.038L5.14558 101.537L5.64692 101.537L5.64692 101.037L5.14663 101.038ZM17.5068 4.85195C17.7026 4.6568 17.7032 4.3404 17.5083 4.14525L14.3313 0.965104C14.1363 0.769955 13.8195 0.769955 13.6237 0.965104C13.4279 1.16025 13.4273 1.47665 13.6222 1.6718L16.4463 4.4986L13.6102 7.3254C13.4144 7.52055 13.4137 7.83695 13.6087 8.0321C13.8036 8.22725 14.1204 8.22725 14.3162 8.0321L17.5068 4.85195ZM5.14667 4.4986L5.14774 3.99889L4.64639 3.99889L4.64638 4.49967L5.14667 4.4986ZM14.1531 3.99889C13.8768 3.99889 13.6523 4.22262 13.6517 4.4986C13.6511 4.77459 13.8746 4.99831 14.1509 4.99831L14.1531 3.99889ZM8.14738 4.99832C8.42368 4.99832 8.64814 4.77459 8.64873 4.4986C8.64932 4.22262 8.42581 3.99889 8.14951 3.99889L8.14738 4.99832ZM4.64638 6.91314C4.64638 7.18913 4.87037 7.41238 5.14667 7.41179C5.42297 7.4112 5.64696 7.187 5.64696 6.91101L4.64638 6.91314ZM5.64696 11.738C5.64696 11.462 5.42297 11.2387 5.14667 11.2393C4.87037 11.2399 4.64638 11.4641 4.64638 11.7401L5.64696 11.738ZM4.64638 16.567C4.64638 16.843 4.87037 17.0663 5.14667 17.0657C5.42297 17.0651 5.64695 16.8409 5.64695 16.5649L4.64638 16.567ZM5.64695 21.3919C5.64695 21.1159 5.42297 20.8926 5.14667 20.8932C4.87037 20.8938 4.64638 21.118 4.64638 21.394L5.64695 21.3919ZM4.64638 26.221C4.64638 26.4969 4.87036 26.7202 5.14666 26.7196C5.42296 26.719 5.64695 26.4948 5.64695 26.2188L4.64638 26.221ZM5.64695 31.0458C5.64695 30.7698 5.42296 30.5465 5.14666 30.5471C4.87036 30.5477 4.64637 30.7719 4.64637 31.0479L5.64695 31.0458ZM4.64637 35.8749C4.64637 36.1508 4.87036 36.3741 5.14666 36.3735C5.42296 36.3729 5.64695 36.1487 5.64695 35.8727L4.64637 35.8749ZM5.64695 40.6997C5.64695 40.4237 5.42296 40.2004 5.14666 40.201C4.87036 40.2016 4.64637 40.4258 4.64637 40.7018L5.64695 40.6997ZM4.64637 45.5288C4.64637 45.8047 4.87035 46.028 5.14666 46.0274C5.42296 46.0268 5.64694 45.8026 5.64694 45.5266L4.64637 45.5288ZM5.64694 50.3536C5.64694 50.0776 5.42296 49.8543 5.14665 49.8549C4.87035 49.8555 4.64637 50.0797 4.64637 50.3557L5.64694 50.3536ZM4.64636 55.1827C4.64636 55.4586 4.87035 55.6819 5.14665 55.6813C5.42295 55.6807 5.64694 55.4565 5.64694 55.1805L4.64636 55.1827ZM5.64694 60.0075C5.64694 59.7315 5.42295 59.5082 5.14665 59.5088C4.87035 59.5094 4.64636 59.7336 4.64636 60.0096L5.64694 60.0075ZM4.64636 64.8366C4.64636 65.1125 4.87035 65.3358 5.14665 65.3352C5.42295 65.3346 5.64694 65.1104 5.64694 64.8344L4.64636 64.8366ZM5.64693 69.6614C5.64693 69.3854 5.42295 69.1622 5.14665 69.1627C4.87034 69.1633 4.64636 69.3875 4.64636 69.6635L5.64693 69.6614ZM4.64636 74.4905C4.64636 74.7664 4.87034 74.9897 5.14664 74.9891C5.42294 74.9885 5.64693 74.7643 5.64693 74.4883L4.64636 74.4905ZM5.64693 79.3153C5.64693 79.0393 5.42294 78.8161 5.14664 78.8166C4.87034 78.8172 4.64635 79.0414 4.64635 79.3174L5.64693 79.3153ZM4.64635 84.1444C4.64635 84.4204 4.87034 84.6436 5.14664 84.643C5.42294 84.6424 5.64693 84.4182 5.64693 84.1422L4.64635 84.1444ZM5.64693 88.9692C5.64693 88.6932 5.42294 88.47 5.14664 88.4705C4.87034 88.4711 4.64635 88.6953 4.64635 88.9713L5.64693 88.9692ZM4.64635 93.7983C4.64635 94.0743 4.87034 94.2975 5.14664 94.2969C5.42294 94.2963 5.64692 94.0721 5.64692 93.7961L4.64635 93.7983ZM5.64692 98.6231C5.64692 98.3471 5.42294 98.1239 5.14664 98.1244C4.87033 98.125 4.64635 98.3492 4.64635 98.6252L5.64692 98.6231ZM4.0872 100.538C3.8109 100.538 3.58644 100.762 3.58586 101.038C3.58528 101.314 3.80879 101.537 4.08509 101.537L4.0872 100.538ZM1.96412 101.537C2.24042 101.537 2.46488 101.314 2.46546 101.038C2.46605 100.762 2.24253 100.538 1.96623 100.538L1.96412 101.537ZM17.1548 3.99889L14.1531 3.99889L14.1509 4.99831L17.1527 4.99831L17.1548 3.99889ZM8.14951 3.99889L5.14774 3.99889L5.14561 4.99832L8.14738 4.99832L8.14951 3.99889ZM4.64638 4.49967L4.64638 6.91314L5.64696 6.91101L5.64696 4.49754L4.64638 4.49967ZM4.64638 11.7401L4.64638 16.567L5.64695 16.5649L5.64696 11.738L4.64638 11.7401ZM4.64638 21.394L4.64638 26.221L5.64695 26.2188L5.64695 21.3919L4.64638 21.394ZM4.64637 31.0479L4.64637 35.8749L5.64695 35.8727L5.64695 31.0458L4.64637 31.0479ZM4.64637 40.7018L4.64637 45.5288L5.64694 45.5266L5.64695 40.6997L4.64637 40.7018ZM4.64637 50.3557L4.64636 55.1827L5.64694 55.1805L5.64694 50.3536L4.64637 50.3557ZM4.64636 60.0096L4.64636 64.8366L5.64694 64.8344L5.64694 60.0075L4.64636 60.0096ZM4.64636 69.6635L4.64636 74.4905L5.64693 74.4883L5.64693 69.6614L4.64636 69.6635ZM4.64635 79.3174L4.64635 84.1444L5.64693 84.1422L5.64693 79.3153L4.64635 79.3174ZM4.64635 88.9713L4.64635 93.7983L5.64692 93.7961L5.64693 88.9692L4.64635 88.9713ZM4.64635 98.6252L4.64635 101.039L5.64692 101.037L5.64692 98.6231L4.64635 98.6252ZM5.14769 100.538L4.0872 100.538L4.08509 101.537L5.14558 101.537L5.14769 100.538ZM1.96623 100.538L0.905746 100.538L0.903637 101.537L1.96412 101.537L1.96623 100.538Z" fill="#BB6BD9"/>
</svg>
