<svg width="19" height="173" viewBox="0 0 19 173" fill="none" xmlns="http://www.w3.org/2000/svg">
<path fill-rule="evenodd" clip-rule="evenodd" d="M1.49304 172.514L0.980526 172.514L0.979717 172.002L0.975815 169.534C0.975378 169.258 1.19897 169.04 1.47521 169.047C1.75146 169.054 1.97575 169.283 1.97619 169.559L1.97928 171.514L4.29616 171.515C4.57231 171.515 4.80206 171.738 4.80931 172.014C4.81657 172.29 4.59859 172.514 4.32244 172.514L1.49304 172.514ZM1.96839 164.624C1.96882 164.9 1.74524 165.119 1.46899 165.112C1.19274 165.105 0.968449 164.876 0.968012 164.6L0.960209 159.665C0.959772 159.389 1.18336 159.171 1.45961 159.178C1.73585 159.184 1.96015 159.414 1.96058 159.69L1.96839 164.624ZM1.95278 154.755C1.95322 155.031 1.72963 155.249 1.45338 155.242C1.17714 155.235 0.952843 155.006 0.952406 154.73L0.944603 149.795C0.944166 149.519 1.16776 149.301 1.444 149.308C1.72025 149.315 1.94454 149.544 1.94498 149.82L1.95278 154.755ZM1.93718 144.885C1.93761 145.161 1.71402 145.38 1.43778 145.373C1.16153 145.366 0.937237 145.137 0.9368 144.861L0.928997 139.926C0.92856 139.65 1.15215 139.432 1.42839 139.439C1.70464 139.445 1.92894 139.675 1.92937 139.951L1.93718 144.885ZM1.92157 135.016C1.92201 135.292 1.69842 135.51 1.42217 135.503C1.14593 135.496 0.921631 135.267 0.921194 134.991L0.913391 130.056C0.912954 129.78 1.13654 129.562 1.41279 129.569C1.68904 129.576 1.91333 129.805 1.91377 130.081L1.92157 135.016ZM1.90596 125.146C1.9064 125.422 1.68281 125.641 1.40657 125.634C1.13032 125.627 0.906025 125.398 0.905588 125.122L0.897785 120.187C0.897348 119.911 1.12094 119.693 1.39718 119.7C1.67343 119.706 1.89772 119.936 1.89816 120.212L1.90596 125.146ZM1.89036 115.277C1.89079 115.553 1.66721 115.771 1.39096 115.764C1.11471 115.757 0.890419 115.528 0.889982 115.252L0.882179 110.317C0.881742 110.041 1.10533 109.823 1.38158 109.83C1.65782 109.837 1.88212 110.066 1.88256 110.342L1.89036 115.277ZM1.87475 105.407C1.87519 105.683 1.6516 105.902 1.37535 105.895C1.09911 105.888 0.874813 105.659 0.874376 105.383L0.866573 100.448C0.866137 100.172 1.08973 99.9538 1.36597 99.9606C1.64222 99.9675 1.86651 100.197 1.86695 100.473L1.87475 105.407ZM1.85915 95.5379C1.85958 95.8139 1.63599 96.032 1.35975 96.0252C1.0835 96.0184 0.859207 95.7891 0.85877 95.5132L0.850967 90.5784C0.850531 90.3025 1.07412 90.0843 1.35036 90.0911C1.62661 90.098 1.85091 90.3272 1.85134 90.6032L1.85915 95.5379ZM1.84354 85.6684C1.84398 85.9444 1.62039 86.1625 1.34414 86.1557C1.0679 86.1489 0.843601 85.9196 0.843164 85.6437L0.835361 80.7089C0.834925 80.433 1.05851 80.2148 1.33476 80.2216C1.61101 80.2285 1.8353 80.4577 1.83574 80.7337L1.84354 85.6684ZM1.82793 75.7989C1.82837 76.0749 1.60478 76.293 1.32854 76.2862C1.05229 76.2794 0.827995 76.0501 0.827559 75.7742L0.819756 70.8394C0.819319 70.5635 1.04291 70.3453 1.31915 70.3521C1.5954 70.359 1.81969 70.5882 1.82013 70.8642L1.82793 75.7989ZM1.81233 65.9294C1.81277 66.2054 1.58918 66.4235 1.31293 66.4167C1.03668 66.4099 0.812389 66.1806 0.811953 65.9047L0.80415 60.9699C0.803713 60.694 1.0273 60.4758 1.30355 60.4826C1.57979 60.4895 1.80409 60.7187 1.80453 60.9947L1.81233 65.9294ZM1.79672 56.0599C1.79716 56.3359 1.57357 56.5541 1.29733 56.5472C1.02108 56.5404 0.796783 56.3111 0.796347 56.0352L0.788544 51.1004C0.788107 50.8245 1.0117 50.6063 1.28794 50.6131C1.56419 50.62 1.78848 50.8492 1.78892 51.1252L1.79135 52.6644H3.29114C3.56729 52.6644 3.79518 52.8882 3.80015 53.1643C3.80512 53.4404 3.5853 53.6642 3.30916 53.6642H1.79293L1.79672 56.0599ZM1.78112 46.1904C1.78155 46.4664 1.55796 46.6846 1.28172 46.6777C1.00547 46.6709 0.781178 46.4416 0.780741 46.1657L0.772938 41.2309C0.772501 40.955 0.996088 40.7368 1.27234 40.7436C1.54858 40.7505 1.77288 40.9797 1.77331 41.2557L1.78112 46.1904ZM1.76551 36.3209C1.76595 36.5969 1.54236 36.8151 1.26611 36.8082C0.989866 36.8014 0.765572 36.5721 0.765135 36.2962L0.757332 31.3614C0.756895 31.0855 0.980484 30.8673 1.25673 30.8742C1.53298 30.881 1.75727 31.1102 1.75771 31.3862L1.76551 36.3209ZM1.7499 26.4514C1.75034 26.7274 1.52675 26.9456 1.25051 26.9387C0.97426 26.9319 0.749966 26.7026 0.749529 26.4267L0.741726 21.4919C0.741289 21.216 0.964878 20.9978 1.24112 21.0047C1.51737 21.0115 1.74166 21.2407 1.7421 21.5167L1.7499 26.4514ZM1.7343 16.582C1.73473 16.8579 1.51115 17.0761 1.2349 17.0692C0.958654 17.0624 0.73436 16.8331 0.733923 16.5572L0.72612 11.6224C0.725683 11.3465 0.94927 11.1283 1.22552 11.1352C1.50176 11.142 1.72606 11.3713 1.7265 11.6472L1.7343 16.582ZM1.71869 6.71246C1.71913 6.98841 1.49554 7.20657 1.21929 7.19973C0.943048 7.19289 0.718754 6.96365 0.718317 6.68769L0.714415 4.22032L0.713644 3.73285L1.20146 3.73289L3.12782 3.73303C3.40398 3.73305 3.63373 3.95684 3.64098 4.23287C3.64824 4.50891 3.43026 4.73267 3.15411 4.73265L1.71556 4.73255L1.71869 6.71246ZM9.98123 172.515C9.70507 172.515 9.47533 172.291 9.46807 172.015C9.46081 171.739 9.6788 171.515 9.95495 171.515L12.7843 171.515L12.7909 171.765L12.8041 172.265L12.8106 172.515L9.98123 172.515ZM7.00685 4.73292C6.7307 4.7329 6.50095 4.50911 6.49369 4.23308C6.48643 3.95704 6.70441 3.73328 6.98056 3.7333L10.8333 3.73357C11.1094 3.73359 11.3392 3.95738 11.3464 4.23342C11.3537 4.50946 11.1357 4.73322 10.8596 4.7332L7.00685 4.73292ZM16.9698 3.8804C17.1702 4.0756 17.1785 4.39207 16.9884 4.58724L13.89 7.7678C13.6998 7.96297 13.3832 7.96295 13.1828 7.76775C12.9824 7.57254 12.9741 7.25608 13.1642 7.06091L15.4315 4.73352L14.7123 4.73347C14.4362 4.73345 14.2064 4.50966 14.1992 4.23362C14.1919 3.95759 14.4099 3.73383 14.686 3.73385L15.4052 3.7339L13.0155 1.40618C12.8151 1.21098 12.8068 0.894519 12.9969 0.699345C13.1871 0.50417 13.5037 0.504193 13.7041 0.699395L16.9698 3.8804ZM18.2934 53.5178C18.4852 53.3226 18.4795 53.006 18.2807 52.8108L15.0414 49.6293C14.8426 49.4341 14.526 49.4341 14.3343 49.6293C14.1425 49.8246 14.1483 50.1411 14.347 50.3363L16.7174 52.6644H15.834C15.5579 52.6644 15.3381 52.8882 15.343 53.1643C15.348 53.4404 15.5759 53.6642 15.852 53.6642H16.7354L14.4489 55.9923C14.2572 56.1875 14.2629 56.504 14.4617 56.6993C14.6604 56.8945 14.977 56.8945 15.1688 56.6993L18.2934 53.5178ZM11.6531 52.6644H7.4721C7.19596 52.6644 6.97614 52.8882 6.98111 53.1643C6.98608 53.4404 7.21397 53.6642 7.49012 53.6642H11.6711C11.9472 53.6642 12.167 53.4404 12.1621 53.1643C12.1571 52.8882 11.9292 52.6644 11.6531 52.6644Z" fill="#BB6BD9"/>
</svg>
