<svg width="22" height="608" viewBox="0 0 22 608" fill="none" xmlns="http://www.w3.org/2000/svg">
<path d="M21.3795 607.365L21.3749 607.615L21.6295 607.615L21.6295 607.36L21.3795 607.365ZM12.5888 3.9358C12.4895 4.03351 12.4868 4.19177 12.5827 4.28928L14.1464 5.87832C14.2423 5.97583 14.4006 5.97566 14.5 5.87795C14.5993 5.78024 14.602 5.62198 14.506 5.52447L13.1161 4.11199L14.5548 2.69659C14.6541 2.59888 14.6568 2.44062 14.5609 2.34311C14.4649 2.2456 14.3066 2.24576 14.2073 2.34347L12.5888 3.9358ZM21.3796 4.10345L21.6296 4.09889L21.6296 3.85325L21.3839 3.8535L21.3796 4.10345ZM14.9125 4.36008C15.0506 4.35994 15.1645 4.24792 15.1668 4.10987C15.1692 3.97183 15.0592 3.86004 14.9211 3.86018L14.9125 4.36008ZM19.2296 3.85573C19.0916 3.85587 18.9777 3.96789 18.9753 4.10594C18.9729 4.24398 19.083 4.35577 19.221 4.35563L19.2296 3.85573ZM21.1295 6.54052C21.1295 6.67854 21.2415 6.78839 21.3796 6.78587C21.5177 6.78335 21.6296 6.66941 21.6296 6.53139L21.1295 6.54052ZM21.6296 11.3964C21.6296 11.2584 21.5177 11.1485 21.3796 11.1511C21.2415 11.1536 21.1295 11.2675 21.1295 11.4055L21.6296 11.3964ZM21.1295 16.2705C21.1295 16.4086 21.2415 16.5184 21.3796 16.5159C21.5177 16.5134 21.6296 16.3994 21.6296 16.2614L21.1295 16.2705ZM21.6296 21.1264C21.6296 20.9884 21.5177 20.8786 21.3796 20.8811C21.2415 20.8836 21.1295 20.9975 21.1295 21.1356L21.6296 21.1264ZM21.1295 26.0006C21.1295 26.1386 21.2415 26.2484 21.3796 26.2459C21.5177 26.2434 21.6296 26.1295 21.6296 25.9914L21.1295 26.0006ZM21.6296 30.8564C21.6296 30.7184 21.5177 30.6086 21.3796 30.6111C21.2415 30.6136 21.1295 30.7276 21.1295 30.8656L21.6296 30.8564ZM21.1295 35.7306C21.1295 35.8686 21.2415 35.9785 21.3796 35.9759C21.5177 35.9734 21.6296 35.8595 21.6296 35.7215L21.1295 35.7306ZM21.6296 40.5865C21.6296 40.4484 21.5177 40.3386 21.3796 40.3411C21.2415 40.3436 21.1295 40.4576 21.1295 40.5956L21.6296 40.5865ZM21.1295 45.4606C21.1295 45.5986 21.2415 45.7085 21.3796 45.706C21.5177 45.7034 21.6296 45.5895 21.6296 45.4515L21.1295 45.4606ZM21.6296 50.3165C21.6296 50.1785 21.5177 50.0686 21.3796 50.0711C21.2415 50.0737 21.1295 50.1876 21.1295 50.3256L21.6296 50.3165ZM21.1295 55.1906C21.1295 55.3286 21.2415 55.4385 21.3796 55.436C21.5177 55.4334 21.6296 55.3195 21.6296 55.1815L21.1295 55.1906ZM21.6296 60.0465C21.6296 59.9085 21.5177 59.7986 21.3796 59.8012C21.2415 59.8037 21.1295 59.9176 21.1295 60.0556L21.6296 60.0465ZM21.1295 64.9206C21.1295 65.0587 21.2415 65.1685 21.3796 65.166C21.5177 65.1635 21.6296 65.0495 21.6296 64.9115L21.1295 64.9206ZM21.6296 69.7765C21.6296 69.6385 21.5177 69.5287 21.3796 69.5312C21.2415 69.5337 21.1295 69.6476 21.1295 69.7857L21.6296 69.7765ZM21.1295 74.6507C21.1295 74.7887 21.2415 74.8985 21.3796 74.896C21.5177 74.8935 21.6296 74.7796 21.6296 74.6415L21.1295 74.6507ZM21.6296 79.5066C21.6296 79.3685 21.5177 79.2587 21.3796 79.2612C21.2415 79.2637 21.1295 79.3777 21.1295 79.5157L21.6296 79.5066ZM21.1295 84.3807C21.1295 84.5187 21.2415 84.6286 21.3796 84.626C21.5177 84.6235 21.6296 84.5096 21.6296 84.3716L21.1295 84.3807ZM21.6296 89.2366C21.6296 89.0986 21.5177 88.9887 21.3796 88.9912C21.2415 88.9938 21.1295 89.1077 21.1295 89.2457L21.6296 89.2366ZM21.1295 94.1107C21.1295 94.2488 21.2415 94.3586 21.3796 94.3561C21.5177 94.3536 21.6296 94.2396 21.6296 94.1016L21.1295 94.1107ZM21.6296 98.9666C21.6296 98.8286 21.5177 98.7187 21.3796 98.7213C21.2415 98.7238 21.1295 98.8377 21.1295 98.9757L21.6296 98.9666ZM21.1295 103.841C21.1295 103.979 21.2415 104.089 21.3796 104.086C21.5177 104.084 21.6296 103.97 21.6296 103.832L21.1295 103.841ZM21.6296 108.697C21.6296 108.559 21.5177 108.449 21.3796 108.451C21.2415 108.454 21.1295 108.568 21.1295 108.706L21.6296 108.697ZM21.1295 113.571C21.1295 113.709 21.2415 113.819 21.3796 113.816C21.5177 113.814 21.6296 113.7 21.6296 113.562L21.1295 113.571ZM21.6296 118.427C21.6296 118.289 21.5177 118.179 21.3796 118.181C21.2415 118.184 21.1295 118.298 21.1295 118.436L21.6296 118.427ZM21.1295 123.301C21.1295 123.439 21.2415 123.549 21.3796 123.546C21.5177 123.544 21.6296 123.43 21.6296 123.292L21.1295 123.301ZM21.6296 128.157C21.6296 128.019 21.5177 127.909 21.3796 127.911C21.2415 127.914 21.1295 128.028 21.1295 128.166L21.6296 128.157ZM21.1295 133.031C21.1295 133.169 21.2415 133.279 21.3796 133.276C21.5177 133.274 21.6296 133.16 21.6296 133.022L21.1295 133.031ZM21.6296 137.887C21.6296 137.749 21.5177 137.639 21.3796 137.641C21.2415 137.644 21.1295 137.758 21.1295 137.896L21.6296 137.887ZM21.1295 142.761C21.1295 142.899 21.2415 143.009 21.3796 143.006C21.5177 143.004 21.6296 142.89 21.6296 142.752L21.1295 142.761ZM21.6296 147.617C21.6296 147.479 21.5177 147.369 21.3796 147.371C21.2415 147.374 21.1295 147.488 21.1295 147.626L21.6296 147.617ZM21.1295 152.491C21.1295 152.629 21.2415 152.739 21.3796 152.736C21.5177 152.734 21.6296 152.62 21.6296 152.482L21.1295 152.491ZM21.6296 157.347C21.6296 157.209 21.5177 157.099 21.3796 157.101C21.2415 157.104 21.1295 157.218 21.1295 157.356L21.6296 157.347ZM21.1295 162.221C21.1295 162.359 21.2415 162.469 21.3796 162.466C21.5177 162.464 21.6296 162.35 21.6296 162.212L21.1295 162.221ZM21.6296 167.077C21.6296 166.939 21.5177 166.829 21.3796 166.831C21.2415 166.834 21.1295 166.948 21.1295 167.086L21.6296 167.077ZM21.1295 171.951C21.1295 172.089 21.2415 172.199 21.3796 172.196C21.5177 172.194 21.6296 172.08 21.6296 171.942L21.1295 171.951ZM21.6296 176.807C21.6296 176.669 21.5177 176.559 21.3796 176.561C21.2415 176.564 21.1295 176.678 21.1295 176.816L21.6296 176.807ZM21.1295 181.681C21.1295 181.819 21.2415 181.929 21.3796 181.926C21.5177 181.924 21.6296 181.81 21.6296 181.672L21.1295 181.681ZM21.6296 186.537C21.6296 186.399 21.5177 186.289 21.3796 186.292C21.2415 186.294 21.1295 186.408 21.1295 186.546L21.6296 186.537ZM21.1295 191.411C21.1295 191.549 21.2415 191.659 21.3796 191.656C21.5177 191.654 21.6296 191.54 21.6296 191.402L21.1295 191.411ZM21.6296 196.267C21.6296 196.129 21.5177 196.019 21.3796 196.022C21.2415 196.024 21.1295 196.138 21.1295 196.276L21.6296 196.267ZM21.1295 201.141C21.1295 201.279 21.2415 201.389 21.3796 201.386C21.5177 201.384 21.6296 201.27 21.6296 201.132L21.1295 201.141ZM21.6296 205.997C21.6296 205.859 21.5176 205.749 21.3796 205.752C21.2415 205.754 21.1295 205.868 21.1295 206.006L21.6296 205.997ZM21.1295 210.871C21.1295 211.009 21.2415 211.119 21.3796 211.116C21.5176 211.114 21.6296 211 21.6296 210.862L21.1295 210.871ZM21.6296 215.727C21.6296 215.589 21.5176 215.479 21.3795 215.482C21.2415 215.484 21.1295 215.598 21.1295 215.736L21.6296 215.727ZM21.1295 220.601C21.1295 220.739 21.2414 220.849 21.3795 220.846C21.5176 220.844 21.6296 220.73 21.6296 220.592L21.1295 220.601ZM21.6296 225.457C21.6296 225.319 21.5176 225.209 21.3795 225.212C21.2414 225.214 21.1295 225.328 21.1295 225.466L21.6296 225.457ZM21.1295 230.331C21.1295 230.469 21.2414 230.579 21.3795 230.576C21.5176 230.574 21.6296 230.46 21.6296 230.322L21.1295 230.331ZM21.6296 235.187C21.6296 235.049 21.5176 234.939 21.3795 234.942C21.2414 234.944 21.1295 235.058 21.1295 235.196L21.6296 235.187ZM21.1295 240.061C21.1295 240.199 21.2414 240.309 21.3795 240.306C21.5176 240.304 21.6296 240.19 21.6296 240.052L21.1295 240.061ZM21.6296 244.917C21.6296 244.779 21.5176 244.669 21.3795 244.672C21.2414 244.674 21.1295 244.788 21.1295 244.926L21.6296 244.917ZM21.1295 249.791C21.1295 249.929 21.2414 250.039 21.3795 250.037C21.5176 250.034 21.6296 249.92 21.6296 249.782L21.1295 249.791ZM21.6296 254.647C21.6296 254.509 21.5176 254.399 21.3795 254.402C21.2414 254.404 21.1295 254.518 21.1295 254.656L21.6296 254.647ZM21.1295 259.521C21.1295 259.659 21.2414 259.769 21.3795 259.767C21.5176 259.764 21.6296 259.65 21.6296 259.512L21.1295 259.521ZM21.6296 264.377C21.6296 264.239 21.5176 264.129 21.3795 264.132C21.2414 264.134 21.1295 264.248 21.1295 264.386L21.6296 264.377ZM21.1295 269.251C21.1295 269.389 21.2414 269.499 21.3795 269.497C21.5176 269.494 21.6296 269.38 21.6296 269.242L21.1295 269.251ZM21.6296 274.107C21.6296 273.969 21.5176 273.859 21.3795 273.862C21.2414 273.864 21.1295 273.978 21.1295 274.116L21.6296 274.107ZM21.1295 278.981C21.1295 279.119 21.2414 279.229 21.3795 279.227C21.5176 279.224 21.6296 279.11 21.6296 278.972L21.1295 278.981ZM21.6296 283.837C21.6296 283.699 21.5176 283.589 21.3795 283.592C21.2414 283.594 21.1295 283.708 21.1295 283.846L21.6296 283.837ZM21.1295 288.711C21.1295 288.849 21.2414 288.959 21.3795 288.957C21.5176 288.954 21.6296 288.84 21.6296 288.702L21.1295 288.711ZM21.6296 293.567C21.6296 293.429 21.5176 293.319 21.3795 293.322C21.2414 293.324 21.1295 293.438 21.1295 293.576L21.6296 293.567ZM21.1295 298.441C21.1295 298.579 21.2414 298.689 21.3795 298.687C21.5176 298.684 21.6296 298.57 21.6296 298.432L21.1295 298.441ZM21.6296 303.297C21.6296 303.159 21.5176 303.049 21.3795 303.052C21.2414 303.054 21.1295 303.168 21.1295 303.306L21.6296 303.297ZM21.1295 308.171C21.1295 308.309 21.2414 308.419 21.3795 308.417C21.5176 308.414 21.6296 308.3 21.6296 308.162L21.1295 308.171ZM21.6296 313.027C21.6296 312.889 21.5176 312.779 21.3795 312.782C21.2414 312.784 21.1295 312.898 21.1295 313.036L21.6296 313.027ZM21.1295 317.901C21.1295 318.039 21.2414 318.149 21.3795 318.147C21.5176 318.144 21.6296 318.03 21.6296 317.892L21.1295 317.901ZM21.6296 322.757C21.6296 322.619 21.5176 322.509 21.3795 322.512C21.2414 322.514 21.1295 322.628 21.1295 322.766L21.6296 322.757ZM21.1295 327.631C21.1295 327.769 21.2414 327.879 21.3795 327.877C21.5176 327.874 21.6296 327.76 21.6296 327.622L21.1295 327.631ZM21.6296 332.487C21.6296 332.349 21.5176 332.239 21.3795 332.242C21.2414 332.244 21.1295 332.358 21.1295 332.496L21.6296 332.487ZM21.1295 337.361C21.1295 337.499 21.2414 337.609 21.3795 337.607C21.5176 337.604 21.6296 337.49 21.6296 337.352L21.1295 337.361ZM21.6296 342.217C21.6296 342.079 21.5176 341.969 21.3795 341.972C21.2414 341.974 21.1295 342.088 21.1295 342.226L21.6296 342.217ZM21.1295 347.091C21.1295 347.229 21.2414 347.339 21.3795 347.337C21.5176 347.334 21.6296 347.22 21.6296 347.082L21.1295 347.091ZM21.6296 351.947C21.6296 351.809 21.5176 351.699 21.3795 351.702C21.2414 351.704 21.1295 351.818 21.1295 351.956L21.6296 351.947ZM21.1295 356.821C21.1295 356.959 21.2414 357.069 21.3795 357.067C21.5176 357.064 21.6296 356.95 21.6296 356.812L21.1295 356.821ZM21.6296 361.677C21.6296 361.539 21.5176 361.429 21.3795 361.432C21.2414 361.434 21.1295 361.548 21.1295 361.686L21.6296 361.677ZM21.1295 366.551C21.1295 366.689 21.2414 366.799 21.3795 366.796C21.5176 366.794 21.6296 366.68 21.6296 366.542L21.1295 366.551ZM21.6296 371.407C21.6296 371.269 21.5176 371.159 21.3795 371.162C21.2414 371.164 21.1295 371.278 21.1295 371.416L21.6296 371.407ZM21.1295 376.281C21.1295 376.419 21.2414 376.529 21.3795 376.527C21.5176 376.524 21.6296 376.41 21.6296 376.272L21.1295 376.281ZM21.6296 381.137C21.6296 380.999 21.5176 380.889 21.3795 380.892C21.2414 380.894 21.1295 381.008 21.1295 381.146L21.6296 381.137ZM21.1295 386.011C21.1295 386.149 21.2414 386.259 21.3795 386.256C21.5176 386.254 21.6296 386.14 21.6296 386.002L21.1295 386.011ZM21.6296 390.867C21.6296 390.729 21.5176 390.619 21.3795 390.622C21.2414 390.624 21.1295 390.738 21.1295 390.876L21.6296 390.867ZM21.1295 395.741C21.1295 395.879 21.2414 395.989 21.3795 395.987C21.5176 395.984 21.6296 395.87 21.6296 395.732L21.1295 395.741ZM21.6296 400.597C21.6296 400.459 21.5176 400.349 21.3795 400.352C21.2414 400.354 21.1295 400.468 21.1295 400.606L21.6296 400.597ZM21.1295 405.471C21.1295 405.609 21.2414 405.719 21.3795 405.717C21.5176 405.714 21.6296 405.6 21.6296 405.462L21.1295 405.471ZM21.6296 410.327C21.6296 410.189 21.5176 410.079 21.3795 410.082C21.2414 410.084 21.1295 410.198 21.1295 410.336L21.6296 410.327ZM21.1295 415.201C21.1295 415.339 21.2414 415.449 21.3795 415.446C21.5176 415.444 21.6296 415.33 21.6296 415.192L21.1295 415.201ZM21.6296 420.057C21.6296 419.919 21.5176 419.809 21.3795 419.812C21.2414 419.814 21.1295 419.928 21.1295 420.066L21.6296 420.057ZM21.1295 424.931C21.1295 425.069 21.2414 425.179 21.3795 425.177C21.5176 425.174 21.6296 425.06 21.6296 424.922L21.1295 424.931ZM21.6296 429.787C21.6296 429.649 21.5176 429.539 21.3795 429.542C21.2414 429.544 21.1295 429.658 21.1295 429.796L21.6296 429.787ZM21.1295 434.661C21.1295 434.799 21.2414 434.909 21.3795 434.906C21.5176 434.904 21.6295 434.79 21.6296 434.652L21.1295 434.661ZM21.6295 439.517C21.6295 439.379 21.5176 439.269 21.3795 439.272C21.2414 439.274 21.1295 439.388 21.1295 439.526L21.6295 439.517ZM21.1294 444.391C21.1295 444.529 21.2414 444.639 21.3795 444.637C21.5176 444.634 21.6295 444.52 21.6295 444.382L21.1294 444.391ZM21.6295 449.247C21.6295 449.109 21.5176 448.999 21.3795 449.002C21.2414 449.004 21.1294 449.118 21.1294 449.256L21.6295 449.247ZM21.1294 454.121C21.1294 454.259 21.2414 454.369 21.3795 454.367C21.5176 454.364 21.6295 454.25 21.6295 454.112L21.1294 454.121ZM21.6295 458.977C21.6295 458.839 21.5176 458.729 21.3795 458.732C21.2414 458.734 21.1294 458.848 21.1294 458.986L21.6295 458.977ZM21.1294 463.851C21.1294 463.989 21.2414 464.099 21.3795 464.096C21.5176 464.094 21.6295 463.98 21.6295 463.842L21.1294 463.851ZM21.6295 468.707C21.6295 468.569 21.5176 468.459 21.3795 468.462C21.2414 468.464 21.1294 468.578 21.1294 468.716L21.6295 468.707ZM21.1294 473.581C21.1294 473.719 21.2414 473.829 21.3795 473.826C21.5176 473.824 21.6295 473.71 21.6295 473.572L21.1294 473.581ZM21.6295 478.437C21.6295 478.299 21.5176 478.189 21.3795 478.192C21.2414 478.194 21.1294 478.308 21.1294 478.446L21.6295 478.437ZM21.1294 483.311C21.1294 483.449 21.2414 483.559 21.3795 483.556C21.5176 483.554 21.6295 483.44 21.6295 483.302L21.1294 483.311ZM21.6295 488.167C21.6295 488.029 21.5176 487.919 21.3795 487.922C21.2414 487.924 21.1294 488.038 21.1294 488.176L21.6295 488.167ZM21.1294 493.041C21.1294 493.179 21.2414 493.289 21.3795 493.286C21.5176 493.284 21.6295 493.17 21.6295 493.032L21.1294 493.041ZM21.6295 497.897C21.6295 497.759 21.5176 497.649 21.3795 497.652C21.2414 497.654 21.1294 497.768 21.1294 497.906L21.6295 497.897ZM21.1294 502.771C21.1294 502.909 21.2414 503.019 21.3795 503.016C21.5176 503.014 21.6295 502.9 21.6295 502.762L21.1294 502.771ZM21.6295 507.627C21.6295 507.489 21.5176 507.379 21.3795 507.382C21.2414 507.384 21.1294 507.498 21.1294 507.636L21.6295 507.627ZM21.1294 512.501C21.1294 512.639 21.2414 512.749 21.3795 512.746C21.5176 512.744 21.6295 512.63 21.6295 512.492L21.1294 512.501ZM21.6295 517.357C21.6295 517.219 21.5176 517.109 21.3795 517.112C21.2414 517.114 21.1294 517.228 21.1294 517.366L21.6295 517.357ZM21.1294 522.231C21.1294 522.369 21.2414 522.479 21.3795 522.477C21.5176 522.474 21.6295 522.36 21.6295 522.222L21.1294 522.231ZM21.6295 527.087C21.6295 526.949 21.5176 526.839 21.3795 526.842C21.2414 526.844 21.1294 526.958 21.1294 527.096L21.6295 527.087ZM21.1294 531.961C21.1294 532.099 21.2414 532.209 21.3795 532.206C21.5176 532.204 21.6295 532.09 21.6295 531.952L21.1294 531.961ZM21.6295 536.817C21.6295 536.679 21.5176 536.569 21.3795 536.572C21.2414 536.574 21.1294 536.688 21.1294 536.826L21.6295 536.817ZM21.1294 541.691C21.1294 541.829 21.2414 541.939 21.3795 541.936C21.5176 541.934 21.6295 541.82 21.6295 541.682L21.1294 541.691ZM21.6295 546.547C21.6295 546.409 21.5176 546.299 21.3795 546.302C21.2414 546.304 21.1294 546.418 21.1294 546.556L21.6295 546.547ZM21.1294 551.421C21.1294 551.559 21.2414 551.669 21.3795 551.666C21.5176 551.664 21.6295 551.55 21.6295 551.412L21.1294 551.421ZM21.6295 556.277C21.6295 556.139 21.5176 556.029 21.3795 556.032C21.2414 556.034 21.1294 556.148 21.1294 556.286L21.6295 556.277ZM21.1294 561.151C21.1294 561.289 21.2414 561.399 21.3795 561.396C21.5176 561.394 21.6295 561.28 21.6295 561.142L21.1294 561.151ZM21.6295 566.007C21.6295 565.869 21.5176 565.759 21.3795 565.762C21.2414 565.764 21.1294 565.878 21.1294 566.016L21.6295 566.007ZM21.1294 570.881C21.1294 571.019 21.2414 571.129 21.3795 571.126C21.5176 571.124 21.6295 571.01 21.6295 570.872L21.1294 570.881ZM21.6295 575.737C21.6295 575.599 21.5176 575.489 21.3795 575.492C21.2414 575.494 21.1294 575.608 21.1294 575.746L21.6295 575.737ZM21.1294 580.611C21.1294 580.749 21.2414 580.859 21.3795 580.856C21.5176 580.854 21.6295 580.74 21.6295 580.602L21.1294 580.611ZM21.6295 585.467C21.6295 585.329 21.5176 585.219 21.3795 585.222C21.2414 585.224 21.1294 585.338 21.1294 585.476L21.6295 585.467ZM21.1294 590.341C21.1294 590.479 21.2414 590.589 21.3795 590.586C21.5176 590.584 21.6295 590.47 21.6295 590.332L21.1294 590.341ZM21.6295 595.197C21.6295 595.059 21.5176 594.949 21.3795 594.952C21.2414 594.954 21.1294 595.068 21.1294 595.206L21.6295 595.197ZM21.1294 600.071C21.1294 600.209 21.2414 600.319 21.3795 600.316C21.5176 600.314 21.6295 600.2 21.6295 600.062L21.1294 600.071ZM21.6295 604.927C21.6295 604.789 21.5176 604.679 21.3795 604.682C21.2414 604.684 21.1294 604.798 21.1294 604.936L21.6295 604.927ZM18.7796 607.115C18.6415 607.115 18.5275 607.227 18.525 607.365C18.5225 607.503 18.6324 607.615 18.7705 607.615L18.7796 607.115ZM13.5616 607.615C13.6996 607.615 13.8136 607.503 13.8162 607.365C13.8187 607.227 13.7088 607.115 13.5707 607.115L13.5616 607.615ZM8.36184 607.115C8.22376 607.115 8.10978 607.226 8.10726 607.365C8.10474 607.503 8.21462 607.614 8.3527 607.614L8.36184 607.115ZM3.14382 607.614C3.28189 607.614 3.39587 607.502 3.3984 607.364C3.40092 607.226 3.29104 607.114 3.15296 607.114L3.14382 607.614ZM12.7583 4.36231L14.9125 4.36008L14.9211 3.86018L12.7669 3.8624L12.7583 4.36231ZM19.221 4.35563L21.3753 4.3534L21.3839 3.8535L19.2296 3.85573L19.221 4.35563ZM21.1295 4.10802L21.1295 6.54052L21.6296 6.53139L21.6296 4.09889L21.1295 4.10802ZM21.1295 11.4055L21.1295 16.2705L21.6296 16.2614L21.6296 11.3964L21.1295 11.4055ZM21.1295 21.1356L21.1295 26.0006L21.6296 25.9914L21.6296 21.1264L21.1295 21.1356ZM21.1295 30.8656L21.1295 35.7306L21.6296 35.7215L21.6296 30.8564L21.1295 30.8656ZM21.1295 40.5956L21.1295 45.4606L21.6296 45.4515L21.6296 40.5865L21.1295 40.5956ZM21.1295 50.3256L21.1295 55.1906L21.6296 55.1815L21.6296 50.3165L21.1295 50.3256ZM21.1295 60.0556L21.1295 64.9206L21.6296 64.9115L21.6296 60.0465L21.1295 60.0556ZM21.1295 69.7857L21.1295 74.6507L21.6296 74.6415L21.6296 69.7765L21.1295 69.7857ZM21.1295 79.5157L21.1295 84.3807L21.6296 84.3716L21.6296 79.5066L21.1295 79.5157ZM21.1295 89.2457L21.1295 94.1107L21.6296 94.1016L21.6296 89.2366L21.1295 89.2457ZM21.1295 98.9757L21.1295 103.841L21.6296 103.832L21.6296 98.9666L21.1295 98.9757ZM21.1295 108.706L21.1295 113.571L21.6296 113.562L21.6296 108.697L21.1295 108.706ZM21.1295 118.436L21.1295 123.301L21.6296 123.292L21.6296 118.427L21.1295 118.436ZM21.1295 128.166L21.1295 133.031L21.6296 133.022L21.6296 128.157L21.1295 128.166ZM21.1295 137.896L21.1295 142.761L21.6296 142.752L21.6296 137.887L21.1295 137.896ZM21.1295 147.626L21.1295 152.491L21.6296 152.482L21.6296 147.617L21.1295 147.626ZM21.1295 157.356L21.1295 162.221L21.6296 162.212L21.6296 157.347L21.1295 157.356ZM21.1295 167.086L21.1295 171.951L21.6296 171.942L21.6296 167.077L21.1295 167.086ZM21.1295 176.816L21.1295 181.681L21.6296 181.672L21.6296 176.807L21.1295 176.816ZM21.1295 186.546L21.1295 191.411L21.6296 191.402L21.6296 186.537L21.1295 186.546ZM21.1295 196.276L21.1295 201.141L21.6296 201.132L21.6296 196.267L21.1295 196.276ZM21.1295 206.006L21.1295 210.871L21.6296 210.862L21.6296 205.997L21.1295 206.006ZM21.1295 215.736L21.1295 220.601L21.6296 220.592L21.6296 215.727L21.1295 215.736ZM21.1295 225.466L21.1295 230.331L21.6296 230.322L21.6296 225.457L21.1295 225.466ZM21.1295 235.196L21.1295 240.061L21.6296 240.052L21.6296 235.187L21.1295 235.196ZM21.1295 244.926L21.1295 249.791L21.6296 249.782L21.6296 244.917L21.1295 244.926ZM21.1295 254.656L21.1295 259.521L21.6296 259.512L21.6296 254.647L21.1295 254.656ZM21.1295 264.386L21.1295 269.251L21.6296 269.242L21.6296 264.377L21.1295 264.386ZM21.1295 274.116L21.1295 278.981L21.6296 278.972L21.6296 274.107L21.1295 274.116ZM21.1295 283.846L21.1295 288.711L21.6296 288.702L21.6296 283.837L21.1295 283.846ZM21.1295 293.576L21.1295 298.441L21.6296 298.432L21.6296 293.567L21.1295 293.576ZM21.1295 303.306L21.1295 308.171L21.6296 308.162L21.6296 303.297L21.1295 303.306ZM21.1295 313.036L21.1295 317.901L21.6296 317.892L21.6296 313.027L21.1295 313.036ZM21.1295 322.766L21.1295 327.631L21.6296 327.622L21.6296 322.757L21.1295 322.766ZM21.1295 332.496L21.1295 337.361L21.6296 337.352L21.6296 332.487L21.1295 332.496ZM21.1295 342.226L21.1295 347.091L21.6296 347.082L21.6296 342.217L21.1295 342.226ZM21.1295 351.956L21.1295 356.821L21.6296 356.812L21.6296 351.947L21.1295 351.956ZM21.1295 361.686L21.1295 366.551L21.6296 366.542L21.6296 361.677L21.1295 361.686ZM21.1295 371.416L21.1295 376.281L21.6296 376.272L21.6296 371.407L21.1295 371.416ZM21.1295 381.146L21.1295 386.011L21.6296 386.002L21.6296 381.137L21.1295 381.146ZM21.1295 390.876L21.1295 395.741L21.6296 395.732L21.6296 390.867L21.1295 390.876ZM21.1295 400.606L21.1295 405.471L21.6296 405.462L21.6296 400.597L21.1295 400.606ZM21.1295 410.336L21.1295 415.201L21.6296 415.192L21.6296 410.327L21.1295 410.336ZM21.1295 420.066L21.1295 424.931L21.6296 424.922L21.6296 420.057L21.1295 420.066ZM21.1295 429.796L21.1295 434.661L21.6296 434.652L21.6296 429.787L21.1295 429.796ZM21.1295 439.526L21.1294 444.391L21.6295 444.382L21.6295 439.517L21.1295 439.526ZM21.1294 449.256L21.1294 454.121L21.6295 454.112L21.6295 449.247L21.1294 449.256ZM21.1294 458.986L21.1294 463.851L21.6295 463.842L21.6295 458.977L21.1294 458.986ZM21.1294 468.716L21.1294 473.581L21.6295 473.572L21.6295 468.707L21.1294 468.716ZM21.1294 478.446L21.1294 483.311L21.6295 483.302L21.6295 478.437L21.1294 478.446ZM21.1294 488.176L21.1294 493.041L21.6295 493.032L21.6295 488.167L21.1294 488.176ZM21.1294 497.906L21.1294 502.771L21.6295 502.762L21.6295 497.897L21.1294 497.906ZM21.1294 507.636L21.1294 512.501L21.6295 512.492L21.6295 507.627L21.1294 507.636ZM21.1294 517.366L21.1294 522.231L21.6295 522.222L21.6295 517.357L21.1294 517.366ZM21.1294 527.096L21.1294 531.961L21.6295 531.952L21.6295 527.087L21.1294 527.096ZM21.1294 536.826L21.1294 541.691L21.6295 541.682L21.6295 536.817L21.1294 536.826ZM21.1294 546.556L21.1294 551.421L21.6295 551.412L21.6295 546.547L21.1294 546.556ZM21.1294 556.286L21.1294 561.151L21.6295 561.142L21.6295 556.277L21.1294 556.286ZM21.1294 566.016L21.1294 570.881L21.6295 570.872L21.6295 566.007L21.1294 566.016ZM21.1294 575.746L21.1294 580.611L21.6295 580.602L21.6295 575.737L21.1294 575.746ZM21.1294 585.476L21.1294 590.341L21.6295 590.332L21.6295 585.467L21.1294 585.476ZM21.1294 595.206L21.1294 600.071L21.6295 600.062L21.6295 595.197L21.1294 595.206ZM21.1294 604.936L21.1294 607.369L21.6295 607.36L21.6295 604.927L21.1294 604.936ZM21.384 607.115L18.7796 607.115L18.7705 607.615L21.3749 607.615L21.384 607.115ZM13.5707 607.115L8.36184 607.115L8.3527 607.614L13.5616 607.615L13.5707 607.115ZM3.15296 607.114L0.548522 607.114L0.539377 607.614L3.14382 607.614L3.15296 607.114ZM21.3795 607.365L21.3703 607.865L21.8796 607.865L21.8796 607.356L21.3795 607.365ZM12.4151 3.75924C12.2165 3.95466 12.211 4.27118 12.4029 4.4662L15.5302 7.64427C15.7221 7.8393 16.0387 7.83897 16.2373 7.64354C16.436 7.44812 16.4414 7.1316 16.2495 6.93658L13.4697 4.11162L16.347 1.28083C16.5456 1.0854 16.5511 0.768883 16.3592 0.57386C16.1673 0.378838 15.8507 0.379166 15.6521 0.574591L12.4151 3.75924ZM21.3796 4.10345L21.8797 4.09432L21.8797 3.60304L21.3882 3.60355L21.3796 4.10345ZM14.9082 4.61003C15.1844 4.60975 15.4121 4.3857 15.4168 4.10961C15.4216 3.83352 15.2016 3.60994 14.9254 3.61023L14.9082 4.61003ZM19.234 3.60578C18.9578 3.60606 18.7301 3.83011 18.7253 4.10619C18.7206 4.38228 18.9406 4.60587 19.2167 4.60558L19.234 3.60578ZM20.8795 6.54509C20.8795 6.82113 21.1034 7.04082 21.3796 7.03578C21.6558 7.03073 21.8797 6.80287 21.8797 6.52683L20.8795 6.54509ZM21.8797 11.3918C21.8797 11.1158 21.6558 10.8961 21.3796 10.9011C21.1034 10.9062 20.8795 11.1341 20.8795 11.4101L21.8797 11.3918ZM20.8795 16.2751C20.8795 16.5512 21.1034 16.7708 21.3796 16.7658C21.6558 16.7608 21.8797 16.5329 21.8797 16.2568L20.8795 16.2751ZM21.8797 21.1219C21.8797 20.8458 21.6558 20.6261 21.3796 20.6312C21.1034 20.6362 20.8795 20.8641 20.8795 21.1401L21.8797 21.1219ZM20.8795 26.0051C20.8795 26.2812 21.1034 26.5009 21.3796 26.4958C21.6558 26.4908 21.8797 26.2629 21.8797 25.9869L20.8795 26.0051ZM21.8797 30.8519C21.8797 30.5758 21.6558 30.3561 21.3796 30.3612C21.1034 30.3662 20.8795 30.5941 20.8795 30.8701L21.8797 30.8519ZM20.8795 35.7351C20.8795 36.0112 21.1034 36.2309 21.3796 36.2258C21.6558 36.2208 21.8797 35.9929 21.8797 35.7169L20.8795 35.7351ZM21.8797 40.5819C21.8797 40.3059 21.6558 40.0862 21.3796 40.0912C21.1034 40.0963 20.8795 40.3241 20.8795 40.6002L21.8797 40.5819ZM20.8795 45.4652C20.8795 45.7412 21.1034 45.9609 21.3796 45.9559C21.6558 45.9508 21.8797 45.723 21.8797 45.4469L20.8795 45.4652ZM21.8797 50.3119C21.8797 50.0359 21.6558 49.8162 21.3796 49.8212C21.1034 49.8263 20.8795 50.0541 20.8795 50.3302L21.8797 50.3119ZM20.8795 55.1952C20.8795 55.4712 21.1034 55.6909 21.3796 55.6859C21.6558 55.6808 21.8797 55.453 21.8797 55.1769L20.8795 55.1952ZM21.8797 60.0419C21.8797 59.7659 21.6558 59.5462 21.3796 59.5512C21.1034 59.5563 20.8795 59.7842 20.8795 60.0602L21.8797 60.0419ZM20.8795 64.9252C20.8795 65.2012 21.1034 65.4209 21.3796 65.4159C21.6558 65.4109 21.8797 65.183 21.8797 64.9069L20.8795 64.9252ZM21.8797 69.772C21.8797 69.4959 21.6558 69.2762 21.3796 69.2813C21.1034 69.2863 20.8795 69.5142 20.8795 69.7902L21.8797 69.772ZM20.8795 74.6552C20.8795 74.9313 21.1034 75.151 21.3796 75.1459C21.6558 75.1409 21.8797 74.913 21.8797 74.637L20.8795 74.6552ZM21.8797 79.502C21.8797 79.226 21.6558 79.0063 21.3796 79.0113C21.1034 79.0163 20.8795 79.2442 20.8795 79.5203L21.8797 79.502ZM20.8795 84.3853C20.8795 84.6613 21.1034 84.881 21.3796 84.876C21.6558 84.8709 21.8797 84.643 21.8797 84.367L20.8795 84.3853ZM21.8797 89.232C21.8797 88.956 21.6558 88.7363 21.3796 88.7413C21.1034 88.7464 20.8795 88.9742 20.8795 89.2503L21.8797 89.232ZM20.8795 94.1153C20.8795 94.3913 21.1034 94.611 21.3796 94.606C21.6558 94.6009 21.8797 94.3731 21.8797 94.097L20.8795 94.1153ZM21.8797 98.962C21.8797 98.686 21.6558 98.4663 21.3796 98.4714C21.1034 98.4764 20.8795 98.7043 20.8795 98.9803L21.8797 98.962ZM20.8795 103.845C20.8795 104.121 21.1034 104.341 21.3796 104.336C21.6558 104.331 21.8797 104.103 21.8797 103.827L20.8795 103.845ZM21.8797 108.692C21.8797 108.416 21.6558 108.196 21.3796 108.201C21.1034 108.206 20.8795 108.434 20.8795 108.71L21.8797 108.692ZM20.8795 113.575C20.8795 113.851 21.1034 114.071 21.3796 114.066C21.6558 114.061 21.8797 113.833 21.8797 113.557L20.8795 113.575ZM21.8797 118.422C21.8797 118.146 21.6558 117.926 21.3796 117.931C21.1034 117.936 20.8795 118.164 20.8795 118.44L21.8797 118.422ZM20.8795 123.305C20.8795 123.581 21.1034 123.801 21.3796 123.796C21.6558 123.791 21.8797 123.563 21.8797 123.287L20.8795 123.305ZM21.8797 128.152C21.8797 127.876 21.6558 127.656 21.3796 127.661C21.1034 127.666 20.8795 127.894 20.8795 128.17L21.8797 128.152ZM20.8795 133.035C20.8795 133.311 21.1034 133.531 21.3796 133.526C21.6558 133.521 21.8797 133.293 21.8797 133.017L20.8795 133.035ZM21.8797 137.882C21.8797 137.606 21.6558 137.386 21.3796 137.391C21.1034 137.396 20.8795 137.624 20.8795 137.9L21.8797 137.882ZM20.8795 142.765C20.8795 143.041 21.1034 143.261 21.3796 143.256C21.6558 143.251 21.8797 143.023 21.8797 142.747L20.8795 142.765ZM21.8797 147.612C21.8797 147.336 21.6558 147.116 21.3796 147.121C21.1034 147.127 20.8795 147.354 20.8795 147.63L21.8797 147.612ZM20.8795 152.495C20.8795 152.772 21.1034 152.991 21.3796 152.986C21.6558 152.981 21.8797 152.753 21.8797 152.477L20.8795 152.495ZM21.8797 157.342C21.8797 157.066 21.6558 156.846 21.3796 156.852C21.1034 156.857 20.8795 157.084 20.8795 157.36L21.8797 157.342ZM20.8795 162.225C20.8795 162.502 21.1034 162.721 21.3796 162.716C21.6558 162.711 21.8797 162.483 21.8797 162.207L20.8795 162.225ZM21.8797 167.072C21.8797 166.796 21.6558 166.576 21.3796 166.582C21.1034 166.587 20.8795 166.814 20.8795 167.09L21.8797 167.072ZM20.8795 171.956C20.8795 172.232 21.1034 172.451 21.3796 172.446C21.6558 172.441 21.8797 172.213 21.8797 171.937L20.8795 171.956ZM21.8797 176.802C21.8797 176.526 21.6558 176.307 21.3796 176.312C21.1034 176.317 20.8795 176.544 20.8795 176.821L21.8797 176.802ZM20.8795 181.686C20.8795 181.962 21.1034 182.181 21.3796 182.176C21.6558 182.171 21.8797 181.943 21.8797 181.667L20.8795 181.686ZM21.8797 186.532C21.8797 186.256 21.6558 186.037 21.3796 186.042C21.1034 186.047 20.8795 186.275 20.8795 186.551L21.8797 186.532ZM20.8795 191.416C20.8795 191.692 21.1034 191.911 21.3796 191.906C21.6558 191.901 21.8797 191.673 21.8797 191.397L20.8795 191.416ZM21.8797 196.262C21.8797 195.986 21.6558 195.767 21.3796 195.772C21.1034 195.777 20.8795 196.005 20.8795 196.281L21.8797 196.262ZM20.8795 201.146C20.8795 201.422 21.1034 201.641 21.3796 201.636C21.6557 201.631 21.8797 201.403 21.8797 201.127L20.8795 201.146ZM21.8796 205.992C21.8796 205.716 21.6557 205.497 21.3796 205.502C21.1034 205.507 20.8795 205.735 20.8795 206.011L21.8796 205.992ZM20.8795 210.876C20.8795 211.152 21.1034 211.371 21.3796 211.366C21.6557 211.361 21.8796 211.133 21.8796 210.857L20.8795 210.876ZM21.8796 215.722C21.8796 215.446 21.6557 215.227 21.3795 215.232C21.1034 215.237 20.8795 215.465 20.8795 215.741L21.8796 215.722ZM20.8795 220.606C20.8795 220.882 21.1034 221.101 21.3795 221.096C21.6557 221.091 21.8796 220.863 21.8796 220.587L20.8795 220.606ZM21.8796 225.452C21.8796 225.176 21.6557 224.957 21.3795 224.962C21.1034 224.967 20.8794 225.195 20.8794 225.471L21.8796 225.452ZM20.8794 230.336C20.8794 230.612 21.1033 230.831 21.3795 230.826C21.6557 230.821 21.8796 230.593 21.8796 230.317L20.8794 230.336ZM21.8796 235.182C21.8796 234.906 21.6557 234.687 21.3795 234.692C21.1033 234.697 20.8794 234.925 20.8794 235.201L21.8796 235.182ZM20.8794 240.066C20.8794 240.342 21.1033 240.561 21.3795 240.556C21.6557 240.551 21.8796 240.323 21.8796 240.047L20.8794 240.066ZM21.8796 244.912C21.8796 244.636 21.6557 244.417 21.3795 244.422C21.1033 244.427 20.8794 244.655 20.8794 244.931L21.8796 244.912ZM20.8794 249.796C20.8794 250.072 21.1033 250.291 21.3795 250.286C21.6557 250.281 21.8796 250.054 21.8796 249.777L20.8794 249.796ZM21.8796 254.642C21.8796 254.366 21.6557 254.147 21.3795 254.152C21.1033 254.157 20.8794 254.385 20.8794 254.661L21.8796 254.642ZM20.8794 259.526C20.8794 259.802 21.1033 260.021 21.3795 260.016C21.6557 260.011 21.8796 259.784 21.8796 259.507L20.8794 259.526ZM21.8796 264.373C21.8796 264.096 21.6557 263.877 21.3795 263.882C21.1033 263.887 20.8794 264.115 20.8794 264.391L21.8796 264.373ZM20.8794 269.256C20.8794 269.532 21.1033 269.751 21.3795 269.746C21.6557 269.741 21.8796 269.514 21.8796 269.238L20.8794 269.256ZM21.8796 274.103C21.8796 273.826 21.6557 273.607 21.3795 273.612C21.1033 273.617 20.8794 273.845 20.8794 274.121L21.8796 274.103ZM20.8794 278.986C20.8794 279.262 21.1033 279.481 21.3795 279.476C21.6557 279.471 21.8796 279.244 21.8796 278.967L20.8794 278.986ZM21.8796 283.832C21.8796 283.556 21.6557 283.337 21.3795 283.342C21.1033 283.347 20.8794 283.575 20.8794 283.851L21.8796 283.832ZM20.8794 288.716C20.8794 288.992 21.1033 289.211 21.3795 289.206C21.6557 289.201 21.8796 288.974 21.8796 288.698L20.8794 288.716ZM21.8796 293.563C21.8796 293.286 21.6557 293.067 21.3795 293.072C21.1033 293.077 20.8794 293.305 20.8794 293.581L21.8796 293.563ZM20.8794 298.446C20.8794 298.722 21.1033 298.941 21.3795 298.936C21.6557 298.931 21.8796 298.704 21.8796 298.427L20.8794 298.446ZM21.8796 303.293C21.8796 303.016 21.6557 302.797 21.3795 302.802C21.1033 302.807 20.8794 303.035 20.8794 303.311L21.8796 303.293ZM20.8794 308.176C20.8794 308.452 21.1033 308.672 21.3795 308.666C21.6557 308.661 21.8796 308.434 21.8796 308.158L20.8794 308.176ZM21.8796 313.023C21.8796 312.746 21.6557 312.527 21.3795 312.532C21.1033 312.537 20.8794 312.765 20.8794 313.041L21.8796 313.023ZM20.8794 317.906C20.8794 318.182 21.1033 318.401 21.3795 318.396C21.6557 318.391 21.8796 318.164 21.8796 317.887L20.8794 317.906ZM21.8796 322.752C21.8796 322.476 21.6557 322.257 21.3795 322.262C21.1033 322.267 20.8794 322.495 20.8794 322.771L21.8796 322.752ZM20.8794 327.636C20.8794 327.912 21.1033 328.131 21.3795 328.126C21.6557 328.121 21.8796 327.894 21.8796 327.617L20.8794 327.636ZM21.8796 332.482C21.8796 332.206 21.6557 331.987 21.3795 331.992C21.1033 331.997 20.8794 332.225 20.8794 332.501L21.8796 332.482ZM20.8794 337.366C20.8794 337.642 21.1033 337.861 21.3795 337.856C21.6557 337.851 21.8796 337.624 21.8796 337.347L20.8794 337.366ZM21.8796 342.212C21.8796 341.936 21.6557 341.717 21.3795 341.722C21.1033 341.727 20.8794 341.955 20.8794 342.231L21.8796 342.212ZM20.8794 347.096C20.8794 347.372 21.1033 347.591 21.3795 347.586C21.6557 347.581 21.8796 347.354 21.8796 347.077L20.8794 347.096ZM21.8796 351.942C21.8796 351.666 21.6557 351.447 21.3795 351.452C21.1033 351.457 20.8794 351.685 20.8794 351.961L21.8796 351.942ZM20.8794 356.826C20.8794 357.102 21.1033 357.321 21.3795 357.316C21.6557 357.311 21.8796 357.084 21.8796 356.808L20.8794 356.826ZM21.8796 361.673C21.8796 361.396 21.6557 361.177 21.3795 361.182C21.1033 361.187 20.8794 361.415 20.8794 361.691L21.8796 361.673ZM20.8794 366.556C20.8794 366.832 21.1033 367.051 21.3795 367.046C21.6557 367.041 21.8796 366.814 21.8796 366.537L20.8794 366.556ZM21.8796 371.402C21.8796 371.126 21.6557 370.907 21.3795 370.912C21.1033 370.917 20.8794 371.145 20.8794 371.421L21.8796 371.402ZM20.8794 376.286C20.8794 376.562 21.1033 376.781 21.3795 376.776C21.6557 376.771 21.8796 376.544 21.8796 376.267L20.8794 376.286ZM21.8796 381.132C21.8796 380.856 21.6557 380.637 21.3795 380.642C21.1033 380.647 20.8794 380.875 20.8794 381.151L21.8796 381.132ZM20.8794 386.016C20.8794 386.292 21.1033 386.511 21.3795 386.506C21.6557 386.501 21.8796 386.274 21.8796 385.997L20.8794 386.016ZM21.8796 390.862C21.8796 390.586 21.6557 390.367 21.3795 390.372C21.1033 390.377 20.8794 390.605 20.8794 390.881L21.8796 390.862ZM20.8794 395.746C20.8794 396.022 21.1033 396.241 21.3795 396.236C21.6557 396.231 21.8796 396.004 21.8796 395.727L20.8794 395.746ZM21.8796 400.592C21.8796 400.316 21.6557 400.097 21.3795 400.102C21.1033 400.107 20.8794 400.335 20.8794 400.611L21.8796 400.592ZM20.8794 405.476C20.8794 405.752 21.1033 405.971 21.3795 405.966C21.6557 405.961 21.8796 405.734 21.8796 405.457L20.8794 405.476ZM21.8796 410.322C21.8796 410.046 21.6557 409.827 21.3795 409.832C21.1033 409.837 20.8794 410.065 20.8794 410.341L21.8796 410.322ZM20.8794 415.206C20.8794 415.482 21.1033 415.701 21.3795 415.696C21.6557 415.691 21.8796 415.463 21.8796 415.187L20.8794 415.206ZM21.8796 420.052C21.8796 419.776 21.6557 419.557 21.3795 419.562C21.1033 419.567 20.8794 419.795 20.8794 420.071L21.8796 420.052ZM20.8794 424.936C20.8794 425.212 21.1033 425.431 21.3795 425.426C21.6557 425.421 21.8796 425.194 21.8796 424.917L20.8794 424.936ZM21.8796 429.782C21.8796 429.506 21.6557 429.287 21.3795 429.292C21.1033 429.297 20.8794 429.525 20.8794 429.801L21.8796 429.782ZM20.8794 434.666C20.8794 434.942 21.1033 435.161 21.3795 435.156C21.6557 435.151 21.8796 434.924 21.8796 434.647L20.8794 434.666ZM21.8796 439.512C21.8796 439.236 21.6557 439.017 21.3795 439.022C21.1033 439.027 20.8794 439.255 20.8794 439.531L21.8796 439.512ZM20.8794 444.396C20.8794 444.672 21.1033 444.891 21.3795 444.886C21.6557 444.881 21.8796 444.654 21.8796 444.377L20.8794 444.396ZM21.8796 449.242C21.8796 448.966 21.6557 448.747 21.3795 448.752C21.1033 448.757 20.8794 448.985 20.8794 449.261L21.8796 449.242ZM20.8794 454.126C20.8794 454.402 21.1033 454.621 21.3795 454.616C21.6557 454.611 21.8796 454.384 21.8796 454.107L20.8794 454.126ZM21.8796 458.972C21.8796 458.696 21.6557 458.477 21.3795 458.482C21.1033 458.487 20.8794 458.715 20.8794 458.991L21.8796 458.972ZM20.8794 463.856C20.8794 464.132 21.1033 464.351 21.3795 464.346C21.6557 464.341 21.8796 464.113 21.8796 463.837L20.8794 463.856ZM21.8796 468.702C21.8796 468.426 21.6557 468.207 21.3795 468.212C21.1033 468.217 20.8794 468.445 20.8794 468.721L21.8796 468.702ZM20.8794 473.586C20.8794 473.862 21.1033 474.081 21.3795 474.076C21.6557 474.071 21.8796 473.844 21.8796 473.567L20.8794 473.586ZM21.8796 478.432C21.8796 478.156 21.6557 477.937 21.3795 477.942C21.1033 477.947 20.8794 478.175 20.8794 478.451L21.8796 478.432ZM20.8794 483.316C20.8794 483.592 21.1033 483.811 21.3795 483.806C21.6557 483.801 21.8796 483.573 21.8796 483.297L20.8794 483.316ZM21.8796 488.162C21.8796 487.886 21.6557 487.667 21.3795 487.672C21.1033 487.677 20.8794 487.905 20.8794 488.181L21.8796 488.162ZM20.8794 493.046C20.8794 493.322 21.1033 493.541 21.3795 493.536C21.6557 493.531 21.8796 493.303 21.8796 493.027L20.8794 493.046ZM21.8796 497.892C21.8796 497.616 21.6557 497.397 21.3795 497.402C21.1033 497.407 20.8794 497.635 20.8794 497.911L21.8796 497.892ZM20.8794 502.776C20.8794 503.052 21.1033 503.271 21.3795 503.266C21.6557 503.261 21.8796 503.033 21.8796 502.757L20.8794 502.776ZM21.8796 507.622C21.8796 507.346 21.6557 507.127 21.3795 507.132C21.1033 507.137 20.8794 507.365 20.8794 507.641L21.8796 507.622ZM20.8794 512.506C20.8794 512.782 21.1033 513.001 21.3795 512.996C21.6557 512.991 21.8796 512.763 21.8796 512.487L20.8794 512.506ZM21.8796 517.352C21.8796 517.076 21.6557 516.857 21.3795 516.862C21.1033 516.867 20.8794 517.095 20.8794 517.371L21.8796 517.352ZM20.8794 522.236C20.8794 522.512 21.1033 522.731 21.3795 522.726C21.6557 522.721 21.8796 522.493 21.8796 522.217L20.8794 522.236ZM21.8796 527.082C21.8796 526.806 21.6557 526.587 21.3795 526.592C21.1033 526.597 20.8794 526.825 20.8794 527.101L21.8796 527.082ZM20.8794 531.966C20.8794 532.242 21.1033 532.461 21.3795 532.456C21.6557 532.451 21.8796 532.223 21.8796 531.947L20.8794 531.966ZM21.8796 536.812C21.8796 536.536 21.6557 536.317 21.3795 536.322C21.1033 536.327 20.8794 536.555 20.8794 536.831L21.8796 536.812ZM20.8794 541.696C20.8794 541.972 21.1033 542.191 21.3795 542.186C21.6557 542.181 21.8796 541.954 21.8796 541.677L20.8794 541.696ZM21.8796 546.542C21.8796 546.266 21.6557 546.047 21.3795 546.052C21.1033 546.057 20.8794 546.285 20.8794 546.561L21.8796 546.542ZM20.8794 551.426C20.8794 551.702 21.1033 551.921 21.3795 551.916C21.6557 551.911 21.8796 551.683 21.8796 551.407L20.8794 551.426ZM21.8796 556.272C21.8796 555.996 21.6557 555.777 21.3795 555.782C21.1033 555.787 20.8794 556.015 20.8794 556.291L21.8796 556.272ZM20.8794 561.156C20.8794 561.432 21.1033 561.651 21.3795 561.646C21.6557 561.641 21.8796 561.413 21.8796 561.137L20.8794 561.156ZM21.8796 566.002C21.8796 565.726 21.6557 565.507 21.3795 565.512C21.1033 565.517 20.8794 565.745 20.8794 566.021L21.8796 566.002ZM20.8794 570.886C20.8794 571.162 21.1033 571.381 21.3795 571.376C21.6557 571.371 21.8796 571.143 21.8796 570.867L20.8794 570.886ZM21.8796 575.732C21.8796 575.456 21.6557 575.237 21.3795 575.242C21.1033 575.247 20.8794 575.475 20.8794 575.751L21.8796 575.732ZM20.8794 580.616C20.8794 580.892 21.1033 581.111 21.3795 581.106C21.6557 581.101 21.8796 580.873 21.8796 580.597L20.8794 580.616ZM21.8796 585.462C21.8796 585.186 21.6557 584.967 21.3795 584.972C21.1033 584.977 20.8794 585.205 20.8794 585.481L21.8796 585.462ZM20.8794 590.346C20.8794 590.622 21.1033 590.841 21.3795 590.836C21.6557 590.831 21.8796 590.603 21.8796 590.327L20.8794 590.346ZM21.8796 595.192C21.8796 594.916 21.6557 594.697 21.3795 594.702C21.1033 594.707 20.8794 594.935 20.8794 595.211L21.8796 595.192ZM20.8794 600.076C20.8794 600.352 21.1033 600.571 21.3795 600.566C21.6557 600.561 21.8796 600.333 21.8796 600.057L20.8794 600.076ZM21.8796 604.922C21.8796 604.646 21.6557 604.427 21.3795 604.432C21.1033 604.437 20.8794 604.665 20.8794 604.941L21.8796 604.922ZM18.7842 606.865C18.508 606.865 18.2801 607.089 18.275 607.365C18.27 607.641 18.4897 607.865 18.7659 607.865L18.7842 606.865ZM13.557 607.865C13.8332 607.865 14.0611 607.641 14.0662 607.365C14.0712 607.089 13.8514 606.865 13.5753 606.865L13.557 607.865ZM8.36641 606.865C8.09026 606.865 7.8623 607.088 7.85725 607.365C7.8522 607.641 8.07197 607.864 8.34812 607.864L8.36641 606.865ZM3.13925 607.864C3.41539 607.864 3.64335 607.64 3.6484 607.364C3.65345 607.088 3.43368 606.865 3.15753 606.865L3.13925 607.864ZM12.754 4.61226L14.9082 4.61003L14.9254 3.61023L12.7712 3.61245L12.754 4.61226ZM19.2167 4.60558L21.371 4.60335L21.3882 3.60355L19.234 3.60578L19.2167 4.60558ZM20.8795 4.11258L20.8795 6.54509L21.8797 6.52683L21.8797 4.09432L20.8795 4.11258ZM20.8795 11.4101L20.8795 16.2751L21.8797 16.2568L21.8797 11.3918L20.8795 11.4101ZM20.8795 21.1401L20.8795 26.0051L21.8797 25.9869L21.8797 21.1219L20.8795 21.1401ZM20.8795 30.8701L20.8795 35.7351L21.8797 35.7169L21.8797 30.8519L20.8795 30.8701ZM20.8795 40.6002L20.8795 45.4652L21.8797 45.4469L21.8797 40.5819L20.8795 40.6002ZM20.8795 50.3302L20.8795 55.1952L21.8797 55.1769L21.8797 50.3119L20.8795 50.3302ZM20.8795 60.0602L20.8795 64.9252L21.8797 64.9069L21.8797 60.0419L20.8795 60.0602ZM20.8795 69.7902L20.8795 74.6552L21.8797 74.637L21.8797 69.772L20.8795 69.7902ZM20.8795 79.5203L20.8795 84.3853L21.8797 84.367L21.8797 79.502L20.8795 79.5203ZM20.8795 89.2503L20.8795 94.1153L21.8797 94.097L21.8797 89.232L20.8795 89.2503ZM20.8795 98.9803L20.8795 103.845L21.8797 103.827L21.8797 98.962L20.8795 98.9803ZM20.8795 108.71L20.8795 113.575L21.8797 113.557L21.8797 108.692L20.8795 108.71ZM20.8795 118.44L20.8795 123.305L21.8797 123.287L21.8797 118.422L20.8795 118.44ZM20.8795 128.17L20.8795 133.035L21.8797 133.017L21.8797 128.152L20.8795 128.17ZM20.8795 137.9L20.8795 142.765L21.8797 142.747L21.8797 137.882L20.8795 137.9ZM20.8795 147.63L20.8795 152.495L21.8797 152.477L21.8797 147.612L20.8795 147.63ZM20.8795 157.36L20.8795 162.225L21.8797 162.207L21.8797 157.342L20.8795 157.36ZM20.8795 167.09L20.8795 171.956L21.8797 171.937L21.8797 167.072L20.8795 167.09ZM20.8795 176.821L20.8795 181.686L21.8797 181.667L21.8797 176.802L20.8795 176.821ZM20.8795 186.551L20.8795 191.416L21.8797 191.397L21.8797 186.532L20.8795 186.551ZM20.8795 196.281L20.8795 201.146L21.8797 201.127L21.8797 196.262L20.8795 196.281ZM20.8795 206.011L20.8795 210.876L21.8796 210.857L21.8796 205.992L20.8795 206.011ZM20.8795 215.741L20.8795 220.606L21.8796 220.587L21.8796 215.722L20.8795 215.741ZM20.8794 225.471L20.8794 230.336L21.8796 230.317L21.8796 225.452L20.8794 225.471ZM20.8794 235.201L20.8794 240.066L21.8796 240.047L21.8796 235.182L20.8794 235.201ZM20.8794 244.931L20.8794 249.796L21.8796 249.777L21.8796 244.912L20.8794 244.931ZM20.8794 254.661L20.8794 259.526L21.8796 259.507L21.8796 254.642L20.8794 254.661ZM20.8794 264.391L20.8794 269.256L21.8796 269.238L21.8796 264.373L20.8794 264.391ZM20.8794 274.121L20.8794 278.986L21.8796 278.967L21.8796 274.103L20.8794 274.121ZM20.8794 283.851L20.8794 288.716L21.8796 288.698L21.8796 283.832L20.8794 283.851ZM20.8794 293.581L20.8794 298.446L21.8796 298.427L21.8796 293.563L20.8794 293.581ZM20.8794 303.311L20.8794 308.176L21.8796 308.158L21.8796 303.293L20.8794 303.311ZM20.8794 313.041L20.8794 317.906L21.8796 317.887L21.8796 313.023L20.8794 313.041ZM20.8794 322.771L20.8794 327.636L21.8796 327.617L21.8796 322.752L20.8794 322.771ZM20.8794 332.501L20.8794 337.366L21.8796 337.347L21.8796 332.482L20.8794 332.501ZM20.8794 342.231L20.8794 347.096L21.8796 347.077L21.8796 342.212L20.8794 342.231ZM20.8794 351.961L20.8794 356.826L21.8796 356.808L21.8796 351.942L20.8794 351.961ZM20.8794 361.691L20.8794 366.556L21.8796 366.537L21.8796 361.673L20.8794 361.691ZM20.8794 371.421L20.8794 376.286L21.8796 376.267L21.8796 371.402L20.8794 371.421ZM20.8794 381.151L20.8794 386.016L21.8796 385.997L21.8796 381.132L20.8794 381.151ZM20.8794 390.881L20.8794 395.746L21.8796 395.727L21.8796 390.862L20.8794 390.881ZM20.8794 400.611L20.8794 405.476L21.8796 405.457L21.8796 400.592L20.8794 400.611ZM20.8794 410.341L20.8794 415.206L21.8796 415.187L21.8796 410.322L20.8794 410.341ZM20.8794 420.071L20.8794 424.936L21.8796 424.917L21.8796 420.052L20.8794 420.071ZM20.8794 429.801L20.8794 434.666L21.8796 434.647L21.8796 429.782L20.8794 429.801ZM20.8794 439.531L20.8794 444.396L21.8796 444.377L21.8796 439.512L20.8794 439.531ZM20.8794 449.261L20.8794 454.126L21.8796 454.107L21.8796 449.242L20.8794 449.261ZM20.8794 458.991L20.8794 463.856L21.8796 463.837L21.8796 458.972L20.8794 458.991ZM20.8794 468.721L20.8794 473.586L21.8796 473.567L21.8796 468.702L20.8794 468.721ZM20.8794 478.451L20.8794 483.316L21.8796 483.297L21.8796 478.432L20.8794 478.451ZM20.8794 488.181L20.8794 493.046L21.8796 493.027L21.8796 488.162L20.8794 488.181ZM20.8794 497.911L20.8794 502.776L21.8796 502.757L21.8796 497.892L20.8794 497.911ZM20.8794 507.641L20.8794 512.506L21.8796 512.487L21.8796 507.622L20.8794 507.641ZM20.8794 517.371L20.8794 522.236L21.8796 522.217L21.8796 517.352L20.8794 517.371ZM20.8794 527.101L20.8794 531.966L21.8796 531.947L21.8796 527.082L20.8794 527.101ZM20.8794 536.831L20.8794 541.696L21.8796 541.677L21.8796 536.812L20.8794 536.831ZM20.8794 546.561L20.8794 551.426L21.8796 551.407L21.8796 546.542L20.8794 546.561ZM20.8794 556.291L20.8794 561.156L21.8796 561.137L21.8796 556.272L20.8794 556.291ZM20.8794 566.021L20.8794 570.886L21.8796 570.867L21.8796 566.002L20.8794 566.021ZM20.8794 575.751L20.8794 580.616L21.8796 580.597L21.8796 575.732L20.8794 575.751ZM20.8794 585.481L20.8794 590.346L21.8796 590.327L21.8796 585.462L20.8794 585.481ZM20.8794 595.211L20.8794 600.076L21.8796 600.057L21.8796 595.192L20.8794 595.211ZM20.8794 604.941L20.8794 607.374L21.8796 607.356L21.8796 604.922L20.8794 604.941ZM21.3886 606.865L18.7842 606.865L18.7659 607.865L21.3703 607.865L21.3886 606.865ZM13.5753 606.865L8.36641 606.865L8.34812 607.864L13.557 607.865L13.5753 606.865ZM3.15753 606.865L0.553094 606.864L0.534805 607.864L3.13925 607.864L3.15753 606.865Z" fill="#749CC7"/>
</svg>
