<svg width="15" height="823" viewBox="0 0 15 823" fill="none" xmlns="http://www.w3.org/2000/svg">
<path d="M0.645854 822.445L0.652439 822.695L0.395794 822.695L0.39576 822.439L0.645854 822.445ZM13.7096 3.68413C13.8098 3.78173 13.814 3.93996 13.7189 4.03755L12.1698 5.62794C12.0747 5.72554 11.9165 5.72554 11.8162 5.62794C11.716 5.53035 11.7119 5.37212 11.8069 5.27452L13.1839 3.86084L11.7324 2.44716C11.6322 2.34957 11.628 2.19134 11.723 2.09374C11.8181 1.99615 11.9764 1.99615 12.0766 2.09374L13.7096 3.68413ZM0.537331 3.86084L0.287237 3.85429L0.287205 3.61094L0.530741 3.61094L0.537331 3.86084ZM10.294 4.11075C10.1559 4.11075 10.0411 3.99886 10.0374 3.86084C10.0338 3.72282 10.1428 3.61094 10.2808 3.61094L10.294 4.11075ZM3.78077 3.61094C3.91885 3.61094 4.03373 3.72282 4.03737 3.86084C4.04101 3.99886 3.93203 4.11075 3.79395 4.11075L3.78077 3.61094ZM0.787749 6.30366C0.787766 6.44163 0.675811 6.55055 0.537687 6.54693C0.399564 6.54331 0.287577 6.42853 0.287561 6.29056L0.787749 6.30366ZM0.288206 11.1631C0.288188 11.0251 0.400143 10.9162 0.538266 10.9198C0.67639 10.9234 0.788376 11.0382 0.788395 11.1762L0.288206 11.1631ZM0.78904 16.0487C0.789059 16.1867 0.677102 16.2956 0.538979 16.292C0.400855 16.2884 0.288871 16.1736 0.288852 16.0356L0.78904 16.0487ZM0.289498 20.9081C0.289479 20.7702 0.401436 20.6612 0.53956 20.6649C0.677683 20.6685 0.789668 20.7833 0.789686 20.9212L0.289498 20.9081ZM0.790332 25.7938C0.79035 25.9317 0.678395 26.0407 0.540272 26.037C0.402149 26.0334 0.290162 25.9186 0.290143 25.7807L0.790332 25.7938ZM0.290789 30.6532C0.290772 30.5152 0.402728 30.4063 0.540851 30.4099C0.678974 30.4135 0.790961 30.5283 0.790978 30.6663L0.290789 30.6532ZM0.791625 35.5388C0.791642 35.6768 0.679686 35.7857 0.541563 35.7821C0.40344 35.7785 0.291453 35.6637 0.291437 35.5257L0.791625 35.5388ZM0.292082 40.3982C0.292064 40.2603 0.404019 40.1514 0.542142 40.155C0.680265 40.1586 0.792252 40.2734 0.792271 40.4114L0.292082 40.3982ZM0.792916 45.2839C0.792935 45.4219 0.680978 45.5308 0.542854 45.5271C0.404731 45.5235 0.292747 45.4087 0.292728 45.2708L0.792916 45.2839ZM0.293374 50.1433C0.293355 50.0053 0.405312 49.8964 0.543435 49.9C0.681559 49.9037 0.793544 50.0184 0.793562 50.1564L0.293374 50.1433ZM0.794208 55.0289C0.794226 55.1669 0.682271 55.2758 0.544148 55.2722C0.406025 55.2686 0.294038 55.1538 0.294019 55.0158L0.794208 55.0289ZM0.294665 59.8884C0.294646 59.7504 0.406604 59.6415 0.544727 59.6451C0.68285 59.6487 0.794835 59.7635 0.794853 59.9015L0.294665 59.8884ZM0.795501 64.774C0.795518 64.912 0.683562 65.0209 0.545439 65.0173C0.407316 65.0136 0.295329 64.8989 0.295313 64.7609L0.795501 64.774ZM0.295958 69.6334C0.295939 69.4954 0.407895 69.3865 0.546018 69.3901C0.684141 69.3938 0.796128 69.5085 0.796146 69.6465L0.295958 69.6334ZM0.796792 74.519C0.796811 74.657 0.684853 74.7659 0.54673 74.7623C0.408607 74.7587 0.296622 74.6439 0.296604 74.5059L0.796792 74.519ZM0.297249 79.3785C0.29723 79.2405 0.409188 79.1316 0.547311 79.1352C0.685434 79.1388 0.797419 79.2536 0.797438 79.3916L0.297249 79.3785ZM0.798083 84.2641C0.798102 84.4021 0.686147 84.511 0.548023 84.5074C0.4099 84.5037 0.297913 84.389 0.297895 84.251L0.798083 84.2641ZM0.298542 89.1235C0.298523 88.9855 0.410479 88.8766 0.548602 88.8802C0.686725 88.8839 0.798712 88.9986 0.798731 89.1366L0.298542 89.1235ZM0.799376 94.0091C0.799395 94.1471 0.687438 94.256 0.549314 94.2524C0.411191 94.2488 0.299206 94.134 0.299188 93.996L0.799376 94.0091ZM0.299833 98.8685C0.299815 98.7306 0.411772 98.6217 0.549895 98.6253C0.688018 98.6289 0.800003 98.7437 0.800022 98.8817L0.299833 98.8685ZM0.800667 103.754C0.800686 103.892 0.688731 104.001 0.550607 103.997C0.412484 103.994 0.300498 103.879 0.300479 103.741L0.800667 103.754ZM0.301125 108.614C0.301108 108.476 0.413063 108.367 0.551186 108.37C0.68931 108.374 0.801296 108.489 0.801313 108.627L0.301125 108.614ZM0.801961 113.499C0.801977 113.637 0.690022 113.746 0.551898 113.742C0.413775 113.739 0.301789 113.624 0.301772 113.486L0.801961 113.499ZM0.302417 118.359C0.302399 118.221 0.414354 118.112 0.552478 118.115C0.690601 118.119 0.802587 118.234 0.802606 118.372L0.302417 118.359ZM0.803252 123.244C0.80327 123.382 0.691313 123.491 0.55319 123.488C0.415067 123.484 0.303082 123.369 0.303063 123.231L0.803252 123.244ZM0.303709 128.104C0.30369 127.966 0.415647 127.857 0.553771 127.86C0.691894 127.864 0.803879 127.979 0.803897 128.117L0.303709 128.104ZM0.804544 132.989C0.804561 133.127 0.692606 133.236 0.554483 133.233C0.416359 133.229 0.304373 133.114 0.304356 132.976L0.804544 132.989ZM0.305002 137.849C0.304983 137.711 0.416939 137.602 0.555062 137.605C0.693185 137.609 0.805172 137.724 0.80519 137.862L0.305002 137.849ZM0.805836 142.734C0.805854 142.872 0.693897 142.981 0.555774 142.978C0.417651 142.974 0.305666 142.859 0.305647 142.721L0.805836 142.734ZM0.306293 147.594C0.306274 147.456 0.418232 147.347 0.556355 147.351C0.694478 147.354 0.806463 147.469 0.806481 147.607L0.306293 147.594ZM0.807127 152.479C0.807145 152.617 0.69519 152.726 0.557067 152.723C0.418944 152.719 0.306957 152.604 0.306938 152.466L0.807127 152.479ZM0.307586 157.339C0.307567 157.201 0.419523 157.092 0.557646 157.096C0.695769 157.099 0.807756 157.214 0.807774 157.352L0.307586 157.339ZM0.80842 162.224C0.808438 162.362 0.696481 162.471 0.558358 162.468C0.420235 162.464 0.30825 162.349 0.308231 162.211L0.80842 162.224ZM0.308877 167.084C0.308858 166.946 0.420816 166.837 0.558939 166.841C0.697062 166.844 0.809047 166.959 0.809065 167.097L0.308877 167.084ZM0.809711 171.97C0.80973 172.107 0.697774 172.216 0.559651 172.213C0.421528 172.209 0.309541 172.094 0.309523 171.956L0.809711 171.97ZM0.310168 176.829C0.310151 176.691 0.422107 176.582 0.56023 176.586C0.698353 176.589 0.81034 176.704 0.810356 176.842L0.310168 176.829ZM0.811004 181.715C0.811021 181.853 0.699066 181.961 0.560942 181.958C0.422819 181.954 0.310833 181.839 0.310816 181.701L0.811004 181.715ZM0.311461 186.574C0.311442 186.436 0.423398 186.327 0.561521 186.331C0.699644 186.334 0.811631 186.449 0.81165 186.587L0.311461 186.574ZM0.812295 191.46C0.812314 191.598 0.700358 191.706 0.562233 191.703C0.42411 191.699 0.312125 191.584 0.312107 191.447L0.812295 191.46ZM0.312752 196.319C0.312733 196.181 0.424691 196.072 0.562814 196.076C0.700937 196.079 0.812924 196.194 0.81294 196.332L0.312752 196.319ZM0.813586 201.205C0.813605 201.343 0.70165 201.452 0.563526 201.448C0.425403 201.444 0.313417 201.33 0.313398 201.192L0.813586 201.205ZM0.314045 206.064C0.314027 205.926 0.425982 205.817 0.564105 205.821C0.702228 205.824 0.814215 205.939 0.814234 206.077L0.314045 206.064ZM0.81488 210.95C0.814898 211.088 0.702941 211.197 0.564818 211.193C0.426694 211.189 0.31471 211.075 0.314691 210.937L0.81488 210.95ZM0.315336 215.809C0.315318 215.671 0.427275 215.562 0.565398 215.566C0.703521 215.569 0.815506 215.684 0.815525 215.822L0.315336 215.809ZM0.816171 220.695C0.816189 220.833 0.704234 220.942 0.566111 220.938C0.427987 220.934 0.316001 220.82 0.315982 220.682L0.816171 220.695ZM0.316629 225.554C0.316611 225.416 0.428566 225.307 0.566689 225.311C0.704812 225.315 0.816799 225.429 0.816818 225.567L0.316629 225.554ZM0.817463 230.44C0.817482 230.578 0.705525 230.687 0.567401 230.683C0.429278 230.679 0.317293 230.565 0.317275 230.427L0.817463 230.44ZM0.317921 235.299C0.317902 235.161 0.429858 235.052 0.567981 235.056C0.706104 235.06 0.818091 235.174 0.818109 235.312L0.317921 235.299ZM0.818754 240.185C0.818773 240.323 0.706817 240.432 0.568693 240.428C0.43057 240.424 0.318584 240.31 0.318567 240.172L0.818754 240.185ZM0.319213 245.044C0.319194 244.906 0.43115 244.797 0.569273 244.801C0.707397 244.805 0.819384 244.919 0.8194 245.057L0.319213 245.044ZM0.820047 249.93C0.820066 250.068 0.708109 250.177 0.569986 250.173C0.431863 250.17 0.319877 250.055 0.319858 249.917L0.820047 249.93ZM0.320505 254.789C0.320486 254.651 0.432442 254.542 0.570566 254.546C0.708689 254.55 0.820675 254.664 0.820693 254.802L0.320505 254.789ZM0.821339 259.675C0.821358 259.813 0.709401 259.922 0.571278 259.918C0.433154 259.915 0.321169 259.8 0.32115 259.662L0.821339 259.675ZM0.321797 264.534C0.321778 264.396 0.433734 264.287 0.571857 264.291C0.70998 264.295 0.821966 264.41 0.821985 264.547L0.321797 264.534ZM0.82263 269.42C0.822649 269.558 0.710693 269.667 0.572569 269.663C0.434446 269.66 0.322461 269.545 0.322442 269.407L0.82263 269.42ZM0.323088 274.279C0.32307 274.141 0.435026 274.033 0.573149 274.036C0.711273 274.04 0.823259 274.155 0.823277 274.293L0.323088 274.279ZM0.823922 279.165C0.823941 279.303 0.711985 279.412 0.573861 279.408C0.435738 279.405 0.323752 279.29 0.323734 279.152L0.823922 279.165ZM0.324381 284.024C0.324362 283.886 0.436318 283.778 0.574442 283.781C0.712565 283.785 0.82455 283.9 0.824569 284.038L0.324381 284.024ZM0.825214 288.91C0.825232 289.048 0.713276 289.157 0.575154 289.153C0.43703 289.15 0.325044 289.035 0.325026 288.897L0.825214 288.91ZM0.325672 293.77C0.325654 293.632 0.43761 293.523 0.575733 293.526C0.713857 293.53 0.825843 293.645 0.825861 293.783L0.325672 293.77ZM0.826506 298.655C0.826525 298.793 0.714569 298.902 0.576445 298.898C0.438322 298.895 0.326336 298.78 0.326318 298.642L0.826506 298.655ZM0.326965 303.515C0.326946 303.377 0.438902 303.268 0.577026 303.271C0.715149 303.275 0.827134 303.39 0.827153 303.528L0.326965 303.515ZM0.827798 308.4C0.827816 308.538 0.715861 308.647 0.577738 308.643C0.439615 308.64 0.327628 308.525 0.32761 308.387L0.827798 308.4ZM0.328256 313.26C0.328237 313.122 0.440194 313.013 0.578317 313.016C0.716441 313.02 0.828426 313.135 0.828445 313.273L0.328256 313.26ZM0.829091 318.145C0.829108 318.283 0.717153 318.392 0.57903 318.389C0.440907 318.385 0.32892 318.27 0.328902 318.132L0.829091 318.145ZM0.329548 323.005C0.32953 322.867 0.441486 322.758 0.579609 322.761C0.717732 322.765 0.829718 322.88 0.829736 323.018L0.329548 323.005ZM0.830383 327.89C0.830401 328.028 0.718445 328.137 0.580322 328.134C0.442198 328.13 0.330213 328.015 0.330194 327.877L0.830383 327.89ZM0.33084 332.75C0.330821 332.612 0.442778 332.503 0.580901 332.506C0.719024 332.51 0.83101 332.625 0.831029 332.763L0.33084 332.75ZM0.831674 337.635C0.831693 337.773 0.719737 337.882 0.581613 337.879C0.44349 337.875 0.331504 337.76 0.331486 337.622L0.831674 337.635ZM0.332132 342.495C0.332113 342.357 0.444069 342.248 0.582193 342.251C0.720316 342.255 0.832301 342.37 0.83232 342.508L0.332132 342.495ZM0.832966 347.38C0.832985 347.518 0.721028 347.627 0.582905 347.624C0.444782 347.62 0.332796 347.505 0.332778 347.367L0.832966 347.38ZM0.333423 352.24C0.333405 352.102 0.445362 351.993 0.583484 351.997C0.721608 352 0.833594 352.115 0.833612 352.253L0.333423 352.24ZM0.834258 357.125C0.834276 357.263 0.72232 357.372 0.584197 357.369C0.446074 357.365 0.334088 357.25 0.33407 357.112L0.834258 357.125ZM0.334715 361.985C0.334698 361.847 0.446654 361.738 0.584777 361.742C0.7229 361.745 0.834886 361.86 0.834903 361.998L0.334715 361.985ZM0.83555 366.87C0.835569 367.008 0.723612 367.117 0.585489 367.114C0.447365 367.11 0.33538 366.995 0.335361 366.857L0.83555 366.87ZM0.336007 371.73C0.335989 371.592 0.447946 371.483 0.586069 371.487C0.724193 371.49 0.836178 371.605 0.836196 371.743L0.336007 371.73ZM0.836842 376.616C0.83686 376.754 0.724904 376.862 0.58678 376.859C0.448658 376.855 0.336672 376.74 0.336654 376.602L0.836842 376.616ZM0.337299 381.475C0.337281 381.337 0.449237 381.228 0.587361 381.232C0.725484 381.235 0.83747 381.35 0.837488 381.488L0.337299 381.475ZM0.838135 386.361C0.838152 386.499 0.726195 386.607 0.588073 386.604C0.449949 386.6 0.337963 386.485 0.337946 386.347L0.838135 386.361ZM0.338591 391.22C0.338574 391.082 0.45053 390.973 0.588653 390.977C0.726776 390.98 0.838762 391.095 0.83878 391.233L0.338591 391.22ZM0.839426 396.106C0.839444 396.244 0.727489 396.353 0.589364 396.349C0.451241 396.345 0.339256 396.23 0.339238 396.093L0.839426 396.106ZM0.339884 400.965C0.339865 400.827 0.451821 400.718 0.589945 400.722C0.728068 400.725 0.840054 400.84 0.840072 400.978L0.339884 400.965ZM0.840718 405.851C0.840736 405.989 0.72878 406.098 0.590657 406.094C0.452534 406.09 0.340547 405.976 0.340529 405.838L0.840718 405.851ZM0.341176 410.71C0.341157 410.572 0.453113 410.463 0.591237 410.467C0.72936 410.47 0.841345 410.585 0.841364 410.723L0.341176 410.71ZM0.842009 415.596C0.842028 415.734 0.730072 415.843 0.591949 415.839C0.453826 415.835 0.34184 415.721 0.341822 415.583L0.842009 415.596ZM0.342467 420.455C0.342449 420.317 0.454405 420.208 0.592528 420.212C0.730652 420.215 0.842638 420.33 0.842656 420.468L0.342467 420.455ZM0.843302 425.341C0.84332 425.479 0.731365 425.588 0.593241 425.584C0.455118 425.58 0.343131 425.466 0.343113 425.328L0.843302 425.341ZM0.343759 430.2C0.343742 430.062 0.455697 429.953 0.59382 429.957C0.731943 429.961 0.84393 430.075 0.843947 430.213L0.343759 430.2ZM0.844593 435.086C0.844612 435.224 0.732656 435.333 0.594533 435.329C0.456409 435.325 0.344424 435.211 0.344405 435.073L0.844593 435.086ZM0.345051 439.945C0.345032 439.807 0.456989 439.698 0.595112 439.702C0.733236 439.706 0.845221 439.82 0.84524 439.958L0.345051 439.945ZM0.845885 444.831C0.845904 444.969 0.733948 445.078 0.595824 445.074C0.457701 445.071 0.345715 444.956 0.345696 444.818L0.845885 444.831ZM0.346343 449.69C0.346325 449.552 0.45828 449.443 0.596404 449.447C0.734527 449.451 0.846513 449.565 0.846531 449.703L0.346343 449.69ZM0.847178 454.576C0.847196 454.714 0.735239 454.823 0.597117 454.819C0.458993 454.816 0.347008 454.701 0.346989 454.563L0.847178 454.576ZM0.347635 459.435C0.347617 459.297 0.459574 459.188 0.597696 459.192C0.73582 459.196 0.847806 459.31 0.847824 459.448L0.347635 459.435ZM0.84847 464.321C0.848488 464.459 0.736532 464.568 0.598408 464.564C0.460285 464.561 0.348299 464.446 0.348281 464.308L0.84847 464.321ZM0.348927 469.18C0.348909 469.042 0.460865 468.933 0.598989 468.937C0.737112 468.941 0.849097 469.055 0.849115 469.193L0.348927 469.18ZM0.849762 474.066C0.84978 474.204 0.737824 474.313 0.599701 474.309C0.461577 474.306 0.349592 474.191 0.349573 474.053L0.849762 474.066ZM0.350219 478.925C0.3502 478.787 0.462157 478.679 0.60028 478.682C0.738404 478.686 0.850389 478.801 0.850408 478.939L0.350219 478.925ZM0.851054 483.811C0.851071 483.949 0.739115 484.058 0.600992 484.054C0.462869 484.051 0.350883 483.936 0.350866 483.798L0.851054 483.811ZM0.35151 488.67C0.351493 488.532 0.463449 488.424 0.601573 488.427C0.739695 488.431 0.851681 488.546 0.851699 488.684L0.35151 488.67ZM0.852346 493.556C0.852364 493.694 0.740407 493.803 0.602285 493.799C0.464161 493.796 0.352175 493.681 0.352157 493.543L0.852346 493.556ZM0.352803 498.416C0.352784 498.278 0.464741 498.169 0.602864 498.172C0.740987 498.176 0.852973 498.291 0.852992 498.429L0.352803 498.416ZM0.853637 503.301C0.853655 503.439 0.741699 503.548 0.603575 503.544C0.465453 503.541 0.353467 503.426 0.353449 503.288L0.853637 503.301ZM0.354095 508.161C0.354076 508.023 0.466032 507.914 0.604156 507.917C0.742279 507.921 0.854264 508.036 0.854283 508.174L0.354095 508.161ZM0.854929 513.046C0.854948 513.184 0.742991 513.293 0.604868 513.289C0.466745 513.286 0.354759 513.171 0.354741 513.033L0.854929 513.046ZM0.355386 517.906C0.355368 517.768 0.467325 517.659 0.605448 517.662C0.743572 517.666 0.855557 517.781 0.855574 517.919L0.355386 517.906ZM0.85622 522.791C0.85624 522.929 0.744284 523.038 0.60616 523.035C0.468037 523.031 0.356052 522.916 0.356032 522.778L0.85622 522.791ZM0.356679 527.651C0.356661 527.513 0.468617 527.404 0.606741 527.407C0.744862 527.411 0.856849 527.526 0.856867 527.664L0.356679 527.651ZM0.857514 532.536C0.857531 532.674 0.745574 532.783 0.607451 532.78C0.46933 532.776 0.357343 532.661 0.357325 532.523L0.857514 532.536ZM0.357971 537.396C0.357952 537.258 0.469908 537.149 0.608031 537.152C0.746154 537.156 0.85814 537.271 0.85816 537.409L0.357971 537.396ZM0.858804 542.281C0.858824 542.419 0.746868 542.528 0.608744 542.525C0.470621 542.521 0.358635 542.406 0.358616 542.268L0.858804 542.281ZM0.359262 547.141C0.359244 547.003 0.4712 546.894 0.609324 546.898C0.747447 546.901 0.859433 547.016 0.859451 547.154L0.359262 547.141ZM0.860096 552.026C0.860116 552.164 0.74816 552.273 0.610036 552.27C0.471913 552.266 0.359928 552.151 0.359908 552.013L0.860096 552.026ZM0.360554 556.886C0.360537 556.748 0.472493 556.639 0.610615 556.643C0.748738 556.646 0.860725 556.761 0.860743 556.899L0.360554 556.886ZM0.861389 561.771C0.861407 561.909 0.749451 562.018 0.611327 562.015C0.473204 562.011 0.361218 561.896 0.361201 561.758L0.861389 561.771ZM0.361847 566.631C0.361827 566.493 0.473784 566.384 0.611907 566.388C0.750031 566.391 0.862016 566.506 0.862036 566.644L0.361847 566.631ZM0.862682 571.517C0.862699 571.654 0.750743 571.763 0.61262 571.76C0.474496 571.756 0.362511 571.641 0.362493 571.503L0.862682 571.517ZM0.363138 576.376C0.36312 576.238 0.475076 576.129 0.6132 576.133C0.751323 576.136 0.863309 576.251 0.863326 576.389L0.363138 576.376ZM0.863972 581.262C0.863991 581.399 0.752034 581.508 0.613912 581.505C0.475789 581.501 0.363802 581.386 0.363784 581.248L0.863972 581.262ZM0.36443 586.121C0.364413 585.983 0.476369 585.874 0.614492 585.878C0.752614 585.881 0.864601 585.996 0.864619 586.134L0.36443 586.121ZM0.865265 591.007C0.865283 591.145 0.753327 591.254 0.615204 591.25C0.47708 591.246 0.365094 591.131 0.365077 590.994L0.865265 591.007ZM0.365723 595.866C0.365703 595.728 0.47766 595.619 0.615783 595.623C0.753907 595.626 0.865892 595.741 0.865912 595.879L0.365723 595.866ZM0.866556 600.752C0.866575 600.89 0.754619 600.999 0.616496 600.995C0.478372 600.991 0.366387 600.877 0.366369 600.739L0.866556 600.752ZM0.367014 605.611C0.366996 605.473 0.478952 605.364 0.617076 605.368C0.755199 605.371 0.867185 605.486 0.867202 605.624L0.367014 605.611ZM0.867849 610.497C0.867866 610.635 0.75591 610.744 0.617788 610.74C0.479665 610.736 0.367678 610.622 0.36766 610.484L0.867849 610.497ZM0.368306 615.356C0.368288 615.218 0.480245 615.109 0.618366 615.113C0.75649 615.116 0.868477 615.231 0.868495 615.369L0.368306 615.356ZM0.869141 620.242C0.869159 620.38 0.757203 620.489 0.619079 620.485C0.480956 620.481 0.36897 620.367 0.368953 620.229L0.869141 620.242ZM0.369599 625.101C0.369579 624.963 0.481536 624.854 0.619659 624.858C0.757783 624.862 0.869768 624.976 0.869787 625.114L0.369599 625.101ZM0.870432 629.987C0.870451 630.125 0.758495 630.234 0.620372 630.23C0.482248 630.226 0.370263 630.112 0.370243 629.974L0.870432 629.987ZM0.37089 634.846C0.370872 634.708 0.482828 634.599 0.620952 634.603C0.759073 634.607 0.871061 634.721 0.871078 634.859L0.37089 634.846ZM0.871725 639.732C0.871742 639.87 0.759786 639.979 0.621662 639.975C0.483541 639.972 0.371554 639.857 0.371536 639.719L0.871725 639.732ZM0.372182 644.591C0.372164 644.453 0.484121 644.344 0.622242 644.348C0.760366 644.352 0.872353 644.466 0.872371 644.604L0.372182 644.591ZM0.873017 649.477C0.873035 649.615 0.761078 649.724 0.622955 649.72C0.484831 649.716 0.372846 649.602 0.372828 649.464L0.873017 649.477ZM0.373473 654.336C0.373455 654.198 0.485412 654.089 0.623535 654.093C0.761659 654.097 0.873644 654.211 0.873662 654.349L0.373473 654.336ZM0.874308 659.222C0.874327 659.36 0.762371 659.469 0.624248 659.465C0.486124 659.462 0.374139 659.347 0.374119 659.209L0.874308 659.222ZM0.374766 664.081C0.374748 663.943 0.486704 663.834 0.624827 663.838C0.762951 663.842 0.874936 663.956 0.874954 664.094L0.374766 664.081ZM0.875601 668.967C0.875618 669.105 0.763662 669.214 0.625538 669.21C0.487417 669.207 0.37543 669.092 0.375412 668.954L0.875601 668.967ZM0.376058 673.826C0.376039 673.688 0.487995 673.579 0.626118 673.583C0.764242 673.587 0.876227 673.702 0.876246 673.84L0.376058 673.826ZM0.876893 678.712C0.87691 678.85 0.764954 678.959 0.626831 678.955C0.488707 678.952 0.376722 678.837 0.376704 678.699L0.876893 678.712ZM0.377349 683.571C0.377331 683.433 0.489288 683.325 0.627411 683.328C0.765535 683.332 0.87752 683.447 0.877538 683.585L0.377349 683.571ZM0.878184 688.457C0.878203 688.595 0.766247 688.704 0.628124 688.7C0.49 688.697 0.378015 688.582 0.377995 688.444L0.878184 688.457ZM0.378641 693.316C0.378624 693.179 0.49058 693.07 0.628703 693.073C0.766827 693.077 0.878812 693.192 0.87883 693.33L0.378641 693.316ZM0.879476 698.202C0.879494 698.34 0.767538 698.449 0.629414 698.445C0.491291 698.442 0.379306 698.327 0.379288 698.189L0.879476 698.202ZM0.379934 703.062C0.379915 702.924 0.491871 702.815 0.629994 702.818C0.768118 702.822 0.880103 702.937 0.880122 703.075L0.379934 703.062ZM0.880769 707.947C0.880786 708.085 0.76883 708.194 0.630707 708.19C0.492583 708.187 0.380598 708.072 0.38058 707.934L0.880769 707.947ZM0.381225 712.807C0.381207 712.669 0.493163 712.56 0.631287 712.563C0.76941 712.567 0.881396 712.682 0.881414 712.82L0.381225 712.807ZM0.88206 717.692C0.882078 717.83 0.770121 717.939 0.631999 717.936C0.493876 717.932 0.381889 717.817 0.381871 717.679L0.88206 717.692ZM0.382517 722.552C0.3825 722.414 0.494456 722.305 0.632579 722.308C0.770701 722.312 0.882688 722.427 0.882706 722.565L0.382517 722.552ZM0.883352 727.437C0.88337 727.575 0.771414 727.684 0.63329 727.681C0.495167 727.677 0.383182 727.562 0.383164 727.424L0.883352 727.437ZM0.38381 732.297C0.383791 732.159 0.495747 732.05 0.63387 732.053C0.771994 732.057 0.883979 732.172 0.883999 732.31L0.38381 732.297ZM0.884643 737.182C0.884662 737.32 0.772706 737.429 0.634583 737.426C0.496459 737.422 0.384474 737.307 0.384456 737.169L0.884643 737.182ZM0.385101 742.042C0.385083 741.904 0.497039 741.795 0.635162 741.798C0.773286 741.802 0.885271 741.917 0.885289 742.055L0.385101 742.042ZM0.885936 746.927C0.885953 747.065 0.773997 747.174 0.635875 747.171C0.497752 747.167 0.385765 747.052 0.385747 746.914L0.885936 746.927ZM0.386393 751.787C0.386376 751.649 0.498332 751.54 0.636454 751.543C0.774577 751.547 0.886564 751.662 0.886582 751.8L0.386393 751.787ZM0.887228 756.672C0.887246 756.81 0.77529 756.919 0.637166 756.916C0.499043 756.912 0.387057 756.797 0.387039 756.659L0.887228 756.672ZM0.387686 761.532C0.387666 761.394 0.499623 761.285 0.637746 761.289C0.77587 761.292 0.887855 761.407 0.887874 761.545L0.387686 761.532ZM0.888519 766.417C0.888538 766.555 0.776582 766.664 0.638459 766.661C0.500335 766.657 0.38835 766.542 0.38833 766.404L0.888519 766.417ZM0.388977 771.277C0.388959 771.139 0.500915 771.03 0.639039 771.034C0.777162 771.037 0.889147 771.152 0.889165 771.29L0.388977 771.277ZM0.889812 776.163C0.889829 776.3 0.777873 776.409 0.63975 776.406C0.501628 776.402 0.389641 776.287 0.389623 776.149L0.889812 776.163ZM0.390269 781.022C0.390251 780.884 0.502208 780.775 0.64033 780.779C0.778453 780.782 0.89044 780.897 0.890458 781.035L0.390269 781.022ZM0.891104 785.908C0.891122 786.046 0.779165 786.154 0.641042 786.151C0.502919 786.147 0.390933 786.032 0.390915 785.894L0.891104 785.908ZM0.39156 790.767C0.391542 790.629 0.503499 790.52 0.641622 790.524C0.779746 790.527 0.891731 790.642 0.891749 790.78L0.39156 790.767ZM0.892395 795.653C0.892414 795.791 0.780458 795.9 0.642335 795.896C0.504211 795.892 0.392226 795.777 0.392206 795.639L0.892395 795.653ZM0.392853 800.512C0.392835 800.374 0.504791 800.265 0.642914 800.269C0.781038 800.272 0.893023 800.387 0.893041 800.525L0.392853 800.512ZM0.893688 805.398C0.893705 805.536 0.781749 805.645 0.643626 805.641C0.505504 805.637 0.393517 805.523 0.393499 805.385L0.893688 805.398ZM0.394145 810.257C0.394126 810.119 0.506082 810.01 0.644205 810.014C0.782329 810.017 0.894314 810.132 0.894334 810.27L0.394145 810.257ZM0.89498 815.143C0.894998 815.281 0.783041 815.39 0.644918 815.386C0.506794 815.382 0.394809 815.268 0.394791 815.13L0.89498 815.143ZM0.395438 820.002C0.395418 819.864 0.507374 819.755 0.645498 819.759C0.783621 819.762 0.895607 819.877 0.895626 820.015L0.395438 820.002ZM2.9377 822.196C3.07577 822.196 3.19065 822.307 3.19429 822.445C3.19793 822.583 3.08894 822.695 2.95087 822.695L2.9377 822.196ZM7.54772 822.695C7.40965 822.695 7.29477 822.584 7.29113 822.445C7.28749 822.307 7.39648 822.196 7.53455 822.196L7.54772 822.695ZM13.5441 4.11075L10.294 4.11075L10.2808 3.61094L13.5309 3.61094L13.5441 4.11075ZM3.79395 4.11075L0.543922 4.11075L0.530741 3.61094L3.78077 3.61094L3.79395 4.11075ZM0.787425 3.8674L0.787749 6.30366L0.287561 6.29056L0.287237 3.85429L0.787425 3.8674ZM0.788395 11.1762L0.78904 16.0487L0.288852 16.0356L0.288206 11.1631L0.788395 11.1762ZM0.789686 20.9212L0.790332 25.7938L0.290143 25.7807L0.289498 20.9081L0.789686 20.9212ZM0.790978 30.6663L0.791625 35.5388L0.291437 35.5257L0.290789 30.6532L0.790978 30.6663ZM0.792271 40.4114L0.792916 45.2839L0.292728 45.2708L0.292082 40.3982L0.792271 40.4114ZM0.793562 50.1564L0.794208 55.0289L0.294019 55.0158L0.293374 50.1433L0.793562 50.1564ZM0.794853 59.9015L0.795501 64.774L0.295313 64.7609L0.294665 59.8884L0.794853 59.9015ZM0.796146 69.6465L0.796792 74.519L0.296604 74.5059L0.295958 69.6334L0.796146 69.6465ZM0.797438 79.3916L0.798083 84.2641L0.297895 84.251L0.297249 79.3785L0.797438 79.3916ZM0.798731 89.1366L0.799376 94.0091L0.299188 93.996L0.298542 89.1235L0.798731 89.1366ZM0.800022 98.8817L0.800667 103.754L0.300479 103.741L0.299833 98.8685L0.800022 98.8817ZM0.801313 108.627L0.801961 113.499L0.301772 113.486L0.301125 108.614L0.801313 108.627ZM0.802606 118.372L0.803252 123.244L0.303063 123.231L0.302417 118.359L0.802606 118.372ZM0.803897 128.117L0.804544 132.989L0.304356 132.976L0.303709 128.104L0.803897 128.117ZM0.80519 137.862L0.805836 142.734L0.305647 142.721L0.305002 137.849L0.80519 137.862ZM0.806481 147.607L0.807127 152.479L0.306938 152.466L0.306293 147.594L0.806481 147.607ZM0.807774 157.352L0.80842 162.224L0.308231 162.211L0.307586 157.339L0.807774 157.352ZM0.809065 167.097L0.809711 171.97L0.309523 171.956L0.308877 167.084L0.809065 167.097ZM0.810356 176.842L0.811004 181.715L0.310816 181.701L0.310168 176.829L0.810356 176.842ZM0.81165 186.587L0.812295 191.46L0.312107 191.447L0.311461 186.574L0.81165 186.587ZM0.81294 196.332L0.813586 201.205L0.313398 201.192L0.312752 196.319L0.81294 196.332ZM0.814234 206.077L0.81488 210.95L0.314691 210.937L0.314045 206.064L0.814234 206.077ZM0.815525 215.822L0.816171 220.695L0.315982 220.682L0.315336 215.809L0.815525 215.822ZM0.816818 225.567L0.817463 230.44L0.317275 230.427L0.316629 225.554L0.816818 225.567ZM0.818109 235.312L0.818754 240.185L0.318567 240.172L0.317921 235.299L0.818109 235.312ZM0.8194 245.057L0.820047 249.93L0.319858 249.917L0.319213 245.044L0.8194 245.057ZM0.820693 254.802L0.821339 259.675L0.32115 259.662L0.320505 254.789L0.820693 254.802ZM0.821985 264.547L0.82263 269.42L0.322442 269.407L0.321797 264.534L0.821985 264.547ZM0.823277 274.293L0.823922 279.165L0.323734 279.152L0.323088 274.279L0.823277 274.293ZM0.824569 284.038L0.825214 288.91L0.325026 288.897L0.324381 284.024L0.824569 284.038ZM0.825861 293.783L0.826506 298.655L0.326318 298.642L0.325672 293.77L0.825861 293.783ZM0.827153 303.528L0.827798 308.4L0.32761 308.387L0.326965 303.515L0.827153 303.528ZM0.828445 313.273L0.829091 318.145L0.328902 318.132L0.328256 313.26L0.828445 313.273ZM0.829736 323.018L0.830383 327.89L0.330194 327.877L0.329548 323.005L0.829736 323.018ZM0.831029 332.763L0.831674 337.635L0.331486 337.622L0.33084 332.75L0.831029 332.763ZM0.83232 342.508L0.832966 347.38L0.332778 347.367L0.332132 342.495L0.83232 342.508ZM0.833612 352.253L0.834258 357.125L0.33407 357.112L0.333423 352.24L0.833612 352.253ZM0.834903 361.998L0.83555 366.87L0.335361 366.857L0.334715 361.985L0.834903 361.998ZM0.836196 371.743L0.836842 376.616L0.336654 376.602L0.336007 371.73L0.836196 371.743ZM0.837488 381.488L0.838135 386.361L0.337946 386.347L0.337299 381.475L0.837488 381.488ZM0.83878 391.233L0.839426 396.106L0.339238 396.093L0.338591 391.22L0.83878 391.233ZM0.840072 400.978L0.840718 405.851L0.340529 405.838L0.339884 400.965L0.840072 400.978ZM0.841364 410.723L0.842009 415.596L0.341822 415.583L0.341176 410.71L0.841364 410.723ZM0.842656 420.468L0.843302 425.341L0.343113 425.328L0.342467 420.455L0.842656 420.468ZM0.843947 430.213L0.844593 435.086L0.344405 435.073L0.343759 430.2L0.843947 430.213ZM0.84524 439.958L0.845885 444.831L0.345696 444.818L0.345051 439.945L0.84524 439.958ZM0.846531 449.703L0.847178 454.576L0.346989 454.563L0.346343 449.69L0.846531 449.703ZM0.847824 459.448L0.84847 464.321L0.348281 464.308L0.347635 459.435L0.847824 459.448ZM0.849115 469.193L0.849762 474.066L0.349573 474.053L0.348927 469.18L0.849115 469.193ZM0.850408 478.939L0.851054 483.811L0.350866 483.798L0.350219 478.925L0.850408 478.939ZM0.851699 488.684L0.852346 493.556L0.352157 493.543L0.35151 488.67L0.851699 488.684ZM0.852992 498.429L0.853637 503.301L0.353449 503.288L0.352803 498.416L0.852992 498.429ZM0.854283 508.174L0.854929 513.046L0.354741 513.033L0.354095 508.161L0.854283 508.174ZM0.855574 517.919L0.85622 522.791L0.356032 522.778L0.355386 517.906L0.855574 517.919ZM0.856867 527.664L0.857514 532.536L0.357325 532.523L0.356679 527.651L0.856867 527.664ZM0.85816 537.409L0.858804 542.281L0.358616 542.268L0.357971 537.396L0.85816 537.409ZM0.859451 547.154L0.860096 552.026L0.359908 552.013L0.359262 547.141L0.859451 547.154ZM0.860743 556.899L0.861389 561.771L0.361201 561.758L0.360554 556.886L0.860743 556.899ZM0.862036 566.644L0.862682 571.517L0.362493 571.503L0.361847 566.631L0.862036 566.644ZM0.863326 576.389L0.863972 581.262L0.363784 581.248L0.363138 576.376L0.863326 576.389ZM0.864619 586.134L0.865265 591.007L0.365077 590.994L0.36443 586.121L0.864619 586.134ZM0.865912 595.879L0.866556 600.752L0.366369 600.739L0.365723 595.866L0.865912 595.879ZM0.867202 605.624L0.867849 610.497L0.36766 610.484L0.367014 605.611L0.867202 605.624ZM0.868495 615.369L0.869141 620.242L0.368953 620.229L0.368306 615.356L0.868495 615.369ZM0.869787 625.114L0.870432 629.987L0.370243 629.974L0.369599 625.101L0.869787 625.114ZM0.871078 634.859L0.871725 639.732L0.371536 639.719L0.37089 634.846L0.871078 634.859ZM0.872371 644.604L0.873017 649.477L0.372828 649.464L0.372182 644.591L0.872371 644.604ZM0.873662 654.349L0.874308 659.222L0.374119 659.209L0.373473 654.336L0.873662 654.349ZM0.874954 664.094L0.875601 668.967L0.375412 668.954L0.374766 664.081L0.874954 664.094ZM0.876246 673.84L0.876893 678.712L0.376704 678.699L0.376058 673.826L0.876246 673.84ZM0.877538 683.585L0.878184 688.457L0.377995 688.444L0.377349 683.571L0.877538 683.585ZM0.87883 693.33L0.879476 698.202L0.379288 698.189L0.378641 693.316L0.87883 693.33ZM0.880122 703.075L0.880769 707.947L0.38058 707.934L0.379934 703.062L0.880122 703.075ZM0.881414 712.82L0.88206 717.692L0.381871 717.679L0.381225 712.807L0.881414 712.82ZM0.882706 722.565L0.883352 727.437L0.383164 727.424L0.382517 722.552L0.882706 722.565ZM0.883999 732.31L0.884643 737.182L0.384456 737.169L0.38381 732.297L0.883999 732.31ZM0.885289 742.055L0.885936 746.927L0.385747 746.914L0.385101 742.042L0.885289 742.055ZM0.886582 751.8L0.887228 756.672L0.387039 756.659L0.386393 751.787L0.886582 751.8ZM0.887874 761.545L0.888519 766.417L0.38833 766.404L0.387686 761.532L0.887874 761.545ZM0.889165 771.29L0.889812 776.163L0.389623 776.149L0.388977 771.277L0.889165 771.29ZM0.890458 781.035L0.891104 785.908L0.390915 785.894L0.390269 781.022L0.890458 781.035ZM0.891749 790.78L0.892395 795.653L0.392206 795.639L0.39156 790.767L0.891749 790.78ZM0.893041 800.525L0.893688 805.398L0.393499 805.385L0.392853 800.512L0.893041 800.525ZM0.894334 810.27L0.89498 815.143L0.394791 815.13L0.394145 810.257L0.894334 810.27ZM0.895626 820.015L0.895948 822.452L0.39576 822.439L0.395438 820.002L0.895626 820.015ZM0.639269 822.195L2.9377 822.196L2.95087 822.695L0.652439 822.695L0.639269 822.195ZM7.53455 822.196L9.83298 822.196L9.84615 822.695L7.54772 822.695L7.53455 822.196ZM0.645854 822.445L0.659025 822.945L0.145733 822.945L0.145666 822.432L0.645854 822.445ZM13.8817 3.50742C14.0821 3.70261 14.0905 4.01908 13.9003 4.21426L10.8021 7.39504C10.612 7.59023 10.2954 7.59023 10.095 7.39504C9.89461 7.19986 9.88626 6.88339 10.0764 6.6882L12.8303 3.86084L9.92727 1.03348C9.72685 0.838295 9.71851 0.521832 9.90863 0.326643C10.0988 0.131455 10.4153 0.131455 10.6158 0.326643L13.8817 3.50742ZM0.537331 3.86084L0.0371427 3.84774L0.0370789 3.36103L0.52415 3.36103L0.537331 3.86084ZM10.3006 4.36066C10.0245 4.36066 9.7947 4.13688 9.78742 3.86084C9.78014 3.58481 9.9981 3.36103 10.2743 3.36103L10.3006 4.36066ZM3.77418 3.36103C4.05033 3.36103 4.2801 3.58481 4.28738 3.86084C4.29466 4.13688 4.0767 4.36066 3.80055 4.36066L3.77418 3.36103ZM1.03784 6.31021C1.03788 6.58615 0.813966 6.80398 0.53772 6.79675C0.261473 6.78951 0.0375018 6.55995 0.0374665 6.284L1.03784 6.31021ZM0.0381122 11.1565C0.038075 10.8806 0.261988 10.6628 0.538234 10.67C0.81448 10.6772 1.03845 10.9068 1.03849 11.1827L0.0381122 11.1565ZM1.03913 16.0553C1.03917 16.3312 0.815259 16.549 0.539013 16.5418C0.262766 16.5346 0.038795 16.305 0.0387578 16.0291L1.03913 16.0553ZM0.0394035 20.9016C0.0393663 20.6256 0.263279 20.4078 0.539525 20.4151C0.815772 20.4223 1.03974 20.6519 1.03978 20.9278L0.0394035 20.9016ZM1.04043 25.8003C1.04046 26.0763 0.816551 26.2941 0.540304 26.2869C0.264058 26.2796 0.0400863 26.0501 0.0400491 25.7741L1.04043 25.8003ZM0.0406948 30.6466C0.0406595 30.3707 0.264572 30.1529 0.540819 30.1601C0.817065 30.1673 1.04104 30.3969 1.04107 30.6728L0.0406948 30.6466ZM1.04172 35.5454C1.04175 35.8213 0.817842 36.0391 0.541595 36.0319C0.265349 36.0247 0.0413777 35.7951 0.0413424 35.5192L1.04172 35.5454ZM0.0419881 40.3917C0.0419508 40.1157 0.265863 39.8979 0.54211 39.9052C0.818356 39.9124 1.04233 40.142 1.04236 40.4179L0.0419881 40.3917ZM1.04301 45.2904C1.04305 45.5664 0.819135 45.7842 0.542889 45.777C0.266642 45.7697 0.0426709 45.5402 0.0426337 45.2642L1.04301 45.2904ZM0.0432794 50.1367C0.0432422 49.8608 0.267155 49.643 0.543401 49.6502C0.819648 49.6575 1.04362 49.887 1.04366 50.163L0.0432794 50.1367ZM1.0443 55.0355C1.04434 55.3114 0.820427 55.5293 0.54418 55.522C0.267934 55.5148 0.0439623 55.2852 0.0439251 55.0093L1.0443 55.0355ZM0.0445708 59.8818C0.0445355 59.6059 0.268446 59.388 0.544695 59.3953C0.820941 59.4025 1.04491 59.6321 1.04495 59.908L0.0445708 59.8818ZM1.0456 64.7805C1.04563 65.0565 0.821718 65.2743 0.545471 65.2671C0.269225 65.2598 0.0452536 65.0303 0.0452164 64.7543L1.0456 64.7805ZM0.0458639 69.6269C0.0458267 69.3509 0.269739 69.1331 0.545986 69.1403C0.822232 69.1476 1.0462 69.3771 1.04624 69.6531L0.0458639 69.6269ZM1.04689 74.5256C1.04692 74.8015 0.823011 75.0194 0.546764 75.0121C0.270518 75.0049 0.0465466 74.7753 0.0465094 74.4994L1.04689 74.5256ZM0.0471549 79.3719C0.0471197 79.096 0.27103 78.8781 0.547277 78.8854C0.823523 78.8926 1.0475 79.1222 1.04753 79.3981L0.0471549 79.3719ZM1.04818 84.2706C1.04821 84.5466 0.824302 84.7644 0.548056 84.7572C0.271809 84.7499 0.0478377 84.5204 0.0478005 84.2444L1.04818 84.2706ZM0.0484479 89.1169C0.0484107 88.841 0.272323 88.6232 0.54857 88.6304C0.824816 88.6377 1.04879 88.8672 1.04882 89.1432L0.0484479 89.1169ZM1.04947 94.0157C1.04951 94.2916 0.825595 94.5095 0.549349 94.5022C0.273102 94.495 0.0491288 94.2654 0.0490935 93.9895L1.04947 94.0157ZM0.049739 98.862C0.0497018 98.5861 0.273615 98.3682 0.549861 98.3755C0.826107 98.3827 1.05008 98.6123 1.05012 98.8882L0.049739 98.862ZM1.05076 103.761C1.0508 104.037 0.826886 104.255 0.55064 104.247C0.274393 104.24 0.050422 104.01 0.0503848 103.735L1.05076 103.761ZM0.0510303 108.607C0.050995 108.331 0.274908 108.113 0.551154 108.121C0.827401 108.128 1.05137 108.357 1.05141 108.633L0.0510303 108.607ZM1.05205 113.506C1.05209 113.782 0.828177 114 0.551931 113.992C0.275684 113.985 0.051713 113.756 0.0516778 113.48L1.05205 113.506ZM0.0523233 118.352C0.0522861 118.076 0.276199 117.858 0.552445 117.866C0.828691 117.873 1.05266 118.102 1.0527 118.378L0.0523233 118.352ZM1.05335 123.251C1.05338 123.527 0.829471 123.745 0.553224 123.737C0.276978 123.73 0.0530062 123.501 0.0529691 123.225L1.05335 123.251ZM0.0536144 128.097C0.0535791 127.821 0.27749 127.603 0.553736 127.611C0.829983 127.618 1.05396 127.847 1.05399 128.123L0.0536144 128.097ZM1.05464 132.996C1.05467 133.272 0.830761 133.49 0.554515 133.482C0.278268 133.475 0.0542971 133.246 0.054262 132.97L1.05464 132.996ZM0.0549074 137.842C0.05487 137.566 0.278783 137.348 0.555029 137.356C0.831276 137.363 1.05525 137.592 1.05528 137.868L0.0549074 137.842ZM1.05593 142.741C1.05597 143.017 0.832055 143.235 0.555808 143.227C0.279562 143.22 0.0555905 142.991 0.0555531 142.715L1.05593 142.741ZM0.0561985 147.587C0.0561615 147.311 0.280074 147.093 0.556321 147.101C0.832567 147.108 1.05654 147.338 1.05658 147.613L0.0561985 147.587ZM1.05722 152.486C1.05726 152.762 0.833345 152.98 0.557099 152.972C0.280853 152.965 0.0568812 152.736 0.0568442 152.46L1.05722 152.486ZM0.0574915 157.332C0.0574545 157.056 0.281367 156.839 0.557613 156.846C0.83386 156.853 1.05783 157.083 1.05787 157.358L0.0574915 157.332ZM1.05851 162.231C1.05855 162.507 0.834639 162.725 0.558392 162.718C0.282146 162.71 0.0581727 162.481 0.0581372 162.205L1.05851 162.231ZM0.058783 167.077C0.0587456 166.801 0.282658 166.584 0.558905 166.591C0.835151 166.598 1.05912 166.828 1.05916 167.104L0.058783 167.077ZM1.05981 171.976C1.05984 172.252 0.83593 172.47 0.559683 172.463C0.283437 172.455 0.0594653 172.226 0.0594283 171.95L1.05981 171.976ZM0.0600736 176.822C0.0600385 176.546 0.283951 176.329 0.560197 176.336C0.836444 176.343 1.06042 176.573 1.06045 176.849L0.0600736 176.822ZM1.0611 181.721C1.06113 181.997 0.837221 182.215 0.560975 182.208C0.284728 182.2 0.0607568 181.971 0.0607213 181.695L1.0611 181.721ZM0.061367 186.567C0.0613296 186.291 0.285242 186.074 0.561489 186.081C0.837735 186.088 1.06171 186.318 1.06174 186.594L0.061367 186.567ZM1.06239 191.466C1.06243 191.742 0.838514 191.96 0.562268 191.953C0.286021 191.945 0.0620498 191.716 0.0620124 191.44L1.06239 191.466ZM0.0626577 196.312C0.0626226 196.037 0.286533 195.819 0.562782 195.826C0.839028 195.833 1.063 196.063 1.06303 196.339L0.0626577 196.312ZM1.06368 201.211C1.06372 201.487 0.839805 201.705 0.563559 201.698C0.287312 201.691 0.0633408 201.461 0.0633039 201.185L1.06368 201.211ZM0.0639511 206.058C0.0639137 205.782 0.287826 205.564 0.564073 205.571C0.840319 205.578 1.06429 205.808 1.06433 206.084L0.0639511 206.058ZM1.06497 210.956C1.06501 211.232 0.841099 211.45 0.564852 211.443C0.288605 211.436 0.0646323 211.206 0.0645969 210.93L1.06497 210.956ZM0.0652422 215.803C0.0652067 215.527 0.289117 215.309 0.565364 215.316C0.841611 215.323 1.06558 215.553 1.06562 215.829L0.0652422 215.803ZM1.06626 220.701C1.0663 220.977 0.842389 221.195 0.566143 221.188C0.289897 221.181 0.0659249 220.951 0.0658889 220.675L1.06626 220.701ZM0.0665338 225.548C0.0664978 225.272 0.29041 225.054 0.566657 225.061C0.842903 225.068 1.06687 225.298 1.06691 225.574L0.0665338 225.548ZM1.06756 230.446C1.06759 230.722 0.843682 230.94 0.567436 230.933C0.291188 230.926 0.067217 230.696 0.0671805 230.42L1.06756 230.446ZM0.0678267 235.293C0.0677893 235.017 0.291702 234.799 0.567949 234.806C0.844195 234.813 1.06817 235.043 1.0682 235.319L0.0678267 235.293ZM1.06885 240.191C1.06889 240.467 0.844973 240.685 0.568727 240.678C0.29248 240.671 0.068509 240.441 0.0684725 240.165L1.06885 240.191ZM0.0691183 245.038C0.0690813 244.762 0.292994 244.544 0.56924 244.551C0.845488 244.558 1.06946 244.788 1.06949 245.064L0.0691183 245.038ZM1.07014 249.936C1.07018 250.212 0.846266 250.43 0.570019 250.423C0.293773 250.416 0.0698005 250.186 0.0697641 249.91L1.07014 249.936ZM0.0704103 254.783C0.0703729 254.507 0.294286 254.289 0.570532 254.296C0.846779 254.303 1.07075 254.533 1.07079 254.809L0.0704103 254.783ZM1.07143 259.681C1.07147 259.957 0.847557 260.175 0.571311 260.168C0.295064 260.161 0.0710921 259.931 0.0710561 259.655L1.07143 259.681ZM0.0717023 264.528C0.0716654 264.252 0.295577 264.034 0.571825 264.041C0.848071 264.049 1.07204 264.278 1.07208 264.554L0.0717023 264.528ZM1.07272 269.427C1.07276 269.702 0.848849 269.92 0.572603 269.913C0.296357 269.906 0.0723846 269.676 0.0723476 269.4L1.07272 269.427ZM0.0729939 274.273C0.0729579 273.997 0.296871 273.779 0.573117 273.786C0.849363 273.794 1.07333 274.023 1.07337 274.299L0.0729939 274.273ZM1.07402 279.172C1.07405 279.448 0.850141 279.665 0.573894 279.658C0.297648 279.651 0.073677 279.421 0.07364 279.145L1.07402 279.172ZM0.0742863 284.018C0.0742494 283.742 0.298162 283.524 0.574408 283.531C0.850655 283.539 1.07463 283.768 1.07466 284.044L0.0742863 284.018ZM1.07531 288.917C1.07535 289.193 0.851433 289.41 0.575187 289.403C0.29894 289.396 0.0749686 289.166 0.0749317 288.89L1.07531 288.917ZM0.075578 293.763C0.075541 293.487 0.299454 293.269 0.575701 293.276C0.851947 293.284 1.07592 293.513 1.07595 293.789L0.075578 293.763ZM1.0766 298.662C1.07664 298.938 0.852725 299.155 0.576478 299.148C0.300232 299.141 0.0762603 298.911 0.0762233 298.635L1.0766 298.662ZM0.0768704 303.508C0.0768334 303.232 0.300745 303.014 0.576992 303.021C0.853238 303.029 1.07721 303.258 1.07725 303.534L0.0768704 303.508ZM1.07789 308.407C1.07793 308.683 0.854017 308.901 0.57777 308.893C0.301524 308.886 0.0775526 308.656 0.0775157 308.381L1.07789 308.407ZM0.078162 313.253C0.078125 312.977 0.302038 312.759 0.578284 312.767C0.854531 312.774 1.0785 313.003 1.07854 313.279L0.078162 313.253ZM1.07919 318.152C1.07922 318.428 0.855309 318.646 0.579062 318.638C0.302815 318.631 0.0788442 318.402 0.0788082 318.126L1.07919 318.152ZM0.0794535 322.998C0.0794175 322.722 0.303329 322.504 0.579575 322.512C0.855822 322.519 1.07979 322.748 1.07983 323.024L0.0794535 322.998ZM1.08048 327.897C1.08051 328.173 0.856601 328.391 0.580354 328.383C0.304107 328.376 0.0801358 328.147 0.0800998 327.871L1.08048 327.897ZM0.080746 332.743C0.0807091 332.467 0.304621 332.249 0.580868 332.257C0.857114 332.264 1.08109 332.493 1.08112 332.769L0.080746 332.743ZM1.08177 337.642C1.08181 337.918 0.857893 338.136 0.581646 338.128C0.3054 338.121 0.0814283 337.892 0.0813913 337.616L1.08177 337.642ZM0.0820376 342.488C0.0820016 342.212 0.305913 341.994 0.582159 342.002C0.858406 342.009 1.08238 342.238 1.08241 342.514L0.0820376 342.488ZM1.08306 347.387C1.0831 347.663 0.859185 347.881 0.582938 347.873C0.306692 347.866 0.0827208 347.637 0.0826838 347.361L1.08306 347.387ZM0.0833292 352.233C0.0832932 351.957 0.307205 351.739 0.583451 351.747C0.859698 351.754 1.08367 351.984 1.08371 352.259L0.0833292 352.233ZM1.08435 357.132C1.08439 357.408 0.860477 357.626 0.584231 357.619C0.307984 357.611 0.0840124 357.382 0.0839754 357.106L1.08435 357.132ZM0.0846207 361.978C0.0845847 361.702 0.308497 361.485 0.584744 361.492C0.86099 361.499 1.08496 361.729 1.085 362.005L0.0846207 361.978ZM1.08564 366.877C1.08568 367.153 0.861768 367.371 0.585522 367.364C0.309276 367.356 0.085304 367.127 0.085267 366.851L1.08564 366.877ZM0.0859132 371.723C0.0858772 371.447 0.309789 371.23 0.586036 371.237C0.862282 371.244 1.08625 371.474 1.08629 371.75L0.0859132 371.723ZM1.08694 376.622C1.08697 376.898 0.863061 377.116 0.586814 377.109C0.310568 377.101 0.0865963 376.872 0.0865595 376.596L1.08694 376.622ZM0.0872048 381.468C0.0871688 381.192 0.311081 380.975 0.587328 380.982C0.863575 380.989 1.08755 381.219 1.08758 381.495L0.0872048 381.468ZM1.08823 386.367C1.08826 386.643 0.864352 386.861 0.588106 386.854C0.311859 386.846 0.087888 386.617 0.0878519 386.341L1.08823 386.367ZM0.0884964 391.213C0.0884604 390.937 0.312373 390.72 0.58862 390.727C0.864866 390.734 1.08884 390.964 1.08887 391.24L0.0884964 391.213ZM1.08952 396.112C1.08956 396.388 0.865644 396.606 0.589398 396.599C0.313151 396.591 0.0891796 396.362 0.0891435 396.086L1.08952 396.112ZM0.0897897 400.959C0.0897519 400.683 0.313665 400.465 0.589912 400.472C0.866158 400.479 1.09013 400.709 1.09017 400.985L0.0897897 400.959ZM1.09081 405.857C1.09085 406.133 0.866936 406.351 0.590689 406.344C0.314443 406.337 0.090472 406.107 0.0904352 405.831L1.09081 405.857ZM0.0910813 410.704C0.0910444 410.428 0.314957 410.21 0.591203 410.217C0.867449 410.224 1.09142 410.454 1.09146 410.73L0.0910813 410.704ZM1.0921 415.602C1.09214 415.878 0.868229 416.096 0.591982 416.089C0.315736 416.082 0.0917635 415.852 0.0917275 415.576L1.0921 415.602ZM0.092373 420.449C0.0923369 420.173 0.316249 419.955 0.592495 419.962C0.868742 419.969 1.09271 420.199 1.09275 420.475L0.092373 420.449ZM1.0934 425.347C1.09343 425.623 0.86952 425.841 0.593273 425.834C0.317027 425.827 0.0930553 425.597 0.0930192 425.321L1.0934 425.347ZM0.0936645 430.194C0.0936284 429.918 0.317541 429.7 0.593788 429.707C0.870034 429.714 1.09401 429.944 1.09404 430.22L0.0936645 430.194ZM1.09469 435.092C1.09472 435.368 0.870812 435.586 0.594566 435.579C0.31832 435.572 0.0943468 435.342 0.0943107 435.066L1.09469 435.092ZM0.094957 439.939C0.094921 439.663 0.318833 439.445 0.595079 439.452C0.871325 439.459 1.0953 439.689 1.09533 439.965L0.094957 439.939ZM1.09598 444.837C1.09602 445.113 0.872104 445.331 0.595857 445.324C0.319611 445.317 0.0956401 445.087 0.0956022 444.811L1.09598 444.837ZM0.0962485 449.684C0.0962125 449.408 0.320125 449.19 0.596371 449.197C0.872618 449.204 1.09659 449.434 1.09663 449.71L0.0962485 449.684ZM1.09727 454.582C1.09731 454.858 0.873396 455.076 0.59715 455.069C0.320903 455.062 0.0969318 454.832 0.0968948 454.556L1.09727 454.582ZM0.097541 459.429C0.097504 459.153 0.321417 458.935 0.597663 458.942C0.87391 458.95 1.09788 459.179 1.09792 459.455L0.097541 459.429ZM1.09856 464.328C1.0986 464.603 0.874688 464.821 0.598441 464.814C0.322195 464.807 0.0982233 464.577 0.0981863 464.301L1.09856 464.328ZM0.0988326 469.174C0.0987966 468.898 0.322709 468.68 0.598955 468.687C0.875201 468.695 1.09917 468.924 1.09921 469.2L0.0988326 469.174ZM1.09986 474.073C1.09989 474.349 0.87598 474.566 0.599733 474.559C0.323487 474.552 0.0995148 474.322 0.0994788 474.046L1.09986 474.073ZM0.100125 478.919C0.100088 478.643 0.324001 478.425 0.600247 478.432C0.876493 478.44 1.10047 478.669 1.1005 478.945L0.100125 478.919ZM1.10115 483.818C1.10118 484.094 0.877272 484.311 0.601026 484.304C0.324779 484.297 0.100807 484.067 0.100771 483.791L1.10115 483.818ZM0.101417 488.664C0.10138 488.388 0.325293 488.17 0.601539 488.177C0.877786 488.185 1.10176 488.414 1.10179 488.69L0.101417 488.664ZM1.10244 493.563C1.10248 493.839 0.878564 494.056 0.602318 494.049C0.326071 494.042 0.102099 493.812 0.102063 493.536L1.10244 493.563ZM0.102709 498.409C0.102671 498.133 0.326584 497.915 0.602831 497.922C0.879077 497.93 1.10305 498.159 1.10309 498.435L0.102709 498.409ZM1.10373 503.308C1.10377 503.584 0.879856 503.801 0.603609 503.794C0.327363 503.787 0.103391 503.557 0.103355 503.281L1.10373 503.308ZM0.104001 508.154C0.103965 507.878 0.327876 507.66 0.604122 507.667C0.880369 507.675 1.10434 507.904 1.10438 508.18L0.104001 508.154ZM1.10502 513.053C1.10506 513.329 0.881148 513.547 0.604901 513.539C0.328655 513.532 0.104683 513.302 0.104647 513.027L1.10502 513.053ZM0.105292 517.899C0.105256 517.623 0.329169 517.405 0.605416 517.413C0.881661 517.42 1.10563 517.649 1.10567 517.925L0.105292 517.899ZM1.10631 522.798C1.10635 523.074 0.88244 523.292 0.606193 523.284C0.329947 523.277 0.105975 523.048 0.105938 522.772L1.10631 522.798ZM0.106585 527.644C0.106547 527.368 0.330459 527.15 0.606706 527.158C0.882953 527.165 1.10692 527.394 1.10696 527.67L0.106585 527.644ZM1.10761 532.543C1.10764 532.819 0.883732 533.037 0.607486 533.029C0.331239 533.022 0.107268 532.793 0.10723 532.517L1.10761 532.543ZM0.107877 537.389C0.107839 537.113 0.331752 536.895 0.607999 536.903C0.884246 536.91 1.10822 537.139 1.10825 537.415L0.107877 537.389ZM1.1089 542.288C1.10894 542.564 0.885023 542.782 0.608776 542.774C0.332531 542.767 0.108559 542.538 0.108522 542.262L1.1089 542.288ZM0.109168 547.134C0.109132 546.858 0.333044 546.64 0.60929 546.648C0.885537 546.655 1.10951 546.885 1.10954 547.16L0.109168 547.134ZM1.11019 552.033C1.11023 552.309 0.886316 552.527 0.610069 552.519C0.333822 552.512 0.109851 552.283 0.109814 552.007L1.11019 552.033ZM0.11046 556.879C0.110423 556.603 0.334336 556.386 0.610582 556.393C0.886829 556.4 1.1108 556.63 1.11084 556.906L0.11046 556.879ZM1.11148 561.778C1.11152 562.054 0.887606 562.272 0.611361 562.265C0.335114 562.257 0.111142 562.028 0.111106 561.752L1.11148 561.778ZM0.111753 566.624C0.111715 566.348 0.335628 566.131 0.611875 566.138C0.88812 566.145 1.11209 566.375 1.11213 566.651L0.111753 566.624ZM1.11278 571.523C1.11281 571.799 0.888899 572.017 0.612654 572.01C0.336407 572.002 0.112434 571.773 0.112399 571.497L1.11278 571.523ZM0.113043 576.369C0.113008 576.093 0.33692 575.876 0.613166 575.883C0.889413 575.89 1.11339 576.12 1.11342 576.396L0.113043 576.369ZM1.11407 581.268C1.1141 581.544 0.890192 581.762 0.613945 581.755C0.337697 581.747 0.113727 581.518 0.11369 581.242L1.11407 581.268ZM0.114336 586.114C0.114299 585.838 0.338211 585.621 0.614458 585.628C0.890705 585.635 1.11468 585.865 1.11471 586.141L0.114336 586.114ZM1.11536 591.013C1.1154 591.289 0.891482 591.507 0.615237 591.5C0.33899 591.492 0.115018 591.263 0.114983 590.987L1.11536 591.013ZM0.115629 595.859C0.115591 595.584 0.339504 595.366 0.615751 595.373C0.891996 595.38 1.11597 595.61 1.11601 595.886L0.115629 595.859ZM1.11665 600.758C1.11669 601.034 0.892775 601.252 0.616528 601.245C0.340283 601.238 0.11631 601.008 0.116275 600.732L1.11665 600.758ZM0.116919 605.605C0.116884 605.329 0.340797 605.111 0.617042 605.118C0.893289 605.125 1.11726 605.355 1.1173 605.631L0.116919 605.605ZM1.11794 610.503C1.11798 610.779 0.894067 610.997 0.61782 610.99C0.341574 610.983 0.117603 610.753 0.117566 610.477L1.11794 610.503ZM0.118212 615.35C0.118175 615.074 0.342087 614.856 0.618334 614.863C0.894581 614.87 1.11855 615.1 1.11859 615.376L0.118212 615.35ZM1.11924 620.248C1.11927 620.524 0.895359 620.742 0.619113 620.735C0.342866 620.728 0.118894 620.498 0.118859 620.222L1.11924 620.248ZM0.119504 625.095C0.119468 624.819 0.34338 624.601 0.619627 624.608C0.895872 624.615 1.11984 624.845 1.11988 625.121L0.119504 625.095ZM1.12053 629.993C1.12056 630.269 0.896651 630.487 0.620404 630.48C0.344158 630.473 0.120186 630.243 0.120149 629.967L1.12053 629.993ZM0.120796 634.84C0.12076 634.564 0.344671 634.346 0.620918 634.353C0.897165 634.36 1.12114 634.59 1.12117 634.866L0.120796 634.84ZM1.12182 639.738C1.12186 640.014 0.897943 640.232 0.621697 640.225C0.34545 640.218 0.121479 639.988 0.121442 639.712L1.12182 639.738ZM0.122088 644.585C0.122051 644.309 0.345963 644.091 0.62221 644.098C0.898457 644.105 1.12243 644.335 1.12247 644.611L0.122088 644.585ZM1.12311 649.483C1.12315 649.759 0.899234 649.977 0.622989 649.97C0.346742 649.963 0.12277 649.733 0.122734 649.457L1.12311 649.483ZM0.123379 654.33C0.123343 654.054 0.347256 653.836 0.623503 653.843C0.899748 653.85 1.12372 654.08 1.12376 654.356L0.123379 654.33ZM1.1244 659.228C1.12444 659.504 0.900527 659.722 0.62428 659.715C0.348034 659.708 0.124062 659.478 0.124025 659.202L1.1244 659.228ZM0.124671 664.075C0.124636 663.799 0.348548 663.581 0.624793 663.588C0.90104 663.595 1.12501 663.825 1.12505 664.101L0.124671 664.075ZM1.12569 668.974C1.12573 669.25 0.90182 669.467 0.625573 669.46C0.349326 669.453 0.125355 669.223 0.125318 668.947L1.12569 668.974ZM0.125964 673.82C0.125927 673.544 0.349839 673.326 0.626086 673.333C0.902333 673.341 1.1263 673.57 1.12634 673.846L0.125964 673.82ZM1.12699 678.719C1.12702 678.994 0.90311 679.212 0.626865 679.205C0.350618 679.198 0.126646 678.968 0.12661 678.692L1.12699 678.719ZM0.127255 683.565C0.127219 683.289 0.351132 683.071 0.627377 683.078C0.903624 683.086 1.1276 683.315 1.12763 683.591L0.127255 683.565ZM1.12828 688.464C1.12831 688.74 0.904403 688.957 0.628156 688.95C0.351909 688.943 0.127938 688.713 0.127901 688.437L1.12828 688.464ZM0.128547 693.31C0.128511 693.034 0.352422 692.816 0.628669 692.823C0.904916 692.831 1.12889 693.06 1.12892 693.336L0.128547 693.31ZM1.12957 698.209C1.12961 698.485 0.905694 698.702 0.629448 698.695C0.353201 698.688 0.129229 698.458 0.129194 698.182L1.12957 698.209ZM0.12984 703.055C0.129803 702.779 0.353715 702.561 0.629962 702.568C0.906207 702.576 1.13018 702.805 1.13022 703.081L0.12984 703.055ZM1.13086 707.954C1.1309 708.23 0.906986 708.447 0.630741 708.44C0.354494 708.433 0.130521 708.203 0.130486 707.928L1.13086 707.954ZM0.131131 712.8C0.131095 712.524 0.355008 712.306 0.631253 712.314C0.9075 712.321 1.13147 712.55 1.13151 712.826L0.131131 712.8ZM1.13215 717.699C1.13219 717.975 0.908279 718.193 0.632032 718.185C0.355785 718.178 0.131814 717.949 0.131777 717.673L1.13215 717.699ZM0.132423 722.545C0.132386 722.269 0.356298 722.051 0.632545 722.059C0.908792 722.066 1.13276 722.295 1.1328 722.571L0.132423 722.545ZM1.13345 727.444C1.13348 727.72 0.90957 727.938 0.633324 727.93C0.357077 727.923 0.133105 727.694 0.133069 727.418L1.13345 727.444ZM0.133716 732.29C0.133679 732.014 0.357591 731.796 0.633838 731.804C0.910083 731.811 1.13406 732.04 1.13409 732.316L0.133716 732.29ZM1.13474 737.189C1.13477 737.465 0.910862 737.683 0.634615 737.675C0.35837 737.668 0.134397 737.439 0.134362 737.163L1.13474 737.189ZM0.135006 742.035C0.134971 741.759 0.358883 741.541 0.635129 741.549C0.911375 741.556 1.13535 741.785 1.13538 742.061L0.135006 742.035ZM1.13603 746.934C1.13607 747.21 0.912155 747.428 0.635908 747.42C0.359661 747.413 0.13569 747.184 0.135653 746.908L1.13603 746.934ZM0.136299 751.78C0.136262 751.504 0.360174 751.286 0.636421 751.294C0.912668 751.301 1.13664 751.53 1.13668 751.806L0.136299 751.78ZM1.13732 756.679C1.13736 756.955 0.913445 757.173 0.6372 757.165C0.360953 757.158 0.136981 756.929 0.136945 756.653L1.13732 756.679ZM0.137592 761.525C0.137554 761.249 0.361467 761.032 0.637714 761.039C0.913959 761.046 1.13793 761.276 1.13797 761.552L0.137592 761.525ZM1.13861 766.424C1.13865 766.7 0.914738 766.918 0.638491 766.911C0.362246 766.903 0.138273 766.674 0.138236 766.398L1.13861 766.424ZM0.138882 771.27C0.138847 770.994 0.362759 770.777 0.639005 770.784C0.915252 770.791 1.13922 771.021 1.13926 771.297L0.138882 771.27ZM1.13991 776.169C1.13994 776.445 0.916031 776.663 0.639784 776.656C0.363537 776.648 0.139566 776.419 0.139529 776.143L1.13991 776.169ZM0.140175 781.015C0.140138 780.739 0.36405 780.522 0.640297 780.529C0.916544 780.536 1.14051 780.766 1.14055 781.042L0.140175 781.015ZM1.1412 785.914C1.14123 786.19 0.917321 786.408 0.641076 786.401C0.364829 786.393 0.140857 786.164 0.140821 785.888L1.1412 785.914ZM0.141466 790.76C0.14143 790.485 0.365343 790.267 0.64159 790.274C0.917835 790.281 1.14181 790.511 1.14184 790.787L0.141466 790.76ZM1.14249 795.659C1.14253 795.935 0.918614 796.153 0.642367 796.146C0.366122 796.138 0.142149 795.909 0.142112 795.633L1.14249 795.659ZM0.142758 800.505C0.142723 800.23 0.366635 800.012 0.64288 800.019C0.919127 800.026 1.1431 800.256 1.14314 800.532L0.142758 800.505ZM1.14378 805.404C1.14382 805.68 0.919907 805.898 0.64366 805.891C0.367413 805.884 0.143442 805.654 0.143405 805.378L1.14378 805.404ZM0.144051 810.251C0.144014 809.975 0.367926 809.757 0.644173 809.764C0.92042 809.771 1.14439 810.001 1.14443 810.277L0.144051 810.251ZM1.14507 815.149C1.14511 815.425 0.921197 815.643 0.644952 815.636C0.368705 815.629 0.144733 815.399 0.144697 815.123L1.14507 815.149ZM0.145343 819.996C0.145306 819.72 0.369218 819.502 0.645465 819.509C0.921711 819.516 1.14568 819.746 1.14572 820.022L0.145343 819.996ZM2.93111 821.946C3.20726 821.946 3.43702 822.169 3.4443 822.445C3.45157 822.722 3.2336 822.945 2.95745 822.945L2.93111 821.946ZM7.55431 822.945C7.27816 822.945 7.0484 822.722 7.04112 822.446C7.03385 822.169 7.25182 821.946 7.52797 821.946L7.55431 822.945ZM13.5506 4.36066L10.3006 4.36066L10.2743 3.36103L13.5243 3.36103L13.5506 4.36066ZM3.80055 4.36066L0.550512 4.36066L0.52415 3.36103L3.77418 3.36103L3.80055 4.36066ZM1.03752 3.87395L1.03784 6.31021L0.0374665 6.284L0.0371427 3.84774L1.03752 3.87395ZM1.03849 11.1827L1.03913 16.0553L0.0387578 16.0291L0.0381122 11.1565L1.03849 11.1827ZM1.03978 20.9278L1.04043 25.8003L0.0400491 25.7741L0.0394035 20.9016L1.03978 20.9278ZM1.04107 30.6728L1.04172 35.5454L0.0413424 35.5192L0.0406948 30.6466L1.04107 30.6728ZM1.04236 40.4179L1.04301 45.2904L0.0426337 45.2642L0.0419881 40.3917L1.04236 40.4179ZM1.04366 50.163L1.0443 55.0355L0.0439251 55.0093L0.0432794 50.1367L1.04366 50.163ZM1.04495 59.908L1.0456 64.7805L0.0452164 64.7543L0.0445708 59.8818L1.04495 59.908ZM1.04624 69.6531L1.04689 74.5256L0.0465094 74.4994L0.0458639 69.6269L1.04624 69.6531ZM1.04753 79.3981L1.04818 84.2706L0.0478005 84.2444L0.0471549 79.3719L1.04753 79.3981ZM1.04882 89.1432L1.04947 94.0157L0.0490935 93.9895L0.0484479 89.1169L1.04882 89.1432ZM1.05012 98.8882L1.05076 103.761L0.0503848 103.735L0.049739 98.862L1.05012 98.8882ZM1.05141 108.633L1.05205 113.506L0.0516778 113.48L0.0510303 108.607L1.05141 108.633ZM1.0527 118.378L1.05335 123.251L0.0529691 123.225L0.0523233 118.352L1.0527 118.378ZM1.05399 128.123L1.05464 132.996L0.054262 132.97L0.0536144 128.097L1.05399 128.123ZM1.05528 137.868L1.05593 142.741L0.0555531 142.715L0.0549074 137.842L1.05528 137.868ZM1.05658 147.613L1.05722 152.486L0.0568442 152.46L0.0561985 147.587L1.05658 147.613ZM1.05787 157.358L1.05851 162.231L0.0581372 162.205L0.0574915 157.332L1.05787 157.358ZM1.05916 167.104L1.05981 171.976L0.0594283 171.95L0.058783 167.077L1.05916 167.104ZM1.06045 176.849L1.0611 181.721L0.0607213 181.695L0.0600736 176.822L1.06045 176.849ZM1.06174 186.594L1.06239 191.466L0.0620124 191.44L0.061367 186.567L1.06174 186.594ZM1.06303 196.339L1.06368 201.211L0.0633039 201.185L0.0626577 196.312L1.06303 196.339ZM1.06433 206.084L1.06497 210.956L0.0645969 210.93L0.0639511 206.058L1.06433 206.084ZM1.06562 215.829L1.06626 220.701L0.0658889 220.675L0.0652422 215.803L1.06562 215.829ZM1.06691 225.574L1.06756 230.446L0.0671805 230.42L0.0665338 225.548L1.06691 225.574ZM1.0682 235.319L1.06885 240.191L0.0684725 240.165L0.0678267 235.293L1.0682 235.319ZM1.06949 245.064L1.07014 249.936L0.0697641 249.91L0.0691183 245.038L1.06949 245.064ZM1.07079 254.809L1.07143 259.681L0.0710561 259.655L0.0704103 254.783L1.07079 254.809ZM1.07208 264.554L1.07272 269.427L0.0723476 269.4L0.0717023 264.528L1.07208 264.554ZM1.07337 274.299L1.07402 279.172L0.07364 279.145L0.0729939 274.273L1.07337 274.299ZM1.07466 284.044L1.07531 288.917L0.0749317 288.89L0.0742863 284.018L1.07466 284.044ZM1.07595 293.789L1.0766 298.662L0.0762233 298.635L0.075578 293.763L1.07595 293.789ZM1.07725 303.534L1.07789 308.407L0.0775157 308.381L0.0768704 303.508L1.07725 303.534ZM1.07854 313.279L1.07919 318.152L0.0788082 318.126L0.078162 313.253L1.07854 313.279ZM1.07983 323.024L1.08048 327.897L0.0800998 327.871L0.0794535 322.998L1.07983 323.024ZM1.08112 332.769L1.08177 337.642L0.0813913 337.616L0.080746 332.743L1.08112 332.769ZM1.08241 342.514L1.08306 347.387L0.0826838 347.361L0.0820376 342.488L1.08241 342.514ZM1.08371 352.259L1.08435 357.132L0.0839754 357.106L0.0833292 352.233L1.08371 352.259ZM1.085 362.005L1.08564 366.877L0.085267 366.851L0.0846207 361.978L1.085 362.005ZM1.08629 371.75L1.08694 376.622L0.0865595 376.596L0.0859132 371.723L1.08629 371.75ZM1.08758 381.495L1.08823 386.367L0.0878519 386.341L0.0872048 381.468L1.08758 381.495ZM1.08887 391.24L1.08952 396.112L0.0891435 396.086L0.0884964 391.213L1.08887 391.24ZM1.09017 400.985L1.09081 405.857L0.0904352 405.831L0.0897897 400.959L1.09017 400.985ZM1.09146 410.73L1.0921 415.602L0.0917275 415.576L0.0910813 410.704L1.09146 410.73ZM1.09275 420.475L1.0934 425.347L0.0930192 425.321L0.092373 420.449L1.09275 420.475ZM1.09404 430.22L1.09469 435.092L0.0943107 435.066L0.0936645 430.194L1.09404 430.22ZM1.09533 439.965L1.09598 444.837L0.0956022 444.811L0.094957 439.939L1.09533 439.965ZM1.09663 449.71L1.09727 454.582L0.0968948 454.556L0.0962485 449.684L1.09663 449.71ZM1.09792 459.455L1.09856 464.328L0.0981863 464.301L0.097541 459.429L1.09792 459.455ZM1.09921 469.2L1.09986 474.073L0.0994788 474.046L0.0988326 469.174L1.09921 469.2ZM1.1005 478.945L1.10115 483.818L0.100771 483.791L0.100125 478.919L1.1005 478.945ZM1.10179 488.69L1.10244 493.563L0.102063 493.536L0.101417 488.664L1.10179 488.69ZM1.10309 498.435L1.10373 503.308L0.103355 503.281L0.102709 498.409L1.10309 498.435ZM1.10438 508.18L1.10502 513.053L0.104647 513.027L0.104001 508.154L1.10438 508.18ZM1.10567 517.925L1.10631 522.798L0.105938 522.772L0.105292 517.899L1.10567 517.925ZM1.10696 527.67L1.10761 532.543L0.10723 532.517L0.106585 527.644L1.10696 527.67ZM1.10825 537.415L1.1089 542.288L0.108522 542.262L0.107877 537.389L1.10825 537.415ZM1.10954 547.16L1.11019 552.033L0.109814 552.007L0.109168 547.134L1.10954 547.16ZM1.11084 556.906L1.11148 561.778L0.111106 561.752L0.11046 556.879L1.11084 556.906ZM1.11213 566.651L1.11278 571.523L0.112399 571.497L0.111753 566.624L1.11213 566.651ZM1.11342 576.396L1.11407 581.268L0.11369 581.242L0.113043 576.369L1.11342 576.396ZM1.11471 586.141L1.11536 591.013L0.114983 590.987L0.114336 586.114L1.11471 586.141ZM1.11601 595.886L1.11665 600.758L0.116275 600.732L0.115629 595.859L1.11601 595.886ZM1.1173 605.631L1.11794 610.503L0.117566 610.477L0.116919 605.605L1.1173 605.631ZM1.11859 615.376L1.11924 620.248L0.118859 620.222L0.118212 615.35L1.11859 615.376ZM1.11988 625.121L1.12053 629.993L0.120149 629.967L0.119504 625.095L1.11988 625.121ZM1.12117 634.866L1.12182 639.738L0.121442 639.712L0.120796 634.84L1.12117 634.866ZM1.12247 644.611L1.12311 649.483L0.122734 649.457L0.122088 644.585L1.12247 644.611ZM1.12376 654.356L1.1244 659.228L0.124025 659.202L0.123379 654.33L1.12376 654.356ZM1.12505 664.101L1.12569 668.974L0.125318 668.947L0.124671 664.075L1.12505 664.101ZM1.12634 673.846L1.12699 678.719L0.12661 678.692L0.125964 673.82L1.12634 673.846ZM1.12763 683.591L1.12828 688.464L0.127901 688.437L0.127255 683.565L1.12763 683.591ZM1.12892 693.336L1.12957 698.209L0.129194 698.182L0.128547 693.31L1.12892 693.336ZM1.13022 703.081L1.13086 707.954L0.130486 707.928L0.12984 703.055L1.13022 703.081ZM1.13151 712.826L1.13215 717.699L0.131777 717.673L0.131131 712.8L1.13151 712.826ZM1.1328 722.571L1.13345 727.444L0.133069 727.418L0.132423 722.545L1.1328 722.571ZM1.13409 732.316L1.13474 737.189L0.134362 737.163L0.133716 732.29L1.13409 732.316ZM1.13538 742.061L1.13603 746.934L0.135653 746.908L0.135006 742.035L1.13538 742.061ZM1.13668 751.806L1.13732 756.679L0.136945 756.653L0.136299 751.78L1.13668 751.806ZM1.13797 761.552L1.13861 766.424L0.138236 766.398L0.137592 761.525L1.13797 761.552ZM1.13926 771.297L1.13991 776.169L0.139529 776.143L0.138882 771.27L1.13926 771.297ZM1.14055 781.042L1.1412 785.914L0.140821 785.888L0.140175 781.015L1.14055 781.042ZM1.14184 790.787L1.14249 795.659L0.142112 795.633L0.141466 790.76L1.14184 790.787ZM1.14314 800.532L1.14378 805.404L0.143405 805.378L0.142758 800.505L1.14314 800.532ZM1.14443 810.277L1.14507 815.149L0.144697 815.123L0.144051 810.251L1.14443 810.277ZM1.14572 820.022L1.14604 822.458L0.145666 822.432L0.145343 819.996L1.14572 820.022ZM0.632683 821.946L2.93111 821.946L2.95745 822.945L0.659025 822.945L0.632683 821.946ZM7.52797 821.946L9.82639 821.946L9.85274 822.945L7.55431 822.945L7.52797 821.946Z" fill="#749CC7"/>
</svg>
