<svg width="18" height="139" viewBox="0 0 18 139" fill="none" xmlns="http://www.w3.org/2000/svg">
<path fill-rule="evenodd" clip-rule="evenodd" d="M1.77929 0.299103L1.77929 2.69463C1.77929 2.97052 1.55533 3.20073 1.27906 3.20883C1.00279 3.21692 0.77883 2.99982 0.77883 2.72392L0.778826 0.328415L1.02894 0.321075L1.52917 0.306427L1.77929 0.299103ZM1.27906 7.00079C1.55533 6.99271 1.77929 7.20979 1.77929 7.4857L1.7793 12.2768C1.7793 12.5527 1.55534 12.7829 1.27907 12.791C1.0028 12.7991 0.778841 12.582 0.778841 12.3061L0.778835 7.515C0.778835 7.23909 1.00279 7.00888 1.27906 7.00079ZM1.27908 16.5829C1.55535 16.5749 1.77931 16.792 1.77931 17.0678L1.77931 21.8589C1.77931 22.1348 1.55535 22.365 1.27908 22.3731C1.00281 22.3812 0.778852 22.1641 0.778852 21.8882L0.778847 17.0972C0.778847 16.8213 1.00281 16.591 1.27908 16.5829ZM1.27909 26.1651C1.55536 26.157 1.77932 26.3741 1.77932 26.65L1.77932 31.4411C1.77932 31.717 1.55536 31.9472 1.27909 31.9553C1.00282 31.9634 0.778864 31.7463 0.778864 31.4704L0.778858 26.6793C0.778858 26.4034 1.00282 26.1732 1.27909 26.1651ZM1.2791 35.7472C1.55537 35.7392 1.77933 35.9563 1.77933 36.2321L1.77934 41.0232C1.77934 41.2991 1.55537 41.5293 1.27911 41.5374C1.00284 41.5455 0.778875 41.3284 0.778875 41.0525L0.77887 36.2615C0.77887 35.9856 1.00283 35.7553 1.2791 35.7472ZM1.27911 45.3294C1.55538 45.3213 1.77934 45.5384 1.77934 45.8143L1.77935 50.6054C1.77935 50.8813 1.55539 51.1115 1.27912 51.1196C1.00285 51.1277 0.778887 50.9106 0.778887 50.6347L0.778881 45.8436C0.778881 45.5677 1.00284 45.3375 1.27911 45.3294ZM1.27912 54.9116C1.55539 54.9035 1.77935 55.1206 1.77935 55.3965L1.77936 60.1875C1.77936 60.4634 1.5554 60.6936 1.27913 60.7017C1.00286 60.7098 0.778898 60.4927 0.778898 60.2168L0.778893 55.4258C0.778893 55.1499 1.00285 54.9196 1.27912 54.9116ZM1.27913 64.4937C1.5554 64.4856 1.77936 64.7027 1.77936 64.9786L1.77937 69.7697C1.77937 70.0456 1.55541 70.2758 1.27914 70.2839C1.00287 70.292 0.77891 70.0749 0.77891 69.799L0.778904 65.0079C0.778904 64.732 1.00286 64.5018 1.27913 64.4937ZM1.27914 74.0759C1.55541 74.0678 1.77938 74.2849 1.77938 74.5608L1.77938 79.3518C1.77938 79.6277 1.55542 79.858 1.27915 79.866C1.00288 79.8741 0.778921 79.657 0.778921 79.3811L0.778915 74.5901C0.778915 74.3142 1.00288 74.084 1.27914 74.0759ZM1.27916 83.658C1.55543 83.6499 1.77939 83.867 1.77939 84.1429L1.77939 88.934C1.77939 89.2099 1.55543 89.4401 1.27916 89.4482C1.00289 89.4563 0.778933 89.2392 0.778933 88.9633L0.778927 84.1722C0.778927 83.8963 1.00289 83.6661 1.27916 83.658ZM1.27917 93.2402C1.55544 93.2321 1.7794 93.4492 1.7794 93.7251L1.7794 98.3444H2.69588C2.97202 98.3444 3.19184 98.5682 3.18687 98.8443C3.18189 99.1204 2.95401 99.3443 2.67786 99.3443H0.587381L0.591885 99.0943L0.600891 98.5944L0.605394 98.3444H0.778944L0.778938 93.7544C0.778938 93.4785 1.0029 93.2482 1.27917 93.2402ZM1.27918 102.822C1.55545 102.814 1.77941 103.031 1.77941 103.307L1.77942 108.098C1.77942 108.374 1.55546 108.604 1.27919 108.612C1.00292 108.621 0.778955 108.403 0.778955 108.128L0.77895 103.337C0.77895 103.061 1.00291 102.83 1.27918 102.822ZM1.27919 112.404C1.55546 112.396 1.77942 112.613 1.77942 112.889L1.77943 117.68C1.77943 117.956 1.55547 118.187 1.2792 118.195C1.00293 118.203 0.778967 117.986 0.778967 117.71L0.778961 112.919C0.778961 112.643 1.00292 112.413 1.27919 112.404ZM1.2792 121.987C1.55547 121.979 1.77943 122.196 1.77943 122.471L1.77944 127.263C1.77944 127.538 1.55548 127.769 1.27921 127.777C1.00294 127.785 0.778978 127.568 0.778978 127.292L0.778973 122.501C0.778973 122.225 1.00293 121.995 1.2792 121.987ZM1.27921 131.569C1.55548 131.561 1.77944 131.778 1.77944 132.054L1.77945 133.964L3.22025 133.964C3.4964 133.964 3.7137 134.188 3.70559 134.464C3.69749 134.74 3.46706 134.964 3.19091 134.964L1.26455 134.964L0.778988 134.964V134.478L0.778984 132.083C0.778984 131.807 1.00294 131.577 1.27921 131.569ZM6.55829 134.464C6.56639 134.188 6.79682 133.964 7.07297 133.964L10.9257 133.964C11.2018 133.964 11.4191 134.188 11.411 134.464C11.4029 134.74 11.1725 134.964 10.8964 134.964L7.04363 134.964C6.76748 134.964 6.55019 134.74 6.55829 134.464ZM17.054 134.111C17.2436 134.306 17.2343 134.622 17.0333 134.817L13.7579 137.998C13.5569 138.193 13.2403 138.193 13.0507 137.998C12.8612 137.803 12.8705 137.486 13.0715 137.291L15.4683 134.964L14.7491 134.964C14.4729 134.964 14.2556 134.74 14.2637 134.464C14.2718 134.188 14.5023 133.964 14.7784 133.964L15.4976 133.964L13.2375 131.637C13.0479 131.442 13.0572 131.125 13.2582 130.93C13.4592 130.735 13.7758 130.735 13.9653 130.93L17.054 134.111ZM17.6674 99.1978C17.8662 99.0026 17.8719 98.6861 17.6802 98.4908L14.5555 95.3094C14.3637 95.1141 14.0472 95.1141 13.8484 95.3094C13.6496 95.5046 13.6439 95.8211 13.8356 96.0164L16.1221 98.3444H15.2388C14.9626 98.3444 14.7347 98.5682 14.7298 98.8443C14.7248 99.1204 14.9446 99.3443 15.2207 99.3443H16.1041L13.7337 101.672C13.535 101.868 13.5293 102.184 13.721 102.379C13.9128 102.575 14.2293 102.575 14.4281 102.379L17.6674 99.1978ZM6.85882 99.3443H11.0398C11.3159 99.3443 11.5438 99.1204 11.5488 98.8443C11.5538 98.5682 11.3339 98.3444 11.0578 98.3444H6.87684C6.60069 98.3444 6.3728 98.5682 6.36783 98.8443C6.36285 99.1204 6.58268 99.3443 6.85882 99.3443ZM17.6802 61.5087C17.8719 61.7039 17.8662 62.0205 17.6674 62.2157L14.4281 65.3972C14.2293 65.5924 13.9128 65.5924 13.721 65.3972C13.5293 65.2019 13.535 64.8854 13.7337 64.6902L16.1041 62.3621H15.2207C14.9446 62.3621 14.7248 62.1383 14.7298 61.8622C14.7347 61.5861 14.9626 61.3623 15.2388 61.3623H16.1221L13.8356 59.0342C13.6439 58.839 13.6496 58.5225 13.8484 58.3273C14.0472 58.132 14.3637 58.132 14.5555 58.3273L17.6802 61.5087ZM11.0398 62.3621H6.85882C6.58268 62.3621 6.36285 62.1383 6.36783 61.8622C6.3728 61.5861 6.60069 61.3623 6.87684 61.3623H11.0578C11.3339 61.3623 11.5538 61.5861 11.5488 61.8622C11.5438 62.1383 11.3159 62.3621 11.0398 62.3621ZM2.67786 62.3621H0.587381L0.591885 62.1122L0.600891 61.6123L0.605394 61.3623H2.69588C2.97202 61.3623 3.19184 61.5861 3.18687 61.8622C3.18189 62.1383 2.95401 62.3621 2.67786 62.3621Z" fill="#BB6BD9"/>
</svg>
