<svg width="27" height="172" viewBox="0 0 27 172" fill="none" xmlns="http://www.w3.org/2000/svg">
<path fill-rule="evenodd" clip-rule="evenodd" d="M1.12301 168.556C0.927747 168.361 0.927747 168.044 1.12301 167.849L4.30499 164.667C4.50025 164.472 4.81683 164.472 5.0121 164.667C5.20736 164.862 5.20736 165.179 5.0121 165.374L2.68367 167.703H3.27737C3.55351 167.703 3.77737 167.926 3.77737 168.203C3.77737 168.479 3.55351 168.703 3.27737 168.703H2.68367L5.0121 171.031C5.20736 171.226 5.20736 171.543 5.0121 171.738C4.81683 171.933 4.50025 171.933 4.30499 171.738L1.12301 168.556ZM20.2579 164.667L23.4398 167.849C23.6351 168.044 23.6351 168.361 23.4398 168.556L20.2579 171.738C20.0626 171.933 19.746 171.933 19.5507 171.738C19.3555 171.543 19.3555 171.226 19.5507 171.031L21.8792 168.703H21.2855C21.0093 168.703 20.7855 168.479 20.7855 168.203C20.7855 167.926 21.0093 167.703 21.2855 167.703H21.8792L19.5507 165.374C19.3555 165.179 19.3555 164.862 19.5507 164.667C19.746 164.472 20.0626 164.472 20.2579 164.667ZM10.4806 168.703H6.87899C6.60285 168.703 6.37899 168.479 6.37899 168.203C6.37899 167.926 6.60285 167.703 6.87899 167.703H10.4806C10.7568 167.703 10.9806 167.926 10.9806 168.203C10.9806 168.479 10.7568 168.703 10.4806 168.703ZM17.6839 168.703H14.0822C13.8061 168.703 13.5822 168.479 13.5822 168.203C13.5822 167.926 13.8061 167.703 14.0822 167.703H17.6839C17.96 167.703 18.1839 167.926 18.1839 168.203C18.1839 168.479 17.96 168.703 17.6839 168.703ZM24.6357 0.850525L24.6397 3.32066C24.6402 3.59663 24.8645 3.82587 25.1407 3.8327C25.417 3.83952 25.6405 3.62137 25.6401 3.3454L25.6361 0.875275L25.386 0.86908L24.8858 0.856705L24.6357 0.850525ZM25.1471 7.77367C24.8708 7.76683 24.6472 7.985 24.6477 8.26096L24.6556 13.2013C24.6561 13.4772 24.8804 13.7064 25.1566 13.7133C25.4329 13.7201 25.6565 13.5019 25.656 13.226L25.6481 8.28569C25.6476 8.00975 25.4233 7.78049 25.1471 7.77367ZM25.163 17.6543C24.8867 17.6474 24.6631 17.8656 24.6636 18.1415L24.6715 23.0818C24.672 23.3578 24.8963 23.587 25.1725 23.5938C25.4488 23.6007 25.6724 23.3825 25.6719 23.1066L25.664 18.1663C25.6635 17.8903 25.4392 17.6611 25.163 17.6543ZM25.1789 27.5348C24.9026 27.528 24.6791 27.7462 24.6795 28.0221L24.6875 32.9624C24.6879 33.2384 24.9122 33.4676 25.1884 33.4744C25.4647 33.4812 25.6883 33.2631 25.6878 32.9871L25.6799 28.0469C25.6794 27.7709 25.4551 27.5417 25.1789 27.5348ZM25.1948 37.4154C24.9185 37.4086 24.695 37.6267 24.6954 37.9027L24.7034 42.843C24.7038 43.1189 24.9281 43.3482 25.2044 43.355C25.4806 43.3618 25.7042 43.1437 25.7037 42.8677L25.6958 37.9274C25.6953 37.6515 25.471 37.4222 25.1948 37.4154ZM25.2107 47.296C24.9345 47.2891 24.7109 47.5073 24.7113 47.7832L24.7193 52.7235C24.7197 52.9995 24.944 53.2287 25.2203 53.2356C25.4965 53.2424 25.7201 53.0242 25.7196 52.7483L25.7117 47.808C25.7112 47.532 25.4869 47.3028 25.2107 47.296ZM25.2266 57.1765C24.9504 57.1697 24.7268 57.3879 24.7272 57.6638L24.7352 62.6041C24.7354 62.7112 24.7692 62.8112 24.8268 62.894H24.478C24.2019 62.894 23.9838 63.1178 23.9909 63.3938C23.9981 63.6699 24.2277 63.8937 24.5039 63.8937H26.5045L26.498 63.6437L26.4851 63.1439L26.4786 62.894H25.6586C25.7075 62.818 25.7357 62.7271 25.7356 62.6289L25.7276 57.6886C25.7272 57.4126 25.5029 57.1834 25.2266 57.1765ZM25.2425 67.0571C24.9663 67.0503 24.7427 67.2684 24.7431 67.5444L24.7511 72.4847C24.7515 72.7606 24.9758 72.9899 25.2521 72.9967C25.5283 73.0035 25.7519 72.7854 25.7515 72.5094L25.7435 67.5691C25.7431 67.2932 25.5188 67.0639 25.2425 67.0571ZM25.2584 76.9377C24.9822 76.9309 24.7586 77.149 24.759 77.425L24.767 82.3653C24.7674 82.6412 24.9918 82.8705 25.268 82.8773C25.5442 82.8841 25.7678 82.666 25.7674 82.39L25.7594 77.4497C25.759 77.1738 25.5347 76.9445 25.2584 76.9377ZM25.2743 86.8183C24.9981 86.8114 24.7745 87.0296 24.775 87.3056L24.7829 92.2458C24.7834 92.5218 25.0077 92.751 25.2839 92.7579C25.5602 92.7647 25.7837 92.5465 25.7833 92.2706L25.7753 87.3303C25.7749 87.0543 25.5506 86.8251 25.2743 86.8183ZM25.2903 96.6988C25.014 96.692 24.7904 96.9102 24.7909 97.1861L24.7988 102.126C24.7993 102.402 25.0236 102.632 25.2998 102.638C25.5761 102.645 25.7996 102.427 25.7992 102.151L25.7912 97.2109C25.7908 96.9349 25.5665 96.7057 25.2903 96.6988ZM25.3062 106.579C25.0299 106.573 24.8063 106.791 24.8068 107.067L24.8147 112.007C24.8152 112.283 25.0395 112.512 25.3157 112.519C25.592 112.526 25.8156 112.308 25.8151 112.032L25.8072 107.091C25.8067 106.815 25.5824 106.586 25.3062 106.579ZM25.3221 116.46C25.0458 116.453 24.8222 116.671 24.8227 116.947L24.8306 121.888C24.8311 122.164 25.0554 122.393 25.3316 122.4C25.6079 122.406 25.8315 122.188 25.831 121.912L25.8231 116.972C25.8226 116.696 25.5983 116.467 25.3221 116.46ZM25.338 126.341C25.0617 126.334 24.8382 126.552 24.8386 126.828L24.8451 130.894H24.3944C24.1183 130.894 23.9004 131.118 23.9079 131.394C23.9153 131.67 24.1452 131.894 24.4213 131.894H24.8626C24.9185 132.11 25.1146 132.274 25.3475 132.28C25.5891 132.286 25.7905 132.12 25.8369 131.894H26.5053L26.4986 131.644L26.4851 131.144L26.4784 130.894H25.8455L25.839 126.853C25.8385 126.577 25.6142 126.347 25.338 126.341ZM25.3539 136.221C25.0776 136.214 24.8541 136.432 24.8545 136.708L24.8625 141.649C24.8629 141.925 25.0872 142.154 25.3635 142.161C25.6397 142.168 25.8633 141.949 25.8628 141.673L25.8549 136.733C25.8544 136.457 25.6301 136.228 25.3539 136.221ZM25.3698 146.102C25.0936 146.095 24.87 146.313 24.8704 146.589L24.8784 151.529C24.8788 151.805 25.1031 152.034 25.3794 152.041C25.6556 152.048 25.8792 151.83 25.8788 151.554L25.8708 146.614C25.8704 146.338 25.6461 146.109 25.3698 146.102ZM25.3857 155.982C25.1095 155.975 24.8859 156.194 24.8863 156.47L24.8943 161.41C24.8947 161.686 25.119 161.915 25.3953 161.922C25.6715 161.929 25.8951 161.711 25.8947 161.435L25.8867 156.494C25.8863 156.218 25.662 155.989 25.3857 155.982ZM25.4016 165.863C25.1254 165.856 24.9018 166.074 24.9022 166.35L24.9062 168.82L25.1563 168.826L25.6565 168.839L25.9066 168.845L25.9026 166.375C25.9022 166.099 25.6779 165.87 25.4016 165.863ZM1.14034 131.747C0.939822 131.552 0.931297 131.236 1.1213 131.04L4.21759 127.86C4.4076 127.664 4.72418 127.664 4.9247 127.86C5.12522 128.055 5.13374 128.371 4.94374 128.566L2.67802 130.894H3.55486C3.83101 130.894 4.06089 131.118 4.06833 131.394C4.07577 131.67 3.85794 131.894 3.58179 131.894H2.70495L5.09608 134.221C5.2966 134.416 5.30512 134.733 5.11512 134.928C4.92512 135.123 4.60853 135.123 4.40801 134.928L1.14034 131.747ZM11.9176 131.894H7.7497C7.47356 131.894 7.24368 131.67 7.23624 131.394C7.2288 131.118 7.44663 130.894 7.72277 130.894H11.8907C12.1668 130.894 12.3967 131.118 12.4041 131.394C12.4116 131.67 12.1938 131.894 11.9176 131.894ZM16.0586 130.894H20.2265C20.5026 130.894 20.7325 131.118 20.74 131.394C20.7474 131.67 20.5296 131.894 20.2534 131.894H16.0855C15.8094 131.894 15.5795 131.67 15.5721 131.394C15.5646 131.118 15.7824 130.894 16.0586 130.894ZM1.62263 98.0711C1.43189 98.2663 1.43923 98.5828 1.63901 98.778L4.89469 101.959C5.09448 102.154 5.41106 102.154 5.6018 101.959C5.79254 101.764 5.78521 101.447 5.58542 101.252L3.20306 98.9244H3.78816C4.06431 98.9244 4.28298 98.7007 4.27658 98.4246C4.27019 98.1485 4.04114 97.9247 3.765 97.9247H3.1799L5.4544 95.5969C5.64514 95.4017 5.6378 95.0852 5.43802 94.89C5.23824 94.6948 4.92165 94.6948 4.73091 94.89L1.62263 98.0711ZM23.8362 98.0711L20.5806 94.89C20.3808 94.6948 20.0642 94.6948 19.8734 94.89C19.6827 95.0852 19.69 95.4017 19.8898 95.5969L22.2722 97.9247H21.6871C21.4109 97.9247 21.1923 98.1485 21.1987 98.4246C21.2051 98.7007 21.4341 98.9244 21.7102 98.9244H22.2953L20.0208 101.252C19.8301 101.447 19.8374 101.764 20.0372 101.959C20.237 102.154 20.5536 102.154 20.7443 101.959L23.8526 98.778C24.0434 98.5828 24.036 98.2663 23.8362 98.0711ZM7.37258 98.9244H10.957C11.2331 98.9244 11.4518 98.7007 11.4454 98.4246C11.439 98.1485 11.21 97.9247 10.9338 97.9247H7.34942C7.07328 97.9247 6.8546 98.1485 6.861 98.4246C6.86739 98.7007 7.09644 98.9244 7.37258 98.9244ZM14.5414 98.9244H18.1258C18.402 98.9244 18.6206 98.7007 18.6142 98.4246C18.6079 98.1485 18.3788 97.9247 18.1027 97.9247H14.5182C14.2421 97.9247 14.0234 98.1485 14.0298 98.4246C14.0362 98.7007 14.2653 98.9244 14.5414 98.9244ZM2.12168 63.0404C1.93147 63.2356 1.93965 63.5521 2.13996 63.7473L5.40421 66.9282C5.60452 67.1234 5.9211 67.1234 6.11131 66.9282C6.30153 66.733 6.29334 66.4165 6.09303 66.2213L3.70441 63.8937H4.4979C4.77404 63.8937 4.99211 63.6699 4.98497 63.3938C4.97783 63.1178 4.74819 62.894 4.47204 62.894H3.67856L5.94679 60.5663C6.137 60.3711 6.12882 60.0547 5.9285 59.8595C5.72819 59.6643 5.41161 59.6643 5.2214 59.8595L2.12168 63.0404ZM8.49909 63.8937H12.5003C12.7764 63.8937 12.9945 63.6699 12.9874 63.3938C12.9802 63.1178 12.7506 62.894 12.4744 62.894H8.47324C8.19709 62.894 7.97902 63.1178 7.98616 63.3938C7.9933 63.6699 8.22295 63.8937 8.49909 63.8937ZM16.5015 63.8937H20.5027C20.7788 63.8937 20.9969 63.6699 20.9897 63.3938C20.9826 63.1178 20.753 62.894 20.4768 62.894H16.4756C16.1995 62.894 15.9814 63.1178 15.9885 63.3938C15.9957 63.6699 16.2253 63.8937 16.5015 63.8937Z" fill="white"/>
</svg>
