<svg width="9" height="35" viewBox="0 0 9 35" fill="none" xmlns="http://www.w3.org/2000/svg">
<path d="M4.51262 1.29777C4.41504 1.20334 4.25683 1.20853 4.15926 1.30937L2.56912 2.95253C2.47154 3.05337 2.47154 3.21166 2.56912 3.30609C2.6667 3.40052 2.82491 3.39533 2.92248 3.29449L4.33594 1.8339L5.74939 3.20174C5.84697 3.29616 6.00518 3.29097 6.10275 3.19014C6.20033 3.08931 6.20033 2.93102 6.10275 2.83659L4.51262 1.29777ZM4.15926 34.1415C4.25683 34.2359 4.41504 34.2307 4.51262 34.1299L6.10275 32.4867C6.20033 32.3859 6.20033 32.2276 6.10275 32.1332C6.00518 32.0388 5.84697 32.044 5.74939 32.1448L4.33594 33.6054L2.92248 32.2375C2.82491 32.1431 2.6667 32.1483 2.56912 32.2491C2.47154 32.35 2.47154 32.5083 2.56912 32.6027L4.15926 34.1415ZM4.08607 4.19509C4.08607 4.33317 4.19794 4.44142 4.33594 4.4369C4.47393 4.43237 4.5858 4.31677 4.5858 4.1787L4.08607 4.19509ZM4.5858 9.5918C4.5858 9.45372 4.47393 9.34547 4.33594 9.34999C4.19794 9.35452 4.08607 9.47012 4.08607 9.60819L4.5858 9.5918ZM4.08607 15.0213C4.08607 15.1594 4.19794 15.2676 4.33594 15.2631C4.47393 15.2586 4.5858 15.143 4.5858 15.0049L4.08607 15.0213ZM4.5858 20.418C4.5858 20.2799 4.47393 20.1717 4.33594 20.1762C4.19794 20.1807 4.08607 20.2963 4.08607 20.4344L4.5858 20.418ZM4.08607 25.8475C4.08607 25.9856 4.19794 26.0938 4.33594 26.0893C4.47393 26.0848 4.5858 25.9692 4.5858 25.8311L4.08607 25.8475ZM4.5858 31.2442C4.5858 31.1061 4.47393 30.9979 4.33594 31.0024C4.19794 31.0069 4.08607 31.1225 4.08607 31.2606L4.5858 31.2442ZM4.08607 1.48855L4.08607 4.19509L4.5858 4.1787L4.5858 1.47215L4.08607 1.48855ZM4.08607 9.60819L4.08607 15.0213L4.5858 15.0049L4.5858 9.5918L4.08607 9.60819ZM4.08607 20.4344L4.08607 25.8475L4.5858 25.8311L4.5858 20.418L4.08607 20.4344ZM4.08607 31.2606L4.08607 33.9671L4.5858 33.9507L4.5858 31.2442L4.08607 31.2606ZM4.6893 1.1152C4.49414 0.92634 4.17773 0.936722 3.98257 1.13839L0.802305 4.42472C0.607148 4.62639 0.607148 4.94297 0.802305 5.13183C0.997462 5.32069 1.31387 5.3103 1.50903 5.10864L4.33594 2.18745L7.16284 4.92312C7.358 5.11198 7.67441 5.1016 7.86957 4.89993C8.06473 4.69827 8.06473 4.38169 7.86957 4.19283L4.6893 1.1152ZM3.98257 34.3241C4.17773 34.5129 4.49414 34.5026 4.6893 34.3009L7.86957 31.0146C8.06473 30.8129 8.06473 30.4963 7.86957 30.3075C7.67441 30.1186 7.358 30.129 7.16284 30.3306L4.33594 33.2518L1.50903 30.5162C1.31387 30.3273 0.997462 30.3377 0.802305 30.5393C0.607148 30.741 0.607148 31.0576 0.802305 31.2465L3.98257 34.3241ZM3.83621 4.20329C3.83621 4.47944 4.05994 4.69595 4.33594 4.6869C4.61193 4.67784 4.83567 4.44664 4.83567 4.1705L3.83621 4.20329ZM4.83567 9.5836C4.83567 9.30745 4.61193 9.09094 4.33594 9.09999C4.05994 9.10905 3.83621 9.34025 3.83621 9.61639L4.83567 9.5836ZM3.83621 15.0295C3.83621 15.3056 4.05994 15.5221 4.33594 15.5131C4.61193 15.504 4.83567 15.2728 4.83567 14.9967L3.83621 15.0295ZM4.83567 20.4098C4.83567 20.1336 4.61193 19.9171 4.33594 19.9262C4.05994 19.9352 3.83621 20.1664 3.83621 20.4426L4.83567 20.4098ZM3.83621 25.8557C3.83621 26.1318 4.05994 26.3483 4.33594 26.3393C4.61193 26.3302 4.83567 26.099 4.83567 25.8229L3.83621 25.8557ZM4.83567 31.236C4.83567 30.9598 4.61193 30.7433 4.33594 30.7524C4.05994 30.7614 3.83621 30.9926 3.83621 31.2688L4.83567 31.236ZM3.83621 1.49674L3.83621 4.20329L4.83567 4.1705L4.83567 1.46395L3.83621 1.49674ZM3.83621 9.61639L3.83621 15.0295L4.83567 14.9967L4.83567 9.5836L3.83621 9.61639ZM3.83621 20.4426L3.83621 25.8557L4.83567 25.8229L4.83567 20.4098L3.83621 20.4426ZM3.83621 31.2688L3.83621 33.9753L4.83567 33.9425L4.83567 31.236L3.83621 31.2688Z" fill="#F2F2F2"/>
</svg>
