<svg width="9" height="35" viewBox="0 0 9 35" fill="none" xmlns="http://www.w3.org/2000/svg">
<path d="M4.58303 0.742047C4.4854 0.644415 4.3271 0.644415 4.22947 0.742047L2.63848 2.33304C2.54085 2.43067 2.54085 2.58896 2.63848 2.68659C2.73611 2.78422 2.89441 2.78422 2.99204 2.68659L4.40625 1.27238L5.82046 2.68659C5.91809 2.78422 6.07639 2.78422 6.17402 2.68659C6.27165 2.58896 6.27165 2.43067 6.17402 2.33304L4.58303 0.742047ZM4.15625 3.7555C4.15625 3.89357 4.26818 4.0055 4.40625 4.0055C4.54432 4.0055 4.65625 3.89357 4.65625 3.7555H4.15625ZM4.65625 9.42886C4.65625 9.29079 4.54432 9.17886 4.40625 9.17886C4.26818 9.17886 4.15625 9.29079 4.15625 9.42886H4.65625ZM4.15625 15.1022C4.15625 15.2403 4.26818 15.3522 4.40625 15.3522C4.54432 15.3522 4.65625 15.2403 4.65625 15.1022H4.15625ZM4.65625 20.7756C4.65625 20.6375 4.54432 20.5256 4.40625 20.5256C4.26818 20.5256 4.15625 20.6375 4.15625 20.7756H4.65625ZM4.15625 26.4489C4.15625 26.587 4.26818 26.6989 4.40625 26.6989C4.54432 26.6989 4.65625 26.587 4.65625 26.4489H4.15625ZM4.65625 32.1223C4.65625 31.9842 4.54432 31.8723 4.40625 31.8723C4.26818 31.8723 4.15625 31.9842 4.15625 32.1223H4.65625ZM4.15625 0.918823V3.7555H4.65625V0.918823H4.15625ZM4.15625 9.42886V15.1022H4.65625V9.42886H4.15625ZM4.15625 20.7756L4.15625 26.4489H4.65625L4.65625 20.7756H4.15625ZM4.15625 32.1223V34.959H4.65625V32.1223H4.15625ZM4.7598 0.56527C4.56454 0.370008 4.24796 0.370008 4.0527 0.56527L0.870716 3.74725C0.675454 3.94251 0.675454 4.25909 0.870716 4.45436C1.06598 4.64962 1.38256 4.64962 1.57782 4.45436L4.40625 1.62593L7.23468 4.45436C7.42994 4.64962 7.74652 4.64962 7.94178 4.45436C8.13705 4.25909 8.13705 3.94251 7.94178 3.74725L4.7598 0.56527ZM3.90625 3.7555C3.90625 4.03165 4.13011 4.2555 4.40625 4.2555C4.68239 4.2555 4.90625 4.03165 4.90625 3.7555H3.90625ZM4.90625 9.42886C4.90625 9.15272 4.68239 8.92886 4.40625 8.92886C4.13011 8.92886 3.90625 9.15272 3.90625 9.42886H4.90625ZM3.90625 15.1022C3.90625 15.3784 4.13011 15.6022 4.40625 15.6022C4.68239 15.6022 4.90625 15.3784 4.90625 15.1022H3.90625ZM4.90625 20.7756C4.90625 20.4994 4.68239 20.2756 4.40625 20.2756C4.13011 20.2756 3.90625 20.4994 3.90625 20.7756H4.90625ZM3.90625 26.4489C3.90625 26.7251 4.13011 26.9489 4.40625 26.9489C4.68239 26.9489 4.90625 26.7251 4.90625 26.4489H3.90625ZM4.90625 32.1223C4.90625 31.8462 4.68239 31.6223 4.40625 31.6223C4.13011 31.6223 3.90625 31.8462 3.90625 32.1223H4.90625ZM3.90625 0.918823V3.7555H4.90625V0.918823H3.90625ZM3.90625 9.42886L3.90625 15.1022H4.90625V9.42886H3.90625ZM3.90625 20.7756L3.90625 26.4489H4.90625L4.90625 20.7756H3.90625ZM3.90625 32.1223L3.90625 34.959H4.90625V32.1223H3.90625Z" fill="#F2F2F2"/>
</svg>
