<svg width="284" height="78" viewBox="0 0 284 78" fill="none" xmlns="http://www.w3.org/2000/svg">
<g filter="url(#filter0_d_570_121)">
<path d="M37.172 53.3872C36.8093 53.3872 36.424 53.2966 36.016 53.1152C35.6533 52.8886 35.268 52.6619 34.86 52.4352L11.604 39.0393C11.06 38.7219 10.652 38.3592 10.38 37.9512C10.1533 37.4979 10.04 36.9992 10.04 36.4552C10.04 35.8659 10.176 35.3672 10.448 34.9592C10.7653 34.5059 11.196 34.1206 11.74 33.8032L34.724 20.6792C35.0867 20.4526 35.4493 20.2712 35.812 20.1352C36.1747 19.9992 36.5147 19.9312 36.832 19.9312C37.512 19.9312 38.1013 20.2259 38.6 20.8152C39.144 21.3592 39.416 21.9486 39.416 22.5832C39.416 23.0366 39.3027 23.4446 39.076 23.8072C38.8947 24.1246 38.5773 24.3966 38.124 24.6232L14.324 38.1552L14.052 34.6872L37.92 48.4232C38.5093 48.7406 38.9173 49.0806 39.144 49.4432C39.3707 49.7606 39.484 50.1686 39.484 50.6672C39.484 51.3472 39.2347 51.9819 38.736 52.5712C38.2373 53.1152 37.716 53.3872 37.172 53.3872ZM82.8547 59.7113C79.0921 59.7113 75.9414 58.6459 73.4027 56.5152C70.9094 54.3846 69.0054 51.4606 67.6907 47.7432C66.4214 44.0259 65.7867 39.8552 65.7867 35.2312C65.7867 30.5166 66.4214 26.3232 67.6907 22.6512C69.0054 18.9792 70.9094 16.0779 73.4027 13.9472C75.9414 11.8166 79.0921 10.7512 82.8547 10.7512C86.6174 10.7512 89.7454 11.8166 92.2387 13.9472C94.7774 16.0779 96.6814 18.9792 97.9507 22.6512C99.2201 26.3232 99.8547 30.5166 99.8547 35.2312C99.8547 39.8552 99.2201 44.0259 97.9507 47.7432C96.6814 51.4606 94.7774 54.3846 92.2387 56.5152C89.7454 58.6459 86.6174 59.7113 82.8547 59.7113ZM82.8547 54.2032C85.2574 54.2032 87.2747 53.4326 88.9067 51.8912C90.5841 50.3499 91.8534 48.1739 92.7147 45.3632C93.5761 42.5072 94.0067 39.1299 94.0067 35.2312C94.0067 31.2872 93.5761 27.9099 92.7147 25.0992C91.8534 22.2432 90.5841 20.0672 88.9067 18.5712C87.2747 17.0299 85.2574 16.2592 82.8547 16.2592C80.4521 16.2592 78.4121 17.0299 76.7347 18.5712C75.1027 20.0672 73.8334 22.2432 72.9267 25.0992C72.0654 27.9099 71.6347 31.2872 71.6347 35.2312C71.6347 39.1299 72.0654 42.5072 72.9267 45.3632C73.8334 48.1739 75.1027 50.3499 76.7347 51.8912C78.4121 53.4326 80.4521 54.2032 82.8547 54.2032ZM115.331 59.1673C115.331 60.4819 114.945 61.7739 114.175 63.0433C113.449 64.3579 112.52 65.4233 111.387 66.2393C110.253 67.1006 109.097 67.5312 107.919 67.5312C107.511 67.5312 107.103 67.3726 106.695 67.0553C106.287 66.7833 106.083 66.2846 106.083 65.5593C106.083 64.7886 106.332 64.3353 106.831 64.1993C107.329 64.0633 107.873 63.8593 108.463 63.5873C109.143 63.2246 109.664 62.7713 110.027 62.2273C110.435 61.7286 110.639 61.1393 110.639 60.4593C110.639 59.9153 110.435 59.4619 110.027 59.0993C109.664 58.7819 109.211 58.6232 108.667 58.6232C108.349 58.6232 108.009 58.6686 107.647 58.7592C107.329 58.8499 107.057 58.9859 106.831 59.1673C106.513 58.9406 106.241 58.6686 106.015 58.3512C105.788 58.0339 105.675 57.6259 105.675 57.1272C105.72 56.1299 106.219 55.2912 107.171 54.6112C108.123 53.8859 109.211 53.5232 110.435 53.5232C111.885 53.5232 113.064 54.0672 113.971 55.1552C114.877 56.2432 115.331 57.5806 115.331 59.1673ZM152.601 59.0312C151.785 59.0312 151.105 58.7592 150.561 58.2152C150.017 57.6712 149.745 57.0139 149.745 56.2432V17.5512L150.561 18.5032L142.877 23.8072C142.424 24.1246 141.902 24.2832 141.313 24.2832C140.542 24.2832 139.885 24.0112 139.341 23.4672C138.797 22.8779 138.525 22.2206 138.525 21.4952C138.525 20.4979 139.001 19.7046 139.953 19.1152L150.765 11.9752C151.128 11.7486 151.49 11.5899 151.853 11.4992C152.216 11.4086 152.578 11.3859 152.941 11.4312C153.757 11.4312 154.392 11.7032 154.845 12.2472C155.344 12.7459 155.593 13.3806 155.593 14.1512V56.2432C155.593 57.0139 155.298 57.6712 154.709 58.2152C154.165 58.7592 153.462 59.0312 152.601 59.0312ZM182.995 59.7113C179.233 59.7113 176.082 58.6459 173.543 56.5152C171.05 54.3846 169.146 51.4606 167.831 47.7432C166.562 44.0259 165.927 39.8552 165.927 35.2312C165.927 30.5166 166.562 26.3232 167.831 22.6512C169.146 18.9792 171.05 16.0779 173.543 13.9472C176.082 11.8166 179.233 10.7512 182.995 10.7512C186.758 10.7512 189.886 11.8166 192.379 13.9472C194.918 16.0779 196.822 18.9792 198.091 22.6512C199.361 26.3232 199.995 30.5166 199.995 35.2312C199.995 39.8552 199.361 44.0259 198.091 47.7432C196.822 51.4606 194.918 54.3846 192.379 56.5152C189.886 58.6459 186.758 59.7113 182.995 59.7113ZM182.995 54.2032C185.398 54.2032 187.415 53.4326 189.047 51.8912C190.725 50.3499 191.994 48.1739 192.855 45.3632C193.717 42.5072 194.147 39.1299 194.147 35.2312C194.147 31.2872 193.717 27.9099 192.855 25.0992C191.994 22.2432 190.725 20.0672 189.047 18.5712C187.415 17.0299 185.398 16.2592 182.995 16.2592C180.593 16.2592 178.553 17.0299 176.875 18.5712C175.243 20.0672 173.974 22.2432 173.067 25.0992C172.206 27.9099 171.775 31.2872 171.775 35.2312C171.775 39.1299 172.206 42.5072 173.067 45.3632C173.974 48.1739 175.243 50.3499 176.875 51.8912C178.553 53.4326 180.593 54.2032 182.995 54.2032ZM234.742 36.2512C232.656 36.2512 230.866 35.6846 229.37 34.5512C227.919 33.3726 226.786 31.8312 225.97 29.9272C225.199 27.9779 224.814 25.8699 224.814 23.6032C224.814 21.2912 225.199 19.1606 225.97 17.2112C226.786 15.2619 227.942 13.7206 229.438 12.5872C230.934 11.4086 232.724 10.8192 234.81 10.8192C236.895 10.8192 238.663 11.4086 240.114 12.5872C241.61 13.7206 242.743 15.2619 243.514 17.2112C244.284 19.1152 244.67 21.2232 244.67 23.5352C244.67 25.8472 244.262 27.9779 243.446 29.9272C242.63 31.8312 241.474 33.3726 239.978 34.5512C238.527 35.6846 236.782 36.2512 234.742 36.2512ZM234.81 31.8312C236.532 31.8312 237.802 31.0606 238.618 29.5192C239.434 27.9326 239.842 25.9606 239.842 23.6032C239.842 21.2006 239.411 19.2059 238.55 17.6192C237.688 16.0326 236.419 15.2392 234.742 15.2392C233.019 15.2392 231.727 16.0552 230.866 17.6872C230.05 19.2739 229.642 21.2232 229.642 23.5352C229.642 25.9379 230.072 27.9326 230.934 29.5192C231.84 31.0606 233.132 31.8312 234.81 31.8312ZM263.098 59.6433C261.058 59.6433 259.29 59.0766 257.794 57.9432C256.343 56.7646 255.21 55.2232 254.394 53.3192C253.578 51.3699 253.17 49.2619 253.17 46.9952C253.17 44.6832 253.555 42.5526 254.326 40.6032C255.142 38.6539 256.298 37.1126 257.794 35.9792C259.29 34.8006 261.08 34.2112 263.166 34.2112C265.296 34.2112 267.087 34.8006 268.538 35.9792C270.034 37.1126 271.167 38.6539 271.938 40.6032C272.708 42.5072 273.094 44.6152 273.094 46.9272C273.094 49.2392 272.686 51.3699 271.87 53.3192C271.054 55.2232 269.898 56.7646 268.402 57.9432C266.951 59.0766 265.183 59.6433 263.098 59.6433ZM263.166 55.2232C264.934 55.2232 266.226 54.4526 267.042 52.9112C267.858 51.3246 268.266 49.3526 268.266 46.9952C268.266 44.5926 267.835 42.5979 266.974 41.0112C266.112 39.4246 264.82 38.6312 263.098 38.6312C261.375 38.6312 260.083 39.4472 259.222 41.0793C258.406 42.6659 257.998 44.6152 257.998 46.9272C257.998 49.3299 258.428 51.3246 259.29 52.9112C260.196 54.4526 261.488 55.2232 263.166 55.2232ZM234.47 59.1673C233.926 59.1673 233.382 58.9632 232.838 58.5552C232.294 58.1472 232.022 57.5806 232.022 56.8552C232.022 56.4472 232.18 55.9712 232.498 55.4272L260.922 12.3832C261.466 11.6126 262.1 11.2272 262.826 11.2272C263.415 11.2272 263.959 11.4312 264.458 11.8392C265.002 12.2472 265.274 12.8139 265.274 13.5392C265.274 13.9926 265.138 14.4686 264.866 14.9672L236.442 58.0792C235.898 58.8046 235.24 59.1673 234.47 59.1673Z" fill="#749DCA" fill-opacity="0.9" shape-rendering="crispEdges"/>
</g>
<defs>
<filter id="filter0_d_570_121" x="0.0390625" y="0.751465" width="283.055" height="76.7798" filterUnits="userSpaceOnUse" color-interpolation-filters="sRGB">
<feFlood flood-opacity="0" result="BackgroundImageFix"/>
<feColorMatrix in="SourceAlpha" type="matrix" values="0 0 0 0 0 0 0 0 0 0 0 0 0 0 0 0 0 0 127 0" result="hardAlpha"/>
<feOffset/>
<feGaussianBlur stdDeviation="5"/>
<feComposite in2="hardAlpha" operator="out"/>
<feColorMatrix type="matrix" values="0 0 0 0 0.592157 0 0 0 0 0.686275 0 0 0 0 0.835294 0 0 0 0.9 0"/>
<feBlend mode="normal" in2="BackgroundImageFix" result="effect1_dropShadow_570_121"/>
<feBlend mode="normal" in="SourceGraphic" in2="effect1_dropShadow_570_121" result="shape"/>
</filter>
</defs>
</svg>
