<svg width="197" height="72" viewBox="0 0 197 72" fill="none" xmlns="http://www.w3.org/2000/svg">
<g filter="url(#filter0_d_570_163)">
<path d="M24.64 61.0312C23.824 61.0312 23.144 60.7592 22.6 60.2152C22.056 59.6712 21.784 59.0139 21.784 58.2432V19.5512L22.6 20.5032L14.916 25.8072C14.4627 26.1246 13.9413 26.2832 13.352 26.2832C12.5813 26.2832 11.924 26.0112 11.38 25.4672C10.836 24.8779 10.564 24.2206 10.564 23.4952C10.564 22.4979 11.04 21.7046 11.992 21.1152L22.804 13.9752C23.1667 13.7486 23.5293 13.5899 23.892 13.4992C24.2547 13.4086 24.6173 13.3859 24.98 13.4312C25.796 13.4312 26.4307 13.7032 26.884 14.2472C27.3827 14.7459 27.632 15.3806 27.632 16.1512V58.2432C27.632 59.0139 27.3373 59.6712 26.748 60.2152C26.204 60.7592 25.5013 61.0312 24.64 61.0312ZM55.0344 61.7113C51.2717 61.7113 48.1211 60.6459 45.5824 58.5152C43.0891 56.3846 41.1851 53.4606 39.8704 49.7432C38.6011 46.0259 37.9664 41.8552 37.9664 37.2312C37.9664 32.5166 38.6011 28.3232 39.8704 24.6512C41.1851 20.9792 43.0891 18.0779 45.5824 15.9472C48.1211 13.8166 51.2717 12.7512 55.0344 12.7512C58.7971 12.7512 61.9251 13.8166 64.4184 15.9472C66.9571 18.0779 68.8611 20.9792 70.1304 24.6512C71.3997 28.3232 72.0344 32.5166 72.0344 37.2312C72.0344 41.8552 71.3997 46.0259 70.1304 49.7432C68.8611 53.4606 66.9571 56.3846 64.4184 58.5152C61.9251 60.6459 58.7971 61.7113 55.0344 61.7113ZM55.0344 56.2032C57.4371 56.2032 59.4544 55.4326 61.0864 53.8912C62.7637 52.3499 64.0331 50.1739 64.8944 47.3632C65.7557 44.5072 66.1864 41.1299 66.1864 37.2312C66.1864 33.2872 65.7557 29.9099 64.8944 27.0992C64.0331 24.2432 62.7637 22.0672 61.0864 20.5712C59.4544 19.0299 57.4371 18.2592 55.0344 18.2592C52.6317 18.2592 50.5917 19.0299 48.9144 20.5712C47.2824 22.0672 46.0131 24.2432 45.1064 27.0992C44.2451 29.9099 43.8144 33.2872 43.8144 37.2312C43.8144 41.1299 44.2451 44.5072 45.1064 47.3632C46.0131 50.1739 47.2824 52.3499 48.9144 53.8912C50.5917 55.4326 52.6317 56.2032 55.0344 56.2032ZM102.429 61.0312C101.613 61.0312 100.955 60.7592 100.457 60.2152C99.9581 59.6712 99.7088 59.0139 99.7088 58.2432V13.4312C99.7088 12.6606 99.9581 12.0259 100.457 11.5272C100.955 10.9832 101.613 10.7112 102.429 10.7112C103.199 10.7112 103.834 10.9832 104.333 11.5272C104.877 12.0259 105.149 12.6606 105.149 13.4312V58.2432C105.149 59.0139 104.877 59.6712 104.333 60.2152C103.834 60.7592 103.199 61.0312 102.429 61.0312ZM125.005 25.6712C125.73 25.6712 126.342 25.9659 126.841 26.5552C127.385 27.0992 127.657 27.6659 127.657 28.2552C127.657 29.0259 127.294 29.7059 126.569 30.2952L104.537 49.5392L104.333 43.2152L123.101 26.4872C123.645 25.9432 124.279 25.6712 125.005 25.6712ZM125.753 60.9632C124.982 60.9632 124.302 60.6686 123.713 60.0792L109.229 44.6432L113.309 40.9032L127.657 56.2712C128.201 56.8606 128.473 57.5406 128.473 58.3112C128.473 59.1272 128.155 59.7846 127.521 60.2832C126.886 60.7366 126.297 60.9632 125.753 60.9632ZM155.759 40.9712C154.988 40.9712 154.354 40.7219 153.855 40.2232C153.356 39.7246 153.107 39.1126 153.107 38.3872C153.107 37.6619 153.356 37.0726 153.855 36.6192C154.354 36.1206 154.988 35.8712 155.759 35.8712H183.639C184.41 35.8712 185.044 36.1206 185.543 36.6192C186.042 37.1179 186.291 37.7299 186.291 38.4552C186.291 39.1806 186.042 39.7926 185.543 40.2912C185.044 40.7446 184.41 40.9712 183.639 40.9712H155.759ZM169.631 55.1832C168.815 55.1832 168.112 54.9112 167.523 54.3672C166.979 53.8232 166.707 53.1432 166.707 52.3272V24.2432C166.707 23.3819 166.979 22.6792 167.523 22.1352C168.112 21.5912 168.838 21.3192 169.699 21.3192C170.56 21.3192 171.24 21.5912 171.739 22.1352C172.283 22.6792 172.555 23.3819 172.555 24.2432V52.2592C172.555 53.1206 172.283 53.8232 171.739 54.3672C171.195 54.9112 170.492 55.1832 169.631 55.1832Z" fill="#749DCA" fill-opacity="0.9" shape-rendering="crispEdges"/>
</g>
<defs>
<filter id="filter0_d_570_163" x="0.5625" y="0.711426" width="195.727" height="71" filterUnits="userSpaceOnUse" color-interpolation-filters="sRGB">
<feFlood flood-opacity="0" result="BackgroundImageFix"/>
<feColorMatrix in="SourceAlpha" type="matrix" values="0 0 0 0 0 0 0 0 0 0 0 0 0 0 0 0 0 0 127 0" result="hardAlpha"/>
<feOffset/>
<feGaussianBlur stdDeviation="5"/>
<feComposite in2="hardAlpha" operator="out"/>
<feColorMatrix type="matrix" values="0 0 0 0 0.592157 0 0 0 0 0.686275 0 0 0 0 0.835294 0 0 0 0.9 0"/>
<feBlend mode="normal" in2="BackgroundImageFix" result="effect1_dropShadow_570_163"/>
<feBlend mode="normal" in="SourceGraphic" in2="effect1_dropShadow_570_163" result="shape"/>
</filter>
</defs>
</svg>
