<svg width="209" height="72" viewBox="0 0 209 72" fill="none" xmlns="http://www.w3.org/2000/svg">
<g filter="url(#filter0_d_264_10655)">
<path d="M35.5 61.0312C34.7293 61.0312 34.072 60.7592 33.528 60.2152C33.0293 59.6712 32.78 59.0139 32.78 58.2432V21.0473L33.868 21.4552L17.616 42.6712L17.344 41.8552H42.776C43.5013 41.8552 44.1133 42.1046 44.612 42.6032C45.1107 43.1019 45.36 43.7139 45.36 44.4392C45.36 45.1192 45.1107 45.7086 44.612 46.2072C44.1133 46.6606 43.5013 46.8872 42.776 46.8872H13.604C12.924 46.8872 12.2893 46.6152 11.7 46.0712C11.156 45.5272 10.884 44.8926 10.884 44.1672C10.884 43.4872 11.1107 42.8979 11.564 42.3992L33.256 14.5192C33.5733 14.1112 33.936 13.8392 34.344 13.7032C34.752 13.5219 35.16 13.4312 35.568 13.4312C36.3387 13.4312 36.9733 13.7032 37.472 14.2472C37.9707 14.7459 38.22 15.3806 38.22 16.1512V58.2432C38.22 59.0139 37.948 59.6712 37.404 60.2152C36.9053 60.7592 36.2707 61.0312 35.5 61.0312ZM67.6555 61.7113C63.8928 61.7113 60.7422 60.6459 58.2035 58.5152C55.7102 56.3846 53.8062 53.4606 52.4915 49.7432C51.2222 46.0259 50.5875 41.8552 50.5875 37.2312C50.5875 32.5166 51.2222 28.3232 52.4915 24.6512C53.8062 20.9792 55.7102 18.0779 58.2035 15.9472C60.7422 13.8166 63.8928 12.7512 67.6555 12.7512C71.4182 12.7512 74.5462 13.8166 77.0395 15.9472C79.5782 18.0779 81.4822 20.9792 82.7515 24.6512C84.0208 28.3232 84.6555 32.5166 84.6555 37.2312C84.6555 41.8552 84.0208 46.0259 82.7515 49.7432C81.4822 53.4606 79.5782 56.3846 77.0395 58.5152C74.5462 60.6459 71.4182 61.7113 67.6555 61.7113ZM67.6555 56.2032C70.0582 56.2032 72.0755 55.4326 73.7075 53.8912C75.3848 52.3499 76.6542 50.1739 77.5155 47.3632C78.3768 44.5072 78.8075 41.1299 78.8075 37.2312C78.8075 33.2872 78.3768 29.9099 77.5155 27.0992C76.6542 24.2432 75.3848 22.0672 73.7075 20.5712C72.0755 19.0299 70.0582 18.2592 67.6555 18.2592C65.2528 18.2592 63.2128 19.0299 61.5355 20.5712C59.9035 22.0672 58.6342 24.2432 57.7275 27.0992C56.8662 29.9099 56.4355 33.2872 56.4355 37.2312C56.4355 41.1299 56.8662 44.5072 57.7275 47.3632C58.6342 50.1739 59.9035 52.3499 61.5355 53.8912C63.2128 55.4326 65.2528 56.2032 67.6555 56.2032ZM115.05 61.0312C114.234 61.0312 113.577 60.7592 113.078 60.2152C112.579 59.6712 112.33 59.0139 112.33 58.2432V13.4312C112.33 12.6606 112.579 12.0259 113.078 11.5272C113.577 10.9832 114.234 10.7112 115.05 10.7112C115.821 10.7112 116.455 10.9832 116.954 11.5272C117.498 12.0259 117.77 12.6606 117.77 13.4312V58.2432C117.77 59.0139 117.498 59.6712 116.954 60.2152C116.455 60.7592 115.821 61.0312 115.05 61.0312ZM137.626 25.6712C138.351 25.6712 138.963 25.9659 139.462 26.5552C140.006 27.0992 140.278 27.6659 140.278 28.2552C140.278 29.0259 139.915 29.7059 139.19 30.2952L117.158 49.5392L116.954 43.2152L135.722 26.4872C136.266 25.9432 136.901 25.6712 137.626 25.6712ZM138.374 60.9632C137.603 60.9632 136.923 60.6686 136.334 60.0792L121.85 44.6432L125.93 40.9032L140.278 56.2712C140.822 56.8606 141.094 57.5406 141.094 58.3112C141.094 59.1272 140.777 59.7846 140.142 60.2832C139.507 60.7366 138.918 60.9632 138.374 60.9632ZM168.38 40.9712C167.609 40.9712 166.975 40.7219 166.476 40.2232C165.977 39.7246 165.728 39.1126 165.728 38.3872C165.728 37.6619 165.977 37.0726 166.476 36.6192C166.975 36.1206 167.609 35.8712 168.38 35.8712H196.26C197.031 35.8712 197.665 36.1206 198.164 36.6192C198.663 37.1179 198.912 37.7299 198.912 38.4552C198.912 39.1806 198.663 39.7926 198.164 40.2912C197.665 40.7446 197.031 40.9712 196.26 40.9712H168.38ZM182.252 55.1832C181.436 55.1832 180.733 54.9112 180.144 54.3672C179.6 53.8232 179.328 53.1432 179.328 52.3272V24.2432C179.328 23.3819 179.6 22.6792 180.144 22.1352C180.733 21.5912 181.459 21.3192 182.32 21.3192C183.181 21.3192 183.861 21.5912 184.36 22.1352C184.904 22.6792 185.176 23.3819 185.176 24.2432V52.2592C185.176 53.1206 184.904 53.8232 184.36 54.3672C183.816 54.9112 183.113 55.1832 182.252 55.1832Z" fill="#749DCA" fill-opacity="0.9" shape-rendering="crispEdges"/>
</g>
<defs>
<filter id="filter0_d_264_10655" x="0.882812" y="0.711426" width="208.027" height="71" filterUnits="userSpaceOnUse" color-interpolation-filters="sRGB">
<feFlood flood-opacity="0" result="BackgroundImageFix"/>
<feColorMatrix in="SourceAlpha" type="matrix" values="0 0 0 0 0 0 0 0 0 0 0 0 0 0 0 0 0 0 127 0" result="hardAlpha"/>
<feOffset/>
<feGaussianBlur stdDeviation="5"/>
<feComposite in2="hardAlpha" operator="out"/>
<feColorMatrix type="matrix" values="0 0 0 0 0.592157 0 0 0 0 0.686275 0 0 0 0 0.835294 0 0 0 0.9 0"/>
<feBlend mode="normal" in2="BackgroundImageFix" result="effect1_dropShadow_264_10655"/>
<feBlend mode="normal" in="SourceGraphic" in2="effect1_dropShadow_264_10655" result="shape"/>
</filter>
</defs>
</svg>
