<svg width="205" height="72" viewBox="0 0 205 72" fill="none" xmlns="http://www.w3.org/2000/svg">
<g filter="url(#filter0_d_570_144)">
<path d="M19.58 61.2353C18.8547 61.2353 18.1973 61.0086 17.608 60.5552C17.064 60.0566 16.792 59.4219 16.792 58.6512C16.792 58.2432 16.8827 57.8352 17.064 57.4272L34.608 17.6472L35.424 18.8712H13.528C12.8027 18.8712 12.1907 18.6446 11.692 18.1912C11.1933 17.6926 10.944 17.0579 10.944 16.2872C10.944 15.5619 11.1933 14.9726 11.692 14.5192C12.1907 14.0206 12.8027 13.7712 13.528 13.7712H38.076C38.892 13.7712 39.5493 14.0206 40.048 14.5192C40.592 15.0179 40.864 15.6526 40.864 16.4232C40.864 16.8312 40.7733 17.2392 40.592 17.6472L22.164 59.5352C21.9373 60.0792 21.5747 60.5099 21.076 60.8272C20.6227 61.0993 20.124 61.2353 19.58 61.2353ZM63.1946 61.7113C59.4319 61.7113 56.2812 60.6459 53.7426 58.5152C51.2492 56.3846 49.3452 53.4606 48.0306 49.7432C46.7612 46.0259 46.1266 41.8552 46.1266 37.2312C46.1266 32.5166 46.7612 28.3232 48.0306 24.6512C49.3452 20.9792 51.2492 18.0779 53.7426 15.9472C56.2812 13.8166 59.4319 12.7512 63.1946 12.7512C66.9572 12.7512 70.0852 13.8166 72.5786 15.9472C75.1172 18.0779 77.0212 20.9792 78.2906 24.6512C79.5599 28.3232 80.1946 32.5166 80.1946 37.2312C80.1946 41.8552 79.5599 46.0259 78.2906 49.7432C77.0212 53.4606 75.1172 56.3846 72.5786 58.5152C70.0852 60.6459 66.9572 61.7113 63.1946 61.7113ZM63.1946 56.2032C65.5972 56.2032 67.6146 55.4326 69.2466 53.8912C70.9239 52.3499 72.1932 50.1739 73.0546 47.3632C73.9159 44.5072 74.3466 41.1299 74.3466 37.2312C74.3466 33.2872 73.9159 29.9099 73.0546 27.0992C72.1932 24.2432 70.9239 22.0672 69.2466 20.5712C67.6146 19.0299 65.5972 18.2592 63.1946 18.2592C60.7919 18.2592 58.7519 19.0299 57.0746 20.5712C55.4426 22.0672 54.1732 24.2432 53.2666 27.0992C52.4052 29.9099 51.9746 33.2872 51.9746 37.2312C51.9746 41.1299 52.4052 44.5072 53.2666 47.3632C54.1732 50.1739 55.4426 52.3499 57.0746 53.8912C58.7519 55.4326 60.7919 56.2032 63.1946 56.2032ZM110.589 61.0312C109.773 61.0312 109.116 60.7592 108.617 60.2152C108.118 59.6712 107.869 59.0139 107.869 58.2432V13.4312C107.869 12.6606 108.118 12.0259 108.617 11.5272C109.116 10.9832 109.773 10.7112 110.589 10.7112C111.36 10.7112 111.994 10.9832 112.493 11.5272C113.037 12.0259 113.309 12.6606 113.309 13.4312V58.2432C113.309 59.0139 113.037 59.6712 112.493 60.2152C111.994 60.7592 111.36 61.0312 110.589 61.0312ZM133.165 25.6712C133.89 25.6712 134.502 25.9659 135.001 26.5552C135.545 27.0992 135.817 27.6659 135.817 28.2552C135.817 29.0259 135.454 29.7059 134.729 30.2952L112.697 49.5392L112.493 43.2152L131.261 26.4872C131.805 25.9432 132.44 25.6712 133.165 25.6712ZM133.913 60.9632C133.142 60.9632 132.462 60.6686 131.873 60.0792L117.389 44.6432L121.469 40.9032L135.817 56.2712C136.361 56.8606 136.633 57.5406 136.633 58.3112C136.633 59.1272 136.316 59.7846 135.681 60.2832C135.046 60.7366 134.457 60.9632 133.913 60.9632ZM163.919 40.9712C163.148 40.9712 162.514 40.7219 162.015 40.2232C161.516 39.7246 161.267 39.1126 161.267 38.3872C161.267 37.6619 161.516 37.0726 162.015 36.6192C162.514 36.1206 163.148 35.8712 163.919 35.8712H191.799C192.57 35.8712 193.204 36.1206 193.703 36.6192C194.202 37.1179 194.451 37.7299 194.451 38.4552C194.451 39.1806 194.202 39.7926 193.703 40.2912C193.204 40.7446 192.57 40.9712 191.799 40.9712H163.919ZM177.791 55.1832C176.975 55.1832 176.272 54.9112 175.683 54.3672C175.139 53.8232 174.867 53.1432 174.867 52.3272V24.2432C174.867 23.3819 175.139 22.6792 175.683 22.1352C176.272 21.5912 176.998 21.3192 177.859 21.3192C178.72 21.3192 179.4 21.5912 179.899 22.1352C180.443 22.6792 180.715 23.3819 180.715 24.2432V52.2592C180.715 53.1206 180.443 53.8232 179.899 54.3672C179.355 54.9112 178.652 55.1832 177.791 55.1832Z" fill="#749DCA" fill-opacity="0.9" shape-rendering="crispEdges"/>
</g>
<defs>
<filter id="filter0_d_570_144" x="0.945312" y="0.711426" width="203.504" height="71" filterUnits="userSpaceOnUse" color-interpolation-filters="sRGB">
<feFlood flood-opacity="0" result="BackgroundImageFix"/>
<feColorMatrix in="SourceAlpha" type="matrix" values="0 0 0 0 0 0 0 0 0 0 0 0 0 0 0 0 0 0 127 0" result="hardAlpha"/>
<feOffset/>
<feGaussianBlur stdDeviation="5"/>
<feComposite in2="hardAlpha" operator="out"/>
<feColorMatrix type="matrix" values="0 0 0 0 0.592157 0 0 0 0 0.686275 0 0 0 0 0.835294 0 0 0 0.9 0"/>
<feBlend mode="normal" in2="BackgroundImageFix" result="effect1_dropShadow_570_144"/>
<feBlend mode="normal" in="SourceGraphic" in2="effect1_dropShadow_570_144" result="shape"/>
</filter>
</defs>
</svg>
