<svg width="16" height="17" viewBox="0 0 16 17" fill="none" xmlns="http://www.w3.org/2000/svg">
<path d="M15.9438 8.28809C15.9438 12.5693 12.4438 16.0381 8.19375 16.0381C3.9125 16.0381 0.44375 12.5693 0.44375 8.28809C0.44375 4.03809 3.9125 0.538086 8.19375 0.538086C12.4438 0.538086 15.9438 4.03809 15.9438 8.28809ZM11.5063 7.19434C11.6625 6.16309 10.8813 5.60059 9.7875 5.25684L10.1313 3.85059L9.2875 3.63184L8.94375 5.00684C8.725 4.94434 8.50625 4.88184 8.2875 4.85059L8.63125 3.47559L7.75625 3.25684L7.4125 4.66309C7.225 4.60059 7.0375 4.56934 6.88125 4.53809V4.50684L5.69375 4.22559L5.475 5.13184L6.1 5.28809C6.44375 5.38184 6.50625 5.60059 6.475 5.78809L6.1 7.38184C6.13125 7.38184 6.1625 7.38184 6.19375 7.41309C6.1625 7.38184 6.13125 7.38184 6.1 7.38184L5.5375 9.60059C5.50625 9.72559 5.38125 9.88184 5.13125 9.81934C5.1625 9.81934 4.5375 9.66309 4.5375 9.66309L4.1 10.6318L5.225 10.9131C5.4125 10.9443 5.63125 11.0068 5.81875 11.0693L5.475 12.4756L6.31875 12.6943L6.6625 11.2881C6.88125 11.3506 7.13125 11.4131 7.35 11.4756L7.00625 12.8506L7.85 13.0693L8.19375 11.6631C9.6625 11.9443 10.725 11.8193 11.1938 10.5068C11.5688 9.44434 11.1938 8.85059 10.4125 8.44434C10.975 8.31934 11.3813 7.94434 11.5063 7.19434ZM9.56875 9.91309C9.2875 10.9756 7.50625 10.4131 6.94375 10.2568L7.4125 8.38184C7.975 8.53809 9.81875 8.81934 9.56875 9.91309ZM9.81875 7.19434C9.56875 8.13184 8.1 7.66309 7.63125 7.53809L8.0375 5.85059C8.5375 5.94434 10.0688 6.19434 9.81875 7.19434Z" fill="#97AFD5"/>
</svg>
