<svg width="16" height="16" viewBox="0 0 16 16" fill="none" xmlns="http://www.w3.org/2000/svg">
<path d="M5.6 12.7256C5.6 12.7881 5.5375 12.8193 5.44375 12.8193C5.35 12.8506 5.2875 12.7881 5.2875 12.7256C5.2875 12.6631 5.35 12.6006 5.44375 12.6006C5.5375 12.6006 5.6 12.6631 5.6 12.7256ZM4.63125 12.5693C4.6625 12.5068 4.75625 12.4756 4.85 12.5068C4.94375 12.5381 4.975 12.6006 4.975 12.6631C4.94375 12.7256 4.85 12.7568 4.7875 12.7256C4.69375 12.7256 4.63125 12.6318 4.63125 12.5693ZM6.0375 12.5381C6.1 12.5068 6.19375 12.5693 6.19375 12.6318C6.225 12.6943 6.1625 12.7256 6.06875 12.7568C5.975 12.7881 5.88125 12.7568 5.88125 12.6943C5.88125 12.6006 5.94375 12.5381 6.0375 12.5381ZM8.06875 0.538086C12.4125 0.538086 15.9437 3.85059 15.9437 8.16309C15.9437 11.6318 13.8187 14.6006 10.6937 15.6318C10.2875 15.7256 10.1312 15.4756 10.1312 15.2568C10.1312 15.0068 10.1625 13.6943 10.1625 12.6631C10.1625 11.9131 9.9125 11.4443 9.63125 11.1943C11.3812 11.0068 13.225 10.7568 13.225 7.75684C13.225 6.88184 12.9125 6.47559 12.4125 5.91309C12.475 5.69434 12.7562 4.88184 12.3187 3.78809C11.6625 3.56934 10.1625 4.63184 10.1625 4.63184C9.5375 4.44434 8.88125 4.38184 8.19375 4.38184C7.5375 4.38184 6.88125 4.44434 6.25625 4.63184C6.25625 4.63184 4.725 3.60059 4.1 3.78809C3.6625 4.88184 3.9125 5.69434 4.00625 5.91309C3.50625 6.47559 3.25625 6.88184 3.25625 7.75684C3.25625 10.7568 5.0375 11.0068 6.7875 11.1943C6.5375 11.4131 6.35 11.7568 6.2875 12.2568C5.81875 12.4756 4.69375 12.8193 4.00625 11.6006C3.56875 10.8506 2.7875 10.7881 2.7875 10.7881C2.0375 10.7881 2.75625 11.2881 2.75625 11.2881C3.25625 11.5068 3.6 12.4131 3.6 12.4131C4.06875 13.8193 6.25625 13.3506 6.25625 13.3506C6.25625 14.0068 6.25625 15.0693 6.25625 15.2881C6.25625 15.4756 6.13125 15.7256 5.725 15.6631C2.6 14.6006 0.44375 11.6318 0.44375 8.16309C0.44375 3.85059 3.75625 0.538086 8.06875 0.538086ZM3.475 11.3193C3.50625 11.2881 3.56875 11.3193 3.63125 11.3506C3.69375 11.4131 3.69375 11.5068 3.6625 11.5381C3.6 11.5693 3.5375 11.5381 3.475 11.5068C3.44375 11.4443 3.4125 11.3506 3.475 11.3193ZM3.13125 11.0693C3.1625 11.0381 3.19375 11.0381 3.25625 11.0693C3.31875 11.1006 3.35 11.1318 3.35 11.1631C3.31875 11.2256 3.25625 11.2256 3.19375 11.1943C3.13125 11.1631 3.1 11.1318 3.13125 11.0693ZM4.13125 12.1943C4.19375 12.1318 4.2875 12.1631 4.35 12.2256C4.4125 12.2881 4.4125 12.3818 4.38125 12.4131C4.35 12.4756 4.25625 12.4443 4.19375 12.3818C4.1 12.3193 4.1 12.2256 4.13125 12.1943ZM3.7875 11.7256C3.85 11.6943 3.9125 11.7256 3.975 11.7881C4.00625 11.8506 4.00625 11.9443 3.975 11.9756C3.9125 12.0068 3.85 11.9756 3.7875 11.9131C3.725 11.8506 3.725 11.7568 3.7875 11.7256Z" fill="#97AFD5"/>
</svg>
