<svg width="17" height="14" viewBox="0 0 17 14" fill="none" xmlns="http://www.w3.org/2000/svg">
<path d="M14.5375 4.03809C14.5375 4.19434 14.5375 4.31934 14.5375 4.47559C14.5375 8.81934 11.2563 13.7881 5.225 13.7881C3.35 13.7881 1.63125 13.2568 0.19375 12.3193C0.44375 12.3506 0.69375 12.3818 0.975 12.3818C2.50625 12.3818 3.9125 11.8506 5.0375 10.9756C3.6 10.9443 2.38125 10.0068 1.975 8.69434C2.19375 8.72559 2.38125 8.75684 2.6 8.75684C2.88125 8.75684 3.19375 8.69434 3.44375 8.63184C1.94375 8.31934 0.81875 7.00684 0.81875 5.41309V5.38184C1.25625 5.63184 1.7875 5.75684 2.31875 5.78809C1.4125 5.19434 0.85 4.19434 0.85 3.06934C0.85 2.44434 1.00625 1.88184 1.2875 1.41309C2.9125 3.38184 5.35 4.69434 8.06875 4.85059C8.00625 4.60059 7.975 4.35059 7.975 4.10059C7.975 2.28809 9.44375 0.819336 11.2563 0.819336C12.1938 0.819336 13.0375 1.19434 13.6625 1.85059C14.3813 1.69434 15.1 1.41309 15.725 1.03809C15.475 1.81934 14.975 2.44434 14.2875 2.85059C14.9438 2.78809 15.6 2.60059 16.1625 2.35059C15.725 3.00684 15.1625 3.56934 14.5375 4.03809Z" fill="#97AFD5"/>
</svg>
