<svg width="18" height="13" viewBox="0 0 18 13" fill="none" xmlns="http://www.w3.org/2000/svg">
<path d="M17.35 2.19434C17.725 3.50684 17.725 6.31934 17.725 6.31934C17.725 6.31934 17.725 9.10059 17.35 10.4443C17.1625 11.1943 16.5688 11.7568 15.85 11.9443C14.5063 12.2881 9.19375 12.2881 9.19375 12.2881C9.19375 12.2881 3.85 12.2881 2.50625 11.9443C1.7875 11.7568 1.19375 11.1943 1.00625 10.4443C0.63125 9.10059 0.63125 6.31934 0.63125 6.31934C0.63125 6.31934 0.63125 3.50684 1.00625 2.19434C1.19375 1.44434 1.7875 0.850586 2.50625 0.663086C3.85 0.288086 9.19375 0.288086 9.19375 0.288086C9.19375 0.288086 14.5063 0.288086 15.85 0.663086C16.5688 0.850586 17.1625 1.44434 17.35 2.19434ZM7.44375 8.85059L11.8813 6.31934L7.44375 3.78809V8.85059Z" fill="#97AFD5"/>
</svg>
