<svg width="16" height="13" viewBox="0 0 16 13" fill="none" xmlns="http://www.w3.org/2000/svg">
<path d="M2.4125 2.75684C2.44375 2.56934 2.35 2.38184 2.225 2.25684L0.81875 0.569336V0.288086H5.19375L8.56875 7.72559L11.5688 0.288086H15.725V0.569336L14.5375 1.72559C14.4438 1.78809 14.3813 1.91309 14.4125 2.03809V10.5381C14.3813 10.6631 14.4438 10.8193 14.5375 10.8818L15.725 12.0381V12.2881H9.7875V12.0381L11.0063 10.8506C11.1313 10.7256 11.1313 10.6943 11.1313 10.5068V3.66309L7.725 12.2881H7.25625L3.31875 3.66309V9.44434C3.2875 9.66309 3.35 9.91309 3.5375 10.1006L5.13125 12.0068V12.2568H0.63125V12.0068L2.225 10.1006C2.38125 9.91309 2.44375 9.66309 2.4125 9.44434V2.75684Z" fill="#97AFD5"/>
</svg>
