<svg width="17" height="79" viewBox="0 0 17 79" fill="none" xmlns="http://www.w3.org/2000/svg">
<path d="M9.35804 0.647334C9.16526 0.451613 8.84868 0.450844 8.65094 0.645616L5.42855 3.81961C5.23081 4.01438 5.22679 4.33094 5.41957 4.52666C5.61235 4.72238 5.92893 4.72315 6.12667 4.52838L8.99102 1.70705L11.7835 4.54212C11.9763 4.73784 12.2929 4.73861 12.4906 4.54384C12.6884 4.34907 12.6924 4.03251 12.4996 3.83679L9.35804 0.647334ZM7.66383 78.3529C7.85661 78.5486 8.17319 78.5494 8.37094 78.3546L11.5933 75.1806C11.7911 74.9858 11.7951 74.6693 11.6023 74.4736C11.4095 74.2778 11.0929 74.2771 10.8952 74.4718L8.03086 77.2932L5.23836 74.4581C5.04558 74.2624 4.729 74.2616 4.53126 74.4564C4.33352 74.6512 4.3295 74.9677 4.52228 75.1634L7.66383 78.3529ZM8.45925 4.20713C8.45574 4.48325 8.67675 4.70763 8.95289 4.7083C9.22904 4.70897 9.45574 4.48568 9.45924 4.20956L8.45925 4.20713ZM9.37773 10.6262C9.38124 10.3501 9.16023 10.1257 8.88409 10.1251C8.60794 10.1244 8.38124 10.3477 8.37774 10.6238L9.37773 10.6262ZM8.29623 17.0405C8.29272 17.3166 8.51373 17.541 8.78987 17.5417C9.06601 17.5423 9.29271 17.319 9.29622 17.0429L8.29623 17.0405ZM9.21471 23.4596C9.21822 23.1835 8.99721 22.9591 8.72106 22.9584C8.44492 22.9578 8.21822 23.1811 8.21471 23.4572L9.21471 23.4596ZM8.1332 29.8739C8.1297 30.15 8.35071 30.3744 8.62685 30.375C8.90299 30.3757 9.12969 30.1524 9.1332 29.8763L8.1332 29.8739ZM9.05169 36.293C9.0552 36.0169 8.83418 35.7925 8.55804 35.7918C8.2819 35.7911 8.0552 36.0144 8.05169 36.2906L9.05169 36.293ZM7.97018 42.7072C7.96668 42.9834 8.18769 43.2077 8.46383 43.2084C8.73997 43.2091 8.96667 42.9858 8.97018 42.7097L7.97018 42.7072ZM8.88867 49.1264C8.89218 48.8502 8.67116 48.6258 8.39502 48.6252C8.11888 48.6245 7.89218 48.8478 7.88867 49.1239L8.88867 49.1264ZM7.80716 55.5406C7.80365 55.8167 8.02467 56.0411 8.30081 56.0418C8.57695 56.0425 8.80365 55.8192 8.80716 55.543L7.80716 55.5406ZM8.72565 61.9597C8.72916 61.6836 8.50814 61.4592 8.232 61.4585C7.95586 61.4579 7.72916 61.6812 7.72565 61.9573L8.72565 61.9597ZM7.64414 68.374C7.64063 68.6501 7.86165 68.8745 8.13779 68.8751C8.41393 68.8758 8.64063 68.6525 8.64414 68.3764L7.64414 68.374ZM8.56263 74.7931C8.56614 74.517 8.34512 74.2926 8.06898 74.2919C7.79284 74.2912 7.56614 74.5145 7.56263 74.7907L8.56263 74.7931ZM8.5 0.998785L8.45925 4.20713L9.45924 4.20956L9.5 1.00121L8.5 0.998785ZM8.37774 10.6238L8.29623 17.0405L9.29622 17.0429L9.37773 10.6262L8.37774 10.6238ZM8.21471 23.4572L8.1332 29.8739L9.1332 29.8763L9.21471 23.4596L8.21471 23.4572ZM8.05169 36.2906L7.97018 42.7072L8.97018 42.7097L9.05169 36.293L8.05169 36.2906ZM7.88867 49.1239L7.80716 55.5406L8.80716 55.543L8.88867 49.1264L7.88867 49.1239ZM7.72565 61.9573L7.64414 68.374L8.64414 68.3764L8.72565 61.9597L7.72565 61.9573ZM7.56263 74.7907L7.52188 77.999L8.52187 78.0014L8.56263 74.7931L7.56263 74.7907ZM9.71609 0.294668C9.33052 -0.0967734 8.69736 -0.0983118 8.30188 0.291232L1.8571 6.63922C1.46162 7.02876 1.45357 7.66188 1.83914 8.05332C2.2247 8.44476 2.85786 8.4463 3.25335 8.05675L8.98204 2.4141L14.567 8.08424C14.9526 8.47568 15.5857 8.47722 15.9812 8.08768C16.3767 7.69813 16.3848 7.06502 15.9992 6.67358L9.71609 0.294668ZM7.30579 78.7056C7.69135 79.097 8.32451 79.0985 8.72 78.709L15.1648 72.361C15.5603 71.9715 15.5683 71.3383 15.1827 70.9469C14.7972 70.5555 14.164 70.5539 13.7685 70.9435L8.03984 76.5861L2.45485 70.916C2.06929 70.5245 1.43613 70.523 1.04064 70.9125C0.64516 71.3021 0.637117 71.9352 1.02268 72.3266L7.30579 78.7056ZM7.95925 4.20591C7.95223 4.75815 8.39426 5.20692 8.94654 5.20826C9.49883 5.2096 9.95223 4.76301 9.95924 4.21077L7.95925 4.20591ZM9.87773 10.6275C9.88475 10.0752 9.44272 9.62645 8.89044 9.62511C8.33815 9.62377 7.88475 10.0704 7.87774 10.6226L9.87773 10.6275ZM7.79623 17.0393C7.78921 17.5915 8.23124 18.0403 8.78352 18.0416C9.33581 18.043 9.78921 17.5964 9.79622 17.0441L7.79623 17.0393ZM9.71471 23.4608C9.72173 22.9086 9.2797 22.4598 8.72742 22.4585C8.17513 22.4571 7.72173 22.9037 7.71472 23.456L9.71471 23.4608ZM7.63321 29.8727C7.62619 30.4249 8.06822 30.8737 8.6205 30.875C9.17278 30.8763 9.62618 30.4298 9.6332 29.8775L7.63321 29.8727ZM9.55169 36.2942C9.5587 35.742 9.11668 35.2932 8.56439 35.2918C8.01211 35.2905 7.55871 35.7371 7.5517 36.2893L9.55169 36.2942ZM7.47018 42.706C7.46317 43.2583 7.9052 43.707 8.45748 43.7084C9.00976 43.7097 9.46316 43.2631 9.47018 42.7109L7.47018 42.706ZM9.38867 49.1276C9.39568 48.5753 8.95366 48.1266 8.40137 48.1252C7.84909 48.1239 7.39569 48.5705 7.38867 49.1227L9.38867 49.1276ZM7.30716 55.5394C7.30015 56.0916 7.74218 56.5404 8.29446 56.5417C8.84674 56.5431 9.30014 56.0965 9.30716 55.5443L7.30716 55.5394ZM9.22565 61.9609C9.23266 61.4087 8.79064 60.9599 8.23835 60.9586C7.68607 60.9572 7.23267 61.4038 7.22565 61.9561L9.22565 61.9609ZM7.14414 68.3728C7.13713 68.925 7.57916 69.3738 8.13144 69.3751C8.68372 69.3765 9.13712 68.9299 9.14414 68.3776L7.14414 68.3728ZM9.06263 74.7943C9.06964 74.2421 8.62761 73.7933 8.07533 73.792C7.52305 73.7906 7.06965 74.2372 7.06263 74.7894L9.06263 74.7943ZM8 0.99757L7.95925 4.20591L9.95924 4.21077L10 1.00243L8 0.99757ZM7.87774 10.6226L7.79623 17.0393L9.79622 17.0441L9.87773 10.6275L7.87774 10.6226ZM7.71472 23.456L7.63321 29.8727L9.6332 29.8775L9.71471 23.4608L7.71472 23.456ZM7.5517 36.2893L7.47018 42.706L9.47018 42.7109L9.55169 36.2942L7.5517 36.2893ZM7.38867 49.1227L7.30716 55.5394L9.30716 55.5443L9.38867 49.1276L7.38867 49.1227ZM7.22565 61.9561L7.14414 68.3728L9.14414 68.3776L9.22565 61.9609L7.22565 61.9561ZM7.06263 74.7894L7.02188 77.9978L9.02187 78.0027L9.06263 74.7943L7.06263 74.7894Z" fill="#F2F2F2"/>
</svg>
