<svg width="469" height="79" viewBox="0 0 469 79" fill="none" xmlns="http://www.w3.org/2000/svg">
<path fill-rule="evenodd" clip-rule="evenodd" d="M460.294 75.7147C460.684 76.101 461.318 76.0942 461.708 75.6996L468.072 69.2684C468.463 68.8738 468.463 68.2407 468.072 67.8544C467.682 67.4681 467.048 67.4749 466.658 67.8695L462.001 72.5756V71.7082C462.001 71.156 461.553 70.7131 461.001 70.719C460.448 70.7249 460.001 71.1774 460.001 71.7296L460.001 72.597L455.343 67.9906C454.953 67.6043 454.32 67.6111 453.929 68.0057C453.538 68.4004 453.538 69.0334 453.929 69.4197L460.294 75.7147ZM460 65.1671C460 65.7193 460.448 66.1621 461.001 66.1562C461.553 66.1503 462.001 65.6979 462.001 65.1457L462 58.5832C462 58.031 461.553 57.5881 461 57.594C460.448 57.5999 460 58.0524 460 58.6046L460 65.1671ZM460 52.0421C460 52.5943 460.448 53.0371 461 53.0312C461.552 53.0253 462 52.5729 462 52.0207L462 45.4581C462 44.9059 461.552 44.4631 461 44.469C460.448 44.4749 460 44.9273 460 45.4795L460 52.0421ZM460 38.917C460 39.4692 460.447 39.9121 461 39.9062C461.552 39.9003 462 39.4478 462 38.8956L462 32.3331C462 31.7809 461.552 31.3381 460.999 31.344C460.447 31.3499 459.999 31.8023 459.999 32.3545L460 38.917ZM459.999 25.792C459.999 26.3442 460.447 26.7871 460.999 26.7812C461.552 26.7753 461.999 26.3228 461.999 25.7706L461.999 22.4894L461.999 21.5001H461.01H457.983C457.431 21.5001 456.978 21.9478 456.973 22.5001C456.967 23.0523 457.41 23.5 457.962 23.5L459.999 23.5L459.999 25.792ZM451.909 23.5C452.462 23.5 452.914 23.0523 452.92 22.5001C452.926 21.9478 452.483 21.5001 451.931 21.5001H445.878C445.326 21.5001 444.873 21.9478 444.867 22.5001C444.861 23.0523 445.304 23.5 445.857 23.5H451.909ZM439.804 23.5C440.356 23.5 440.809 23.0523 440.815 22.5001C440.821 21.9478 440.378 21.5001 439.825 21.5001L433.773 21.5001C433.22 21.5001 432.768 21.9478 432.762 22.5001C432.756 23.0523 433.199 23.5 433.751 23.5H439.804ZM427.699 23.5C428.251 23.5 428.704 23.0523 428.709 22.5001C428.715 21.9478 428.272 21.5001 427.72 21.5001H421.668C421.115 21.5001 420.663 21.9478 420.657 22.5001C420.651 23.0523 421.094 23.5 421.646 23.5L427.699 23.5ZM415.594 23.5C416.146 23.5 416.598 23.0523 416.604 22.5001C416.61 21.9478 416.167 21.5001 415.615 21.5001H409.562C409.01 21.5001 408.557 21.9478 408.552 22.5001C408.546 23.0523 408.989 23.5 409.541 23.5H415.594ZM403.488 23.5C404.041 23.5 404.493 23.0523 404.499 22.5001C404.505 21.9478 404.062 21.5001 403.51 21.5001H397.457C396.905 21.5001 396.452 21.9478 396.446 22.5001C396.44 23.0523 396.883 23.5 397.436 23.5L403.488 23.5ZM391.383 23.5C391.935 23.5 392.388 23.0523 392.394 22.5001C392.4 21.9478 391.957 21.5001 391.404 21.5001H385.352C384.8 21.5001 384.347 21.9478 384.341 22.5001C384.335 23.0523 384.778 23.5 385.331 23.5H391.383ZM379.278 23.5C379.83 23.5 380.283 23.0523 380.289 22.5001C380.294 21.9478 379.852 21.5001 379.299 21.5001L373.247 21.5001C372.694 21.5001 372.242 21.9478 372.236 22.5001C372.23 23.0523 372.673 23.5 373.225 23.5H379.278ZM367.173 23.5C367.725 23.5 368.177 23.0523 368.183 22.5001C368.189 21.9478 367.746 21.5001 367.194 21.5001H361.141C360.589 21.5001 360.137 21.9478 360.131 22.5001C360.125 23.0523 360.568 23.5 361.12 23.5L367.173 23.5ZM355.067 23.5C355.62 23.5 356.072 23.0523 356.078 22.5001C356.084 21.9478 355.641 21.5001 355.089 21.5001H349.036C348.484 21.5001 348.031 21.9478 348.025 22.5001C348.02 23.0523 348.462 23.5 349.015 23.5H355.067ZM342.962 23.5C343.514 23.5 343.967 23.0523 343.973 22.5001C343.979 21.9478 343.536 21.5001 342.984 21.5001H336.931C336.379 21.5001 335.926 21.9478 335.92 22.5001C335.914 23.0523 336.357 23.5 336.91 23.5L342.962 23.5ZM330.857 23.5C331.409 23.5 331.862 23.0523 331.868 22.5001C331.874 21.9478 331.431 21.5001 330.878 21.5001H324.826C324.273 21.5001 323.821 21.9478 323.815 22.5001C323.809 23.0523 324.252 23.5 324.804 23.5H330.857ZM318.752 23.5C319.304 23.5 319.757 23.0523 319.762 22.5001C319.768 21.9478 319.325 21.5001 318.773 21.5001L312.72 21.5001C312.168 21.5001 311.716 21.9478 311.71 22.5001C311.704 23.0523 312.147 23.5 312.699 23.5H318.752ZM306.647 23.5C307.199 23.5 307.651 23.0523 307.657 22.5001C307.663 21.9478 307.22 21.5001 306.668 21.5001H300.615C300.063 21.5001 299.61 21.9478 299.605 22.5001C299.599 23.0523 300.042 23.5 300.594 23.5L306.647 23.5ZM294.541 23.5C295.094 23.5 295.546 23.0523 295.552 22.5001C295.558 21.9478 295.115 21.5001 294.563 21.5001H288.51C287.958 21.5001 287.505 21.9478 287.499 22.5001C287.493 23.0523 287.936 23.5 288.489 23.5H294.541ZM282.436 23.5C282.988 23.5 283.441 23.0523 283.447 22.5001C283.453 21.9478 283.01 21.5001 282.457 21.5001H276.405C275.852 21.5001 275.4 21.9478 275.394 22.5001C275.388 23.0523 275.831 23.5 276.383 23.5L282.436 23.5ZM270.331 23.5C270.883 23.5 271.336 23.0523 271.342 22.5001C271.347 21.9478 270.904 21.5001 270.352 21.5001H264.3C263.747 21.5001 263.295 21.9478 263.289 22.5001C263.283 23.0523 263.726 23.5 264.278 23.5H270.331ZM258.226 23.5C258.778 23.5 259.23 23.0523 259.236 22.5001C259.242 21.9478 258.799 21.5001 258.247 21.5001L252.194 21.5001C251.642 21.5001 251.19 21.9478 251.184 22.5001C251.178 23.0523 251.621 23.5 252.173 23.5H258.226ZM246.12 23.5C246.673 23.5 247.125 23.0523 247.131 22.5001C247.137 21.9478 246.694 21.5001 246.142 21.5001H240.089C239.537 21.5001 239.084 21.9478 239.078 22.5001C239.073 23.0523 239.515 23.5 240.068 23.5L246.12 23.5ZM234.015 23.5C234.567 23.5 235.02 23.0523 235.026 22.5001C235.032 21.9478 234.589 21.5001 234.036 21.5001H227.984C227.432 21.5001 226.979 21.9478 226.973 22.5001C226.967 23.0523 227.41 23.5 227.963 23.5H234.015ZM221.91 23.5C222.462 23.5 222.915 23.0523 222.921 22.5001C222.927 21.9478 222.484 21.5001 221.931 21.5001H215.879C215.326 21.5001 214.874 21.9478 214.868 22.5001C214.862 23.0523 215.305 23.5 215.857 23.5L221.91 23.5ZM209.805 23.5C210.357 23.5 210.81 23.0523 210.815 22.5001C210.821 21.9478 210.378 21.5001 209.826 21.5001H203.773C203.221 21.5001 202.769 21.9478 202.763 22.5001C202.757 23.0523 203.2 23.5 203.752 23.5H209.805ZM197.699 23.5C198.252 23.5 198.704 23.0523 198.71 22.5001C198.716 21.9478 198.273 21.5001 197.721 21.5001L191.668 21.5001C191.116 21.5001 190.663 21.9478 190.658 22.5001C190.654 22.8014 190.785 23.0716 190.994 23.2549L190.949 25.7484C190.939 26.3006 191.378 26.749 191.931 26.75C192.483 26.7509 192.939 26.304 192.949 25.7518L192.989 23.5H197.699ZM185.594 23.5C186.147 23.5 186.599 23.0523 186.605 22.5001C186.611 21.9478 186.168 21.5001 185.616 21.5001H179.563C179.011 21.5001 178.558 21.9478 178.552 22.5001C178.546 23.0523 178.989 23.5 179.542 23.5L185.594 23.5ZM173.489 23.5C174.041 23.5 174.494 23.0523 174.5 22.5001C174.506 21.9478 174.063 21.5001 173.51 21.5001H167.458C166.905 21.5001 166.453 21.9478 166.447 22.5001C166.441 23.0523 166.884 23.5 167.436 23.5H173.489ZM161.384 23.5C161.936 23.5 162.389 23.0523 162.395 22.5001C162.4 21.9478 161.957 21.5001 161.405 21.5001H155.353C154.8 21.5001 154.348 21.9478 154.342 22.5001C154.336 23.0523 154.779 23.5 155.331 23.5L161.384 23.5ZM149.279 23.5C149.831 23.5 150.283 23.0523 150.289 22.5001C150.295 21.9478 149.852 21.5001 149.3 21.5001H143.247C142.695 21.5001 142.243 21.9478 142.237 22.5001C142.231 23.0523 142.674 23.5 143.226 23.5H149.279ZM137.173 23.5C137.726 23.5 138.178 23.0523 138.184 22.5001C138.19 21.9478 137.747 21.5001 137.195 21.5001L131.142 21.5001C130.59 21.5001 130.137 21.9478 130.131 22.5001C130.126 23.0523 130.568 23.5 131.121 23.5H137.173ZM125.068 23.5C125.62 23.5 126.073 23.0523 126.079 22.5001C126.085 21.9478 125.642 21.5001 125.089 21.5001H119.037C118.485 21.5001 118.032 21.9478 118.026 22.5001C118.02 23.0523 118.463 23.5 119.016 23.5L125.068 23.5ZM112.963 23.5C113.515 23.5 113.968 23.0523 113.974 22.5001C113.979 21.9478 113.537 21.5001 112.984 21.5001H106.932C106.379 21.5001 105.927 21.9478 105.921 22.5001C105.915 23.0523 106.358 23.5 106.91 23.5H112.963ZM100.858 23.5C101.41 23.5 101.862 23.0523 101.868 22.5001C101.874 21.9478 101.431 21.5001 100.879 21.5001H94.8264C94.2741 21.5001 93.8216 21.9478 93.8157 22.5001C93.8098 23.0523 94.2527 23.5 94.805 23.5L100.858 23.5ZM88.7524 23.5C89.3047 23.5 89.7572 23.0523 89.7631 22.5001C89.769 21.9478 89.3261 21.5001 88.7737 21.5001H82.7211C82.1688 21.5001 81.7163 21.9478 81.7104 22.5001C81.7045 23.0523 82.1475 23.5 82.6998 23.5H88.7524ZM76.6472 23.5C77.1995 23.5 77.652 23.0523 77.6578 22.5001C77.6638 21.9478 77.2208 21.5001 76.6685 21.5001H70.6159C70.0636 21.5001 69.6111 21.9478 69.6052 22.5001C69.5993 23.0523 70.0422 23.5 70.5946 23.5H76.6472ZM64.5419 23.5C65.0942 23.5 65.5467 23.0523 65.5526 22.5001C65.5585 21.9478 65.1156 21.5001 64.5633 21.5001H58.5106C57.9584 21.5001 57.5058 21.9478 57.5 22.5001C57.494 23.0523 57.937 23.5 58.4893 23.5H64.5419ZM52.4367 23.5C52.989 23.5 53.4415 23.0523 53.4474 22.5001C53.4533 21.9478 53.0103 21.5001 52.458 21.5001H46.4054C45.8531 21.5001 45.4006 21.9478 45.3947 22.5001C45.3888 23.0523 45.8318 23.5 46.3841 23.5H52.4367ZM40.3314 23.5C40.8837 23.5 41.3362 23.0523 41.3421 22.5001C41.348 21.9478 40.9051 21.5001 40.3528 21.5001L34.3002 21.5001C33.7479 21.5001 33.2954 21.9478 33.2895 22.5001C33.2836 23.0523 33.7265 23.5 34.2788 23.5H40.3314ZM28.2262 23.5C28.7785 23.5 29.231 23.0523 29.2369 22.5001C29.2428 21.9478 28.7999 21.5001 28.2476 21.5001H22.1949C21.6426 21.5001 21.1901 21.9478 21.1842 22.5001C21.1783 23.0523 21.6213 23.5 22.1736 23.5H28.2262ZM16.121 23.5C16.6732 23.5 17.1258 23.0523 17.1317 22.5001C17.1376 21.9478 16.6946 21.5001 16.1423 21.5001H10.0897C9.53738 21.5001 9.08487 21.9478 9.07899 22.5001C9.0731 23.0523 9.51604 23.5 10.0684 23.5H16.121ZM4.01573 23.5C4.56802 23.5 5.02052 23.0523 5.02641 22.5001C5.0323 21.9478 4.58936 21.5001 4.03707 21.5001H2.00015L2.00016 19.8019C2.00016 19.2497 1.55243 18.8068 1.00009 18.8127C0.447752 18.8186 7.93564e-06 19.271 1.10434e-05 19.8232L8.98995e-06 22.5107L-9.28608e-06 23.5H0.989429L4.01573 23.5ZM1.52124e-05 14.4483C1.83325e-05 15.0005 0.447748 15.4433 1.00009 15.4375C1.55243 15.4316 2.00017 14.9791 2.00017 14.4269L2.00017 9.05196C2.00017 8.49975 1.55244 8.05687 1.0001 8.06276C0.447761 8.06866 1.62425e-05 8.52108 1.93565e-05 9.07329L1.52124e-05 14.4483ZM2.35006e-05 3.69832C2.66177e-05 4.25053 0.447757 4.69341 1.0001 4.68751C1.55243 4.68162 2.00018 4.2292 2.00017 3.67699L2.00018 0.989502L1.50015 0.994835L0.500048 1.0055L2.55742e-05 1.01083L2.35006e-05 3.69832ZM191.702 78.7084L198.18 72.3563C198.578 71.9665 198.589 71.3335 198.206 70.9424C197.822 70.5512 197.189 70.5501 196.792 70.9399L192.051 75.5881L192.057 75.2519C192.067 74.6997 191.627 74.2513 191.075 74.2503C190.523 74.2494 190.067 74.6963 190.057 75.2484L190.051 75.5846L185.478 70.9205C185.094 70.5294 184.461 70.5283 184.064 70.9181C183.666 71.3079 183.655 71.941 184.038 72.3321L190.288 78.7059C190.671 79.0971 191.304 79.0982 191.702 78.7084ZM192.85 31.2518C192.86 30.6996 192.42 30.2512 191.868 30.2503C191.315 30.2493 190.86 30.6962 190.85 31.2484L190.751 36.7484C190.741 37.3006 191.18 37.749 191.733 37.75C192.285 37.7509 192.741 37.304 192.751 36.7518L192.85 31.2518ZM192.651 42.2518C192.661 41.6996 192.222 41.2512 191.669 41.2503C191.117 41.2493 190.661 41.6962 190.651 42.2484L190.552 47.7484C190.542 48.3006 190.982 48.749 191.534 48.75C192.087 48.7509 192.542 48.304 192.552 47.7518L192.651 42.2518ZM192.453 53.2519C192.463 52.6997 192.024 52.2512 191.471 52.2503C190.919 52.2494 190.463 52.6962 190.453 53.2484L190.354 58.7484C190.344 59.3006 190.784 59.749 191.336 59.75C191.889 59.7509 192.344 59.3041 192.354 58.7519L192.453 53.2519ZM192.255 64.2519C192.265 63.6997 191.825 63.2513 191.273 63.2503C190.721 63.2494 190.265 63.6962 190.255 64.2484L190.156 69.7484C190.146 70.3006 190.586 70.749 191.138 70.75C191.69 70.7509 192.146 70.3041 192.156 69.7519L192.255 64.2519Z" fill="#BB6BD9"/>
</svg>
