<svg width="16" height="79" viewBox="0 0 16 79" fill="none" xmlns="http://www.w3.org/2000/svg">
<path d="M8.35804 0.647334C8.16526 0.451613 7.84868 0.450844 7.65094 0.645616L4.42855 3.81961C4.23081 4.01438 4.22679 4.33094 4.41957 4.52666C4.61235 4.72238 4.92893 4.72315 5.12667 4.52838L7.99102 1.70705L10.7835 4.54212C10.9763 4.73784 11.2929 4.73861 11.4906 4.54384C11.6884 4.34907 11.6924 4.03251 11.4996 3.83679L8.35804 0.647334ZM7.45925 4.20713C7.45574 4.48325 7.67675 4.70763 7.95289 4.7083C8.22904 4.70897 8.45574 4.48568 8.45924 4.20956L7.45925 4.20713ZM8.37773 10.6262C8.38124 10.3501 8.16023 10.1257 7.88409 10.1251C7.60794 10.1244 7.38124 10.3477 7.37774 10.6238L8.37773 10.6262ZM7.29623 17.0405C7.29272 17.3166 7.51373 17.541 7.78987 17.5417C8.06601 17.5423 8.29271 17.319 8.29622 17.0429L7.29623 17.0405ZM8.21471 23.4596C8.21822 23.1835 7.99721 22.9591 7.72106 22.9584C7.44492 22.9578 7.21822 23.1811 7.21471 23.4572L8.21471 23.4596ZM7.1332 29.8739C7.1297 30.15 7.35071 30.3744 7.62685 30.375C7.90299 30.3757 8.12969 30.1524 8.1332 29.8763L7.1332 29.8739ZM8.05169 36.293C8.0552 36.0169 7.83418 35.7925 7.55804 35.7918C7.2819 35.7911 7.0552 36.0144 7.05169 36.2906L8.05169 36.293ZM6.97018 42.7072C6.96668 42.9834 7.18769 43.2077 7.46383 43.2084C7.73997 43.2091 7.96667 42.9858 7.97018 42.7097L6.97018 42.7072ZM7.88867 49.1264C7.89218 48.8502 7.67116 48.6258 7.39502 48.6252C7.11888 48.6245 6.89218 48.8478 6.88867 49.1239L7.88867 49.1264ZM6.80716 55.5406C6.80365 55.8167 7.02467 56.0411 7.30081 56.0418C7.57695 56.0425 7.80365 55.8192 7.80716 55.543L6.80716 55.5406ZM7.72565 61.9597C7.72916 61.6836 7.50814 61.4592 7.232 61.4585C6.95586 61.4579 6.72916 61.6812 6.72565 61.9573L7.72565 61.9597ZM6.64414 68.374C6.64063 68.6501 6.86165 68.8745 7.13779 68.8751C7.41393 68.8758 7.64063 68.6525 7.64414 68.3764L6.64414 68.374ZM7.56263 74.7931C7.56614 74.517 7.34512 74.2926 7.06898 74.2919C6.79284 74.2912 6.56614 74.5145 6.56263 74.7907L7.56263 74.7931ZM7.5 0.998785L7.45925 4.20713L8.45924 4.20956L8.5 1.00121L7.5 0.998785ZM7.37774 10.6238L7.29623 17.0405L8.29622 17.0429L8.37773 10.6262L7.37774 10.6238ZM7.21471 23.4572L7.1332 29.8739L8.1332 29.8763L8.21471 23.4596L7.21471 23.4572ZM7.05169 36.2906L6.97018 42.7072L7.97018 42.7097L8.05169 36.293L7.05169 36.2906ZM6.88867 49.1239L6.80716 55.5406L7.80716 55.543L7.88867 49.1264L6.88867 49.1239ZM6.72565 61.9573L6.64414 68.374L7.64414 68.3764L7.72565 61.9597L6.72565 61.9573ZM6.56263 74.7907L6.52188 77.999L7.52187 78.0014L7.56263 74.7931L6.56263 74.7907ZM8.71609 0.294668C8.33052 -0.0967734 7.69736 -0.0983118 7.30188 0.291232L0.857101 6.63922C0.461617 7.02876 0.453575 7.66188 0.839137 8.05332C1.2247 8.44476 1.85786 8.4463 2.25335 8.05675L7.98204 2.4141L13.567 8.08424C13.9526 8.47568 14.5857 8.47722 14.9812 8.08768C15.3767 7.69813 15.3848 7.06502 14.9992 6.67358L8.71609 0.294668ZM6.95925 4.20591C6.95223 4.75815 7.39426 5.20692 7.94654 5.20826C8.49883 5.2096 8.95223 4.76301 8.95924 4.21077L6.95925 4.20591ZM8.87773 10.6275C8.88475 10.0752 8.44272 9.62645 7.89044 9.62511C7.33815 9.62377 6.88475 10.0704 6.87774 10.6226L8.87773 10.6275ZM6.79623 17.0393C6.78921 17.5915 7.23124 18.0403 7.78352 18.0416C8.33581 18.043 8.78921 17.5964 8.79622 17.0441L6.79623 17.0393ZM8.71471 23.4608C8.72173 22.9086 8.2797 22.4598 7.72742 22.4585C7.17513 22.4571 6.72173 22.9037 6.71472 23.456L8.71471 23.4608ZM6.63321 29.8727C6.62619 30.4249 7.06822 30.8737 7.6205 30.875C8.17278 30.8763 8.62618 30.4298 8.6332 29.8775L6.63321 29.8727ZM8.55169 36.2942C8.5587 35.742 8.11668 35.2932 7.56439 35.2918C7.01211 35.2905 6.55871 35.7371 6.5517 36.2893L8.55169 36.2942ZM6.47018 42.706C6.46317 43.2583 6.9052 43.707 7.45748 43.7084C8.00976 43.7097 8.46316 43.2631 8.47018 42.7109L6.47018 42.706ZM8.38867 49.1276C8.39568 48.5753 7.95366 48.1266 7.40137 48.1252C6.84909 48.1239 6.39569 48.5705 6.38867 49.1227L8.38867 49.1276ZM6.30716 55.5394C6.30015 56.0916 6.74218 56.5404 7.29446 56.5417C7.84674 56.5431 8.30014 56.0965 8.30716 55.5443L6.30716 55.5394ZM8.22565 61.9609C8.23266 61.4087 7.79064 60.9599 7.23835 60.9586C6.68607 60.9572 6.23267 61.4038 6.22565 61.9561L8.22565 61.9609ZM6.14414 68.3728C6.13713 68.925 6.57916 69.3738 7.13144 69.3751C7.68372 69.3765 8.13712 68.9299 8.14414 68.3776L6.14414 68.3728ZM8.06263 74.7943C8.06964 74.2421 7.62761 73.7933 7.07533 73.792C6.52305 73.7906 6.06965 74.2372 6.06263 74.7894L8.06263 74.7943ZM7 0.99757L6.95925 4.20591L8.95924 4.21077L9 1.00243L7 0.99757ZM6.87774 10.6226L6.79623 17.0393L8.79622 17.0441L8.87773 10.6275L6.87774 10.6226ZM6.71472 23.456L6.63321 29.8727L8.6332 29.8775L8.71471 23.4608L6.71472 23.456ZM6.5517 36.2893L6.47018 42.706L8.47018 42.7109L8.55169 36.2942L6.5517 36.2893ZM6.38867 49.1227L6.30716 55.5394L8.30716 55.5443L8.38867 49.1276L6.38867 49.1227ZM6.22565 61.9561L6.14414 68.3728L8.14414 68.3776L8.22565 61.9609L6.22565 61.9561ZM6.06263 74.7894L6.02188 77.9978L8.02187 78.0027L8.06263 74.7943L6.06263 74.7894Z" fill="#F2F2F2"/>
</svg>
