<svg width="16" height="78" viewBox="0 0 16 78" fill="none" xmlns="http://www.w3.org/2000/svg">
<path d="M7.65101 77.3527C7.84373 77.5485 8.16031 77.5492 8.35812 77.3544L11.5816 74.1802C11.7794 73.9855 11.7835 73.6689 11.5908 73.4732C11.3981 73.2775 11.0815 73.2767 10.8837 73.4715L8.01839 76.293L5.22684 73.4581C5.03413 73.2624 4.71755 73.2617 4.51974 73.4565C4.32193 73.6512 4.3178 73.9678 4.51052 74.1635L7.65101 77.3527ZM8.45872 4.16549C8.45512 4.4416 8.67606 4.66597 8.9522 4.66663C9.22834 4.66728 9.45511 4.44397 9.45871 4.16785L8.45872 4.16549ZM9.37615 10.5012C9.37975 10.2251 9.15881 10.0007 8.88266 10C8.60652 9.9994 8.37975 10.2227 8.37615 10.4988L9.37615 10.5012ZM8.29358 16.8322C8.28998 17.1083 8.51092 17.3326 8.78706 17.3333C9.0632 17.334 9.28998 17.1106 9.29358 16.8345L8.29358 16.8322ZM9.21101 23.1679C9.21461 22.8917 8.99367 22.6674 8.71753 22.6667C8.44139 22.6661 8.21461 22.8894 8.21101 23.1655L9.21101 23.1679ZM8.12844 29.4988C8.12484 29.775 8.34578 29.9993 8.62192 30C8.89806 30.0006 9.12484 29.7773 9.12844 29.5012L8.12844 29.4988ZM9.04587 35.8345C9.04947 35.5584 8.82853 35.3341 8.55239 35.3334C8.27625 35.3327 8.04947 35.5561 8.04587 35.8322L9.04587 35.8345ZM7.9633 42.1655C7.9597 42.4416 8.18064 42.666 8.45678 42.6667C8.73293 42.6673 8.9597 42.444 8.9633 42.1679L7.9633 42.1655ZM8.88073 48.5012C8.88433 48.2251 8.66339 48.0007 8.38725 48.0001C8.11111 47.9994 7.88433 48.2227 7.88073 48.4989L8.88073 48.5012ZM7.79817 54.8322C7.79457 55.1083 8.0155 55.3327 8.29165 55.3333C8.56779 55.334 8.79456 55.1107 8.79816 54.8346L7.79817 54.8322ZM8.71559 61.1679C8.71919 60.8918 8.49826 60.6674 8.22211 60.6668C7.94597 60.6661 7.7192 60.8894 7.7156 61.1655L8.71559 61.1679ZM7.63303 67.4989C7.62943 67.775 7.85037 67.9994 8.12651 68C8.40265 68.0007 8.62943 67.7774 8.63303 67.5012L7.63303 67.4989ZM8.55046 73.8346C8.55406 73.5585 8.33312 73.3341 8.05698 73.3334C7.78083 73.3328 7.55406 73.5561 7.55046 73.8322L8.55046 73.8346ZM8.5 0.998816L8.45872 4.16549L9.45871 4.16785L9.5 1.00118L8.5 0.998816ZM8.37615 10.4988L8.29358 16.8322L9.29358 16.8345L9.37615 10.5012L8.37615 10.4988ZM8.21101 23.1655L8.12844 29.4988L9.12844 29.5012L9.21101 23.1679L8.21101 23.1655ZM8.04587 35.8322L7.9633 42.1655L8.9633 42.1679L9.04587 35.8345L8.04587 35.8322ZM7.88073 48.4989L7.79817 54.8322L8.79816 54.8346L8.88073 48.5012L7.88073 48.4989ZM7.7156 61.1655L7.63303 67.4989L8.63303 67.5012L8.71559 61.1679L7.7156 61.1655ZM7.55046 73.8322L7.50917 76.9989L8.50917 77.0012L8.55046 73.8346L7.55046 73.8322ZM7.29285 77.7054C7.67828 78.0969 8.31145 78.0983 8.70706 77.7088L15.154 71.3604C15.5496 70.9709 15.5578 70.3377 15.1724 69.9463C14.787 69.5549 14.1538 69.5534 13.7582 69.943L8.02761 75.586L2.44451 69.9162C2.05908 69.5248 1.42592 69.5233 1.0303 69.9129C0.63469 70.3024 0.626436 70.9355 1.01187 71.3269L7.29285 77.7054ZM7.95872 4.1643C7.95152 4.71654 8.3934 5.16528 8.94568 5.16658C9.49796 5.16789 9.95151 4.72127 9.95871 4.16904L7.95872 4.1643ZM9.87614 10.5024C9.88334 9.95014 9.44147 9.5014 8.88918 9.50009C8.3369 9.49878 7.88335 9.9454 7.87615 10.4976L9.87614 10.5024ZM7.79358 16.831C7.78638 17.3832 8.22826 17.832 8.78054 17.8333C9.33282 17.8346 9.78638 17.3879 9.79358 16.8357L7.79358 16.831ZM9.71101 23.1691C9.71821 22.6168 9.27633 22.1681 8.72405 22.1668C8.17176 22.1655 7.71821 22.6121 7.71101 23.1643L9.71101 23.1691ZM7.62844 29.4977C7.62124 30.0499 8.06312 30.4986 8.6154 30.4999C9.16769 30.5012 9.62124 30.0546 9.62844 29.5024L7.62844 29.4977ZM9.54587 35.8357C9.55307 35.2835 9.11119 34.8348 8.55891 34.8334C8.00662 34.8321 7.55307 35.2788 7.54587 35.831L9.54587 35.8357ZM7.46331 42.1643C7.45611 42.7166 7.89798 43.1653 8.45027 43.1666C9.00255 43.1679 9.4561 42.7213 9.4633 42.1691L7.46331 42.1643ZM9.38073 48.5024C9.38793 47.9502 8.94605 47.5014 8.39377 47.5001C7.84149 47.4988 7.38794 47.9454 7.38074 48.4977L9.38073 48.5024ZM7.29817 54.831C7.29097 55.3832 7.73285 55.832 8.28513 55.8333C8.83741 55.8346 9.29096 55.388 9.29816 54.8357L7.29817 54.831ZM9.21559 61.1691C9.22279 60.6168 8.78091 60.1681 8.22863 60.1668C7.67635 60.1655 7.2228 60.6121 7.2156 61.1644L9.21559 61.1691ZM7.13303 67.4977C7.12583 68.0499 7.56771 68.4987 8.11999 68.5C8.67227 68.5013 9.12582 68.0547 9.13302 67.5024L7.13303 67.4977ZM9.05046 73.8358C9.05765 73.2835 8.61578 72.8348 8.06349 72.8335C7.51121 72.8322 7.05766 73.2788 7.05046 73.831L9.05046 73.8358ZM8 0.997633L7.95872 4.1643L9.95871 4.16904L10 1.00237L8 0.997633ZM7.87615 10.4976L7.79358 16.831L9.79358 16.8357L9.87614 10.5024L7.87615 10.4976ZM7.71101 23.1643L7.62844 29.4977L9.62844 29.5024L9.71101 23.1691L7.71101 23.1643ZM7.54587 35.831L7.46331 42.1643L9.4633 42.1691L9.54587 35.8357L7.54587 35.831ZM7.38074 48.4977L7.29817 54.831L9.29816 54.8357L9.38073 48.5024L7.38074 48.4977ZM7.2156 61.1644L7.13303 67.4977L9.13302 67.5024L9.21559 61.1691L7.2156 61.1644ZM7.05046 73.831L7.00918 76.9977L9.00917 77.0024L9.05046 73.8358L7.05046 73.831Z" fill="#BB6BD9"/>
</svg>
