<svg width="25" height="863" viewBox="0 0 25 863" fill="none" xmlns="http://www.w3.org/2000/svg">
<path d="M1.49968 862.001L1.50884 862.5L0.999214 862.5L0.999581 861.991L1.49968 862.001ZM23.4612 7.55952C23.6601 7.75473 23.6659 8.07125 23.4742 8.26648L20.3504 11.448C20.1587 11.6432 19.8421 11.6433 19.6433 11.448C19.4444 11.2528 19.4386 10.9363 19.6303 10.7411L22.407 7.91305L19.5267 5.08533C19.3278 4.89011 19.322 4.57359 19.5137 4.37836C19.7054 4.18312 20.022 4.18311 20.2209 4.37832L23.4612 7.55952ZM2.113 7.91411L1.6129 7.90462L1.61325 7.41423L2.10384 7.41421L2.113 7.91411ZM20.4981 8.41306C20.222 8.41307 19.994 8.18927 19.989 7.91318C19.9839 7.63709 20.2037 7.41327 20.4798 7.41325L20.4981 8.41306ZM15.2295 7.41353C15.5057 7.41351 15.7337 7.63731 15.7387 7.9134C15.7438 8.18949 15.524 8.41332 15.2479 8.41333L15.2295 7.41353ZM9.99758 8.4136C9.72143 8.41362 9.49347 8.18982 9.48841 7.91373C9.48335 7.63764 9.70312 7.41381 9.97927 7.4138L9.99758 8.4136ZM4.72898 7.41407C5.00513 7.41406 5.2331 7.63786 5.23815 7.91395C5.24321 8.19004 5.02345 8.41386 4.7473 8.41388L4.72898 7.41407ZM2.61094 10.9309C2.61074 11.207 2.38668 11.4265 2.11048 11.4213C1.83428 11.416 1.61054 11.188 1.61074 10.912L2.61094 10.9309ZM1.60642 16.9267C1.60662 16.6506 1.83068 16.4311 2.10688 16.4363C2.38308 16.4416 2.60682 16.6696 2.60662 16.9456L1.60642 16.9267ZM2.6023 22.9603C2.6021 23.2364 2.37804 23.4559 2.10184 23.4507C1.82565 23.4454 1.60191 23.2174 1.60211 22.9414L2.6023 22.9603ZM1.59779 28.9561C1.59798 28.68 1.82205 28.4605 2.09824 28.4657C2.37444 28.471 2.59818 28.699 2.59798 28.975L1.59779 28.9561ZM2.59366 34.9897C2.59346 35.2658 2.3694 35.4853 2.09321 35.48C1.81701 35.4748 1.59327 35.2468 1.59347 34.9707L2.59366 34.9897ZM1.58915 40.9854C1.58935 40.7094 1.81341 40.4899 2.0896 40.4951C2.3658 40.5004 2.58954 40.7284 2.58934 41.0044L1.58915 40.9854ZM2.58502 47.0191C2.58482 47.2951 2.36076 47.5147 2.08457 47.5094C1.80837 47.5042 1.58463 47.2762 1.58483 47.0001L2.58502 47.0191ZM1.58051 53.0148C1.58071 52.7388 1.80477 52.5193 2.08097 52.5245C2.35716 52.5297 2.5809 52.7578 2.5807 53.0338L1.58051 53.0148ZM2.57639 59.0485C2.57619 59.3245 2.35212 59.5441 2.07593 59.5388C1.79973 59.5336 1.57599 59.3056 1.57619 59.0295L2.57639 59.0485ZM1.57187 65.0442C1.57207 64.7682 1.79613 64.5486 2.07233 64.5539C2.34852 64.5591 2.57226 64.7871 2.57207 65.0632L1.57187 65.0442ZM2.56775 71.0779C2.56755 71.3539 2.34349 71.5735 2.06729 71.5682C1.79109 71.563 1.56735 71.3349 1.56755 71.0589L2.56775 71.0779ZM1.56323 77.0736C1.56343 76.7976 1.78749 76.578 2.06369 76.5833C2.33989 76.5885 2.56363 76.8165 2.56343 77.0926L1.56323 77.0736ZM2.55911 83.1073C2.55891 83.3833 2.33485 83.6028 2.05865 83.5976C1.78246 83.5923 1.55871 83.3643 1.55891 83.0883L2.55911 83.1073ZM1.55459 89.103C1.55479 88.8269 1.77885 88.6074 2.05505 88.6127C2.33125 88.6179 2.55499 88.8459 2.55479 89.122L1.55459 89.103ZM2.55047 95.1367C2.55027 95.4127 2.32621 95.6322 2.05001 95.627C1.77382 95.6217 1.55008 95.3937 1.55027 95.1177L2.55047 95.1367ZM1.54596 101.132C1.54615 100.856 1.77022 100.637 2.04641 100.642C2.32261 100.647 2.54635 100.875 2.54615 101.151L1.54596 101.132ZM2.54183 107.166C2.54163 107.442 2.31757 107.662 2.04138 107.656C1.76518 107.651 1.54144 107.423 1.54164 107.147L2.54183 107.166ZM1.53732 113.162C1.53751 112.886 1.76158 112.666 2.03777 112.671C2.31397 112.677 2.53771 112.905 2.53751 113.181L1.53732 113.162ZM2.53319 119.195C2.53299 119.471 2.30893 119.691 2.03274 119.686C1.75654 119.681 1.5328 119.452 1.533 119.176L2.53319 119.195ZM1.52868 125.191C1.52888 124.915 1.75294 124.696 2.02914 124.701C2.30533 124.706 2.52907 124.934 2.52887 125.21L1.52868 125.191ZM2.52455 131.225C2.52436 131.501 2.30029 131.72 2.0241 131.715C1.7479 131.71 1.52416 131.482 1.52436 131.206L2.52455 131.225ZM1.52004 137.221C1.52024 136.945 1.7443 136.725 2.0205 136.73C2.29669 136.735 2.52043 136.963 2.52024 137.24L1.52004 137.221ZM2.51592 143.254C2.51572 143.53 2.29166 143.75 2.01546 143.745C1.73926 143.739 1.51552 143.511 1.51572 143.235L2.51592 143.254ZM1.5114 149.25C1.5116 148.974 1.73566 148.754 2.01186 148.76C2.28806 148.765 2.51179 148.993 2.5116 149.269L1.5114 149.25ZM2.50728 155.284C2.50708 155.56 2.28302 155.779 2.00682 155.774C1.73063 155.769 1.50688 155.541 1.50708 155.265L2.50728 155.284ZM1.50276 161.279C1.50296 161.003 1.72702 160.784 2.00322 160.789C2.27942 160.794 2.50316 161.022 2.50296 161.298L1.50276 161.279ZM2.49864 167.313C2.49844 167.589 2.27438 167.809 1.99818 167.803C1.72199 167.798 1.49825 167.57 1.49844 167.294L2.49864 167.313ZM1.49413 173.309C1.49432 173.033 1.71839 172.813 1.99458 172.818C2.27078 172.824 2.49452 173.052 2.49432 173.328L1.49413 173.309ZM2.49 179.342C2.4898 179.618 2.26574 179.838 1.98955 179.833C1.71335 179.827 1.48961 179.599 1.48981 179.323L2.49 179.342ZM1.48549 185.338C1.48569 185.062 1.70975 184.843 1.98594 184.848C2.26214 184.853 2.48588 185.081 2.48568 185.357L1.48549 185.338ZM2.48136 191.372C2.48116 191.648 2.2571 191.867 1.98091 191.862C1.70471 191.857 1.48097 191.629 1.48117 191.353L2.48136 191.372ZM1.47685 197.367C1.47705 197.091 1.70111 196.872 1.97731 196.877C2.2535 196.882 2.47724 197.11 2.47704 197.386L1.47685 197.367ZM2.47272 203.401C2.47253 203.677 2.24846 203.897 1.97227 203.891C1.69607 203.886 1.47233 203.658 1.47253 203.382L2.47272 203.401ZM1.46821 209.397C1.46841 209.121 1.69247 208.901 1.96867 208.907C2.24486 208.912 2.4686 209.14 2.4684 209.416L1.46821 209.397ZM2.46409 215.431C2.46389 215.707 2.23983 215.926 1.96363 215.921C1.68743 215.916 1.46369 215.688 1.46389 215.412L2.46409 215.431ZM1.45957 221.426C1.45977 221.15 1.68383 220.931 1.96003 220.936C2.23622 220.941 2.45996 221.169 2.45977 221.445L1.45957 221.426ZM2.45545 227.46C2.45525 227.736 2.23119 227.955 1.95499 227.95C1.6788 227.945 1.45506 227.717 1.45525 227.441L2.45545 227.46ZM1.45093 233.456C1.45113 233.18 1.67519 232.96 1.95139 232.965C2.22759 232.971 2.45133 233.199 2.45113 233.475L1.45093 233.456ZM2.44681 239.489C2.44661 239.765 2.22255 239.985 1.94635 239.98C1.67016 239.974 1.44642 239.746 1.44661 239.47L2.44681 239.489ZM1.4423 245.485C1.44249 245.209 1.66656 244.989 1.94275 244.995C2.21895 245 2.44269 245.228 2.44249 245.504L1.4423 245.485ZM2.43817 251.519C2.43797 251.795 2.21391 252.014 1.93772 252.009C1.66152 252.004 1.43778 251.776 1.43798 251.5L2.43817 251.519ZM1.43366 257.514C1.43386 257.238 1.65792 257.019 1.93411 257.024C2.21031 257.029 2.43405 257.257 2.43385 257.533L1.43366 257.514ZM2.42953 263.548C2.42933 263.824 2.20527 264.044 1.92908 264.038C1.65288 264.033 1.42914 263.805 1.42934 263.529L2.42953 263.548ZM1.42502 269.544C1.42522 269.268 1.64928 269.048 1.92548 269.053C2.20167 269.059 2.42541 269.287 2.42521 269.563L1.42502 269.544ZM2.42089 275.577C2.4207 275.854 2.19663 276.073 1.92044 276.068C1.64424 276.063 1.4205 275.835 1.4207 275.558L2.42089 275.577ZM1.41638 281.573C1.41658 281.297 1.64064 281.078 1.91684 281.083C2.19303 281.088 2.41677 281.316 2.41658 281.592L1.41638 281.573ZM2.41226 287.607C2.41206 287.883 2.188 288.102 1.9118 288.097C1.6356 288.092 1.41186 287.864 1.41206 287.588L2.41226 287.607ZM1.40774 293.603C1.40794 293.326 1.632 293.107 1.9082 293.112C2.1844 293.117 2.40814 293.345 2.40794 293.621L1.40774 293.603ZM2.40362 299.636C2.40342 299.912 2.17936 300.132 1.90316 300.127C1.62697 300.121 1.40322 299.893 1.40342 299.617L2.40362 299.636ZM1.3991 305.632C1.3993 305.356 1.62336 305.136 1.89956 305.142C2.17576 305.147 2.3995 305.375 2.3993 305.651L1.3991 305.632ZM2.39498 311.666C2.39478 311.942 2.17072 312.161 1.89452 312.156C1.61833 312.151 1.39459 311.923 1.39478 311.647L2.39498 311.666ZM1.39047 317.661C1.39066 317.385 1.61473 317.166 1.89092 317.171C2.16712 317.176 2.39086 317.404 2.39066 317.68L1.39047 317.661ZM2.38634 323.695C2.38614 323.971 2.16208 324.19 1.88589 324.185C1.60969 324.18 1.38595 323.952 1.38615 323.676L2.38634 323.695ZM1.38183 329.691C1.38203 329.415 1.60609 329.195 1.88228 329.2C2.15848 329.206 2.38222 329.434 2.38202 329.71L1.38183 329.691ZM2.3777 335.724C2.3775 336 2.15344 336.22 1.87725 336.215C1.60105 336.209 1.37731 335.981 1.37751 335.705L2.3777 335.724ZM1.37319 341.72C1.37339 341.444 1.59745 341.224 1.87365 341.23C2.14984 341.235 2.37358 341.463 2.37338 341.739L1.37319 341.72ZM2.36906 347.754C2.36887 348.03 2.1448 348.249 1.86861 348.244C1.59241 348.239 1.36867 348.011 1.36887 347.735L2.36906 347.754ZM1.36455 353.749C1.36475 353.473 1.58881 353.254 1.86501 353.259C2.1412 353.264 2.36494 353.492 2.36475 353.768L1.36455 353.749ZM2.36043 359.783C2.36023 360.059 2.13617 360.279 1.85997 360.273C1.58377 360.268 1.36003 360.04 1.36023 359.764L2.36043 359.783ZM1.35591 365.779C1.35611 365.503 1.58017 365.283 1.85637 365.288C2.13257 365.294 2.35631 365.522 2.35611 365.798L1.35591 365.779ZM2.35179 371.812C2.35159 372.088 2.12753 372.308 1.85133 372.303C1.57513 372.297 1.3514 372.069 1.35159 371.793L2.35179 371.812ZM1.34727 377.808C1.34747 377.532 1.57153 377.312 1.84773 377.318C2.12393 377.323 2.34767 377.551 2.34747 377.827L1.34727 377.808ZM2.34315 383.842C2.34295 384.118 2.11889 384.337 1.84269 384.332C1.5665 384.327 1.34276 384.099 1.34295 383.823L2.34315 383.842ZM1.33864 389.837C1.33883 389.561 1.5629 389.342 1.83909 389.347C2.11529 389.352 2.33903 389.58 2.33883 389.856L1.33864 389.837ZM2.33451 395.871C2.33431 396.147 2.11025 396.367 1.83405 396.361C1.55786 396.356 1.33412 396.128 1.33432 395.852L2.33451 395.871ZM1.33 401.867C1.3302 401.591 1.55426 401.371 1.83045 401.376C2.10665 401.382 2.33039 401.61 2.33019 401.886L1.33 401.867ZM2.32587 407.9C2.32567 408.176 2.10161 408.396 1.82542 408.391C1.54922 408.385 1.32548 408.157 1.32568 407.881L2.32587 407.9ZM1.32136 413.896C1.32156 413.62 1.54562 413.401 1.82182 413.406C2.09801 413.411 2.32175 413.639 2.32155 413.915L1.32136 413.896ZM2.31723 419.93C2.31704 420.206 2.09297 420.425 1.81678 420.42C1.54058 420.415 1.31684 420.187 1.31704 419.911L2.31723 419.93ZM1.31272 425.925C1.31292 425.649 1.53698 425.43 1.81318 425.435C2.08937 425.44 2.31311 425.668 2.31292 425.944L1.31272 425.925ZM2.3086 431.959C2.3084 432.235 2.08434 432.455 1.80814 432.449C1.53194 432.444 1.3082 432.216 1.3084 431.94L2.3086 431.959ZM1.30408 437.955C1.30428 437.679 1.52834 437.459 1.80454 437.464C2.08074 437.47 2.30447 437.698 2.30428 437.974L1.30408 437.955ZM2.29996 443.988C2.29976 444.265 2.0757 444.484 1.7995 444.479C1.5233 444.474 1.29957 444.246 1.29976 443.969L2.29996 443.988ZM1.29544 449.984C1.29564 449.708 1.5197 449.489 1.7959 449.494C2.0721 449.499 2.29584 449.727 2.29564 450.003L1.29544 449.984ZM2.29132 456.018C2.29112 456.294 2.06706 456.513 1.79086 456.508C1.51467 456.503 1.29093 456.275 1.29113 455.999L2.29132 456.018ZM1.28681 462.014C1.287 461.738 1.51107 461.518 1.78726 461.523C2.06346 461.528 2.2872 461.756 2.287 462.033L1.28681 462.014ZM2.28268 468.047C2.28248 468.323 2.05842 468.543 1.78223 468.538C1.50603 468.532 1.28229 468.304 1.28249 468.028L2.28268 468.047ZM1.27817 474.043C1.27837 473.767 1.50243 473.547 1.77862 473.553C2.05482 473.558 2.27856 473.786 2.27836 474.062L1.27817 474.043ZM2.27404 480.077C2.27384 480.353 2.04978 480.572 1.77359 480.567C1.49739 480.562 1.27365 480.334 1.27385 480.058L2.27404 480.077ZM1.26953 486.072C1.26973 485.796 1.49379 485.577 1.76999 485.582C2.04618 485.587 2.26992 485.815 2.26972 486.091L1.26953 486.072ZM2.2654 492.106C2.26521 492.382 2.04114 492.601 1.76495 492.596C1.48875 492.591 1.26501 492.363 1.26521 492.087L2.2654 492.106ZM1.26089 498.102C1.26109 497.826 1.48515 497.606 1.76135 497.611C2.03754 497.617 2.26128 497.845 2.26109 498.121L1.26089 498.102ZM2.25677 504.135C2.25657 504.411 2.03251 504.631 1.75631 504.626C1.48011 504.62 1.25637 504.392 1.25657 504.116L2.25677 504.135ZM1.25225 510.131C1.25245 509.855 1.47651 509.635 1.75271 509.641C2.0289 509.646 2.25265 509.874 2.25245 510.15L1.25225 510.131ZM2.24813 516.165C2.24793 516.441 2.02387 516.66 1.74767 516.655C1.47148 516.65 1.24773 516.422 1.24793 516.146L2.24813 516.165ZM1.24361 522.16C1.24381 521.884 1.46787 521.665 1.74407 521.67C2.02027 521.675 2.24401 521.903 2.24381 522.179L1.24361 522.16ZM2.23949 528.194C2.23929 528.47 2.01523 528.69 1.73903 528.684C1.46284 528.679 1.2391 528.451 1.23929 528.175L2.23949 528.194ZM1.23498 534.19C1.23517 533.914 1.45924 533.694 1.73543 533.699C2.01163 533.705 2.23537 533.933 2.23517 534.209L1.23498 534.19ZM2.23085 540.223C2.23065 540.499 2.00659 540.719 1.7304 540.714C1.4542 540.709 1.23046 540.481 1.23066 540.204L2.23085 540.223ZM1.22634 546.219C1.22654 545.943 1.4506 545.724 1.72679 545.729C2.00299 545.734 2.22673 545.962 2.22653 546.238L1.22634 546.219ZM2.22221 552.253C2.22201 552.529 1.99795 552.748 1.72176 552.743C1.44556 552.738 1.22182 552.51 1.22202 552.234L2.22221 552.253ZM1.2177 558.249C1.2179 557.973 1.44196 557.753 1.71816 557.758C1.99435 557.764 2.21809 557.992 2.21789 558.268L1.2177 558.249ZM2.21358 564.282C2.21338 564.558 1.98931 564.778 1.71312 564.773C1.43692 564.767 1.21318 564.539 1.21338 564.263L2.21358 564.282ZM1.20906 570.278C1.20926 570.002 1.43332 569.782 1.70952 569.788C1.98571 569.793 2.20945 570.021 2.20926 570.297L1.20906 570.278ZM2.20494 576.312C2.20474 576.588 1.98068 576.807 1.70448 576.802C1.42828 576.797 1.20454 576.569 1.20474 576.293L2.20494 576.312ZM1.20042 582.307C1.20062 582.031 1.42468 581.812 1.70088 581.817C1.97707 581.822 2.20082 582.05 2.20062 582.326L1.20042 582.307ZM2.1963 588.341C2.1961 588.617 1.97204 588.837 1.69584 588.831C1.41965 588.826 1.1959 588.598 1.1961 588.322L2.1963 588.341ZM1.19178 594.337C1.19198 594.061 1.41604 593.841 1.69224 593.847C1.96844 593.852 2.19218 594.08 2.19198 594.356L1.19178 594.337ZM2.18766 600.371C2.18746 600.647 1.9634 600.866 1.6872 600.861C1.41101 600.856 1.18727 600.628 1.18746 600.352L2.18766 600.371ZM1.18315 606.366C1.18334 606.09 1.40741 605.871 1.6836 605.876C1.9598 605.881 2.18354 606.109 2.18334 606.385L1.18315 606.366ZM2.17902 612.4C2.17882 612.676 1.95476 612.895 1.67856 612.89C1.40237 612.885 1.17863 612.657 1.17883 612.381L2.17902 612.4ZM1.17451 618.396C1.17471 618.12 1.39877 617.9 1.67496 617.905C1.95116 617.911 2.1749 618.139 2.1747 618.415L1.17451 618.396ZM2.17038 624.429C2.17018 624.705 1.94612 624.925 1.66993 624.92C1.39373 624.914 1.16999 624.686 1.17019 624.41L2.17038 624.429ZM1.16587 630.425C1.16607 630.149 1.39013 629.93 1.66632 629.935C1.94252 629.94 2.16626 630.168 2.16606 630.444L1.16587 630.425ZM2.16175 636.459C2.16155 636.735 1.93748 636.954 1.66129 636.949C1.38509 636.944 1.16135 636.716 1.16155 636.44L2.16175 636.459ZM1.15723 642.454C1.15743 642.178 1.38149 641.959 1.65769 641.964C1.93388 641.969 2.15762 642.197 2.15743 642.473L1.15723 642.454ZM2.15311 648.488C2.15291 648.764 1.92885 648.984 1.65265 648.978C1.37645 648.973 1.15271 648.745 1.15291 648.469L2.15311 648.488ZM1.14859 654.484C1.14879 654.208 1.37285 653.988 1.64905 653.994C1.92524 653.999 2.14898 654.227 2.14879 654.503L1.14859 654.484ZM2.14447 660.518C2.14427 660.794 1.92021 661.013 1.64401 661.008C1.36782 661.003 1.14407 660.775 1.14427 660.499L2.14447 660.518ZM1.13995 666.513C1.14015 666.237 1.36421 666.018 1.64041 666.023C1.91661 666.028 2.14035 666.256 2.14015 666.532L1.13995 666.513ZM2.13583 672.547C2.13563 672.823 1.91157 673.043 1.63537 673.037C1.35918 673.032 1.13544 672.804 1.13563 672.528L2.13583 672.547ZM1.13131 678.543C1.13151 678.267 1.35557 678.047 1.63177 678.052C1.90797 678.058 2.13171 678.286 2.13151 678.562L1.13131 678.543ZM2.12719 684.576C2.12699 684.852 1.90293 685.072 1.62673 685.067C1.35054 685.062 1.1268 684.833 1.127 684.557L2.12719 684.576ZM1.12268 690.572C1.12288 690.296 1.34694 690.077 1.62313 690.082C1.89933 690.087 2.12307 690.315 2.12287 690.591L1.12268 690.572ZM2.11855 696.606C2.11835 696.882 1.89429 697.101 1.6181 697.096C1.3419 697.091 1.11816 696.863 1.11836 696.587L2.11855 696.606ZM1.11404 702.602C1.11424 702.326 1.3383 702.106 1.61449 702.111C1.89069 702.116 2.11443 702.345 2.11423 702.621L1.11404 702.602ZM2.10991 708.635C2.10972 708.911 1.88565 709.131 1.60946 709.126C1.33326 709.12 1.10952 708.892 1.10972 708.616L2.10991 708.635ZM1.1054 714.631C1.1056 714.355 1.32966 714.135 1.60586 714.141C1.88205 714.146 2.10579 714.374 2.1056 714.65L1.1054 714.631ZM2.10128 720.665C2.10108 720.941 1.87702 721.16 1.60082 721.155C1.32462 721.15 1.10088 720.922 1.10108 720.646L2.10128 720.665ZM1.09676 726.66C1.09696 726.384 1.32102 726.165 1.59722 726.17C1.87341 726.175 2.09715 726.403 2.09696 726.679L1.09676 726.66ZM2.09264 732.694C2.09244 732.97 1.86838 733.19 1.59218 733.184C1.31598 733.179 1.09224 732.951 1.09244 732.675L2.09264 732.694ZM1.08812 738.69C1.08832 738.414 1.31238 738.194 1.58858 738.2C1.86478 738.205 2.08852 738.433 2.08832 738.709L1.08812 738.69ZM2.084 744.723C2.0838 745 1.85974 745.219 1.58354 745.214C1.30735 745.209 1.08361 744.981 1.0838 744.705L2.084 744.723ZM1.07948 750.719C1.07968 750.443 1.30374 750.224 1.57994 750.229C1.85614 750.234 2.07988 750.462 2.07968 750.738L1.07948 750.719ZM2.07536 756.753C2.07516 757.029 1.8511 757.249 1.5749 757.243C1.29871 757.238 1.07497 757.01 1.07517 756.734L2.07536 756.753ZM1.07085 762.749C1.07105 762.473 1.29511 762.253 1.5713 762.258C1.8475 762.264 2.07124 762.492 2.07104 762.768L1.07085 762.749ZM2.06672 768.782C2.06652 769.058 1.84246 769.278 1.56627 769.273C1.29007 769.267 1.06633 769.039 1.06653 768.763L2.06672 768.782ZM1.06221 774.778C1.06241 774.502 1.28647 774.283 1.56266 774.288C1.83886 774.293 2.0626 774.521 2.0624 774.797L1.06221 774.778ZM2.05808 780.812C2.05789 781.088 1.83382 781.307 1.55763 781.302C1.28143 781.297 1.05769 781.069 1.05789 780.793L2.05808 780.812ZM1.05357 786.807C1.05377 786.531 1.27783 786.312 1.55403 786.317C1.83022 786.322 2.05396 786.55 2.05377 786.826L1.05357 786.807ZM2.04945 792.841C2.04925 793.117 1.82519 793.337 1.54899 793.332C1.27279 793.326 1.04905 793.098 1.04925 792.822L2.04945 792.841ZM1.04493 798.837C1.04513 798.561 1.26919 798.341 1.54539 798.347C1.82158 798.352 2.04532 798.58 2.04513 798.856L1.04493 798.837ZM2.04081 804.871C2.04061 805.147 1.81655 805.366 1.54035 805.361C1.26415 805.356 1.04041 805.128 1.04061 804.852L2.04081 804.871ZM1.03629 810.866C1.03649 810.59 1.26055 810.371 1.53675 810.376C1.81295 810.381 2.03669 810.609 2.03649 810.885L1.03629 810.866ZM2.03217 816.9C2.03197 817.176 1.80791 817.396 1.53171 817.39C1.25552 817.385 1.03178 817.157 1.03197 816.881L2.03217 816.9ZM1.02765 822.896C1.02785 822.62 1.25191 822.4 1.52811 822.405C1.80431 822.411 2.02805 822.639 2.02785 822.915L1.02765 822.896ZM2.02353 828.929C2.02333 829.206 1.79927 829.425 1.52307 829.42C1.24688 829.415 1.02314 829.187 1.02334 828.911L2.02353 828.929ZM1.01902 834.925C1.01921 834.649 1.24328 834.43 1.51947 834.435C1.79567 834.44 2.01941 834.668 2.01921 834.944L1.01902 834.925ZM2.01489 840.959C2.01469 841.235 1.79063 841.454 1.51444 841.449C1.23824 841.444 1.0145 841.216 1.0147 840.94L2.01489 840.959ZM1.01038 846.955C1.01058 846.679 1.23464 846.459 1.51083 846.464C1.78703 846.47 2.01077 846.698 2.01057 846.974L1.01038 846.955ZM2.00625 852.988C2.00606 853.264 1.78199 853.484 1.5058 853.479C1.2296 853.473 1.00586 853.245 1.00606 852.969L2.00625 852.988ZM1.00174 858.984C1.00194 858.708 1.226 858.488 1.5022 858.494C1.77839 858.499 2.00213 858.727 2.00194 859.003L1.00174 858.984ZM4.1157 861.501C4.39185 861.5 4.61982 861.724 4.62487 862C4.62993 862.276 4.41017 862.5 4.13402 862.5L4.1157 861.501ZM9.38439 862.5C9.10824 862.5 8.88027 862.276 8.87521 862C8.87015 861.724 9.08992 861.5 9.36607 861.5L9.38439 862.5ZM14.6164 861.5C14.8926 861.5 15.1205 861.724 15.1256 862C15.1307 862.276 14.9109 862.5 14.6348 862.5L14.6164 861.5ZM19.8851 862.499C19.609 862.5 19.381 862.276 19.3759 862C19.3709 861.724 19.5907 861.5 19.8668 861.5L19.8851 862.499ZM23.1233 8.41292L20.4981 8.41306L20.4798 7.41325L23.105 7.41312L23.1233 8.41292ZM15.2479 8.41333L9.99758 8.4136L9.97927 7.4138L15.2295 7.41353L15.2479 8.41333ZM4.7473 8.41388L2.12216 8.41401L2.10384 7.41421L4.72898 7.41407L4.7473 8.41388ZM2.6131 7.9236L2.61094 10.9309L1.61074 10.912L1.6129 7.90462L2.6131 7.9236ZM2.60662 16.9456L2.6023 22.9603L1.60211 22.9414L1.60642 16.9267L2.60662 16.9456ZM2.59798 28.975L2.59366 34.9897L1.59347 34.9707L1.59779 28.9561L2.59798 28.975ZM2.58934 41.0044L2.58502 47.0191L1.58483 47.0001L1.58915 40.9854L2.58934 41.0044ZM2.5807 53.0338L2.57639 59.0485L1.57619 59.0295L1.58051 53.0148L2.5807 53.0338ZM2.57207 65.0632L2.56775 71.0779L1.56755 71.0589L1.57187 65.0442L2.57207 65.0632ZM2.56343 77.0926L2.55911 83.1073L1.55891 83.0883L1.56323 77.0736L2.56343 77.0926ZM2.55479 89.122L2.55047 95.1367L1.55027 95.1177L1.55459 89.103L2.55479 89.122ZM2.54615 101.151L2.54183 107.166L1.54164 107.147L1.54596 101.132L2.54615 101.151ZM2.53751 113.181L2.53319 119.195L1.533 119.176L1.53732 113.162L2.53751 113.181ZM2.52887 125.21L2.52455 131.225L1.52436 131.206L1.52868 125.191L2.52887 125.21ZM2.52024 137.24L2.51592 143.254L1.51572 143.235L1.52004 137.221L2.52024 137.24ZM2.5116 149.269L2.50728 155.284L1.50708 155.265L1.5114 149.25L2.5116 149.269ZM2.50296 161.298L2.49864 167.313L1.49844 167.294L1.50276 161.279L2.50296 161.298ZM2.49432 173.328L2.49 179.342L1.48981 179.323L1.49413 173.309L2.49432 173.328ZM2.48568 185.357L2.48136 191.372L1.48117 191.353L1.48549 185.338L2.48568 185.357ZM2.47704 197.386L2.47272 203.401L1.47253 203.382L1.47685 197.367L2.47704 197.386ZM2.4684 209.416L2.46409 215.431L1.46389 215.412L1.46821 209.397L2.4684 209.416ZM2.45977 221.445L2.45545 227.46L1.45525 227.441L1.45957 221.426L2.45977 221.445ZM2.45113 233.475L2.44681 239.489L1.44661 239.47L1.45093 233.456L2.45113 233.475ZM2.44249 245.504L2.43817 251.519L1.43798 251.5L1.4423 245.485L2.44249 245.504ZM2.43385 257.533L2.42953 263.548L1.42934 263.529L1.43366 257.514L2.43385 257.533ZM2.42521 269.563L2.42089 275.577L1.4207 275.558L1.42502 269.544L2.42521 269.563ZM2.41658 281.592L2.41226 287.607L1.41206 287.588L1.41638 281.573L2.41658 281.592ZM2.40794 293.621L2.40362 299.636L1.40342 299.617L1.40774 293.603L2.40794 293.621ZM2.3993 305.651L2.39498 311.666L1.39478 311.647L1.3991 305.632L2.3993 305.651ZM2.39066 317.68L2.38634 323.695L1.38615 323.676L1.39047 317.661L2.39066 317.68ZM2.38202 329.71L2.3777 335.724L1.37751 335.705L1.38183 329.691L2.38202 329.71ZM2.37338 341.739L2.36906 347.754L1.36887 347.735L1.37319 341.72L2.37338 341.739ZM2.36475 353.768L2.36043 359.783L1.36023 359.764L1.36455 353.749L2.36475 353.768ZM2.35611 365.798L2.35179 371.812L1.35159 371.793L1.35591 365.779L2.35611 365.798ZM2.34747 377.827L2.34315 383.842L1.34295 383.823L1.34727 377.808L2.34747 377.827ZM2.33883 389.856L2.33451 395.871L1.33432 395.852L1.33864 389.837L2.33883 389.856ZM2.33019 401.886L2.32587 407.9L1.32568 407.881L1.33 401.867L2.33019 401.886ZM2.32155 413.915L2.31723 419.93L1.31704 419.911L1.32136 413.896L2.32155 413.915ZM2.31292 425.944L2.3086 431.959L1.3084 431.94L1.31272 425.925L2.31292 425.944ZM2.30428 437.974L2.29996 443.988L1.29976 443.969L1.30408 437.955L2.30428 437.974ZM2.29564 450.003L2.29132 456.018L1.29113 455.999L1.29544 449.984L2.29564 450.003ZM2.287 462.033L2.28268 468.047L1.28249 468.028L1.28681 462.014L2.287 462.033ZM2.27836 474.062L2.27404 480.077L1.27385 480.058L1.27817 474.043L2.27836 474.062ZM2.26972 486.091L2.2654 492.106L1.26521 492.087L1.26953 486.072L2.26972 486.091ZM2.26109 498.121L2.25677 504.135L1.25657 504.116L1.26089 498.102L2.26109 498.121ZM2.25245 510.15L2.24813 516.165L1.24793 516.146L1.25225 510.131L2.25245 510.15ZM2.24381 522.179L2.23949 528.194L1.23929 528.175L1.24361 522.16L2.24381 522.179ZM2.23517 534.209L2.23085 540.223L1.23066 540.204L1.23498 534.19L2.23517 534.209ZM2.22653 546.238L2.22221 552.253L1.22202 552.234L1.22634 546.219L2.22653 546.238ZM2.21789 558.268L2.21358 564.282L1.21338 564.263L1.2177 558.249L2.21789 558.268ZM2.20926 570.297L2.20494 576.312L1.20474 576.293L1.20906 570.278L2.20926 570.297ZM2.20062 582.326L2.1963 588.341L1.1961 588.322L1.20042 582.307L2.20062 582.326ZM2.19198 594.356L2.18766 600.371L1.18746 600.352L1.19178 594.337L2.19198 594.356ZM2.18334 606.385L2.17902 612.4L1.17883 612.381L1.18315 606.366L2.18334 606.385ZM2.1747 618.415L2.17038 624.429L1.17019 624.41L1.17451 618.396L2.1747 618.415ZM2.16606 630.444L2.16175 636.459L1.16155 636.44L1.16587 630.425L2.16606 630.444ZM2.15743 642.473L2.15311 648.488L1.15291 648.469L1.15723 642.454L2.15743 642.473ZM2.14879 654.503L2.14447 660.518L1.14427 660.499L1.14859 654.484L2.14879 654.503ZM2.14015 666.532L2.13583 672.547L1.13563 672.528L1.13995 666.513L2.14015 666.532ZM2.13151 678.562L2.12719 684.576L1.127 684.557L1.13131 678.543L2.13151 678.562ZM2.12287 690.591L2.11855 696.606L1.11836 696.587L1.12268 690.572L2.12287 690.591ZM2.11423 702.621L2.10991 708.635L1.10972 708.616L1.11404 702.602L2.11423 702.621ZM2.1056 714.65L2.10128 720.665L1.10108 720.646L1.1054 714.631L2.1056 714.65ZM2.09696 726.679L2.09264 732.694L1.09244 732.675L1.09676 726.66L2.09696 726.679ZM2.08832 738.709L2.084 744.723L1.0838 744.705L1.08812 738.69L2.08832 738.709ZM2.07968 750.738L2.07536 756.753L1.07517 756.734L1.07948 750.719L2.07968 750.738ZM2.07104 762.768L2.06672 768.782L1.06653 768.763L1.07085 762.749L2.07104 762.768ZM2.0624 774.797L2.05808 780.812L1.05789 780.793L1.06221 774.778L2.0624 774.797ZM2.05377 786.826L2.04945 792.841L1.04925 792.822L1.05357 786.807L2.05377 786.826ZM2.04513 798.856L2.04081 804.871L1.04061 804.852L1.04493 798.837L2.04513 798.856ZM2.03649 810.885L2.03217 816.9L1.03197 816.881L1.03629 810.866L2.03649 810.885ZM2.02785 822.915L2.02353 828.929L1.02334 828.911L1.02765 822.896L2.02785 822.915ZM2.01921 834.944L2.01489 840.959L1.0147 840.94L1.01902 834.925L2.01921 834.944ZM2.01057 846.974L2.00625 852.988L1.00606 852.969L1.01038 846.955L2.01057 846.974ZM2.00194 859.003L1.99977 862.01L0.999581 861.991L1.00174 858.984L2.00194 859.003ZM1.49052 861.501L4.1157 861.501L4.13402 862.5L1.50884 862.5L1.49052 861.501ZM9.36607 861.5L14.6164 861.5L14.6348 862.5L9.38439 862.5L9.36607 861.5ZM19.8668 861.5L22.492 861.5L22.5103 862.499L19.8851 862.499L19.8668 861.5ZM1.49968 862.001L1.518 863L0.498751 863L0.499483 861.982L1.49968 862.001ZM23.8083 7.20601C24.206 7.59644 24.2176 8.22948 23.8342 8.61995L17.5867 14.983C17.2033 15.3735 16.5701 15.3735 16.1724 14.9831C15.7747 14.5926 15.7631 13.9596 16.1465 13.5691L21.6999 7.91309L15.9392 2.25764C15.5416 1.86721 15.53 1.23417 15.9133 0.843699C16.2967 0.453231 16.9299 0.453198 17.3276 0.843625L23.8083 7.20601ZM2.113 7.91411L1.11281 7.89514L1.11351 6.91436L2.09468 6.91431L2.113 7.91411ZM20.5073 8.91296C19.955 8.91299 19.4991 8.46538 19.489 7.91321C19.4788 7.36103 19.9184 6.91338 20.4707 6.91335L20.5073 8.91296ZM15.2204 6.91362C15.7727 6.91359 16.2286 7.3612 16.2387 7.91338C16.2489 8.46555 15.8093 8.9132 15.257 8.91323L15.2204 6.91362ZM10.0067 8.91351C9.45444 8.91354 8.99851 8.46593 8.9884 7.91375C8.97828 7.36158 9.41781 6.91393 9.97011 6.9139L10.0067 8.91351ZM4.71982 6.91417C5.27212 6.91414 5.72805 7.36175 5.73817 7.91392C5.74829 8.4661 5.30876 8.91375 4.75646 8.91378L4.71982 6.91417ZM3.11104 10.9404C3.11064 11.4925 2.66252 11.9316 2.11012 11.9211C1.55773 11.9106 1.11025 11.4546 1.11065 10.9025L3.11104 10.9404ZM1.10633 16.9172C1.10672 16.3651 1.55485 15.926 2.10724 15.9365C2.65963 15.947 3.10711 16.4031 3.10672 16.9551L1.10633 16.9172ZM3.1024 22.9698C3.102 23.5219 2.65388 23.9609 2.10148 23.9505C1.54909 23.94 1.10161 23.4839 1.10201 22.9319L3.1024 22.9698ZM1.09769 28.9466C1.09808 28.3945 1.54621 27.9554 2.0986 27.9659C2.65099 27.9764 3.09847 28.4324 3.09808 28.9845L1.09769 28.9466ZM3.09376 34.9992C3.09336 35.5513 2.64524 35.9903 2.09285 35.9799C1.54045 35.9694 1.09297 35.5133 1.09337 34.9613L3.09376 34.9992ZM1.08905 40.9759C1.08945 40.4239 1.53757 39.9848 2.08996 39.9953C2.64235 40.0058 3.08984 40.4618 3.08944 41.0139L1.08905 40.9759ZM3.08512 47.0286C3.08472 47.5807 2.6366 48.0197 2.08421 48.0092C1.53182 47.9988 1.08433 47.5427 1.08473 46.9906L3.08512 47.0286ZM1.08041 53.0053C1.08081 52.4533 1.52893 52.0142 2.08132 52.0247C2.63372 52.0352 3.0812 52.4912 3.0808 53.0433L1.08041 53.0053ZM3.07648 59.058C3.07609 59.6101 2.62796 60.0491 2.07557 60.0386C1.52318 60.0282 1.0757 59.5721 1.07609 59.02L3.07648 59.058ZM1.07177 65.0347C1.07217 64.4826 1.52029 64.0436 2.07269 64.0541C2.62508 64.0646 3.07256 64.5206 3.07216 65.0727L1.07177 65.0347ZM3.06784 71.0874C3.06745 71.6395 2.61932 72.0785 2.06693 72.068C1.51454 72.0575 1.06706 71.6015 1.06745 71.0494L3.06784 71.0874ZM1.06313 77.0641C1.06353 76.512 1.51166 76.073 2.06405 76.0835C2.61644 76.0939 3.06392 76.55 3.06352 77.1021L1.06313 77.0641ZM3.05921 83.1168C3.05881 83.6688 2.61069 84.1079 2.05829 84.0974C1.5059 84.0869 1.05842 83.6309 1.05882 83.0788L3.05921 83.1168ZM1.0545 89.0935C1.05489 88.5414 1.50302 88.1024 2.05541 88.1129C2.6078 88.1233 3.05528 88.5794 3.05489 89.1315L1.0545 89.0935ZM3.05057 95.1461C3.05017 95.6982 2.60205 96.1373 2.04965 96.1268C1.49726 96.1163 1.04978 95.6603 1.05018 95.1082L3.05057 95.1461ZM1.04586 101.123C1.04625 100.571 1.49438 100.132 2.04677 100.142C2.59916 100.153 3.04664 100.609 3.04625 101.161L1.04586 101.123ZM3.04193 107.176C3.04153 107.728 2.59341 108.167 2.04102 108.156C1.48862 108.146 1.04114 107.69 1.04154 107.138L3.04193 107.176ZM1.03722 113.152C1.03762 112.6 1.48574 112.161 2.03813 112.172C2.59052 112.182 3.03801 112.638 3.03761 113.19L1.03722 113.152ZM3.03329 119.205C3.03289 119.757 2.58477 120.196 2.03238 120.186C1.47999 120.175 1.0325 119.719 1.0329 119.167L3.03329 119.205ZM1.02858 125.182C1.02898 124.63 1.4771 124.191 2.02949 124.201C2.58189 124.211 3.02937 124.668 3.02897 125.22L1.02858 125.182ZM3.02465 131.234C3.02426 131.786 2.57613 132.225 2.02374 132.215C1.47135 132.204 1.02387 131.748 1.02426 131.196L3.02465 131.234ZM1.01994 137.211C1.02034 136.659 1.46846 136.22 2.02086 136.23C2.57325 136.241 3.02073 136.697 3.02033 137.249L1.01994 137.211ZM3.01601 143.264C3.01562 143.816 2.56749 144.255 2.0151 144.244C1.46271 144.234 1.01523 143.778 1.01562 143.226L3.01601 143.264ZM1.01131 149.24C1.0117 148.688 1.45982 148.249 2.01222 148.26C2.56461 148.27 3.01209 148.726 3.01169 149.278L1.01131 149.24ZM3.00738 155.293C3.00698 155.845 2.55886 156.284 2.00646 156.274C1.45407 156.263 1.00659 155.807 1.00699 155.255L3.00738 155.293ZM1.00267 161.27C1.00306 160.718 1.45119 160.279 2.00358 160.289C2.55597 160.3 3.00345 160.756 3.00306 161.308L1.00267 161.27ZM2.99874 167.322C2.99834 167.875 2.55022 168.314 1.99782 168.303C1.44543 168.293 0.99795 167.837 0.998347 167.285L2.99874 167.322ZM0.994028 173.299C0.994425 172.747 1.44255 172.308 1.99494 172.319C2.54733 172.329 2.99481 172.785 2.99442 173.337L0.994028 173.299ZM2.9901 179.352C2.9897 179.904 2.54158 180.343 1.98919 180.333C1.43679 180.322 0.989313 179.866 0.989709 179.314L2.9901 179.352ZM0.98539 185.329C0.985786 184.777 1.43391 184.337 1.9863 184.348C2.53869 184.358 2.98618 184.814 2.98578 185.367L0.98539 185.329ZM2.98146 191.381C2.98106 191.933 2.53294 192.372 1.98055 192.362C1.42816 192.351 0.980675 191.895 0.981071 191.343L2.98146 191.381ZM0.976752 197.358C0.977148 196.806 1.42527 196.367 1.97766 196.377C2.53006 196.388 2.97754 196.844 2.97714 197.396L0.976752 197.358ZM2.97282 203.411C2.97243 203.963 2.5243 204.402 1.97191 204.391C1.41952 204.381 0.972035 203.925 0.972432 203.373L2.97282 203.411ZM0.968113 209.387C0.96851 208.835 1.41663 208.396 1.96903 208.407C2.52142 208.417 2.9689 208.873 2.9685 209.425L0.968113 209.387ZM2.96418 215.44C2.96379 215.992 2.51566 216.431 1.96327 216.421C1.41088 216.41 0.963398 215.954 0.963794 215.402L2.96418 215.44ZM0.959475 221.417C0.959872 220.865 1.40799 220.426 1.96039 220.436C2.51278 220.447 2.96026 220.903 2.95986 221.455L0.959475 221.417ZM2.95555 227.469C2.95515 228.021 2.50703 228.461 1.95463 228.45C1.40224 228.44 0.954759 227.984 0.955156 227.431L2.95555 227.469ZM0.950837 233.446C0.951233 232.894 1.39936 232.455 1.95175 232.465C2.50414 232.476 2.95162 232.932 2.95123 233.484L0.950837 233.446ZM2.94691 239.499C2.94651 240.051 2.49839 240.49 1.94599 240.479C1.3936 240.469 0.94612 240.013 0.946517 239.461L2.94691 239.499ZM0.942198 245.476C0.942594 244.923 1.39072 244.484 1.94311 244.495C2.4955 244.505 2.94298 244.961 2.94259 245.513L0.942198 245.476ZM2.93827 251.528C2.93787 252.08 2.48975 252.519 1.93736 252.509C1.38496 252.498 0.937482 252.042 0.937879 251.49L2.93827 251.528ZM0.93356 257.505C0.933956 256.953 1.38208 256.514 1.93447 256.524C2.48686 256.535 2.93435 256.991 2.93395 257.543L0.93356 257.505ZM2.92963 263.558C2.92923 264.11 2.48111 264.549 1.92872 264.538C1.37632 264.528 0.928844 264.072 0.92924 263.52L2.92963 263.558ZM0.924922 269.534C0.925318 268.982 1.37344 268.543 1.92583 268.554C2.47823 268.564 2.92571 269.02 2.92531 269.572L0.924922 269.534ZM2.92099 275.587C2.9206 276.139 2.47247 276.578 1.92008 276.568C1.36769 276.557 0.920206 276.101 0.920603 275.549L2.92099 275.587ZM0.916283 281.564C0.916679 281.012 1.3648 280.573 1.9172 280.583C2.46959 280.594 2.91707 281.05 2.91667 281.602L0.916283 281.564ZM2.91235 287.616C2.91196 288.168 2.46383 288.607 1.91144 288.597C1.35905 288.586 0.911568 288.13 0.911964 287.578L2.91235 287.616ZM0.907644 293.593C0.908041 293.041 1.35617 292.602 1.90856 292.612C2.46095 292.623 2.90843 293.079 2.90803 293.631L0.907644 293.593ZM2.90372 299.646C2.90332 300.198 2.45519 300.637 1.9028 300.626C1.35041 300.616 0.902929 300.16 0.903325 299.608L2.90372 299.646ZM0.899007 305.622C0.899403 305.07 1.34753 304.631 1.89992 304.642C2.45231 304.652 2.89979 305.108 2.8994 305.66L0.899007 305.622ZM2.89508 311.675C2.89468 312.227 2.44656 312.666 1.89416 312.656C1.34177 312.645 0.894291 312.189 0.894687 311.637L2.89508 311.675ZM0.890368 317.652C0.890765 317.1 1.33889 316.661 1.89128 316.671C2.44367 316.682 2.89115 317.138 2.89076 317.69L0.890368 317.652ZM2.88644 323.704C2.88604 324.256 2.43792 324.696 1.88553 324.685C1.33313 324.675 0.885653 324.219 0.886049 323.666L2.88644 323.704ZM0.881729 329.681C0.882126 329.129 1.33025 328.69 1.88264 328.7C2.43504 328.711 2.88252 329.167 2.88212 329.719L0.881729 329.681ZM2.8778 335.734C2.8774 336.286 2.42928 336.725 1.87689 336.714C1.3245 336.704 0.877014 336.248 0.87741 335.696L2.8778 335.734ZM0.873092 341.71C0.873488 341.158 1.32161 340.719 1.874 340.73C2.4264 340.74 2.87388 341.196 2.87348 341.748L0.873092 341.71ZM2.86916 347.763C2.86877 348.315 2.42064 348.754 1.86825 348.744C1.31586 348.733 0.868375 348.277 0.868772 347.725L2.86916 347.763ZM0.864453 353.74C0.86485 353.188 1.31297 352.749 1.86537 352.759C2.41776 352.77 2.86524 353.226 2.86484 353.778L0.864453 353.74ZM2.86052 359.792C2.86013 360.345 2.412 360.784 1.85961 360.773C1.30722 360.763 0.859737 360.307 0.860134 359.754L2.86052 359.792ZM0.855814 365.769C0.856211 365.217 1.30434 364.778 1.85673 364.789C2.40912 364.799 2.8566 365.255 2.8562 365.807L0.855814 365.769ZM2.85189 371.822C2.85149 372.374 2.40337 372.813 1.85097 372.802C1.29858 372.792 0.851099 372.336 0.851496 371.784L2.85189 371.822ZM0.847177 377.799C0.847573 377.246 1.2957 376.807 1.84809 376.818C2.40048 376.828 2.84796 377.284 2.84757 377.837L0.847177 377.799ZM2.84325 383.851C2.84285 384.403 2.39473 384.842 1.84233 384.832C1.28994 384.821 0.842461 384.365 0.842857 383.813L2.84325 383.851ZM0.838538 389.828C0.838935 389.276 1.28706 388.837 1.83945 388.847C2.39184 388.858 2.83932 389.314 2.83893 389.866L0.838538 389.828ZM2.83461 395.881C2.83421 396.433 2.38609 396.872 1.8337 396.861C1.2813 396.851 0.833822 396.395 0.834218 395.843L2.83461 395.881ZM0.829899 401.857C0.830296 401.305 1.27842 400.866 1.83081 400.877C2.38321 400.887 2.83069 401.343 2.83029 401.895L0.829899 401.857ZM2.82597 407.91C2.82557 408.462 2.37745 408.901 1.82506 408.891C1.27267 408.88 0.825185 408.424 0.825581 407.872L2.82597 407.91ZM0.821262 413.887C0.821658 413.335 1.26978 412.895 1.82217 412.906C2.37457 412.916 2.82205 413.372 2.82165 413.925L0.821262 413.887ZM2.81733 419.939C2.81694 420.491 2.36881 420.93 1.81642 420.92C1.26403 420.909 0.816545 420.453 0.816942 419.901L2.81733 419.939ZM0.812623 425.916C0.81302 425.364 1.26114 424.925 1.81354 424.935C2.36593 424.946 2.81341 425.402 2.81301 425.954L0.812623 425.916ZM2.80869 431.969C2.8083 432.521 2.36017 432.96 1.80778 432.949C1.25539 432.939 0.807907 432.483 0.808304 431.931L2.80869 431.969ZM0.803984 437.945C0.804381 437.393 1.25251 436.954 1.8049 436.965C2.35729 436.975 2.80477 437.431 2.80437 437.983L0.803984 437.945ZM2.80006 443.998C2.79966 444.55 2.35153 444.989 1.79914 444.979C1.24675 444.968 0.799269 444.512 0.799666 443.96L2.80006 443.998ZM0.795346 449.975C0.795742 449.423 1.24387 448.984 1.79626 448.994C2.34865 449.004 2.79613 449.461 2.79574 450.013L0.795346 449.975ZM2.79142 456.027C2.79102 456.579 2.3429 457.018 1.7905 457.008C1.23811 456.997 0.790631 456.541 0.791027 455.989L2.79142 456.027ZM0.786708 462.004C0.787105 461.452 1.23523 461.013 1.78762 461.023C2.34001 461.034 2.78749 461.49 2.7871 462.042L0.786708 462.004ZM2.78278 468.057C2.78238 468.609 2.33426 469.048 1.78187 469.037C1.22947 469.027 0.781993 468.571 0.782389 468.019L2.78278 468.057ZM0.77807 474.033C0.778466 473.481 1.22659 473.042 1.77898 473.053C2.33138 473.063 2.77886 473.519 2.77846 474.071L0.77807 474.033ZM2.77414 480.086C2.77374 480.638 2.32562 481.077 1.77323 481.067C1.22084 481.056 0.773354 480.6 0.773751 480.048L2.77414 480.086ZM0.769432 486.063C0.769828 485.511 1.21795 485.072 1.77034 485.082C2.32274 485.093 2.77022 485.549 2.76982 486.101L0.769432 486.063ZM2.7655 492.115C2.76511 492.667 2.31698 493.107 1.76459 493.096C1.2122 493.086 0.764716 492.63 0.765112 492.077L2.7655 492.115ZM0.760793 498.092C0.76119 497.54 1.20931 497.101 1.76171 497.111C2.3141 497.122 2.76158 497.578 2.76118 498.13L0.760793 498.092ZM2.75686 504.145C2.75647 504.697 2.30834 505.136 1.75595 505.125C1.20356 505.115 0.756078 504.659 0.756474 504.107L2.75686 504.145ZM0.752155 510.121C0.752551 509.569 1.20068 509.13 1.75307 509.141C2.30546 509.151 2.75294 509.607 2.75254 510.159L0.752155 510.121ZM2.74823 516.174C2.74783 516.726 2.29971 517.165 1.74731 517.155C1.19492 517.144 0.747439 516.688 0.747836 516.136L2.74823 516.174ZM0.743516 522.151C0.743913 521.599 1.19204 521.16 1.74443 521.17C2.29682 521.181 2.7443 521.637 2.74391 522.189L0.743516 522.151ZM2.73959 528.203C2.73919 528.756 2.29107 529.195 1.73867 529.184C1.18628 529.174 0.738801 528.718 0.739197 528.166L2.73959 528.203ZM0.734877 534.18C0.735275 533.628 1.1834 533.189 1.73579 533.2C2.28818 533.21 2.73566 533.666 2.73527 534.218L0.734877 534.18ZM2.73095 540.233C2.73055 540.785 2.28243 541.224 1.73004 541.214C1.17764 541.203 0.730163 540.747 0.730559 540.195L2.73095 540.233ZM0.726239 546.21C0.726637 545.658 1.17476 545.219 1.72715 545.229C2.27954 545.24 2.72703 545.696 2.72663 546.248L0.726239 546.21ZM2.72231 552.262C2.72191 552.814 2.27379 553.253 1.7214 553.243C1.169 553.232 0.721525 552.776 0.721921 552.224L2.72231 552.262ZM0.717601 558.239C0.717998 557.687 1.16612 557.248 1.71851 557.258C2.27091 557.269 2.71839 557.725 2.71799 558.277L0.717601 558.239ZM2.71367 564.292C2.71328 564.844 2.26515 565.283 1.71276 565.272C1.16037 565.262 0.712886 564.806 0.713283 564.254L2.71367 564.292ZM0.708963 570.269C0.70936 569.716 1.15748 569.277 1.70988 569.288C2.26227 569.298 2.70975 569.754 2.70935 570.306L0.708963 570.269ZM2.70503 576.321C2.70464 576.873 2.25651 577.312 1.70412 577.302C1.15173 577.291 0.704248 576.835 0.704644 576.283L2.70503 576.321ZM0.700324 582.298C0.700722 581.746 1.14884 581.307 1.70124 581.317C2.25363 581.328 2.70111 581.784 2.70071 582.336L0.700324 582.298ZM2.6964 588.351C2.696 588.903 2.24788 589.342 1.69548 589.331C1.14309 589.321 0.695608 588.865 0.696005 588.313L2.6964 588.351ZM0.691686 594.327C0.692083 593.775 1.14021 593.336 1.6926 593.347C2.24499 593.357 2.69247 593.813 2.69208 594.365L0.691686 594.327ZM2.68776 600.38C2.68736 600.932 2.23924 601.371 1.68684 601.361C1.13445 601.35 0.686971 600.894 0.687367 600.342L2.68776 600.38ZM0.683048 606.357C0.683445 605.805 1.13157 605.366 1.68396 605.376C2.23635 605.387 2.68383 605.843 2.68344 606.395L0.683048 606.357ZM2.67912 612.409C2.67872 612.961 2.2306 613.401 1.67821 613.39C1.12581 613.38 0.678332 612.924 0.678729 612.372L2.67912 612.409ZM0.674409 618.386C0.674806 617.834 1.12293 617.395 1.67532 617.406C2.22771 617.416 2.6752 617.872 2.6748 618.424L0.674409 618.386ZM2.67048 624.439C2.67008 624.991 2.22196 625.43 1.66957 625.42C1.11718 625.409 0.669693 624.953 0.670091 624.401L2.67048 624.439ZM0.665771 630.416C0.666167 629.864 1.11429 629.424 1.66668 629.435C2.21908 629.445 2.66656 629.901 2.66616 630.454L0.665771 630.416ZM2.66184 636.468C2.66144 637.02 2.21332 637.459 1.66093 637.449C1.10854 637.438 0.661056 636.982 0.661452 636.43L2.66184 636.468ZM0.657133 642.445C0.65753 641.893 1.10565 641.454 1.65805 641.464C2.21044 641.475 2.65792 641.931 2.65752 642.483L0.657133 642.445ZM2.6532 648.498C2.65281 649.05 2.20468 649.489 1.65229 649.478C1.0999 649.468 0.652417 649.012 0.652814 648.46L2.6532 648.498ZM0.648494 654.474C0.64889 653.922 1.09701 653.483 1.64941 653.494C2.2018 653.504 2.64928 653.96 2.64888 654.512L0.648494 654.474ZM2.64457 660.527C2.64417 661.079 2.19605 661.518 1.64365 661.508C1.09126 661.497 0.643778 661.041 0.644176 660.489L2.64457 660.527ZM0.639856 666.504C0.640252 665.952 1.08838 665.513 1.64077 665.523C2.19316 665.534 2.64064 665.99 2.64025 666.542L0.639856 666.504ZM2.63593 672.557C2.63553 673.109 2.18741 673.548 1.63501 673.537C1.08262 673.527 0.63514 673.071 0.635537 672.519L2.63593 672.557ZM0.631218 678.533C0.631614 677.981 1.07974 677.542 1.63213 677.553C2.18452 677.563 2.632 678.019 2.63161 678.571L0.631218 678.533ZM2.62729 684.586C2.62689 685.138 2.17877 685.577 1.62638 685.567C1.07398 685.556 0.626501 685.1 0.626899 684.548L2.62729 684.586ZM0.622579 690.563C0.622975 690.011 1.0711 689.572 1.62349 689.582C2.17588 689.593 2.62337 690.049 2.62297 690.601L0.622579 690.563ZM2.61865 696.615C2.61825 697.167 2.17013 697.606 1.61774 697.596C1.06535 697.586 0.617863 697.129 0.618261 696.577L2.61865 696.615ZM0.613941 702.592C0.614337 702.04 1.06246 701.601 1.61485 701.611C2.16725 701.622 2.61473 702.078 2.61433 702.63L0.613941 702.592ZM2.61001 708.645C2.60961 709.197 2.16149 709.636 1.6091 709.625C1.05671 709.615 0.609225 709.159 0.609622 708.607L2.61001 708.645ZM0.605303 714.622C0.605699 714.069 1.05382 713.63 1.60622 713.641C2.15861 713.651 2.60609 714.107 2.60569 714.659L0.605303 714.622ZM2.60137 720.674C2.60098 721.226 2.15285 721.665 1.60046 721.655C1.04807 721.644 0.600587 721.188 0.600983 720.636L2.60137 720.674ZM0.596664 726.651C0.59706 726.099 1.04518 725.66 1.59758 725.67C2.14997 725.681 2.59745 726.137 2.59705 726.689L0.596664 726.651ZM2.59273 732.704C2.59234 733.256 2.14421 733.695 1.59182 733.684C1.03943 733.674 0.591948 733.218 0.592346 732.666L2.59273 732.704ZM0.588026 738.68C0.588422 738.128 1.03655 737.689 1.58894 737.7C2.14133 737.71 2.58881 738.166 2.58842 738.718L0.588026 738.68ZM2.5841 744.733C2.5837 745.285 2.13558 745.724 1.58318 745.714C1.03079 745.703 0.58331 745.247 0.583707 744.695L2.5841 744.733ZM0.579387 750.71C0.579783 750.158 1.02791 749.719 1.5803 749.729C2.13269 749.74 2.58017 750.196 2.57978 750.748L0.579387 750.71ZM2.57546 756.762C2.57506 757.315 2.12694 757.754 1.57454 757.743C1.02215 757.733 0.574672 757.277 0.575068 756.724L2.57546 756.762ZM0.570749 762.739C0.571145 762.187 1.01927 761.748 1.57166 761.759C2.12405 761.769 2.57154 762.225 2.57114 762.777L0.570749 762.739ZM2.56682 768.792C2.56642 769.344 2.1183 769.783 1.56591 769.773C1.01352 769.762 0.566033 769.306 0.566431 768.754L2.56682 768.792ZM0.562111 774.769C0.562507 774.217 1.01063 773.777 1.56302 773.788C2.11542 773.798 2.5629 774.254 2.5625 774.807L0.562111 774.769ZM2.55818 780.821C2.55778 781.373 2.10966 781.812 1.55727 781.802C1.00488 781.791 0.557395 781.335 0.557791 780.783L2.55818 780.821ZM0.553472 786.798C0.553868 786.246 1.00199 785.807 1.55439 785.817C2.10678 785.828 2.55426 786.284 2.55386 786.836L0.553472 786.798ZM2.54954 792.851C2.54915 793.403 2.10102 793.842 1.54863 793.831C0.996238 793.821 0.548757 793.365 0.549153 792.813L2.54954 792.851ZM0.544834 798.827C0.54523 798.275 0.993354 797.836 1.54575 797.847C2.09814 797.857 2.54562 798.313 2.54522 798.865L0.544834 798.827ZM2.5409 804.88C2.54051 805.432 2.09238 805.871 1.53999 805.861C0.9876 805.85 0.540118 805.394 0.540514 804.842L2.5409 804.88ZM0.536196 810.857C0.536592 810.305 0.984716 809.866 1.53711 809.876C2.0895 809.887 2.53698 810.343 2.53659 810.895L0.536196 810.857ZM2.53227 816.91C2.53187 817.462 2.08375 817.901 1.53135 817.89C0.978962 817.88 0.53148 817.424 0.531876 816.872L2.53227 816.91ZM0.527557 822.886C0.527954 822.334 0.976078 821.895 1.52847 821.906C2.08086 821.916 2.52834 822.372 2.52795 822.924L0.527557 822.886ZM2.52363 828.939C2.52323 829.491 2.07511 829.93 1.52271 829.92C0.970322 829.909 0.522842 829.453 0.523238 828.901L2.52363 828.939ZM0.518919 834.916C0.519315 834.364 0.967439 833.925 1.51983 833.935C2.07222 833.946 2.51971 834.402 2.51931 834.954L0.518919 834.916ZM2.51499 840.968C2.51459 841.52 2.06647 841.959 1.51408 841.949C0.961685 841.939 0.514203 841.482 0.514599 840.93L2.51499 840.968ZM0.510281 846.945C0.510677 846.393 0.958801 845.954 1.51119 845.965C2.06359 845.975 2.51107 846.431 2.51067 846.983L0.510281 846.945ZM2.50635 852.998C2.50595 853.55 2.05783 853.989 1.50544 853.978C0.953047 853.968 0.505565 853.512 0.505961 852.96L2.50635 852.998ZM0.501642 858.975C0.502038 858.422 0.950163 857.983 1.50256 857.994C2.05495 858.004 2.50243 858.46 2.50203 859.013L0.501642 858.975ZM4.10654 861.001C4.65884 861.001 5.11477 861.448 5.12489 862C5.13501 862.553 4.69548 863 4.14318 863L4.10654 861.001ZM9.39355 863C8.84125 863 8.38532 862.552 8.3752 862C8.36508 861.448 8.80461 861 9.35691 861L9.39355 863ZM14.6073 861C15.1596 861 15.6155 861.448 15.6256 862C15.6357 862.552 15.1962 863 14.6439 863L14.6073 861ZM19.8943 862.999C19.342 862.999 18.8861 862.552 18.8759 862C18.8658 861.447 19.3053 861 19.8576 861L19.8943 862.999ZM23.1325 8.91282L20.5073 8.91296L20.4707 6.91335L23.0958 6.91321L23.1325 8.91282ZM15.257 8.91323L10.0067 8.91351L9.97011 6.9139L15.2204 6.91362L15.257 8.91323ZM4.75646 8.91378L2.13132 8.91392L2.09468 6.91431L4.71982 6.91417L4.75646 8.91378ZM3.11319 7.93309L3.11104 10.9404L1.11065 10.9025L1.11281 7.89514L3.11319 7.93309ZM3.10672 16.9551L3.1024 22.9698L1.10201 22.9319L1.10633 16.9172L3.10672 16.9551ZM3.09808 28.9845L3.09376 34.9992L1.09337 34.9613L1.09769 28.9466L3.09808 28.9845ZM3.08944 41.0139L3.08512 47.0286L1.08473 46.9906L1.08905 40.9759L3.08944 41.0139ZM3.0808 53.0433L3.07648 59.058L1.07609 59.02L1.08041 53.0053L3.0808 53.0433ZM3.07216 65.0727L3.06784 71.0874L1.06745 71.0494L1.07177 65.0347L3.07216 65.0727ZM3.06352 77.1021L3.05921 83.1168L1.05882 83.0788L1.06313 77.0641L3.06352 77.1021ZM3.05489 89.1315L3.05057 95.1461L1.05018 95.1082L1.0545 89.0935L3.05489 89.1315ZM3.04625 101.161L3.04193 107.176L1.04154 107.138L1.04586 101.123L3.04625 101.161ZM3.03761 113.19L3.03329 119.205L1.0329 119.167L1.03722 113.152L3.03761 113.19ZM3.02897 125.22L3.02465 131.234L1.02426 131.196L1.02858 125.182L3.02897 125.22ZM3.02033 137.249L3.01601 143.264L1.01562 143.226L1.01994 137.211L3.02033 137.249ZM3.01169 149.278L3.00738 155.293L1.00699 155.255L1.01131 149.24L3.01169 149.278ZM3.00306 161.308L2.99874 167.322L0.998347 167.285L1.00267 161.27L3.00306 161.308ZM2.99442 173.337L2.9901 179.352L0.989709 179.314L0.994028 173.299L2.99442 173.337ZM2.98578 185.367L2.98146 191.381L0.981071 191.343L0.98539 185.329L2.98578 185.367ZM2.97714 197.396L2.97282 203.411L0.972432 203.373L0.976752 197.358L2.97714 197.396ZM2.9685 209.425L2.96418 215.44L0.963794 215.402L0.968113 209.387L2.9685 209.425ZM2.95986 221.455L2.95555 227.469L0.955156 227.431L0.959475 221.417L2.95986 221.455ZM2.95123 233.484L2.94691 239.499L0.946517 239.461L0.950837 233.446L2.95123 233.484ZM2.94259 245.513L2.93827 251.528L0.937879 251.49L0.942198 245.476L2.94259 245.513ZM2.93395 257.543L2.92963 263.558L0.92924 263.52L0.93356 257.505L2.93395 257.543ZM2.92531 269.572L2.92099 275.587L0.920603 275.549L0.924922 269.534L2.92531 269.572ZM2.91667 281.602L2.91235 287.616L0.911964 287.578L0.916283 281.564L2.91667 281.602ZM2.90803 293.631L2.90372 299.646L0.903325 299.608L0.907644 293.593L2.90803 293.631ZM2.8994 305.66L2.89508 311.675L0.894687 311.637L0.899007 305.622L2.8994 305.66ZM2.89076 317.69L2.88644 323.704L0.886049 323.666L0.890368 317.652L2.89076 317.69ZM2.88212 329.719L2.8778 335.734L0.87741 335.696L0.881729 329.681L2.88212 329.719ZM2.87348 341.748L2.86916 347.763L0.868772 347.725L0.873092 341.71L2.87348 341.748ZM2.86484 353.778L2.86052 359.792L0.860134 359.754L0.864453 353.74L2.86484 353.778ZM2.8562 365.807L2.85189 371.822L0.851496 371.784L0.855814 365.769L2.8562 365.807ZM2.84757 377.837L2.84325 383.851L0.842857 383.813L0.847177 377.799L2.84757 377.837ZM2.83893 389.866L2.83461 395.881L0.834218 395.843L0.838538 389.828L2.83893 389.866ZM2.83029 401.895L2.82597 407.91L0.825581 407.872L0.829899 401.857L2.83029 401.895ZM2.82165 413.925L2.81733 419.939L0.816942 419.901L0.821262 413.887L2.82165 413.925ZM2.81301 425.954L2.80869 431.969L0.808304 431.931L0.812623 425.916L2.81301 425.954ZM2.80437 437.983L2.80006 443.998L0.799666 443.96L0.803984 437.945L2.80437 437.983ZM2.79574 450.013L2.79142 456.027L0.791027 455.989L0.795346 449.975L2.79574 450.013ZM2.7871 462.042L2.78278 468.057L0.782389 468.019L0.786708 462.004L2.7871 462.042ZM2.77846 474.071L2.77414 480.086L0.773751 480.048L0.77807 474.033L2.77846 474.071ZM2.76982 486.101L2.7655 492.115L0.765112 492.077L0.769432 486.063L2.76982 486.101ZM2.76118 498.13L2.75686 504.145L0.756474 504.107L0.760793 498.092L2.76118 498.13ZM2.75254 510.159L2.74823 516.174L0.747836 516.136L0.752155 510.121L2.75254 510.159ZM2.74391 522.189L2.73959 528.203L0.739197 528.166L0.743516 522.151L2.74391 522.189ZM2.73527 534.218L2.73095 540.233L0.730559 540.195L0.734877 534.18L2.73527 534.218ZM2.72663 546.248L2.72231 552.262L0.721921 552.224L0.726239 546.21L2.72663 546.248ZM2.71799 558.277L2.71367 564.292L0.713283 564.254L0.717601 558.239L2.71799 558.277ZM2.70935 570.306L2.70503 576.321L0.704644 576.283L0.708963 570.269L2.70935 570.306ZM2.70071 582.336L2.6964 588.351L0.696005 588.313L0.700324 582.298L2.70071 582.336ZM2.69208 594.365L2.68776 600.38L0.687367 600.342L0.691686 594.327L2.69208 594.365ZM2.68344 606.395L2.67912 612.409L0.678729 612.372L0.683048 606.357L2.68344 606.395ZM2.6748 618.424L2.67048 624.439L0.670091 624.401L0.674409 618.386L2.6748 618.424ZM2.66616 630.454L2.66184 636.468L0.661452 636.43L0.665771 630.416L2.66616 630.454ZM2.65752 642.483L2.6532 648.498L0.652814 648.46L0.657133 642.445L2.65752 642.483ZM2.64888 654.512L2.64457 660.527L0.644176 660.489L0.648494 654.474L2.64888 654.512ZM2.64025 666.542L2.63593 672.557L0.635537 672.519L0.639856 666.504L2.64025 666.542ZM2.63161 678.571L2.62729 684.586L0.626899 684.548L0.631218 678.533L2.63161 678.571ZM2.62297 690.601L2.61865 696.615L0.618261 696.577L0.622579 690.563L2.62297 690.601ZM2.61433 702.63L2.61001 708.645L0.609622 708.607L0.613941 702.592L2.61433 702.63ZM2.60569 714.659L2.60137 720.674L0.600983 720.636L0.605303 714.622L2.60569 714.659ZM2.59705 726.689L2.59273 732.704L0.592346 732.666L0.596664 726.651L2.59705 726.689ZM2.58842 738.718L2.5841 744.733L0.583707 744.695L0.588026 738.68L2.58842 738.718ZM2.57978 750.748L2.57546 756.762L0.575068 756.724L0.579387 750.71L2.57978 750.748ZM2.57114 762.777L2.56682 768.792L0.566431 768.754L0.570749 762.739L2.57114 762.777ZM2.5625 774.807L2.55818 780.821L0.557791 780.783L0.562111 774.769L2.5625 774.807ZM2.55386 786.836L2.54954 792.851L0.549153 792.813L0.553472 786.798L2.55386 786.836ZM2.54522 798.865L2.5409 804.88L0.540514 804.842L0.544834 798.827L2.54522 798.865ZM2.53659 810.895L2.53227 816.91L0.531876 816.872L0.536196 810.857L2.53659 810.895ZM2.52795 822.924L2.52363 828.939L0.523238 828.901L0.527557 822.886L2.52795 822.924ZM2.51931 834.954L2.51499 840.968L0.514599 840.93L0.518919 834.916L2.51931 834.954ZM2.51067 846.983L2.50635 852.998L0.505961 852.96L0.510281 846.945L2.51067 846.983ZM2.50203 859.013L2.49987 862.02L0.499483 861.982L0.501642 858.975L2.50203 859.013ZM1.48136 861.001L4.10654 861.001L4.14318 863L1.518 863L1.48136 861.001ZM9.35691 861L14.6073 861L14.6439 863L9.39355 863L9.35691 861ZM19.8576 861L22.4828 861L22.5195 862.999L19.8943 862.999L19.8576 861Z" fill="#749CC7"/>
</svg>
