<svg width="27" height="357" viewBox="0 0 27 357" fill="none" xmlns="http://www.w3.org/2000/svg">
<path fill-rule="evenodd" clip-rule="evenodd" d="M1.41651 356.922L0.399324 356.922L0.398167 355.905L0.394745 352.906C0.394115 352.354 0.841408 351.914 1.3938 351.924C1.94619 351.933 2.3945 352.388 2.39513 352.94L2.3974 354.923L5.61105 354.923C6.16335 354.923 6.61921 355.371 6.62923 355.923C6.63926 356.475 6.19966 356.923 5.64735 356.923L1.41651 356.922ZM2.3883 346.942C2.38893 347.494 1.94163 347.934 1.38924 347.925C0.836849 347.915 0.388536 347.46 0.387905 346.908L0.381065 340.91C0.380436 340.357 0.827728 339.918 1.38012 339.927C1.93251 339.936 2.38083 340.392 2.38145 340.944L2.3883 346.942ZM2.37461 334.945C2.37525 335.498 1.92795 335.938 1.37556 335.928C0.82317 335.919 0.374855 335.463 0.374226 334.911L0.367386 328.913C0.366756 328.361 0.814049 327.921 1.36644 327.93C1.91883 327.94 2.36715 328.395 2.36777 328.947L2.37461 334.945ZM2.36094 322.949C2.36157 323.501 1.91427 323.941 1.36188 323.931C0.809488 323.922 0.361176 323.467 0.360546 322.915L0.353706 316.916C0.353077 316.364 0.800369 315.924 1.35276 315.934C1.90515 315.943 2.35347 316.398 2.3541 316.951L2.36094 322.949ZM2.34726 310.952C2.34789 311.504 1.90059 311.944 1.3482 311.935C0.795809 311.925 0.347496 311.47 0.346867 310.918L0.340027 304.92C0.339397 304.368 0.78669 303.928 1.33908 303.937C1.89147 303.947 2.33979 304.402 2.34042 304.954L2.34726 310.952ZM2.33358 298.956C2.33421 299.508 1.88691 299.948 1.33452 299.938C0.782129 299.929 0.333817 299.473 0.333187 298.921L0.326347 292.923C0.325718 292.371 0.77301 291.931 1.3254 291.94C1.87779 291.95 2.32611 292.405 2.32674 292.957L2.33358 298.956ZM2.3199 286.959C2.32053 287.511 1.87324 287.951 1.32084 287.941C0.76845 287.932 0.320137 287.477 0.319508 286.925L0.312668 280.926C0.312038 280.374 0.759331 279.934 1.31172 279.944C1.86411 279.953 2.31243 280.409 2.31306 280.961L2.3199 286.959ZM2.30622 274.962C2.30685 275.514 1.85955 275.954 1.30716 275.945C0.75477 275.935 0.306458 275.48 0.305828 274.928L0.298988 268.93C0.298359 268.378 0.745651 267.938 1.29804 267.947C1.85044 267.957 2.29875 268.412 2.29938 268.964L2.30622 274.962ZM2.29254 262.966C2.29317 263.518 1.84587 263.958 1.29348 263.948C0.741091 263.939 0.292778 263.484 0.292149 262.931L0.285309 256.933C0.284679 256.381 0.731972 255.941 1.28436 255.951C1.83676 255.96 2.28507 256.415 2.2857 256.967L2.29254 262.966ZM2.27886 250.969C2.27949 251.521 1.8322 251.961 1.2798 251.952C0.727411 251.942 0.279099 251.487 0.278469 250.935L0.271629 244.937C0.271 244.384 0.718292 243.945 1.27068 243.954C1.82308 243.963 2.27139 244.419 2.27202 244.971L2.27886 250.969ZM2.26518 238.972C2.26581 239.525 1.81852 239.964 1.26612 239.955C0.713732 239.946 0.265419 239.49 0.26479 238.938L0.25795 232.94C0.25732 232.388 0.704613 231.948 1.257 231.957C1.8094 231.967 2.25771 232.422 2.25834 232.974L2.26518 238.972ZM2.2515 226.976C2.25213 227.528 1.80484 227.968 1.25245 227.958C0.700052 227.949 0.25174 227.494 0.25111 226.942L0.24427 220.943C0.243641 220.391 0.690933 219.951 1.24332 219.961C1.79572 219.97 2.24403 220.425 2.24466 220.977L2.2515 226.976ZM2.23782 214.979C2.23845 215.531 1.79116 215.971 1.23876 215.962C0.686373 215.952 0.23806 215.497 0.237431 214.945L0.230591 208.947C0.229961 208.395 0.677254 207.955 1.22964 207.964C1.78204 207.974 2.23035 208.429 2.23098 208.981L2.23782 214.979ZM2.22414 202.983C2.22477 203.535 1.77748 203.975 1.22508 203.965C0.672693 203.956 0.22438 203.5 0.223751 202.948L0.216911 196.95C0.216282 196.398 0.663572 195.958 1.21597 195.967C1.76836 195.977 2.21667 196.432 2.2173 196.984L2.22414 202.983ZM2.21046 190.986C2.21109 191.538 1.7638 191.978 1.2114 191.968C0.659014 191.959 0.210701 191.504 0.210072 190.952L0.203232 184.953C0.202602 184.401 0.649893 183.961 1.20229 183.971C1.75468 183.98 2.20299 184.436 2.20362 184.988L2.21046 190.986ZM2.19678 178.989C2.19741 179.541 1.75012 179.981 1.19773 179.972C0.645334 179.962 0.197021 179.507 0.196392 178.955L0.189552 172.957C0.188923 172.405 0.636213 171.965 1.18861 171.974C1.741 171.984 2.18931 172.439 2.18994 172.991L2.19678 178.989ZM2.1831 166.993C2.18373 167.545 1.73644 167.985 1.18405 167.975C0.631655 167.966 0.183342 167.511 0.182713 166.958L0.175873 160.96C0.175241 160.408 0.622534 159.968 1.17493 159.978C1.72732 159.987 2.17563 160.442 2.17626 160.994L2.1831 166.993ZM2.16942 154.996C2.17005 155.548 1.72276 155.988 1.17037 155.979C0.617973 155.969 0.169662 155.514 0.169033 154.962L0.162191 148.963C0.161562 148.411 0.608854 147.971 1.16125 147.981C1.71364 147.99 2.16195 148.446 2.16258 148.998L2.16942 154.996ZM2.15574 142.999C2.15637 143.551 1.70908 143.991 1.15669 143.982C0.604294 143.972 0.155981 143.517 0.155354 142.965L0.148512 136.967C0.147882 136.415 0.595175 135.975 1.14757 135.984C1.69996 135.994 2.14827 136.449 2.1489 137.001L2.14898 137.067L4.12649 137.144C4.67835 137.166 5.12537 137.631 5.12494 138.183C5.1245 138.735 4.67677 139.166 4.12491 139.144L2.15126 139.067L2.15574 142.999ZM2.14206 131.003C2.14269 131.555 1.6954 131.995 1.14301 131.985C0.590614 131.976 0.142302 131.521 0.141672 130.969L0.134832 124.97C0.134203 124.418 0.581495 123.978 1.13389 123.988C1.68628 123.997 2.13459 124.452 2.13522 125.004L2.14206 131.003ZM2.12838 119.006C2.12901 119.558 1.68172 119.998 1.12933 119.989C0.576935 119.979 0.128622 119.524 0.127993 118.972L0.121153 112.974C0.120523 112.421 0.567816 111.982 1.12021 111.991C1.6726 112 2.12091 112.456 2.12154 113.008L2.12838 119.006ZM2.1147 107.009C2.11533 107.562 1.66804 108.001 1.11565 107.992C0.563255 107.983 0.114943 107.527 0.114313 106.975L0.107473 100.977C0.106844 100.425 0.554136 99.9849 1.10653 99.9944C1.65892 100.004 2.10723 100.459 2.10786 101.011L2.1147 107.009ZM2.10102 95.0128C2.10165 95.5649 1.65436 96.0048 1.10197 95.9954C0.549576 95.9859 0.101263 95.5307 0.100634 94.9786L0.0937939 88.9803C0.0931644 88.4282 0.540457 87.9883 1.09285 87.9977C1.64524 88.0072 2.09355 88.4624 2.09418 89.0145L2.10102 95.0128ZM2.08734 83.0162C2.08797 83.5683 1.64068 84.0082 1.08829 83.9987C0.535896 83.9893 0.0875835 83.534 0.0869541 82.9819L0.0801144 76.9836C0.0794849 76.4315 0.526777 75.9916 1.07917 76.0011C1.63156 76.0105 2.07987 76.4658 2.0805 77.0179L2.08734 83.0162ZM2.07366 71.0195C2.07429 71.5716 1.627 72.0115 1.07461 72.0021C0.522217 71.9926 0.073904 71.5374 0.0732746 70.9853L0.0664349 64.987C0.0658054 64.4349 0.513098 63.995 1.06549 64.0044C1.61788 64.0139 2.06619 64.4691 2.06682 65.0212L2.07366 71.0195ZM2.05998 59.0229C2.06061 59.575 1.61332 60.0149 1.06093 60.0054C0.508537 59.996 0.0602245 59.5408 0.0595951 58.9887L0.0527554 52.9903C0.0521259 52.4383 0.499418 51.9984 1.05181 52.0078C1.6042 52.0173 2.05252 52.4725 2.05314 53.0246L2.05998 59.0229ZM2.0463 47.0263C2.04693 47.5784 1.59964 48.0183 1.04725 48.0088C0.494858 47.9994 0.046545 47.5441 0.0459156 46.992L0.0390759 40.9937C0.0384464 40.4416 0.485739 40.0017 1.03813 40.0112C1.59052 40.0206 2.03884 40.4759 2.03946 41.028L2.0463 47.0263ZM2.03263 35.0296C2.03325 35.5817 1.58596 36.0216 1.03357 36.0122C0.481178 36.0027 0.0328655 35.5475 0.0322361 34.9954L0.0253963 28.9971C0.0247669 28.445 0.472059 28.0051 1.02445 28.0145C1.57684 28.024 2.02516 28.4792 2.02579 29.0313L2.03263 35.0296ZM2.01895 23.033C2.01958 23.5851 1.57228 24.025 1.01989 24.0155C0.467499 24.0061 0.019186 23.5509 0.0185566 22.9988L0.0117168 17.0004C0.0110874 16.4483 0.45838 16.0084 1.01077 16.0179C1.56316 16.0274 2.01148 16.4826 2.01211 17.0347L2.01895 23.033ZM2.00527 11.0364C2.0059 11.5885 1.5586 12.0283 1.00621 12.0189C0.453819 12.0094 0.00550652 11.5542 0.00487709 11.0021L0.00145721 8.00296L0.000335693 7.02018L0.983484 7.02027L3.86401 7.02056C4.41632 7.02061 4.87218 7.46828 4.88221 8.02046C4.89224 8.57264 4.45265 9.02022 3.90035 9.02017L2.00297 9.01998L2.00527 11.0364ZM14.109 356.924C13.5567 356.924 13.1009 356.476 13.0909 355.924C13.0808 355.372 13.5204 354.924 14.0727 354.924L18.3036 354.925L18.3127 355.425L18.3308 356.424L18.3399 356.924L14.109 356.924ZM9.6614 9.02073C9.1091 9.02068 8.65324 8.57301 8.64321 8.02083C8.63317 7.46865 9.07277 7.02107 9.62507 7.02113L15.3861 7.02169C15.9384 7.02175 16.3943 7.46942 16.4043 8.0216C16.4144 8.57377 15.9748 9.02136 15.4225 9.0213L9.6614 9.02073ZM24.7402 7.31545C25.1378 7.70594 25.1493 8.33898 24.7659 8.72939L18.5173 15.0915C18.1339 15.4819 17.5007 15.4818 17.1031 15.0913C16.7054 14.7009 16.6939 14.0678 17.0774 13.6774L21.6498 9.02192L21.1835 9.02187C20.6312 9.02182 20.1754 8.57414 20.1653 8.02197C20.1553 7.46979 20.5949 7.02221 21.1472 7.02226L21.6134 7.02231L16.8718 2.3659C16.4742 1.97542 16.4627 1.34238 16.8461 0.951966C17.2296 0.561556 17.8628 0.561619 18.2604 0.952105L24.7402 7.31545ZM26.7068 139.735C27.0973 139.359 27.0978 138.726 26.7079 138.32L20.3538 131.708C19.9639 131.302 19.3312 131.277 18.9407 131.652C18.5501 132.028 18.5496 132.661 18.9396 133.067L23.5892 137.906L22.8765 137.878C22.3247 137.856 21.877 138.286 21.8765 138.839C21.8761 139.391 22.3231 139.856 22.875 139.878L23.5876 139.906L18.9306 144.38C18.5401 144.756 18.5396 145.389 18.9295 145.795C19.3194 146.2 19.9521 146.225 20.3427 145.85L26.7068 139.735ZM16.6249 139.633C17.1768 139.655 17.6245 139.225 17.625 138.672C17.6254 138.12 17.1784 137.655 16.6265 137.633L10.3765 137.389C9.82464 137.367 9.37692 137.797 9.37648 138.35C9.37605 138.902 9.82306 139.367 10.3749 139.389L16.6249 139.633Z" fill="#BB6BD9"/>
</svg>
