<svg width="26" height="357" viewBox="0 0 26 357" fill="none" xmlns="http://www.w3.org/2000/svg">
<path d="M1.3976 355.923L1.40667 356.423L0.89808 356.423L0.8975 355.914L1.3976 355.923ZM24.3923 7.66898C24.5911 7.86422 24.5968 8.18074 24.4051 8.37595L21.2808 11.557C21.0891 11.7522 20.7725 11.7522 20.5737 11.5569C20.3749 11.3617 20.3691 11.0452 20.5609 10.85L23.338 8.02236L20.4581 5.1942C20.2593 4.99896 20.2535 4.68244 20.4452 4.48723C20.637 4.29203 20.9536 4.29206 21.1524 4.4873L24.3923 7.66898ZM1.00089 8.02015L0.500791 8.01159L0.500231 7.5202L0.991805 7.52025L1.00089 8.02015ZM21.1737 8.52205C20.8975 8.52202 20.6696 8.29818 20.6646 8.02209C20.6596 7.74601 20.8794 7.52221 21.1555 7.52224L21.1737 8.52205ZM15.3944 7.52167C15.6706 7.5217 15.8985 7.74554 15.9035 8.02162C15.9086 8.29771 15.6888 8.5215 15.4126 8.52148L15.3944 7.52167ZM9.65156 8.52091C9.37541 8.52088 9.14748 8.29705 9.14246 8.02096C9.13744 7.74487 9.35724 7.52108 9.63339 7.5211L9.65156 8.52091ZM3.87233 7.52054C4.14848 7.52056 4.37642 7.7444 4.38143 8.02049C4.38645 8.29658 4.16665 8.52037 3.8905 8.52034L3.87233 7.52054ZM1.50441 11.0279C1.50472 11.3039 1.28107 11.5239 1.00488 11.5191C0.728682 11.5144 0.504526 11.2868 0.504211 11.0108L1.50441 11.0279ZM0.511051 17.0091C0.510736 16.733 0.734382 16.5131 1.01058 16.5178C1.28677 16.5225 1.51093 16.7501 1.51125 17.0262L0.511051 17.0091ZM1.51809 23.0245C1.5184 23.3006 1.29475 23.5205 1.01856 23.5158C0.742362 23.5111 0.518205 23.2834 0.517891 23.0074L1.51809 23.0245ZM0.524731 29.0057C0.524415 28.7297 0.748062 28.5097 1.02426 28.5144C1.30045 28.5192 1.52461 28.7468 1.52493 29.0228L0.524731 29.0057ZM1.53176 35.0211C1.53208 35.2972 1.30843 35.5171 1.03224 35.5124C0.756041 35.5077 0.531885 35.2801 0.53157 35.004L1.53176 35.0211ZM0.53841 41.0023C0.538095 40.7263 0.761741 40.5064 1.03794 40.5111C1.31413 40.5158 1.53829 40.7434 1.5386 41.0195L0.53841 41.0023ZM1.54544 47.0178C1.54576 47.2938 1.32211 47.5138 1.04592 47.5091C0.769721 47.5043 0.545565 47.2767 0.54525 47.0007L1.54544 47.0178ZM0.55209 52.999C0.551775 52.7229 0.775421 52.503 1.05162 52.5077C1.32781 52.5124 1.55197 52.7401 1.55228 53.0161L0.55209 52.999ZM1.55912 59.0144C1.55944 59.2905 1.33579 59.5104 1.0596 59.5057C0.783401 59.501 0.559244 59.2734 0.55893 58.9973L1.55912 59.0144ZM0.565769 64.9956C0.565455 64.7196 0.789101 64.4996 1.0653 64.5044C1.34149 64.5091 1.56565 64.7367 1.56596 65.0127L0.565769 64.9956ZM1.5728 71.0111C1.57312 71.2871 1.34947 71.5071 1.07328 71.5023C0.79708 71.4976 0.572924 71.27 0.572609 70.9939L1.5728 71.0111ZM0.579449 76.9923C0.579134 76.7162 0.80278 76.4963 1.07898 76.501C1.35517 76.5057 1.57933 76.7333 1.57964 77.0094L0.579449 76.9923ZM1.58648 83.0077C1.5868 83.2838 1.36315 83.5037 1.08696 83.499C0.81076 83.4942 0.586604 83.2666 0.586289 82.9906L1.58648 83.0077ZM0.593129 88.9889C0.592814 88.7129 0.816459 88.4929 1.09266 88.4976C1.36885 88.5024 1.59301 88.73 1.59332 89.006L0.593129 88.9889ZM1.60016 95.0044C1.60048 95.2804 1.37683 95.5003 1.10064 95.4956C0.824439 95.4909 0.600283 95.2633 0.599969 94.9872L1.60016 95.0044ZM0.606808 100.986C0.606493 100.71 0.830139 100.49 1.10634 100.494C1.38253 100.499 1.60669 100.727 1.607 101.003L0.606808 100.986ZM1.61384 107.001C1.61416 107.277 1.39051 107.497 1.11432 107.492C0.838119 107.488 0.613963 107.26 0.613648 106.984L1.61384 107.001ZM0.620488 112.982C0.620173 112.706 0.843819 112.486 1.12002 112.491C1.39621 112.496 1.62037 112.723 1.62068 112.999L0.620488 112.982ZM1.62752 118.998C1.62784 119.274 1.40419 119.494 1.12799 119.489C0.851799 119.484 0.627642 119.257 0.627328 118.981L1.62752 118.998ZM0.634167 124.979C0.633853 124.703 0.857499 124.483 1.13369 124.488C1.40989 124.492 1.63405 124.72 1.63436 124.996L0.634167 124.979ZM1.6412 130.994C1.64152 131.27 1.41787 131.49 1.14167 131.486C0.865478 131.481 0.641322 131.253 0.641007 130.977L1.6412 130.994ZM0.647847 136.975C0.647533 136.699 0.871178 136.479 1.14737 136.484C1.42357 136.489 1.64773 136.717 1.64804 136.993L0.647847 136.975ZM1.65488 142.991C1.6552 143.267 1.43155 143.487 1.15535 143.482C0.879158 143.477 0.655002 143.25 0.654687 142.974L1.65488 142.991ZM0.661527 148.972C0.661212 148.696 0.884858 148.476 1.16105 148.481C1.43725 148.486 1.66141 148.713 1.66172 148.989L0.661527 148.972ZM1.66856 154.988C1.66888 155.264 1.44523 155.484 1.16903 155.479C0.892838 155.474 0.668681 155.246 0.668367 154.97L1.66856 154.988ZM0.675206 160.969C0.674891 160.693 0.898537 160.473 1.17473 160.477C1.45093 160.482 1.67509 160.71 1.6754 160.986L0.675206 160.969ZM1.68224 166.984C1.68256 167.26 1.45891 167.48 1.18271 167.475C0.906517 167.471 0.682361 167.243 0.682046 166.967L1.68224 166.984ZM0.688886 172.965C0.688571 172.689 0.912217 172.469 1.18841 172.474C1.46461 172.479 1.68877 172.706 1.68908 172.982L0.688886 172.965ZM1.69592 178.981C1.69624 179.257 1.47259 179.477 1.19639 179.472C0.920197 179.467 0.69604 179.24 0.695726 178.964L1.69592 178.981ZM0.702566 184.962C0.702251 184.686 0.925897 184.466 1.20209 184.471C1.47829 184.475 1.70245 184.703 1.70276 184.979L0.702566 184.962ZM1.7096 190.977C1.70991 191.253 1.48627 191.473 1.21007 191.469C0.933877 191.464 0.70972 191.236 0.709406 190.96L1.7096 190.977ZM0.716245 196.959C0.71593 196.683 0.939576 196.463 1.21577 196.467C1.49197 196.472 1.71612 196.7 1.71644 196.976L0.716245 196.959ZM1.72328 202.974C1.72359 203.25 1.49995 203.47 1.22375 203.465C0.947556 203.461 0.7234 203.233 0.723085 202.957L1.72328 202.974ZM0.729925 208.955C0.72961 208.679 0.953256 208.459 1.22945 208.464C1.50565 208.469 1.7298 208.696 1.73012 208.972L0.729925 208.955ZM1.73696 214.971C1.73727 215.247 1.51363 215.467 1.23743 215.462C0.961236 215.457 0.737079 215.23 0.736765 214.954L1.73696 214.971ZM0.743604 220.952C0.74329 220.676 0.966936 220.456 1.24313 220.461C1.51933 220.465 1.74348 220.693 1.7438 220.969L0.743604 220.952ZM1.75064 226.967C1.75095 227.243 1.52731 227.463 1.25111 227.459C0.974915 227.454 0.750759 227.226 0.750444 226.95L1.75064 226.967ZM0.757284 232.949C0.756969 232.672 0.980615 232.453 1.25681 232.457C1.53301 232.462 1.75716 232.69 1.75748 232.966L0.757284 232.949ZM1.76432 238.964C1.76463 239.24 1.54099 239.46 1.26479 239.455C0.988595 239.451 0.764439 239.223 0.764124 238.947L1.76432 238.964ZM0.770964 244.945C0.770649 244.669 0.994295 244.449 1.27049 244.454C1.54669 244.459 1.77084 244.686 1.77116 244.962L0.770964 244.945ZM1.778 250.961C1.77831 251.237 1.55467 251.457 1.27847 251.452C1.00227 251.447 0.778118 251.22 0.777803 250.943L1.778 250.961ZM0.784643 256.942C0.784328 256.666 1.00797 256.446 1.28417 256.451C1.56037 256.455 1.78452 256.683 1.78484 256.959L0.784643 256.942ZM1.79168 262.957C1.79199 263.233 1.56835 263.453 1.29215 263.448C1.01595 263.444 0.791798 263.216 0.791483 262.94L1.79168 262.957ZM0.798323 268.938C0.798008 268.662 1.02165 268.442 1.29785 268.447C1.57405 268.452 1.7982 268.679 1.79852 268.956L0.798323 268.938ZM1.80536 274.954C1.80567 275.23 1.58203 275.45 1.30583 275.445C1.02963 275.44 0.805477 275.213 0.805163 274.937L1.80536 274.954ZM0.812003 280.935C0.811688 280.659 1.03533 280.439 1.31153 280.444C1.58773 280.449 1.81188 280.676 1.8122 280.952L0.812003 280.935ZM1.81904 286.95C1.81935 287.227 1.59571 287.446 1.31951 287.442C1.04331 287.437 0.819157 287.209 0.818842 286.933L1.81904 286.95ZM0.825682 292.932C0.825367 292.656 1.04901 292.436 1.32521 292.44C1.60141 292.445 1.82556 292.673 1.82588 292.949L0.825682 292.932ZM1.83272 298.947C1.83303 299.223 1.60939 299.443 1.33319 299.438C1.05699 299.434 0.832837 299.206 0.832522 298.93L1.83272 298.947ZM0.839362 304.928C0.839047 304.652 1.06269 304.432 1.33889 304.437C1.61509 304.442 1.83924 304.669 1.83956 304.945L0.839362 304.928ZM1.8464 310.944C1.84671 311.22 1.62306 311.44 1.34687 311.435C1.07067 311.43 0.846516 311.203 0.846201 310.927L1.8464 310.944ZM0.853041 316.925C0.852727 316.649 1.07637 316.429 1.35257 316.434C1.62876 316.438 1.85292 316.666 1.85324 316.942L0.853041 316.925ZM1.86008 322.94C1.86039 323.216 1.63674 323.436 1.36055 323.432C1.08435 323.427 0.860196 323.199 0.859881 322.923L1.86008 322.94ZM0.866721 328.922C0.866406 328.646 1.09005 328.426 1.36625 328.43C1.64244 328.435 1.8666 328.663 1.86692 328.939L0.866721 328.922ZM1.87376 334.937C1.87407 335.213 1.65042 335.433 1.37423 335.428C1.09803 335.424 0.873875 335.196 0.873561 334.92L1.87376 334.937ZM0.880401 340.918C0.880086 340.642 1.10373 340.422 1.37993 340.427C1.65612 340.432 1.88028 340.659 1.8806 340.935L0.880401 340.918ZM1.88744 346.934C1.88775 347.21 1.6641 347.43 1.38791 347.425C1.11171 347.42 0.887555 347.193 0.88724 346.917L1.88744 346.934ZM0.89408 352.915C0.893765 352.639 1.11741 352.419 1.39361 352.424C1.6698 352.428 1.89396 352.656 1.89427 352.932L0.89408 352.915ZM5.61936 355.423C5.89551 355.423 6.12344 355.647 6.12845 355.923C6.13347 356.199 5.91367 356.423 5.63752 356.423L5.61936 355.423ZM14.0992 356.424C13.823 356.424 13.5951 356.2 13.5901 355.924C13.5851 355.648 13.8049 355.424 14.081 355.424L14.0992 356.424ZM24.0542 8.52233L21.1737 8.52205L21.1555 7.52224L24.036 7.52252L24.0542 8.52233ZM15.4126 8.52148L9.65156 8.52091L9.63339 7.5211L15.3944 7.52167L15.4126 8.52148ZM3.8905 8.52034L1.00997 8.52006L0.991805 7.52025L3.87233 7.52054L3.8905 8.52034ZM1.50099 8.02871L1.50441 11.0279L0.504211 11.0108L0.500791 8.01159L1.50099 8.02871ZM1.51125 17.0262L1.51809 23.0245L0.517891 23.0074L0.511051 17.0091L1.51125 17.0262ZM1.52493 29.0228L1.53176 35.0211L0.53157 35.004L0.524731 29.0057L1.52493 29.0228ZM1.5386 41.0195L1.54544 47.0178L0.54525 47.0007L0.53841 41.0023L1.5386 41.0195ZM1.55228 53.0161L1.55912 59.0144L0.55893 58.9973L0.55209 52.999L1.55228 53.0161ZM1.56596 65.0127L1.5728 71.0111L0.572609 70.9939L0.565769 64.9956L1.56596 65.0127ZM1.57964 77.0094L1.58648 83.0077L0.586289 82.9906L0.579449 76.9923L1.57964 77.0094ZM1.59332 89.006L1.60016 95.0044L0.599969 94.9872L0.593129 88.9889L1.59332 89.006ZM1.607 101.003L1.61384 107.001L0.613648 106.984L0.606808 100.986L1.607 101.003ZM1.62068 112.999L1.62752 118.998L0.627328 118.981L0.620488 112.982L1.62068 112.999ZM1.63436 124.996L1.6412 130.994L0.641007 130.977L0.634167 124.979L1.63436 124.996ZM1.64804 136.993L1.65488 142.991L0.654687 142.974L0.647847 136.975L1.64804 136.993ZM1.66172 148.989L1.66856 154.988L0.668367 154.97L0.661527 148.972L1.66172 148.989ZM1.6754 160.986L1.68224 166.984L0.682046 166.967L0.675206 160.969L1.6754 160.986ZM1.68908 172.982L1.69592 178.981L0.695726 178.964L0.688886 172.965L1.68908 172.982ZM1.70276 184.979L1.7096 190.977L0.709406 190.96L0.702566 184.962L1.70276 184.979ZM1.71644 196.976L1.72328 202.974L0.723085 202.957L0.716245 196.959L1.71644 196.976ZM1.73012 208.972L1.73696 214.971L0.736765 214.954L0.729925 208.955L1.73012 208.972ZM1.7438 220.969L1.75064 226.967L0.750444 226.95L0.743604 220.952L1.7438 220.969ZM1.75748 232.966L1.76432 238.964L0.764124 238.947L0.757284 232.949L1.75748 232.966ZM1.77116 244.962L1.778 250.961L0.777803 250.943L0.770964 244.945L1.77116 244.962ZM1.78484 256.959L1.79168 262.957L0.791483 262.94L0.784643 256.942L1.78484 256.959ZM1.79852 268.956L1.80536 274.954L0.805163 274.937L0.798323 268.938L1.79852 268.956ZM1.8122 280.952L1.81904 286.95L0.818842 286.933L0.812003 280.935L1.8122 280.952ZM1.82588 292.949L1.83272 298.947L0.832522 298.93L0.825682 292.932L1.82588 292.949ZM1.83956 304.945L1.8464 310.944L0.846201 310.927L0.839362 304.928L1.83956 304.945ZM1.85324 316.942L1.86008 322.94L0.859881 322.923L0.853041 316.925L1.85324 316.942ZM1.86692 328.939L1.87376 334.937L0.873561 334.92L0.866721 328.922L1.86692 328.939ZM1.8806 340.935L1.88744 346.934L0.88724 346.917L0.880401 340.918L1.8806 340.935ZM1.89427 352.932L1.89769 355.931L0.8975 355.914L0.89408 352.915L1.89427 352.932ZM1.38852 355.423L5.61936 355.423L5.63752 356.423L1.40667 356.423L1.38852 355.423ZM14.081 355.424L18.3119 355.425L18.33 356.425L14.0992 356.424L14.081 355.424ZM1.3976 355.923L1.41575 356.922L0.398562 356.922L0.397403 355.906L1.3976 355.923ZM24.7394 7.31553C25.137 7.70601 25.1485 8.33906 24.7651 8.72947L18.5166 15.0916C18.1331 15.482 17.4999 15.4819 17.1023 15.0914C16.7047 14.7009 16.6932 14.0679 17.0766 13.6775L22.6309 8.02229L16.8711 2.36598C16.4734 1.97549 16.4619 1.34245 16.8454 0.952042C17.2288 0.561633 17.862 0.561695 18.2596 0.952182L24.7394 7.31553ZM1.00089 8.02015L0.000693807 8.00303L-0.00042666 7.02025L0.982721 7.02035L1.00089 8.02015ZM21.1828 9.02195C20.6305 9.02189 20.1746 8.57422 20.1646 8.02204C20.1545 7.46987 20.5941 7.02228 21.1464 7.02234L21.1828 9.02195ZM15.3854 7.02177C15.9377 7.02182 16.3935 7.4695 16.4036 8.02167C16.4136 8.57385 15.974 9.02143 15.4217 9.02138L15.3854 7.02177ZM9.66064 9.02081C9.10834 9.02076 8.65248 8.57308 8.64244 8.02091C8.63241 7.46873 9.072 7.02115 9.62431 7.0212L9.66064 9.02081ZM3.86325 7.02063C4.41555 7.02069 4.87141 7.46836 4.88145 8.02054C4.89148 8.57271 4.45189 9.0203 3.89958 9.02024L3.86325 7.02063ZM2.0045 11.0364C2.00513 11.5885 1.55784 12.0284 1.00545 12.019C0.453056 12.0095 0.00474336 11.5543 0.00411373 11.0022L2.0045 11.0364ZM0.0109536 17.0005C0.010324 16.4484 0.457616 16.0085 1.01001 16.018C1.5624 16.0274 2.01071 16.4827 2.01134 17.0348L0.0109536 17.0005ZM2.01818 23.0331C2.01881 23.5852 1.57152 24.0251 1.01913 24.0156C0.466736 24.0062 0.0184231 23.5509 0.0177935 22.9988L2.01818 23.0331ZM0.0246333 28.9972C0.0240037 28.4451 0.471296 28.0052 1.02369 28.0146C1.57608 28.0241 2.02439 28.4793 2.02502 29.0314L0.0246333 28.9972ZM2.03186 35.0297C2.03249 35.5818 1.5852 36.0217 1.03281 36.0122C0.480415 36.0028 0.0321022 35.5476 0.0314731 34.9955L2.03186 35.0297ZM0.038313 40.9938C0.0376833 40.4417 0.484975 40.0018 1.03737 40.0113C1.58976 40.0207 2.03807 40.4759 2.0387 41.028L0.038313 40.9938ZM2.04554 47.0263C2.04617 47.5784 1.59888 48.0183 1.04649 48.0089C0.494095 47.9994 0.0457819 47.5442 0.0451523 46.9921L2.04554 47.0263ZM0.0519921 52.9904C0.051363 52.4383 0.498655 51.9984 1.05105 52.0079C1.60344 52.0173 2.05175 52.4726 2.05238 53.0247L0.0519921 52.9904ZM2.05922 59.023C2.05985 59.5751 1.61256 60.015 1.06017 60.0055C0.507775 59.9961 0.0594615 59.5408 0.058832 58.9887L2.05922 59.023ZM0.0656719 64.9871C0.0650422 64.435 0.512334 63.9951 1.06473 64.0045C1.61712 64.014 2.06543 64.4692 2.06606 65.0213L0.0656719 64.9871ZM2.0729 71.0196C2.07353 71.5717 1.62624 72.0116 1.07385 72.0022C0.521454 71.9927 0.0731413 71.5375 0.0725117 70.9854L2.0729 71.0196ZM0.0793514 76.9837C0.0787219 76.4316 0.526014 75.9917 1.07841 76.0012C1.6308 76.0106 2.07911 76.4658 2.07974 77.0179L0.0793514 76.9837ZM2.08658 83.0163C2.08721 83.5684 1.63992 84.0083 1.08753 83.9988C0.535134 83.9893 0.086821 83.5341 0.0861914 82.982L2.08658 83.0163ZM0.0930313 88.9803C0.0924016 88.4282 0.539694 87.9884 1.09209 87.9978C1.64448 88.0073 2.09279 88.4625 2.09342 89.0146L0.0930313 88.9803ZM2.10026 95.0129C2.10089 95.565 1.6536 96.0049 1.10121 95.9954C0.548813 95.986 0.100501 95.5308 0.0998711 94.9787L2.10026 95.0129ZM0.106711 100.977C0.106081 100.425 0.553373 99.985 1.10577 99.9945C1.65816 100.004 2.10647 100.459 2.1071 101.011L0.106711 100.977ZM2.11394 107.01C2.11457 107.562 1.66728 108.002 1.11489 107.992C0.562493 107.983 0.11418 107.527 0.113551 106.975L2.11394 107.01ZM0.120391 112.974C0.119761 112.422 0.567053 111.982 1.11945 111.991C1.67184 112.001 2.12015 112.456 2.12078 113.008L0.120391 112.974ZM2.12762 119.006C2.12825 119.558 1.68096 119.998 1.12856 119.989C0.576173 119.979 0.12786 119.524 0.12723 118.972L2.12762 119.006ZM0.13407 124.97C0.13344 124.418 0.580733 123.978 1.13313 123.988C1.68552 123.997 2.13383 124.452 2.13446 125.005L0.13407 124.97ZM2.1413 131.003C2.14193 131.555 1.69464 131.995 1.14224 131.985C0.589852 131.976 0.141539 131.521 0.14091 130.969L2.1413 131.003ZM0.14775 136.967C0.14712 136.415 0.594412 135.975 1.1468 135.984C1.6992 135.994 2.14751 136.449 2.14814 137.001L0.14775 136.967ZM2.15498 142.999C2.15561 143.552 1.70832 143.991 1.15592 143.982C0.603532 143.973 0.155219 143.517 0.15459 142.965L2.15498 142.999ZM0.161429 148.964C0.1608 148.411 0.608092 147.972 1.16048 147.981C1.71288 147.99 2.16119 148.446 2.16182 148.998L0.161429 148.964ZM2.16866 154.996C2.16929 155.548 1.722 155.988 1.1696 155.979C0.617211 155.969 0.168899 155.514 0.168269 154.962L2.16866 154.996ZM0.175109 160.96C0.174479 160.408 0.621772 159.968 1.17416 159.978C1.72656 159.987 2.17487 160.442 2.1755 160.994L0.175109 160.96ZM2.18234 166.993C2.18297 167.545 1.73568 167.985 1.18328 167.975C0.630891 167.966 0.182578 167.511 0.181949 166.958L2.18234 166.993ZM0.188789 172.957C0.188159 172.405 0.635451 171.965 1.18784 171.974C1.74024 171.984 2.18855 172.439 2.18918 172.991L0.188789 172.957ZM2.19602 178.989C2.19665 179.541 1.74936 179.981 1.19696 179.972C0.644571 179.962 0.196258 179.507 0.195628 178.955L2.19602 178.989ZM0.202468 184.953C0.201839 184.401 0.649131 183.961 1.20152 183.971C1.75392 183.98 2.20223 184.436 2.20286 184.988L0.202468 184.953ZM2.2097 190.986C2.21033 191.538 1.76303 191.978 1.21064 191.969C0.65825 191.959 0.209938 191.504 0.209308 190.952L2.2097 190.986ZM0.216148 196.95C0.215518 196.398 0.66281 195.958 1.2152 195.968C1.76759 195.977 2.21591 196.432 2.21654 196.984L0.216148 196.95ZM2.22338 202.983C2.22401 203.535 1.77671 203.975 1.22432 203.965C0.67193 203.956 0.223617 203.5 0.222988 202.948L2.22338 202.983ZM0.229828 208.947C0.229198 208.395 0.67649 207.955 1.22888 207.964C1.78127 207.974 2.22959 208.429 2.23022 208.981L0.229828 208.947ZM2.23706 214.979C2.23769 215.531 1.79039 215.971 1.238 215.962C0.685609 215.952 0.237297 215.497 0.236667 214.945L2.23706 214.979ZM0.243507 220.943C0.242878 220.391 0.690169 219.951 1.24256 219.961C1.79495 219.97 2.24327 220.425 2.2439 220.978L0.243507 220.943ZM2.25074 226.976C2.25137 227.528 1.80407 227.968 1.25168 227.958C0.699289 227.949 0.250976 227.494 0.250347 226.942L2.25074 226.976ZM0.257187 232.94C0.256557 232.388 0.703849 231.948 1.25624 231.957C1.80863 231.967 2.25695 232.422 2.25758 232.974L0.257187 232.94ZM2.26442 238.973C2.26505 239.525 1.81775 239.965 1.26536 239.955C0.712969 239.946 0.264656 239.49 0.264026 238.938L2.26442 238.973ZM0.270866 244.937C0.270237 244.384 0.717529 243.945 1.26992 243.954C1.82231 243.963 2.27063 244.419 2.27126 244.971L0.270866 244.937ZM2.2781 250.969C2.27872 251.521 1.83143 251.961 1.27904 251.952C0.726648 251.942 0.278336 251.487 0.277706 250.935L2.2781 250.969ZM0.284546 256.933C0.283916 256.381 0.731208 255.941 1.2836 255.951C1.83599 255.96 2.28431 256.415 2.28494 256.967L0.284546 256.933ZM2.29177 262.966C2.2924 263.518 1.84511 263.958 1.29272 263.948C0.740328 263.939 0.292015 263.484 0.291386 262.932L2.29177 262.966ZM0.298225 268.93C0.297596 268.378 0.744888 267.938 1.29728 267.947C1.84967 267.957 2.29798 268.412 2.29861 268.964L0.298225 268.93ZM2.30545 274.962C2.30608 275.514 1.85879 275.954 1.3064 275.945C0.754007 275.935 0.305695 275.48 0.305065 274.928L2.30545 274.962ZM0.311905 280.926C0.311275 280.374 0.758567 279.934 1.31096 279.944C1.86335 279.953 2.31166 280.409 2.31229 280.961L0.311905 280.926ZM2.31913 286.959C2.31976 287.511 1.87247 287.951 1.32008 287.942C0.767687 287.932 0.319374 287.477 0.318745 286.925L2.31913 286.959ZM0.325585 292.923C0.324955 292.371 0.772247 291.931 1.32464 291.941C1.87703 291.95 2.32534 292.405 2.32597 292.957L0.325585 292.923ZM2.33281 298.956C2.33344 299.508 1.88615 299.948 1.33376 299.938C0.781367 299.929 0.333054 299.474 0.332425 298.921L2.33281 298.956ZM0.339265 304.92C0.338635 304.368 0.785927 303.928 1.33832 303.937C1.89071 303.947 2.33902 304.402 2.33965 304.954L0.339265 304.92ZM2.34649 310.952C2.34712 311.504 1.89983 311.944 1.34744 311.935C0.795047 311.925 0.346734 311.47 0.346104 310.918L2.34649 310.952ZM0.352944 316.916C0.352315 316.364 0.799607 315.924 1.352 315.934C1.90439 315.943 2.3527 316.399 2.35333 316.951L0.352944 316.916ZM2.36017 322.949C2.3608 323.501 1.91351 323.941 1.36112 323.931C0.808726 323.922 0.360413 323.467 0.359784 322.915L2.36017 322.949ZM0.366624 328.913C0.365994 328.361 0.813286 327.921 1.36568 327.93C1.91807 327.94 2.36638 328.395 2.36701 328.947L0.366624 328.913ZM2.37385 334.946C2.37448 335.498 1.92719 335.938 1.3748 335.928C0.822406 335.919 0.374093 335.463 0.373463 334.911L2.37385 334.946ZM0.380303 340.91C0.379674 340.358 0.826966 339.918 1.37936 339.927C1.93175 339.937 2.38006 340.392 2.38069 340.944L0.380303 340.91ZM2.38753 346.942C2.38816 347.494 1.94087 347.934 1.38848 347.925C0.836085 347.915 0.387773 347.46 0.387143 346.908L2.38753 346.942ZM0.393983 352.906C0.393353 352.354 0.840645 351.914 1.39304 351.924C1.94543 351.933 2.39374 352.388 2.39437 352.941L0.393983 352.906ZM5.61029 354.923C6.16259 354.923 6.61845 355.371 6.62847 355.923C6.63849 356.475 6.19889 356.923 5.64659 356.923L5.61029 354.923ZM14.1083 356.924C13.556 356.924 13.1001 356.476 13.0901 355.924C13.0801 355.372 13.5197 354.924 14.072 354.924L14.1083 356.924ZM24.0633 9.02223L21.1828 9.02195L21.1464 7.02234L24.027 7.02262L24.0633 9.02223ZM15.4217 9.02138L9.66064 9.02081L9.62431 7.0212L15.3854 7.02177L15.4217 9.02138ZM3.89958 9.02024L1.01906 9.01996L0.982721 7.02035L3.86325 7.02063L3.89958 9.02024ZM2.00108 8.03727L2.0045 11.0364L0.00411373 11.0022L0.000693807 8.00303L2.00108 8.03727ZM2.01134 17.0348L2.01818 23.0331L0.0177935 22.9988L0.0109536 17.0005L2.01134 17.0348ZM2.02502 29.0314L2.03186 35.0297L0.0314731 34.9955L0.0246333 28.9972L2.02502 29.0314ZM2.0387 41.028L2.04554 47.0263L0.0451523 46.9921L0.038313 40.9938L2.0387 41.028ZM2.05238 53.0247L2.05922 59.023L0.058832 58.9887L0.0519921 52.9904L2.05238 53.0247ZM2.06606 65.0213L2.0729 71.0196L0.0725117 70.9854L0.0656719 64.9871L2.06606 65.0213ZM2.07974 77.0179L2.08658 83.0163L0.0861914 82.982L0.0793514 76.9837L2.07974 77.0179ZM2.09342 89.0146L2.10026 95.0129L0.0998711 94.9787L0.0930313 88.9803L2.09342 89.0146ZM2.1071 101.011L2.11394 107.01L0.113551 106.975L0.106711 100.977L2.1071 101.011ZM2.12078 113.008L2.12762 119.006L0.12723 118.972L0.120391 112.974L2.12078 113.008ZM2.13446 125.005L2.1413 131.003L0.14091 130.969L0.13407 124.97L2.13446 125.005ZM2.14814 137.001L2.15498 142.999L0.15459 142.965L0.14775 136.967L2.14814 137.001ZM2.16182 148.998L2.16866 154.996L0.168269 154.962L0.161429 148.964L2.16182 148.998ZM2.1755 160.994L2.18234 166.993L0.181949 166.958L0.175109 160.96L2.1755 160.994ZM2.18918 172.991L2.19602 178.989L0.195628 178.955L0.188789 172.957L2.18918 172.991ZM2.20286 184.988L2.2097 190.986L0.209308 190.952L0.202468 184.953L2.20286 184.988ZM2.21654 196.984L2.22338 202.983L0.222988 202.948L0.216148 196.95L2.21654 196.984ZM2.23022 208.981L2.23706 214.979L0.236667 214.945L0.229828 208.947L2.23022 208.981ZM2.2439 220.978L2.25074 226.976L0.250347 226.942L0.243507 220.943L2.2439 220.978ZM2.25758 232.974L2.26442 238.973L0.264026 238.938L0.257187 232.94L2.25758 232.974ZM2.27126 244.971L2.2781 250.969L0.277706 250.935L0.270866 244.937L2.27126 244.971ZM2.28494 256.967L2.29177 262.966L0.291386 262.932L0.284546 256.933L2.28494 256.967ZM2.29861 268.964L2.30545 274.962L0.305065 274.928L0.298225 268.93L2.29861 268.964ZM2.31229 280.961L2.31913 286.959L0.318745 286.925L0.311905 280.926L2.31229 280.961ZM2.32597 292.957L2.33281 298.956L0.332425 298.921L0.325585 292.923L2.32597 292.957ZM2.33965 304.954L2.34649 310.952L0.346104 310.918L0.339265 304.92L2.33965 304.954ZM2.35333 316.951L2.36017 322.949L0.359784 322.915L0.352944 316.916L2.35333 316.951ZM2.36701 328.947L2.37385 334.946L0.373463 334.911L0.366624 328.913L2.36701 328.947ZM2.38069 340.944L2.38753 346.942L0.387143 346.908L0.380303 340.91L2.38069 340.944ZM2.39437 352.941L2.39779 355.94L0.397403 355.906L0.393983 352.906L2.39437 352.941ZM1.37945 354.923L5.61029 354.923L5.64659 356.923L1.41575 356.922L1.37945 354.923ZM14.072 354.924L18.3028 354.925L18.3391 356.924L14.1083 356.924L14.072 354.924Z" fill="#BB6BD9"/>
</svg>
