<svg width="70" height="16" viewBox="0 0 70 16" fill="none" xmlns="http://www.w3.org/2000/svg">
<path d="M69.3528 8.35864C69.5484 8.16618 69.5491 7.8496 69.3543 7.65153L66.1795 4.42379C65.9846 4.22572 65.6681 4.22117 65.4724 4.41362C65.2768 4.60608 65.2761 4.92266 65.4709 5.12073L68.293 7.98983L65.4588 10.7776C65.2631 10.97 65.2624 11.2866 65.4572 11.4847C65.6521 11.6827 65.9686 11.6873 66.1643 11.4948L69.3528 8.35864ZM66.1677 7.45925C65.8916 7.45527 65.6673 7.67591 65.6667 7.95205C65.6661 8.2282 65.8895 8.45527 66.1656 8.45924L66.1677 7.45925ZM60.4989 8.37773C60.775 8.3817 60.9993 8.16107 60.9999 7.88493C61.0005 7.60878 60.7772 7.38171 60.501 7.37774L60.4989 8.37773ZM54.8344 7.29622C54.5583 7.29225 54.3339 7.51289 54.3333 7.78903C54.3328 8.06517 54.5561 8.29225 54.8322 8.29622L54.8344 7.29622ZM49.1655 8.21471C49.4416 8.21868 49.666 7.99805 49.6666 7.7219C49.6671 7.44576 49.4438 7.21869 49.1677 7.21471L49.1655 8.21471ZM43.501 7.1332C43.2249 7.12923 43.0006 7.34987 43 7.62601C42.9994 7.90215 43.2227 8.12923 43.4989 8.1332L43.501 7.1332ZM37.8322 8.05169C38.1083 8.05566 38.3326 7.83503 38.3332 7.55888C38.3338 7.28274 38.1104 7.05567 37.8343 7.05169L37.8322 8.05169ZM32.1676 6.97018C31.8915 6.96621 31.6672 7.18685 31.6666 7.46299C31.666 7.73913 31.8894 7.96621 32.1655 7.97018L32.1676 6.97018ZM26.4988 7.88867C26.7749 7.89264 26.9992 7.672 26.9998 7.39586C27.0004 7.11972 26.7771 6.89264 26.5009 6.88867L26.4988 7.88867ZM20.8343 6.80716C20.5582 6.80319 20.3338 7.02383 20.3332 7.29997C20.3327 7.57611 20.556 7.80319 20.8321 7.80716L20.8343 6.80716ZM15.1654 7.72565C15.4416 7.72962 15.6659 7.50898 15.6665 7.23284C15.6671 6.9567 15.4437 6.72962 15.1676 6.72565L15.1654 7.72565ZM9.50091 6.64414C9.22479 6.64017 9.00048 6.86081 8.99988 7.13695C8.99929 7.41309 9.22265 7.64017 9.49876 7.64414L9.50091 6.64414ZM3.83208 7.56263C4.10819 7.5666 4.33251 7.34596 4.3331 7.06982C4.33369 6.79368 4.11033 6.5666 3.83422 6.56263L3.83208 7.56263ZM69.0011 7.5L66.1677 7.45925L66.1656 8.45924L68.9989 8.5L69.0011 7.5ZM60.501 7.37774L54.8344 7.29622L54.8322 8.29622L60.4989 8.37773L60.501 7.37774ZM49.1677 7.21471L43.501 7.1332L43.4989 8.1332L49.1655 8.21471L49.1677 7.21471ZM37.8343 7.05169L32.1676 6.97018L32.1655 7.97018L37.8322 8.05169L37.8343 7.05169ZM26.5009 6.88867L20.8343 6.80716L20.8321 7.80716L26.4988 7.88867L26.5009 6.88867ZM15.1676 6.72565L9.50091 6.64414L9.49876 7.64414L15.1654 7.72565L15.1676 6.72565ZM3.83422 6.56263L1.00088 6.52188L0.998731 7.52187L3.83208 7.56263L3.83422 6.56263ZM69.7055 8.71728C70.0968 8.33237 70.0982 7.69921 69.7086 7.30306L63.3589 0.847587C62.9693 0.451447 62.3362 0.44234 61.9448 0.827247C61.5535 1.21215 61.5522 1.84532 61.9418 2.24146L67.5859 7.97966L61.9175 13.5551C61.5262 13.94 61.5248 14.5732 61.9145 14.9694C62.3041 15.3655 62.9372 15.3746 63.3286 14.9897L69.7055 8.71728ZM66.1688 6.95925C65.6166 6.9513 65.1679 7.39258 65.1668 7.94486C65.1656 8.49715 65.6123 8.9513 66.1645 8.95924L66.1688 6.95925ZM60.4978 8.87773C61.0501 8.88568 61.4987 8.4444 61.4999 7.89212C61.5011 7.33983 61.0543 6.88568 60.5021 6.87774L60.4978 8.87773ZM54.8354 6.79623C54.2832 6.78828 53.8346 7.22956 53.8334 7.78184C53.8322 8.33412 54.2789 8.78828 54.8311 8.79622L54.8354 6.79623ZM49.1645 8.71471C49.7167 8.72265 50.1653 8.28138 50.1665 7.7291C50.1677 7.17681 49.721 6.72266 49.1688 6.71472L49.1645 8.71471ZM43.5021 6.63321C42.9498 6.62526 42.5012 7.06654 42.5 7.61882C42.4988 8.1711 42.9456 8.62526 43.4978 8.6332L43.5021 6.63321ZM37.8311 8.55169C38.3833 8.55963 38.832 8.11836 38.8331 7.56608C38.8343 7.01379 38.3876 6.55964 37.8354 6.55169L37.8311 8.55169ZM32.1687 6.47018C31.6165 6.46224 31.1678 6.90352 31.1667 7.4558C31.1655 8.00808 31.6122 8.46224 32.1644 8.47018L32.1687 6.47018ZM26.4977 8.38867C27.05 8.39661 27.4986 7.95534 27.4998 7.40305C27.501 6.85077 27.0542 6.39662 26.502 6.38867L26.4977 8.38867ZM20.8353 6.30716C20.2831 6.29922 19.8345 6.74049 19.8333 7.29278C19.8321 7.84506 20.2788 8.29922 20.831 8.30716L20.8353 6.30716ZM15.1644 8.22565C15.7166 8.23359 16.1652 7.79232 16.1664 7.24003C16.1676 6.68775 15.7209 6.2336 15.1687 6.22565L15.1644 8.22565ZM9.50198 6.14414C8.94975 6.1362 8.50112 6.57747 8.49994 7.12976C8.49875 7.68204 8.94546 8.13619 9.49769 8.14414L9.50198 6.14414ZM3.83101 8.06263C4.38323 8.07057 4.83186 7.6293 4.83305 7.07701C4.83423 6.52473 4.38752 6.07058 3.8353 6.06263L3.83101 8.06263ZM69.0021 7L66.1688 6.95925L66.1645 8.95924L68.9979 9L69.0021 7ZM60.5021 6.87774L54.8354 6.79623L54.8311 8.79622L60.4978 8.87773L60.5021 6.87774ZM49.1688 6.71472L43.5021 6.63321L43.4978 8.6332L49.1645 8.71471L49.1688 6.71472ZM37.8354 6.55169L32.1687 6.47018L32.1644 8.47018L37.8311 8.55169L37.8354 6.55169ZM26.502 6.38867L20.8353 6.30716L20.831 8.30716L26.4977 8.38867L26.502 6.38867ZM15.1687 6.22565L9.50198 6.14414L9.49769 8.14414L15.1644 8.22565L15.1687 6.22565ZM3.8353 6.06263L1.00195 6.02188L0.997658 8.02187L3.83101 8.06263L3.8353 6.06263Z" fill="#BB6BD9"/>
</svg>
