<svg width="78" height="323" viewBox="0 0 78 323" fill="none" xmlns="http://www.w3.org/2000/svg">
<path d="M21.5025 322L21.5015 322.5L22.0028 322.5L22.0028 321.999L21.5025 322ZM76.3552 7.85375C76.551 7.6586 76.5517 7.3422 76.3567 7.14705L73.1797 3.9669C72.9847 3.77175 72.668 3.77175 72.4722 3.9669C72.2764 4.16205 72.2757 4.47845 72.4707 4.6736L75.2947 7.5004L72.4586 10.3272C72.2628 10.5223 72.2622 10.8387 72.4571 11.0339C72.6521 11.229 72.9688 11.229 73.1646 11.0339L76.3552 7.85375ZM21.5025 7.5004L21.5036 7.00069L21.0023 7.00069L21.0023 7.50146L21.5025 7.5004ZM73.2783 7.00069C73.002 7.00069 72.7775 7.22442 72.7769 7.5004C72.7764 7.77638 72.9999 8.00011 73.2762 8.00011L73.2783 7.00069ZM67.8262 8.00011C68.1025 8.00011 68.327 7.77638 68.3275 7.5004C68.3281 7.22442 68.1046 7.00069 67.8283 7.00069L67.8262 8.00011ZM62.3784 7.00069C62.1021 7.00069 61.8776 7.22442 61.877 7.5004C61.8764 7.77638 62.0999 8.00011 62.3762 8.00011L62.3784 7.00069ZM56.9263 8.00011C57.2026 8.00011 57.427 7.77638 57.4276 7.5004C57.4282 7.22442 57.2047 7.00069 56.9284 7.00069L56.9263 8.00011ZM51.4784 7.00069C51.2021 7.00069 50.9777 7.22442 50.9771 7.5004C50.9765 7.77638 51.2 8.00011 51.4763 8.00011L51.4784 7.00069ZM46.0263 8.00011C46.3026 8.00011 46.5271 7.77638 46.5277 7.5004C46.5283 7.22442 46.3048 7.00069 46.0285 7.00069L46.0263 8.00011ZM40.5785 7.00069C40.3022 7.00069 40.0777 7.22442 40.0771 7.5004C40.0765 7.77638 40.3001 8.00011 40.5764 8.00011L40.5785 7.00069ZM35.1264 8.00011C35.4027 8.00011 35.6272 7.77638 35.6277 7.5004C35.6283 7.22442 35.4048 7.00069 35.1285 7.00069L35.1264 8.00011ZM29.6786 7.00069C29.4023 7.00069 29.1778 7.22442 29.1772 7.5004C29.1766 7.77638 29.4001 8.00011 29.6764 8.00011L29.6786 7.00069ZM24.2264 8.00011C24.5028 8.00011 24.7272 7.77638 24.7278 7.5004C24.7284 7.22442 24.5049 7.00069 24.2286 7.00069L24.2264 8.00011ZM21.0022 10.5255C21.0023 10.8015 21.2262 11.0247 21.5025 11.0241C21.7788 11.0236 22.0028 10.7994 22.0028 10.5234L21.0022 10.5255ZM22.0028 16.5714C22.0028 16.2955 21.7788 16.0722 21.5025 16.0728C21.2262 16.0734 21.0022 16.2976 21.0023 16.5736L22.0028 16.5714ZM21.0023 22.6217C21.0023 22.8976 21.2262 23.1209 21.5025 23.1203C21.7788 23.1197 22.0028 22.8955 22.0028 22.6195L21.0023 22.6217ZM22.0028 28.6676C22.0028 28.3916 21.7788 28.1684 21.5025 28.169C21.2262 28.1695 21.0023 28.3937 21.0022 28.6697L22.0028 28.6676ZM21.0023 34.7178C21.0022 34.9938 21.2262 35.217 21.5025 35.2164C21.7788 35.2159 22.0028 34.9917 22.0028 34.7157L21.0023 34.7178ZM22.0028 40.7637C22.0028 40.4878 21.7788 40.2645 21.5025 40.2651C21.2262 40.2657 21.0023 40.4899 21.0023 40.7659L22.0028 40.7637ZM21.0023 46.8139C21.0023 47.0899 21.2262 47.3132 21.5025 47.3126C21.7788 47.312 22.0028 47.0878 22.0028 46.8118L21.0023 46.8139ZM22.0028 52.8599C22.0028 52.5839 21.7788 52.3607 21.5025 52.3612C21.2262 52.3618 21.0022 52.586 21.0023 52.862L22.0028 52.8599ZM21.0023 58.9101C21.0023 59.1861 21.2262 59.4093 21.5025 59.4087C21.7788 59.4082 22.0028 59.184 22.0028 58.908L21.0023 58.9101ZM22.0028 64.956C22.0028 64.6801 21.7788 64.4568 21.5025 64.4574C21.2262 64.458 21.0023 64.6822 21.0023 64.9582L22.0028 64.956ZM21.0023 71.0063C21.0023 71.2822 21.2262 71.5055 21.5025 71.5049C21.7788 71.5043 22.0028 71.2801 22.0028 71.0041L21.0023 71.0063ZM22.0028 77.0522C22.0028 76.7762 21.7788 76.553 21.5025 76.5536C21.2262 76.5541 21.0023 76.7783 21.0023 77.0543L22.0028 77.0522ZM21.0023 83.1024C21.0023 83.3784 21.2262 83.6016 21.5025 83.6011C21.7788 83.6005 22.0028 83.3763 22.0028 83.1003L21.0023 83.1024ZM22.0028 89.1484C22.0028 88.8724 21.7788 88.6491 21.5025 88.6497C21.2262 88.6503 21.0023 88.8745 21.0022 89.1505L22.0028 89.1484ZM21.0023 95.1986C21.0022 95.4745 21.2262 95.6978 21.5025 95.6972C21.7788 95.6966 22.0028 95.4724 22.0028 95.1964L21.0023 95.1986ZM22.0028 101.245C22.0028 100.969 21.7788 100.745 21.5025 100.746C21.2262 100.746 21.0023 100.971 21.0023 101.247L22.0028 101.245ZM21.0023 107.295C21.0023 107.571 21.2262 107.794 21.5025 107.793C21.7788 107.793 22.0028 107.569 22.0028 107.293L21.0023 107.295ZM22.0028 113.341C22.0028 113.065 21.7788 112.841 21.5025 112.842C21.2262 112.843 21.0023 113.067 21.0022 113.343L22.0028 113.341ZM21.0023 119.391C21.0023 119.667 21.2262 119.89 21.5025 119.89C21.7788 119.889 22.0028 119.665 22.0028 119.389L21.0023 119.391ZM22.0028 125.437C22.0028 125.161 21.7788 124.938 21.5025 124.938C21.2262 124.939 21.0023 125.163 21.0023 125.439L22.0028 125.437ZM21.0022 131.487C21.0023 131.763 21.2262 131.986 21.5025 131.986C21.7788 131.985 22.0028 131.761 22.0028 131.485L21.0022 131.487ZM22.0028 137.533C22.0028 137.257 21.7788 137.034 21.5025 137.034C21.2262 137.035 21.0023 137.259 21.0023 137.535L22.0028 137.533ZM21.0023 143.583C21.0023 143.859 21.2262 144.082 21.5025 144.082C21.7788 144.081 22.0028 143.857 22.0028 143.581L21.0023 143.583ZM22.0028 149.629C22.0028 149.353 21.7788 149.13 21.5025 149.13C21.2262 149.131 21.0022 149.355 21.0022 149.631L22.0028 149.629ZM21.0023 155.679C21.0023 155.955 21.2262 156.179 21.5025 156.178C21.7788 156.177 22.0028 155.953 22.0028 155.677L21.0023 155.679ZM22.0028 161.725C22.0028 161.449 21.7788 161.226 21.5025 161.227C21.2262 161.227 21.0022 161.451 21.0023 161.727L22.0028 161.725ZM21.0023 167.775C21.0023 168.051 21.2262 168.275 21.5025 168.274C21.7788 168.274 22.0028 168.049 22.0028 167.773L21.0023 167.775ZM22.0028 173.821C22.0028 173.545 21.7788 173.322 21.5025 173.323C21.2262 173.323 21.0023 173.548 21.0023 173.824L22.0028 173.821ZM21.0023 179.872C21.0023 180.148 21.2262 180.371 21.5025 180.37C21.7788 180.37 22.0028 180.145 22.0028 179.87L21.0023 179.872ZM22.0028 185.918C22.0028 185.642 21.7788 185.418 21.5025 185.419C21.2262 185.42 21.0023 185.644 21.0022 185.92L22.0028 185.918ZM21.0023 191.968C21.0023 192.244 21.2262 192.467 21.5025 192.466C21.7788 192.466 22.0028 192.242 22.0028 191.966L21.0023 191.968ZM22.0028 198.014C22.0028 197.738 21.7788 197.514 21.5025 197.515C21.2262 197.516 21.0023 197.74 21.0023 198.016L22.0028 198.014ZM21.0023 204.064C21.0022 204.34 21.2262 204.563 21.5025 204.563C21.7788 204.562 22.0028 204.338 22.0028 204.062L21.0023 204.064ZM22.0028 210.11C22.0028 209.834 21.7788 209.611 21.5025 209.611C21.2262 209.612 21.0023 209.836 21.0023 210.112L22.0028 210.11ZM21.0022 216.16C21.0023 216.436 21.2262 216.659 21.5025 216.659C21.7788 216.658 22.0028 216.434 22.0028 216.158L21.0022 216.16ZM22.0028 222.206C22.0028 221.93 21.7788 221.707 21.5025 221.707C21.2262 221.708 21.0022 221.932 21.0022 222.208L22.0028 222.206ZM21.0023 228.256C21.0023 228.532 21.2262 228.755 21.5025 228.755C21.7788 228.754 22.0028 228.53 22.0028 228.254L21.0023 228.256ZM22.0028 234.302C22.0028 234.026 21.7788 233.803 21.5025 233.804C21.2262 233.804 21.0023 234.028 21.0023 234.304L22.0028 234.302ZM21.0023 240.352C21.0022 240.628 21.2262 240.852 21.5025 240.851C21.7788 240.85 22.0028 240.626 22.0028 240.35L21.0023 240.352ZM22.0028 246.398C22.0028 246.122 21.7788 245.899 21.5025 245.9C21.2262 245.9 21.0023 246.124 21.0023 246.4L22.0028 246.398ZM21.0023 252.449C21.0023 252.725 21.2262 252.948 21.5025 252.947C21.7788 252.947 22.0028 252.722 22.0028 252.446L21.0023 252.449ZM22.0028 258.494C22.0028 258.219 21.7788 257.995 21.5025 257.996C21.2262 257.996 21.0022 258.221 21.0023 258.497L22.0028 258.494ZM21.0022 264.545C21.0022 264.821 21.2262 265.044 21.5025 265.043C21.7788 265.043 22.0028 264.819 22.0028 264.543L21.0022 264.545ZM22.0028 270.591C22.0028 270.315 21.7788 270.091 21.5025 270.092C21.2262 270.093 21.0022 270.317 21.0022 270.593L22.0028 270.591ZM21.0022 276.641C21.0023 276.917 21.2262 277.14 21.5025 277.139C21.7788 277.139 22.0028 276.915 22.0028 276.639L21.0022 276.641ZM22.0028 282.687C22.0028 282.411 21.7788 282.188 21.5025 282.188C21.2262 282.189 21.0022 282.413 21.0022 282.689L22.0028 282.687ZM21.0023 288.737C21.0023 289.013 21.2262 289.236 21.5025 289.236C21.7788 289.235 22.0028 289.011 22.0028 288.735L21.0023 288.737ZM22.0028 294.783C22.0028 294.507 21.7788 294.284 21.5025 294.284C21.2262 294.285 21.0023 294.509 21.0022 294.785L22.0028 294.783ZM21.0022 300.833C21.0022 301.109 21.2262 301.332 21.5025 301.332C21.7788 301.331 22.0028 301.107 22.0028 300.831L21.0022 300.833ZM22.0028 306.879C22.0028 306.603 21.7788 306.38 21.5025 306.38C21.2262 306.381 21.0022 306.605 21.0022 306.881L22.0028 306.879ZM21.0022 312.929C21.0023 313.205 21.2262 313.429 21.5025 313.428C21.7788 313.427 22.0028 313.203 22.0028 312.927L21.0022 312.929ZM22.0028 318.975C22.0028 318.699 21.7788 318.476 21.5025 318.477C21.2262 318.477 21.0022 318.701 21.0023 318.977L22.0028 318.975ZM18.8786 321.501C18.6023 321.501 18.3778 321.724 18.3772 322C18.3767 322.276 18.6002 322.5 18.8765 322.5L18.8786 321.501ZM13.6265 322.5C13.9028 322.5 14.1272 322.276 14.1278 322C14.1284 321.724 13.9049 321.501 13.6286 321.501L13.6265 322.5ZM8.3786 321.501C8.1023 321.501 7.87784 321.724 7.87725 322C7.87667 322.276 8.10017 322.5 8.37648 322.5L8.3786 321.501ZM3.12647 322.5C3.40278 322.5 3.62724 322.276 3.62783 322C3.62841 321.724 3.4049 321.501 3.1286 321.501L3.12647 322.5ZM76.0033 7.00069L73.2783 7.00069L73.2762 8.00011L76.0011 8.00011L76.0033 7.00069ZM67.8283 7.00069L62.3784 7.00069L62.3762 8.00011L67.8262 8.00011L67.8283 7.00069ZM56.9284 7.00069L51.4784 7.00069L51.4763 8.00011L56.9263 8.00011L56.9284 7.00069ZM46.0285 7.00069L40.5785 7.00069L40.5764 8.00011L46.0263 8.00011L46.0285 7.00069ZM35.1285 7.00069L29.6786 7.00069L29.6764 8.00011L35.1264 8.00011L35.1285 7.00069ZM24.2286 7.00069L21.5036 7.00069L21.5015 8.00011L24.2264 8.00011L24.2286 7.00069ZM21.0023 7.50146L21.0022 10.5255L22.0028 10.5234L22.0028 7.49933L21.0023 7.50146ZM21.0023 16.5736L21.0023 22.6217L22.0028 22.6195L22.0028 16.5714L21.0023 16.5736ZM21.0022 28.6697L21.0023 34.7178L22.0028 34.7157L22.0028 28.6676L21.0022 28.6697ZM21.0023 40.7659L21.0023 46.8139L22.0028 46.8118L22.0028 40.7637L21.0023 40.7659ZM21.0023 52.862L21.0023 58.9101L22.0028 58.908L22.0028 52.8599L21.0023 52.862ZM21.0023 64.9582L21.0023 71.0063L22.0028 71.0041L22.0028 64.956L21.0023 64.9582ZM21.0023 77.0543L21.0023 83.1024L22.0028 83.1003L22.0028 77.0522L21.0023 77.0543ZM21.0022 89.1505L21.0023 95.1986L22.0028 95.1964L22.0028 89.1484L21.0022 89.1505ZM21.0023 101.247L21.0023 107.295L22.0028 107.293L22.0028 101.245L21.0023 101.247ZM21.0022 113.343L21.0023 119.391L22.0028 119.389L22.0028 113.341L21.0022 113.343ZM21.0023 125.439L21.0022 131.487L22.0028 131.485L22.0028 125.437L21.0023 125.439ZM21.0023 137.535L21.0023 143.583L22.0028 143.581L22.0028 137.533L21.0023 137.535ZM21.0022 149.631L21.0023 155.679L22.0028 155.677L22.0028 149.629L21.0022 149.631ZM21.0023 161.727L21.0023 167.775L22.0028 167.773L22.0028 161.725L21.0023 161.727ZM21.0023 173.824L21.0023 179.872L22.0028 179.87L22.0028 173.821L21.0023 173.824ZM21.0022 185.92L21.0023 191.968L22.0028 191.966L22.0028 185.918L21.0022 185.92ZM21.0023 198.016L21.0023 204.064L22.0028 204.062L22.0028 198.014L21.0023 198.016ZM21.0023 210.112L21.0022 216.16L22.0028 216.158L22.0028 210.11L21.0023 210.112ZM21.0022 222.208L21.0023 228.256L22.0028 228.254L22.0028 222.206L21.0022 222.208ZM21.0023 234.304L21.0023 240.352L22.0028 240.35L22.0028 234.302L21.0023 234.304ZM21.0023 246.4L21.0023 252.449L22.0028 252.446L22.0028 246.398L21.0023 246.4ZM21.0023 258.497L21.0022 264.545L22.0028 264.543L22.0028 258.494L21.0023 258.497ZM21.0022 270.593L21.0022 276.641L22.0028 276.639L22.0028 270.591L21.0022 270.593ZM21.0022 282.689L21.0023 288.737L22.0028 288.735L22.0028 282.687L21.0022 282.689ZM21.0022 294.785L21.0022 300.833L22.0028 300.831L22.0028 294.783L21.0022 294.785ZM21.0022 306.881L21.0022 312.929L22.0028 312.927L22.0028 306.879L21.0022 306.881ZM21.0023 318.977L21.0023 322.001L22.0028 321.999L22.0028 318.975L21.0023 318.977ZM21.5036 321.501L18.8786 321.501L18.8765 322.5L21.5015 322.5L21.5036 321.501ZM13.6286 321.501L8.3786 321.501L8.37648 322.5L13.6265 322.5L13.6286 321.501ZM3.1286 321.501L0.503603 321.501L0.501476 322.5L3.12647 322.5L3.1286 321.501ZM21.5025 322L21.5004 323L22.5031 323L22.5031 321.998L21.5025 322ZM76.7082 8.2071C77.0998 7.8168 77.1012 7.184 76.7112 6.7937L70.3572 0.433403C69.9673 0.0431035 69.3338 0.0431034 68.9422 0.433403C68.5506 0.823703 68.5492 1.4565 68.9392 1.8468L74.5872 7.5004L68.915 13.154C68.5235 13.5443 68.5221 14.1771 68.912 14.5674C69.3019 14.9577 69.9355 14.9577 70.327 14.5674L76.7082 8.2071ZM21.5025 7.5004L21.5047 6.50098L20.502 6.50098L20.502 7.50253L21.5025 7.5004ZM73.2794 6.50098C72.7268 6.50098 72.2778 6.94843 72.2767 7.5004C72.2755 8.05237 72.7225 8.49982 73.2751 8.49982L73.2794 6.50098ZM67.8251 8.49982C68.3777 8.49982 68.8267 8.05237 68.8278 7.5004C68.829 6.94843 68.382 6.50098 67.8294 6.50098L67.8251 8.49982ZM62.3794 6.50098C61.8268 6.50098 61.3779 6.94843 61.3767 7.5004C61.3755 8.05237 61.8226 8.49982 62.3752 8.49982L62.3794 6.50098ZM56.9252 8.49982C57.4778 8.49982 57.9267 8.05237 57.9279 7.5004C57.9291 6.94843 57.4821 6.50098 56.9295 6.50098L56.9252 8.49982ZM51.4795 6.50098C50.9269 6.50098 50.478 6.94843 50.4768 7.5004C50.4756 8.05237 50.9226 8.49982 51.4752 8.49982L51.4795 6.50098ZM46.0253 8.49982C46.5779 8.49982 47.0268 8.05237 47.028 7.5004C47.0291 6.94843 46.5821 6.50098 46.0295 6.50098L46.0253 8.49982ZM40.5796 6.50098C40.027 6.50098 39.578 6.94843 39.5768 7.5004C39.5757 8.05237 40.0227 8.49982 40.5753 8.49982L40.5796 6.50098ZM35.1253 8.49982C35.6779 8.49982 36.1269 8.05237 36.128 7.5004C36.1292 6.94843 35.6822 6.50098 35.1296 6.50097L35.1253 8.49982ZM29.6796 6.50098C29.127 6.50098 28.6781 6.94843 28.6769 7.5004C28.6757 8.05237 29.1227 8.49982 29.6754 8.49982L29.6796 6.50098ZM24.2254 8.49982C24.778 8.49982 25.2269 8.05237 25.2281 7.5004C25.2293 6.94843 24.7823 6.50098 24.2296 6.50098L24.2254 8.49982ZM20.502 10.5266C20.502 11.0785 20.9499 11.525 21.5025 11.5239C22.0551 11.5227 22.5031 11.0743 22.5031 10.5223L20.502 10.5266ZM22.5031 16.5704C22.5031 16.0184 22.0551 15.5719 21.5025 15.5731C20.9499 15.5743 20.502 16.0227 20.502 16.5746L22.5031 16.5704ZM20.502 22.6227C20.502 23.1747 20.9499 23.6212 21.5025 23.62C22.0551 23.6188 22.5031 23.1704 22.5031 22.6185L20.502 22.6227ZM22.5031 28.6665C22.5031 28.1146 22.0551 27.6681 21.5025 27.6692C20.9499 27.6704 20.502 28.1188 20.502 28.6708L22.5031 28.6665ZM20.502 34.7189C20.502 35.2708 20.9499 35.7173 21.5025 35.7162C22.0551 35.715 22.5031 35.2666 22.5031 34.7146L20.502 34.7189ZM22.5031 40.7627C22.5031 40.2107 22.0551 39.7642 21.5025 39.7654C20.9499 39.7666 20.502 40.215 20.502 40.7669L22.5031 40.7627ZM20.502 46.815C20.502 47.367 20.9499 47.8135 21.5025 47.8123C22.0551 47.8111 22.5031 47.3627 22.5031 46.8108L20.502 46.815ZM22.5031 52.8588C22.5031 52.3069 22.0551 51.8604 21.5025 51.8615C20.9499 51.8627 20.502 52.3111 20.502 52.8631L22.5031 52.8588ZM20.502 58.9112C20.502 59.4631 20.9499 59.9096 21.5025 59.9085C22.0551 59.9073 22.5031 59.4589 22.5031 58.9069L20.502 58.9112ZM22.5031 64.955C22.5031 64.403 22.0551 63.9565 21.5025 63.9577C20.9499 63.9589 20.502 64.4073 20.502 64.9592L22.5031 64.955ZM20.502 71.0073C20.502 71.5593 20.9499 72.0058 21.5025 72.0046C22.0551 72.0034 22.5031 71.555 22.5031 71.0031L20.502 71.0073ZM22.5031 77.0511C22.5031 76.4992 22.0551 76.0527 21.5025 76.0538C20.9499 76.055 20.502 76.5034 20.502 77.0554L22.5031 77.0511ZM20.502 83.1035C20.502 83.6554 20.9499 84.1019 21.5025 84.1008C22.0551 84.0996 22.5031 83.6512 22.5031 83.0992L20.502 83.1035ZM22.5031 89.1473C22.5031 88.5953 22.0551 88.1488 21.5025 88.15C20.9499 88.1512 20.502 88.5996 20.502 89.1516L22.5031 89.1473ZM20.502 95.1996C20.502 95.7516 20.9499 96.1981 21.5025 96.1969C22.0551 96.1957 22.5031 95.7473 22.5031 95.1954L20.502 95.1996ZM22.5031 101.243C22.5031 100.691 22.0551 100.245 21.5025 100.246C20.9499 100.247 20.502 100.696 20.502 101.248L22.5031 101.243ZM20.502 107.296C20.502 107.848 20.9499 108.294 21.5025 108.293C22.0551 108.292 22.5031 107.843 22.5031 107.292L20.502 107.296ZM22.5031 113.34C22.5031 112.788 22.0551 112.341 21.5025 112.342C20.9499 112.343 20.502 112.792 20.502 113.344L22.5031 113.34ZM20.502 119.392C20.502 119.944 20.9499 120.39 21.5025 120.389C22.0551 120.388 22.5031 119.94 22.5031 119.388L20.502 119.392ZM22.5031 125.436C22.5031 124.884 22.0551 124.437 21.5025 124.438C20.9499 124.44 20.502 124.888 20.502 125.44L22.5031 125.436ZM20.502 131.488C20.502 132.04 20.9499 132.487 21.5025 132.485C22.0551 132.484 22.5031 132.036 22.5031 131.484L20.502 131.488ZM22.5031 137.532C22.5031 136.98 22.0551 136.533 21.5025 136.535C20.9499 136.536 20.502 136.984 20.502 137.536L22.5031 137.532ZM20.502 143.584C20.502 144.136 20.9499 144.583 21.5025 144.582C22.0551 144.58 22.5031 144.132 22.5031 143.58L20.502 143.584ZM22.5031 149.628C22.5031 149.076 22.0551 148.63 21.5025 148.631C20.9499 148.632 20.502 149.08 20.502 149.632L22.5031 149.628ZM20.502 155.68C20.502 156.232 20.9499 156.679 21.5025 156.678C22.0551 156.677 22.5031 156.228 22.5031 155.676L20.502 155.68ZM22.5031 161.724C22.5031 161.172 22.0551 160.726 21.5025 160.727C20.9499 160.728 20.502 161.176 20.502 161.728L22.5031 161.724ZM20.502 167.777C20.502 168.329 20.9499 168.775 21.5025 168.774C22.0551 168.773 22.5031 168.324 22.5031 167.772L20.502 167.777ZM22.5031 173.82C22.5031 173.268 22.0551 172.822 21.5025 172.823C20.9499 172.824 20.502 173.273 20.502 173.825L22.5031 173.82ZM20.502 179.873C20.502 180.425 20.9499 180.871 21.5025 180.87C22.0551 180.869 22.5031 180.42 22.5031 179.868L20.502 179.873ZM22.5031 185.917C22.5031 185.365 22.0551 184.918 21.5025 184.919C20.9499 184.92 20.502 185.369 20.502 185.921L22.5031 185.917ZM20.502 191.969C20.502 192.521 20.9499 192.967 21.5025 192.966C22.0551 192.965 22.5031 192.517 22.5031 191.965L20.502 191.969ZM22.5031 198.013C22.5031 197.461 22.0551 197.014 21.5025 197.015C20.9499 197.017 20.502 197.465 20.502 198.017L22.5031 198.013ZM20.502 204.065C20.502 204.617 20.9499 205.063 21.5025 205.062C22.0551 205.061 22.5031 204.613 22.5031 204.061L20.502 204.065ZM22.5031 210.109C22.5031 209.557 22.0551 209.11 21.5025 209.112C20.9499 209.113 20.502 209.561 20.502 210.113L22.5031 210.109ZM20.502 216.161C20.502 216.713 20.9499 217.16 21.5025 217.158C22.0551 217.157 22.5031 216.709 22.5031 216.157L20.502 216.161ZM22.5031 222.205C22.5031 221.653 22.0551 221.207 21.5025 221.208C20.9499 221.209 20.502 221.657 20.502 222.209L22.5031 222.205ZM20.502 228.257C20.502 228.809 20.9499 229.256 21.5025 229.255C22.0551 229.253 22.5031 228.805 22.5031 228.253L20.502 228.257ZM22.5031 234.301C22.5031 233.749 22.0551 233.303 21.5025 233.304C20.9499 233.305 20.502 233.753 20.502 234.305L22.5031 234.301ZM20.502 240.353C20.502 240.905 20.9499 241.352 21.5025 241.351C22.0551 241.35 22.5031 240.901 22.5031 240.349L20.502 240.353ZM22.5031 246.397C22.5031 245.845 22.0551 245.399 21.5025 245.4C20.9499 245.401 20.502 245.85 20.502 246.402L22.5031 246.397ZM20.502 252.45C20.502 253.002 20.9499 253.448 21.5025 253.447C22.0551 253.446 22.5031 252.997 22.5031 252.445L20.502 252.45ZM22.5031 258.493C22.5031 257.941 22.0551 257.495 21.5025 257.496C20.9499 257.497 20.502 257.946 20.502 258.498L22.5031 258.493ZM20.502 264.546C20.502 265.098 20.9499 265.544 21.5025 265.543C22.0551 265.542 22.5031 265.093 22.5031 264.541L20.502 264.546ZM22.5031 270.59C22.5031 270.038 22.0551 269.591 21.5025 269.592C20.9499 269.593 20.502 270.042 20.502 270.594L22.5031 270.59ZM20.502 276.642C20.502 277.194 20.9499 277.64 21.5025 277.639C22.0551 277.638 22.5031 277.19 22.5031 276.638L20.502 276.642ZM22.5031 282.686C22.5031 282.134 22.0551 281.687 21.5025 281.688C20.9499 281.69 20.502 282.138 20.502 282.69L22.5031 282.686ZM20.502 288.738C20.502 289.29 20.9499 289.737 21.5025 289.735C22.0551 289.734 22.5031 289.286 22.5031 288.734L20.502 288.738ZM22.5031 294.782C22.5031 294.23 22.0551 293.783 21.5025 293.785C20.9499 293.786 20.502 294.234 20.502 294.786L22.5031 294.782ZM20.502 300.834C20.502 301.386 20.9499 301.833 21.5025 301.832C22.0551 301.83 22.5031 301.382 22.5031 300.83L20.502 300.834ZM22.5031 306.878C22.5031 306.326 22.0551 305.88 21.5025 305.881C20.9499 305.882 20.502 306.33 20.502 306.882L22.5031 306.878ZM20.502 312.93C20.502 313.482 20.9499 313.929 21.5025 313.928C22.0551 313.926 22.5031 313.478 22.5031 312.926L20.502 312.93ZM22.5031 318.974C22.5031 318.422 22.0551 317.976 21.5025 317.977C20.9499 317.978 20.502 318.426 20.502 318.978L22.5031 318.974ZM18.8797 321.001C18.3271 321.001 17.8781 321.448 17.877 322C17.8758 322.552 18.3228 323 18.8754 323L18.8797 321.001ZM13.6254 323C14.178 323 14.6269 322.552 14.6281 322C14.6293 321.448 14.1823 321.001 13.6297 321.001L13.6254 323ZM8.37967 321.001C7.82707 321.001 7.37814 321.448 7.37697 322C7.37579 322.552 7.82281 323 8.3754 323L8.37967 321.001ZM3.1254 323C3.67801 323 4.12693 322.552 4.12811 322C4.12929 321.448 3.68227 321.001 3.12967 321.001L3.1254 323ZM76.0043 6.50098L73.2794 6.50098L73.2751 8.49982L76.0001 8.49982L76.0043 6.50098ZM67.8294 6.50098L62.3794 6.50098L62.3752 8.49982L67.8251 8.49982L67.8294 6.50098ZM56.9295 6.50098L51.4795 6.50098L51.4752 8.49982L56.9252 8.49982L56.9295 6.50098ZM46.0295 6.50098L40.5796 6.50098L40.5753 8.49982L46.0253 8.49982L46.0295 6.50098ZM35.1296 6.50097L29.6796 6.50098L29.6754 8.49982L35.1253 8.49982L35.1296 6.50097ZM24.2296 6.50098L21.5047 6.50098L21.5004 8.49982L24.2254 8.49982L24.2296 6.50098ZM20.502 7.50253L20.502 10.5266L22.5031 10.5223L22.5031 7.49827L20.502 7.50253ZM20.502 16.5746L20.502 22.6227L22.5031 22.6185L22.5031 16.5704L20.502 16.5746ZM20.502 28.6708L20.502 34.7189L22.5031 34.7146L22.5031 28.6665L20.502 28.6708ZM20.502 40.7669L20.502 46.815L22.5031 46.8108L22.5031 40.7627L20.502 40.7669ZM20.502 52.8631L20.502 58.9112L22.5031 58.9069L22.5031 52.8588L20.502 52.8631ZM20.502 64.9592L20.502 71.0073L22.5031 71.0031L22.5031 64.955L20.502 64.9592ZM20.502 77.0554L20.502 83.1035L22.5031 83.0992L22.5031 77.0511L20.502 77.0554ZM20.502 89.1516L20.502 95.1996L22.5031 95.1954L22.5031 89.1473L20.502 89.1516ZM20.502 101.248L20.502 107.296L22.5031 107.292L22.5031 101.243L20.502 101.248ZM20.502 113.344L20.502 119.392L22.5031 119.388L22.5031 113.34L20.502 113.344ZM20.502 125.44L20.502 131.488L22.5031 131.484L22.5031 125.436L20.502 125.44ZM20.502 137.536L20.502 143.584L22.5031 143.58L22.5031 137.532L20.502 137.536ZM20.502 149.632L20.502 155.68L22.5031 155.676L22.5031 149.628L20.502 149.632ZM20.502 161.728L20.502 167.777L22.5031 167.772L22.5031 161.724L20.502 161.728ZM20.502 173.825L20.502 179.873L22.5031 179.868L22.5031 173.82L20.502 173.825ZM20.502 185.921L20.502 191.969L22.5031 191.965L22.5031 185.917L20.502 185.921ZM20.502 198.017L20.502 204.065L22.5031 204.061L22.5031 198.013L20.502 198.017ZM20.502 210.113L20.502 216.161L22.5031 216.157L22.5031 210.109L20.502 210.113ZM20.502 222.209L20.502 228.257L22.5031 228.253L22.5031 222.205L20.502 222.209ZM20.502 234.305L20.502 240.353L22.5031 240.349L22.5031 234.301L20.502 234.305ZM20.502 246.402L20.502 252.45L22.5031 252.445L22.5031 246.397L20.502 246.402ZM20.502 258.498L20.502 264.546L22.5031 264.541L22.5031 258.493L20.502 258.498ZM20.502 270.594L20.502 276.642L22.5031 276.638L22.5031 270.59L20.502 270.594ZM20.502 282.69L20.502 288.738L22.5031 288.734L22.5031 282.686L20.502 282.69ZM20.502 294.786L20.502 300.834L22.5031 300.83L22.5031 294.782L20.502 294.786ZM20.502 306.882L20.502 312.93L22.5031 312.926L22.5031 306.878L20.502 306.882ZM20.502 318.978L20.502 322.002L22.5031 321.998L22.5031 318.974L20.502 318.978ZM21.5047 321.001L18.8797 321.001L18.8754 323L21.5004 323L21.5047 321.001ZM13.6297 321.001L8.37967 321.001L8.3754 323L13.6254 323L13.6297 321.001ZM3.12967 321.001L0.504674 321.001L0.500405 323L3.1254 323L3.12967 321.001Z" fill="#BB6BD9"/>
</svg>
