<svg width="35" height="605" viewBox="0 0 35 605" fill="none" xmlns="http://www.w3.org/2000/svg">
<path d="M33.9349 603.378L33.9257 603.878L34.435 603.878L34.435 603.369L33.9349 603.378ZM12.5869 7.66856C12.3879 7.86369 12.382 8.18021 12.5736 8.37553L15.6959 11.5585C15.8875 11.7538 16.2041 11.754 16.403 11.5589C16.602 11.3637 16.6079 11.0472 16.4163 10.8519L13.6409 8.02259L16.5225 5.19615C16.7214 5.00102 16.7274 4.6845 16.5358 4.48918C16.3442 4.29386 16.0276 4.2937 15.8286 4.48882L12.5869 7.66856ZM33.9347 8.0329L34.4348 8.02377L34.4348 7.53324L33.9441 7.53299L33.9347 8.0329ZM15.5495 8.52346C15.8257 8.5236 16.0537 8.2999 16.0589 8.02382C16.0641 7.74773 15.8444 7.5238 15.5683 7.52366L15.5495 8.52346ZM20.8185 7.52633C20.5424 7.52619 20.3143 7.74989 20.3091 8.02597C20.304 8.30206 20.5236 8.52599 20.7998 8.52613L20.8185 7.52633ZM26.05 8.5288C26.3261 8.52894 26.5542 8.30524 26.5594 8.02915C26.5646 7.75306 26.3449 7.52913 26.0688 7.52899L26.05 8.5288ZM31.319 7.53166C31.0429 7.53152 30.8148 7.75522 30.8096 8.03131C30.8044 8.3074 31.0241 8.53132 31.3002 8.53146L31.319 7.53166ZM33.4346 11.0187C33.4346 11.2948 33.6585 11.5145 33.9347 11.5094C34.2109 11.5044 34.4348 11.2765 34.4348 11.0005L33.4346 11.0187ZM34.4348 16.9539C34.4348 16.6779 34.2109 16.4582 33.9347 16.4632C33.6585 16.4683 33.4346 16.6962 33.4346 16.9722L34.4348 16.9539ZM33.4346 22.9256C33.4346 23.2017 33.6585 23.4214 33.9347 23.4163C34.2109 23.4113 34.4348 23.1834 34.4348 22.9074L33.4346 22.9256ZM34.4348 28.8608C34.4348 28.5848 34.2109 28.3651 33.9347 28.3701C33.6585 28.3752 33.4346 28.603 33.4346 28.8791L34.4348 28.8608ZM33.4346 34.8325C33.4346 35.1086 33.6586 35.3283 33.9347 35.3232C34.2109 35.3182 34.4348 35.0903 34.4348 34.8143L33.4346 34.8325ZM34.4348 40.7677C34.4348 40.4917 34.2109 40.272 33.9347 40.277C33.6586 40.2821 33.4347 40.5099 33.4347 40.786L34.4348 40.7677ZM33.4347 46.7394C33.4347 47.0155 33.6586 47.2352 33.9347 47.2301C34.2109 47.2251 34.4348 46.9972 34.4348 46.7212L33.4347 46.7394ZM34.4348 52.6746C34.4348 52.3986 34.2109 52.1789 33.9347 52.1839C33.6586 52.189 33.4347 52.4168 33.4347 52.6929L34.4348 52.6746ZM33.4347 58.6463C33.4347 58.9224 33.6586 59.1421 33.9348 59.137C34.2109 59.132 34.4348 58.9041 34.4348 58.6281L33.4347 58.6463ZM34.4349 64.5815C34.4348 64.3055 34.2109 64.0858 33.9348 64.0908C33.6586 64.0959 33.4347 64.3237 33.4347 64.5998L34.4349 64.5815ZM33.4347 70.5532C33.4347 70.8293 33.6586 71.049 33.9348 71.0439C34.211 71.0389 34.4349 70.811 34.4349 70.535L33.4347 70.5532ZM34.4349 76.4884C34.4349 76.2124 34.211 75.9927 33.9348 75.9977C33.6586 76.0028 33.4347 76.2306 33.4347 76.5067L34.4349 76.4884ZM33.4347 82.4601C33.4347 82.7362 33.6586 82.9559 33.9348 82.9508C34.211 82.9458 34.4349 82.7179 34.4349 82.4419L33.4347 82.4601ZM34.4349 88.3953C34.4349 88.1193 34.211 87.8996 33.9348 87.9046C33.6586 87.9097 33.4347 88.1375 33.4347 88.4136L34.4349 88.3953ZM33.4347 94.367C33.4347 94.6431 33.6586 94.8627 33.9348 94.8577C34.211 94.8527 34.4349 94.6248 34.4349 94.3488L33.4347 94.367ZM34.4349 100.302C34.4349 100.026 34.211 99.8065 33.9348 99.8115C33.6586 99.8166 33.4347 100.044 33.4347 100.32L34.4349 100.302ZM33.4347 106.274C33.4347 106.55 33.6586 106.77 33.9348 106.765C34.211 106.76 34.4349 106.532 34.4349 106.256L33.4347 106.274ZM34.4349 112.209C34.4349 111.933 34.211 111.713 33.9348 111.718C33.6586 111.723 33.4347 111.951 33.4347 112.227L34.4349 112.209ZM33.4347 118.181C33.4347 118.457 33.6586 118.677 33.9348 118.672C34.211 118.666 34.4349 118.439 34.4349 118.163L33.4347 118.181ZM34.4349 124.116C34.4349 123.84 34.211 123.62 33.9348 123.625C33.6586 123.63 33.4347 123.858 33.4347 124.134L34.4349 124.116ZM33.4347 130.088C33.4347 130.364 33.6586 130.583 33.9348 130.578C34.211 130.573 34.4349 130.346 34.4349 130.069L33.4347 130.088ZM34.4349 136.023C34.4349 135.747 34.211 135.527 33.9348 135.532C33.6586 135.537 33.4347 135.765 33.4347 136.041L34.4349 136.023ZM33.4347 141.995C33.4347 142.271 33.6586 142.49 33.9348 142.485C34.211 142.48 34.4349 142.252 34.4349 141.976L33.4347 141.995ZM34.4349 147.93C34.4349 147.654 34.211 147.434 33.9348 147.439C33.6586 147.444 33.4347 147.672 33.4347 147.948L34.4349 147.93ZM33.4347 153.901C33.4347 154.178 33.6586 154.397 33.9348 154.392C34.211 154.387 34.4349 154.159 34.4349 153.883L33.4347 153.901ZM34.4349 159.837C34.4349 159.561 34.211 159.341 33.9348 159.346C33.6586 159.351 33.4347 159.579 33.4347 159.855L34.4349 159.837ZM33.4347 165.808C33.4347 166.084 33.6586 166.304 33.9348 166.299C34.211 166.294 34.4349 166.066 34.4349 165.79L33.4347 165.808ZM34.4349 171.744C34.4349 171.467 34.211 171.248 33.9348 171.253C33.6586 171.258 33.4347 171.486 33.4347 171.762L34.4349 171.744ZM33.4347 177.715C33.4347 177.991 33.6586 178.211 33.9348 178.206C34.211 178.201 34.4349 177.973 34.4349 177.697L33.4347 177.715ZM34.4349 183.65C34.4349 183.374 34.211 183.155 33.9348 183.16C33.6586 183.165 33.4347 183.393 33.4347 183.669L34.4349 183.65ZM33.4347 189.622C33.4347 189.898 33.6586 190.118 33.9348 190.113C34.211 190.108 34.4349 189.88 34.4349 189.604L33.4347 189.622ZM34.4349 195.557C34.4349 195.281 34.211 195.062 33.9348 195.067C33.6586 195.072 33.4347 195.3 33.4347 195.576L34.4349 195.557ZM33.4347 201.529C33.4347 201.805 33.6586 202.025 33.9348 202.02C34.211 202.015 34.4349 201.787 34.4349 201.511L33.4347 201.529ZM34.4349 207.464C34.4349 207.188 34.211 206.968 33.9348 206.974C33.6586 206.979 33.4347 207.206 33.4347 207.482L34.4349 207.464ZM33.4347 213.436C33.4347 213.712 33.6586 213.932 33.9348 213.927C34.211 213.922 34.4349 213.694 34.4349 213.418L33.4347 213.436ZM34.4349 219.371C34.4349 219.095 34.211 218.875 33.9348 218.88C33.6586 218.885 33.4347 219.113 33.4347 219.389L34.4349 219.371ZM33.4347 225.343C33.4347 225.619 33.6586 225.838 33.9348 225.833C34.211 225.828 34.4349 225.601 34.4349 225.324L33.4347 225.343ZM34.4349 231.278C34.4349 231.002 34.211 230.782 33.9348 230.787C33.6586 230.792 33.4347 231.02 33.4347 231.296L34.4349 231.278ZM33.4347 237.25C33.4347 237.526 33.6586 237.745 33.9348 237.74C34.211 237.735 34.4349 237.507 34.4349 237.231L33.4347 237.25ZM34.4349 243.185C34.4349 242.909 34.211 242.689 33.9348 242.694C33.6586 242.699 33.4347 242.927 33.4347 243.203L34.4349 243.185ZM33.4347 249.157C33.4347 249.433 33.6586 249.652 33.9348 249.647C34.211 249.642 34.4349 249.414 34.4349 249.138L33.4347 249.157ZM34.4349 255.092C34.4349 254.816 34.211 254.596 33.9348 254.601C33.6586 254.606 33.4347 254.834 33.4347 255.11L34.4349 255.092ZM33.4347 261.063C33.4347 261.339 33.6586 261.559 33.9348 261.554C34.211 261.549 34.4349 261.321 34.4349 261.045L33.4347 261.063ZM34.4349 266.999C34.4349 266.723 34.211 266.503 33.9348 266.508C33.6586 266.513 33.4347 266.741 33.4347 267.017L34.4349 266.999ZM33.4347 272.97C33.4347 273.246 33.6586 273.466 33.9348 273.461C34.211 273.456 34.4349 273.228 34.4349 272.952L33.4347 272.97ZM34.4349 278.905C34.4349 278.629 34.211 278.41 33.9348 278.415C33.6586 278.42 33.4347 278.648 33.4347 278.924L34.4349 278.905ZM33.4347 284.877C33.4347 285.153 33.6586 285.373 33.9348 285.368C34.211 285.363 34.4349 285.135 34.4349 284.859L33.4347 284.877ZM34.4349 290.812C34.4349 290.536 34.211 290.317 33.9348 290.322C33.6586 290.327 33.4347 290.555 33.4347 290.831L34.4349 290.812ZM33.4347 296.784C33.4347 297.06 33.6586 297.28 33.9348 297.275C34.211 297.27 34.4349 297.042 34.4349 296.766L33.4347 296.784ZM34.4349 302.719C34.4349 302.443 34.211 302.224 33.9348 302.229C33.6586 302.234 33.4347 302.461 33.4347 302.738L34.4349 302.719ZM33.4347 308.691C33.4347 308.967 33.6586 309.187 33.9348 309.182C34.211 309.177 34.4349 308.949 34.4349 308.673L33.4347 308.691ZM34.4349 314.626C34.4349 314.35 34.211 314.13 33.9348 314.135C33.6586 314.14 33.4347 314.368 33.4347 314.644L34.4349 314.626ZM33.4347 320.598C33.4347 320.874 33.6586 321.094 33.9348 321.089C34.211 321.083 34.4349 320.856 34.4349 320.58L33.4347 320.598ZM34.4349 326.533C34.4349 326.257 34.211 326.037 33.9348 326.042C33.6586 326.047 33.4347 326.275 33.4347 326.551L34.4349 326.533ZM33.4347 332.505C33.4347 332.781 33.6586 333 33.9348 332.995C34.211 332.99 34.4349 332.762 34.4349 332.486L33.4347 332.505ZM34.4349 338.44C34.4349 338.164 34.211 337.944 33.9348 337.949C33.6586 337.954 33.4347 338.182 33.4347 338.458L34.4349 338.44ZM33.4347 344.412C33.4347 344.688 33.6586 344.907 33.9348 344.902C34.211 344.897 34.4349 344.669 34.4349 344.393L33.4347 344.412ZM34.4349 350.347C34.4349 350.071 34.211 349.851 33.9348 349.856C33.6586 349.861 33.4347 350.089 33.4347 350.365L34.4349 350.347ZM33.4347 356.318C33.4347 356.595 33.6586 356.814 33.9348 356.809C34.211 356.804 34.4349 356.576 34.4349 356.3L33.4347 356.318ZM34.4349 362.254C34.4349 361.978 34.211 361.758 33.9348 361.763C33.6586 361.768 33.4347 361.996 33.4347 362.272L34.4349 362.254ZM33.4347 368.225C33.4347 368.501 33.6586 368.721 33.9348 368.716C34.211 368.711 34.4349 368.483 34.4349 368.207L33.4347 368.225ZM34.4349 374.161C34.4349 373.885 34.211 373.665 33.9348 373.67C33.6586 373.675 33.4347 373.903 33.4347 374.179L34.4349 374.161ZM33.4347 380.132C33.4347 380.408 33.6586 380.628 33.9348 380.623C34.211 380.618 34.4349 380.39 34.4349 380.114L33.4347 380.132ZM34.4349 386.067C34.4349 385.791 34.211 385.572 33.9348 385.577C33.6586 385.582 33.4347 385.81 33.4347 386.086L34.4349 386.067ZM33.4347 392.039C33.4347 392.315 33.6586 392.535 33.9348 392.53C34.211 392.525 34.4349 392.297 34.4349 392.021L33.4347 392.039ZM34.4349 397.974C34.4349 397.698 34.211 397.479 33.9348 397.484C33.6586 397.489 33.4347 397.717 33.4347 397.993L34.4349 397.974ZM33.4347 403.946C33.4347 404.222 33.6586 404.442 33.9348 404.437C34.211 404.432 34.4349 404.204 34.4349 403.928L33.4347 403.946ZM34.4349 409.881C34.4349 409.605 34.211 409.385 33.9348 409.391C33.6586 409.396 33.4347 409.623 33.4347 409.899L34.4349 409.881ZM33.4347 415.853C33.4347 416.129 33.6586 416.349 33.9348 416.344C34.211 416.339 34.4349 416.111 34.4349 415.835L33.4347 415.853ZM34.4349 421.788C34.4349 421.512 34.211 421.292 33.9348 421.297C33.6586 421.302 33.4347 421.53 33.4347 421.806L34.4349 421.788ZM33.4347 427.76C33.4347 428.036 33.6586 428.256 33.9348 428.25C34.211 428.245 34.4349 428.018 34.4349 427.742L33.4347 427.76ZM34.4349 433.695C34.4349 433.419 34.211 433.199 33.9348 433.204C33.6586 433.209 33.4347 433.437 33.4347 433.713L34.4349 433.695ZM33.4347 439.667C33.4347 439.943 33.6586 440.162 33.9348 440.157C34.211 440.152 34.4349 439.924 34.4349 439.648L33.4347 439.667ZM34.4349 445.602C34.4349 445.326 34.211 445.106 33.9348 445.111C33.6586 445.116 33.4347 445.344 33.4347 445.62L34.4349 445.602ZM33.4347 451.574C33.4347 451.85 33.6586 452.069 33.9348 452.064C34.211 452.059 34.4349 451.831 34.4349 451.555L33.4347 451.574ZM34.4349 457.509C34.4349 457.233 34.211 457.013 33.9348 457.018C33.6586 457.023 33.4347 457.251 33.4347 457.527L34.4349 457.509ZM33.4347 463.48C33.4347 463.756 33.6586 463.976 33.9348 463.971C34.211 463.966 34.4349 463.738 34.4349 463.462L33.4347 463.48ZM34.4349 469.416C34.4349 469.14 34.211 468.92 33.9348 468.925C33.6586 468.93 33.4347 469.158 33.4347 469.434L34.4349 469.416ZM33.4347 475.387C33.4347 475.663 33.6586 475.883 33.9348 475.878C34.211 475.873 34.4349 475.645 34.4349 475.369L33.4347 475.387ZM34.4349 481.322C34.4349 481.046 34.211 480.827 33.9348 480.832C33.6586 480.837 33.4347 481.065 33.4347 481.341L34.4349 481.322ZM33.4347 487.294C33.4347 487.57 33.6586 487.79 33.9348 487.785C34.211 487.78 34.4349 487.552 34.4349 487.276L33.4347 487.294ZM34.4349 493.229C34.4349 492.953 34.211 492.734 33.9348 492.739C33.6586 492.744 33.4347 492.972 33.4347 493.248L34.4349 493.229ZM33.4347 499.201C33.4347 499.477 33.6586 499.697 33.9348 499.692C34.211 499.687 34.4349 499.459 34.4349 499.183L33.4347 499.201ZM34.4349 505.136C34.4349 504.86 34.211 504.64 33.9348 504.646C33.6586 504.651 33.4347 504.878 33.4347 505.154L34.4349 505.136ZM33.4347 511.108C33.4347 511.384 33.6586 511.604 33.9348 511.599C34.211 511.594 34.4349 511.366 34.4349 511.09L33.4347 511.108ZM34.4349 517.043C34.4349 516.767 34.211 516.547 33.9348 516.552C33.6586 516.557 33.4347 516.785 33.4347 517.061L34.4349 517.043ZM33.4347 523.015C33.4347 523.291 33.6586 523.511 33.9348 523.506C34.211 523.5 34.4349 523.273 34.4349 522.997L33.4347 523.015ZM34.4349 528.95C34.4349 528.674 34.211 528.454 33.9348 528.459C33.6586 528.464 33.4347 528.692 33.4347 528.968L34.4349 528.95ZM33.4347 534.922C33.4347 535.198 33.6586 535.418 33.9348 535.412C34.211 535.407 34.4349 535.18 34.4349 534.904L33.4347 534.922ZM34.4349 540.857C34.4349 540.581 34.211 540.361 33.9348 540.366C33.6586 540.371 33.4347 540.599 33.4347 540.875L34.4349 540.857ZM33.4347 546.829C33.4347 547.105 33.6586 547.324 33.9348 547.319C34.211 547.314 34.4349 547.086 34.4349 546.81L33.4347 546.829ZM34.4349 552.764C34.4349 552.488 34.211 552.268 33.9348 552.273C33.6587 552.278 33.4347 552.506 33.4347 552.782L34.4349 552.764ZM33.4348 558.736C33.4348 559.012 33.6587 559.231 33.9348 559.226C34.211 559.221 34.4349 558.993 34.4349 558.717L33.4348 558.736ZM34.4349 564.671C34.4349 564.395 34.211 564.175 33.9348 564.18C33.6587 564.185 33.4348 564.413 33.4348 564.689L34.4349 564.671ZM33.4348 570.643C33.4348 570.919 33.6587 571.138 33.9349 571.133C34.211 571.128 34.4349 570.9 34.4349 570.624L33.4348 570.643ZM34.4349 576.578C34.4349 576.302 34.211 576.082 33.9349 576.087C33.6587 576.092 33.4348 576.32 33.4348 576.596L34.4349 576.578ZM33.4348 582.55C33.4348 582.826 33.6587 583.045 33.9349 583.04C34.211 583.035 34.435 582.807 34.435 582.531L33.4348 582.55ZM34.435 588.485C34.435 588.209 34.211 587.989 33.9349 587.994C33.6587 587.999 33.4348 588.227 33.4348 588.503L34.435 588.485ZM33.4348 594.456C33.4348 594.732 33.6587 594.952 33.9349 594.947C34.2111 594.942 34.435 594.714 34.435 594.438L33.4348 594.456ZM34.435 600.392C34.435 600.116 34.2111 599.896 33.9349 599.901C33.6587 599.906 33.4348 600.134 33.4348 600.41L34.435 600.392ZM31.1578 602.878C30.8817 602.878 30.6537 603.102 30.6487 603.378C30.6436 603.654 30.8634 603.878 31.1396 603.878L31.1578 602.878ZM25.5672 603.878C25.8434 603.878 26.0713 603.654 26.0764 603.378C26.0814 603.102 25.8616 602.878 25.5855 602.878L25.5672 603.878ZM20.0132 602.878C19.737 602.878 19.5091 603.102 19.504 603.378C19.499 603.654 19.7187 603.878 19.9949 603.878L20.0132 602.878ZM14.4226 603.878C14.6987 603.878 14.9267 603.654 14.9317 603.378C14.9367 603.102 14.717 602.878 14.4408 602.878L14.4226 603.878ZM8.86849 602.878C8.59234 602.878 8.36438 603.102 8.35934 603.378C8.3543 603.654 8.57408 603.878 8.85023 603.878L8.86849 602.878ZM3.27789 603.878C3.55404 603.878 3.782 603.654 3.78704 603.378C3.79208 603.102 3.57231 602.878 3.29616 602.878L3.27789 603.878ZM12.9244 8.52213L15.5495 8.52346L15.5683 7.52366L12.9432 7.52233L12.9244 8.52213ZM20.7998 8.52613L26.05 8.5288L26.0688 7.52899L20.8185 7.52633L20.7998 8.52613ZM31.3002 8.53146L33.9254 8.5328L33.9441 7.53299L31.319 7.53166L31.3002 8.53146ZM33.4346 8.04202L33.4346 11.0187L34.4348 11.0005L34.4348 8.02377L33.4346 8.04202ZM33.4346 16.9722L33.4346 22.9256L34.4348 22.9074L34.4348 16.9539L33.4346 16.9722ZM33.4346 28.8791L33.4346 34.8325L34.4348 34.8143L34.4348 28.8608L33.4346 28.8791ZM33.4347 40.786L33.4347 46.7394L34.4348 46.7212L34.4348 40.7677L33.4347 40.786ZM33.4347 52.6929L33.4347 58.6463L34.4348 58.6281L34.4348 52.6746L33.4347 52.6929ZM33.4347 64.5998L33.4347 70.5532L34.4349 70.535L34.4349 64.5815L33.4347 64.5998ZM33.4347 76.5067L33.4347 82.4601L34.4349 82.4419L34.4349 76.4884L33.4347 76.5067ZM33.4347 88.4136L33.4347 94.367L34.4349 94.3488L34.4349 88.3953L33.4347 88.4136ZM33.4347 100.32L33.4347 106.274L34.4349 106.256L34.4349 100.302L33.4347 100.32ZM33.4347 112.227L33.4347 118.181L34.4349 118.163L34.4349 112.209L33.4347 112.227ZM33.4347 124.134L33.4347 130.088L34.4349 130.069L34.4349 124.116L33.4347 124.134ZM33.4347 136.041L33.4347 141.995L34.4349 141.976L34.4349 136.023L33.4347 136.041ZM33.4347 147.948L33.4347 153.901L34.4349 153.883L34.4349 147.93L33.4347 147.948ZM33.4347 159.855L33.4347 165.808L34.4349 165.79L34.4349 159.837L33.4347 159.855ZM33.4347 171.762L33.4347 177.715L34.4349 177.697L34.4349 171.744L33.4347 171.762ZM33.4347 183.669L33.4347 189.622L34.4349 189.604L34.4349 183.65L33.4347 183.669ZM33.4347 195.576L33.4347 201.529L34.4349 201.511L34.4349 195.557L33.4347 195.576ZM33.4347 207.482L33.4347 213.436L34.4349 213.418L34.4349 207.464L33.4347 207.482ZM33.4347 219.389L33.4347 225.343L34.4349 225.324L34.4349 219.371L33.4347 219.389ZM33.4347 231.296L33.4347 237.25L34.4349 237.231L34.4349 231.278L33.4347 231.296ZM33.4347 243.203L33.4347 249.157L34.4349 249.138L34.4349 243.185L33.4347 243.203ZM33.4347 255.11L33.4347 261.063L34.4349 261.045L34.4349 255.092L33.4347 255.11ZM33.4347 267.017L33.4347 272.97L34.4349 272.952L34.4349 266.999L33.4347 267.017ZM33.4347 278.924L33.4347 284.877L34.4349 284.859L34.4349 278.905L33.4347 278.924ZM33.4347 290.831L33.4347 296.784L34.4349 296.766L34.4349 290.812L33.4347 290.831ZM33.4347 302.738L33.4347 308.691L34.4349 308.673L34.4349 302.719L33.4347 302.738ZM33.4347 314.644L33.4347 320.598L34.4349 320.58L34.4349 314.626L33.4347 314.644ZM33.4347 326.551L33.4347 332.505L34.4349 332.486L34.4349 326.533L33.4347 326.551ZM33.4347 338.458L33.4347 344.412L34.4349 344.393L34.4349 338.44L33.4347 338.458ZM33.4347 350.365L33.4347 356.318L34.4349 356.3L34.4349 350.347L33.4347 350.365ZM33.4347 362.272L33.4347 368.225L34.4349 368.207L34.4349 362.254L33.4347 362.272ZM33.4347 374.179L33.4347 380.132L34.4349 380.114L34.4349 374.161L33.4347 374.179ZM33.4347 386.086L33.4347 392.039L34.4349 392.021L34.4349 386.067L33.4347 386.086ZM33.4347 397.993L33.4347 403.946L34.4349 403.928L34.4349 397.974L33.4347 397.993ZM33.4347 409.899L33.4347 415.853L34.4349 415.835L34.4349 409.881L33.4347 409.899ZM33.4347 421.806L33.4347 427.76L34.4349 427.742L34.4349 421.788L33.4347 421.806ZM33.4347 433.713L33.4347 439.667L34.4349 439.648L34.4349 433.695L33.4347 433.713ZM33.4347 445.62L33.4347 451.574L34.4349 451.555L34.4349 445.602L33.4347 445.62ZM33.4347 457.527L33.4347 463.48L34.4349 463.462L34.4349 457.509L33.4347 457.527ZM33.4347 469.434L33.4347 475.387L34.4349 475.369L34.4349 469.416L33.4347 469.434ZM33.4347 481.341L33.4347 487.294L34.4349 487.276L34.4349 481.322L33.4347 481.341ZM33.4347 493.248L33.4347 499.201L34.4349 499.183L34.4349 493.229L33.4347 493.248ZM33.4347 505.154L33.4347 511.108L34.4349 511.09L34.4349 505.136L33.4347 505.154ZM33.4347 517.061L33.4347 523.015L34.4349 522.997L34.4349 517.043L33.4347 517.061ZM33.4347 528.968L33.4347 534.922L34.4349 534.904L34.4349 528.95L33.4347 528.968ZM33.4347 540.875L33.4347 546.829L34.4349 546.81L34.4349 540.857L33.4347 540.875ZM33.4347 552.782L33.4348 558.736L34.4349 558.717L34.4349 552.764L33.4347 552.782ZM33.4348 564.689L33.4348 570.643L34.4349 570.624L34.4349 564.671L33.4348 564.689ZM33.4348 576.596L33.4348 582.55L34.435 582.531L34.4349 576.578L33.4348 576.596ZM33.4348 588.503L33.4348 594.456L34.435 594.438L34.435 588.485L33.4348 588.503ZM33.4348 600.41L33.4348 603.387L34.435 603.369L34.435 600.392L33.4348 600.41ZM33.944 602.878L31.1578 602.878L31.1396 603.878L33.9257 603.878L33.944 602.878ZM25.5855 602.878L20.0132 602.878L19.9949 603.878L25.5672 603.878L25.5855 602.878ZM14.4408 602.878L8.86849 602.878L8.85023 603.878L14.4226 603.878L14.4408 602.878ZM3.29616 602.878L0.509987 602.878L0.491728 603.878L3.27789 603.878L3.29616 602.878ZM33.9349 603.378L33.9166 604.377L34.9351 604.377L34.9351 603.359L33.9349 603.378ZM12.2399 7.3149C11.8421 7.70515 11.8302 8.33819 12.2134 8.72884L18.458 15.0948C18.8412 15.4854 19.4744 15.4858 19.8722 15.0955C20.2701 14.7053 20.282 14.0722 19.8988 13.6816L14.348 8.02295L20.1112 2.37007C20.5091 1.97982 20.5209 1.34678 20.1377 0.956134C19.7545 0.565487 19.1214 0.565166 18.7235 0.955415L12.2399 7.3149ZM33.9347 8.0329L34.9349 8.01464L34.9349 7.03359L33.9535 7.03309L33.9347 8.0329ZM15.5401 9.02337C16.0924 9.02365 16.5486 8.57625 16.5589 8.02407C16.5693 7.47189 16.13 7.02404 15.5777 7.02376L15.5401 9.02337ZM20.8279 7.02642C20.2756 7.02614 19.8195 7.47354 19.8091 8.02572C19.7988 8.5779 20.2381 9.02575 20.7904 9.02603L20.8279 7.02642ZM26.0406 9.0287C26.5929 9.02898 27.049 8.58158 27.0594 8.0294C27.0698 7.47723 26.6305 7.02937 26.0782 7.02909L26.0406 9.0287ZM31.3284 7.03176C30.7761 7.03148 30.32 7.47888 30.3096 8.03105C30.2992 8.58323 30.7386 9.03109 31.2908 9.03137L31.3284 7.03176ZM32.9345 11.0279C32.9345 11.58 33.3823 12.0193 33.9347 12.0093C34.4871 11.9992 34.9349 11.5434 34.9349 10.9914L32.9345 11.0279ZM34.9349 16.9448C34.9349 16.3927 34.4871 15.9533 33.9347 15.9634C33.3824 15.9735 32.9345 16.4292 32.9345 16.9813L34.9349 16.9448ZM32.9345 22.9348C32.9345 23.4869 33.3824 23.9262 33.9347 23.9162C34.4871 23.9061 34.9349 23.4503 34.9349 22.8983L32.9345 22.9348ZM34.9349 28.8517C34.9349 28.2996 34.4871 27.8602 33.9347 27.8703C33.3824 27.8804 32.9346 28.3361 32.9346 28.8882L34.9349 28.8517ZM32.9346 34.8417C32.9346 35.3938 33.3824 35.8331 33.9347 35.823C34.4871 35.813 34.9349 35.3572 34.9349 34.8052L32.9346 34.8417ZM34.9349 40.7586C34.9349 40.2065 34.4871 39.7671 33.9347 39.7772C33.3824 39.7873 32.9346 40.243 32.9346 40.7951L34.9349 40.7586ZM32.9346 46.7486C32.9346 47.3007 33.3824 47.74 33.9347 47.7299C34.4871 47.7199 34.9349 47.2641 34.9349 46.712L32.9346 46.7486ZM34.9349 52.6655C34.9349 52.1134 34.4871 51.674 33.9347 51.6841C33.3824 51.6942 32.9346 52.1499 32.9346 52.702L34.9349 52.6655ZM32.9346 58.6555C32.9346 59.2075 33.3824 59.6469 33.9348 59.6368C34.4871 59.6268 34.9349 59.171 34.9349 58.6189L32.9346 58.6555ZM34.9349 64.5724C34.9349 64.0203 34.4871 63.5809 33.9348 63.591C33.3824 63.6011 32.9346 64.0568 32.9346 64.6089L34.9349 64.5724ZM32.9346 70.5624C32.9346 71.1144 33.3824 71.5538 33.9348 71.5437C34.4871 71.5337 34.9349 71.0779 34.9349 70.5258L32.9346 70.5624ZM34.9349 76.4793C34.9349 75.9272 34.4871 75.4878 33.9348 75.4979C33.3824 75.508 32.9346 75.9637 32.9346 76.5158L34.9349 76.4793ZM32.9346 82.4693C32.9346 83.0213 33.3824 83.4607 33.9348 83.4506C34.4871 83.4406 34.935 82.9848 34.935 82.4327L32.9346 82.4693ZM34.935 88.3862C34.935 87.8341 34.4871 87.3947 33.9348 87.4048C33.3824 87.4149 32.9346 87.8706 32.9346 88.4227L34.935 88.3862ZM32.9346 94.3762C32.9346 94.9282 33.3824 95.3676 33.9348 95.3575C34.4872 95.3474 34.935 94.8917 34.935 94.3396L32.9346 94.3762ZM34.935 100.293C34.935 99.741 34.4872 99.3016 33.9348 99.3117C33.3824 99.3218 32.9346 99.7775 32.9346 100.33L34.935 100.293ZM32.9346 106.283C32.9346 106.835 33.3824 107.275 33.9348 107.264C34.4872 107.254 34.935 106.799 34.935 106.247L32.9346 106.283ZM34.935 112.2C34.935 111.648 34.4872 111.209 33.9348 111.219C33.3824 111.229 32.9346 111.684 32.9346 112.236L34.935 112.2ZM32.9346 118.19C32.9346 118.742 33.3824 119.181 33.9348 119.171C34.4872 119.161 34.935 118.706 34.935 118.153L32.9346 118.19ZM34.935 124.107C34.935 123.555 34.4872 123.115 33.9348 123.125C33.3824 123.136 32.9346 123.591 32.9346 124.143L34.935 124.107ZM32.9346 130.097C32.9346 130.649 33.3824 131.088 33.9348 131.078C34.4872 131.068 34.935 130.612 34.935 130.06L32.9346 130.097ZM34.935 136.014C34.935 135.462 34.4872 135.022 33.9348 135.032C33.3824 135.042 32.9346 135.498 32.9346 136.05L34.935 136.014ZM32.9346 142.004C32.9346 142.556 33.3824 142.995 33.9348 142.985C34.4872 142.975 34.935 142.519 34.935 141.967L32.9346 142.004ZM34.935 147.921C34.935 147.369 34.4872 146.929 33.9348 146.939C33.3824 146.949 32.9346 147.405 32.9346 147.957L34.935 147.921ZM32.9346 153.911C32.9346 154.463 33.3824 154.902 33.9348 154.892C34.4872 154.882 34.935 154.426 34.935 153.874L32.9346 153.911ZM34.935 159.828C34.935 159.275 34.4872 158.836 33.9348 158.846C33.3824 158.856 32.9346 159.312 32.9346 159.864L34.935 159.828ZM32.9346 165.817C32.9346 166.37 33.3824 166.809 33.9348 166.799C34.4872 166.789 34.935 166.333 34.935 165.781L32.9346 165.817ZM34.935 171.734C34.935 171.182 34.4872 170.743 33.9348 170.753C33.3824 170.763 32.9346 171.219 32.9346 171.771L34.935 171.734ZM32.9346 177.724C32.9346 178.276 33.3824 178.716 33.9348 178.706C34.4872 178.696 34.935 178.24 34.935 177.688L32.9346 177.724ZM34.935 183.641C34.935 183.089 34.4872 182.65 33.9348 182.66C33.3824 182.67 32.9346 183.126 32.9346 183.678L34.935 183.641ZM32.9346 189.631C32.9346 190.183 33.3824 190.623 33.9348 190.613C34.4872 190.603 34.935 190.147 34.935 189.595L32.9346 189.631ZM34.935 195.548C34.935 194.996 34.4872 194.557 33.9348 194.567C33.3824 194.577 32.9346 195.033 32.9346 195.585L34.935 195.548ZM32.9346 201.538C32.9346 202.09 33.3824 202.53 33.9348 202.52C34.4872 202.509 34.935 202.054 34.935 201.502L32.9346 201.538ZM34.935 207.455C34.935 206.903 34.4872 206.464 33.9348 206.474C33.3824 206.484 32.9346 206.939 32.9346 207.492L34.935 207.455ZM32.9346 213.445C32.9346 213.997 33.3824 214.436 33.9348 214.426C34.4872 214.416 34.935 213.961 34.935 213.409L32.9346 213.445ZM34.935 219.362C34.935 218.81 34.4872 218.37 33.9348 218.381C33.3824 218.391 32.9346 218.846 32.9346 219.398L34.935 219.362ZM32.9346 225.352C32.9346 225.904 33.3824 226.343 33.9348 226.333C34.4872 226.323 34.935 225.867 34.935 225.315L32.9346 225.352ZM34.935 231.269C34.935 230.717 34.4872 230.277 33.9348 230.287C33.3824 230.298 32.9346 230.753 32.9346 231.305L34.935 231.269ZM32.9346 237.259C32.9346 237.811 33.3824 238.25 33.9348 238.24C34.4872 238.23 34.935 237.774 34.935 237.222L32.9346 237.259ZM34.935 243.176C34.935 242.624 34.4872 242.184 33.9348 242.194C33.3824 242.204 32.9346 242.66 32.9346 243.212L34.935 243.176ZM32.9346 249.166C32.9346 249.718 33.3824 250.157 33.9348 250.147C34.4872 250.137 34.935 249.681 34.935 249.129L32.9346 249.166ZM34.935 255.083C34.935 254.53 34.4872 254.091 33.9348 254.101C33.3824 254.111 32.9346 254.567 32.9346 255.119L34.935 255.083ZM32.9346 261.073C32.9346 261.625 33.3824 262.064 33.9348 262.054C34.4872 262.044 34.935 261.588 34.935 261.036L32.9346 261.073ZM34.935 266.989C34.935 266.437 34.4872 265.998 33.9348 266.008C33.3824 266.018 32.9346 266.474 32.9346 267.026L34.935 266.989ZM32.9346 272.979C32.9346 273.532 33.3824 273.971 33.9348 273.961C34.4872 273.951 34.935 273.495 34.935 272.943L32.9346 272.979ZM34.935 278.896C34.935 278.344 34.4872 277.905 33.9348 277.915C33.3824 277.925 32.9346 278.381 32.9346 278.933L34.935 278.896ZM32.9346 284.886C32.9346 285.438 33.3824 285.878 33.9348 285.868C34.4872 285.858 34.935 285.402 34.935 284.85L32.9346 284.886ZM34.935 290.803C34.935 290.251 34.4872 289.812 33.9348 289.822C33.3824 289.832 32.9346 290.288 32.9346 290.84L34.935 290.803ZM32.9346 296.793C32.9346 297.345 33.3824 297.785 33.9348 297.775C34.4872 297.765 34.935 297.309 34.935 296.757L32.9346 296.793ZM34.935 302.71C34.935 302.158 34.4872 301.719 33.9348 301.729C33.3824 301.739 32.9346 302.195 32.9346 302.747L34.935 302.71ZM32.9346 308.7C32.9346 309.252 33.3824 309.692 33.9348 309.681C34.4872 309.671 34.935 309.216 34.935 308.664L32.9346 308.7ZM34.935 314.617C34.935 314.065 34.4872 313.626 33.9348 313.636C33.3824 313.646 32.9346 314.101 32.9346 314.654L34.935 314.617ZM32.9346 320.607C32.9346 321.159 33.3824 321.598 33.9348 321.588C34.4872 321.578 34.935 321.123 34.935 320.57L32.9346 320.607ZM34.935 326.524C34.935 325.972 34.4872 325.532 33.9348 325.543C33.3824 325.553 32.9346 326.008 32.9346 326.56L34.935 326.524ZM32.9346 332.514C32.9346 333.066 33.3824 333.505 33.9348 333.495C34.4872 333.485 34.935 333.029 34.935 332.477L32.9346 332.514ZM34.935 338.431C34.935 337.879 34.4872 337.439 33.9348 337.449C33.3824 337.459 32.9346 337.915 32.9346 338.467L34.935 338.431ZM32.9346 344.421C32.9346 344.973 33.3824 345.412 33.9348 345.402C34.4872 345.392 34.935 344.936 34.935 344.384L32.9346 344.421ZM34.935 350.338C34.935 349.786 34.4872 349.346 33.9348 349.356C33.3824 349.366 32.9346 349.822 32.9346 350.374L34.935 350.338ZM32.9346 356.328C32.9346 356.88 33.3824 357.319 33.9348 357.309C34.4872 357.299 34.935 356.843 34.935 356.291L32.9346 356.328ZM34.935 362.245C34.935 361.692 34.4872 361.253 33.9348 361.263C33.3824 361.273 32.9346 361.729 32.9346 362.281L34.935 362.245ZM32.9346 368.234C32.9346 368.787 33.3824 369.226 33.9348 369.216C34.4872 369.206 34.935 368.75 34.935 368.198L32.9346 368.234ZM34.935 374.151C34.935 373.599 34.4872 373.16 33.9348 373.17C33.3824 373.18 32.9346 373.636 32.9346 374.188L34.935 374.151ZM32.9346 380.141C32.9346 380.693 33.3824 381.133 33.9348 381.123C34.4872 381.113 34.935 380.657 34.935 380.105L32.9346 380.141ZM34.935 386.058C34.935 385.506 34.4872 385.067 33.9348 385.077C33.3824 385.087 32.9346 385.543 32.9346 386.095L34.935 386.058ZM32.9346 392.048C32.9346 392.6 33.3824 393.04 33.9348 393.03C34.4872 393.02 34.935 392.564 34.935 392.012L32.9346 392.048ZM34.935 397.965C34.935 397.413 34.4872 396.974 33.9348 396.984C33.3824 396.994 32.9346 397.45 32.9346 398.002L34.935 397.965ZM32.9346 403.955C32.9346 404.507 33.3824 404.947 33.9348 404.937C34.4872 404.926 34.935 404.471 34.935 403.919L32.9346 403.955ZM34.935 409.872C34.935 409.32 34.4872 408.881 33.9348 408.891C33.3824 408.901 32.9346 409.357 32.9346 409.909L34.935 409.872ZM32.9346 415.862C32.9346 416.414 33.3824 416.853 33.9348 416.843C34.4872 416.833 34.935 416.378 34.935 415.826L32.9346 415.862ZM34.935 421.779C34.935 421.227 34.4872 420.787 33.9348 420.798C33.3824 420.808 32.9346 421.263 32.9346 421.815L34.935 421.779ZM32.9346 427.769C32.9346 428.321 33.3824 428.76 33.9348 428.75C34.4872 428.74 34.935 428.284 34.935 427.732L32.9346 427.769ZM34.935 433.686C34.935 433.134 34.4872 432.694 33.9348 432.704C33.3824 432.715 32.9346 433.17 32.9346 433.722L34.935 433.686ZM32.9346 439.676C32.9346 440.228 33.3824 440.667 33.9348 440.657C34.4872 440.647 34.935 440.191 34.935 439.639L32.9346 439.676ZM34.935 445.593C34.935 445.041 34.4872 444.601 33.9348 444.611C33.3824 444.621 32.9346 445.077 32.9346 445.629L34.935 445.593ZM32.9346 451.583C32.9346 452.135 33.3824 452.574 33.9348 452.564C34.4872 452.554 34.935 452.098 34.935 451.546L32.9346 451.583ZM34.935 457.5C34.935 456.948 34.4872 456.508 33.9348 456.518C33.3824 456.528 32.9346 456.984 32.9346 457.536L34.935 457.5ZM32.9346 463.49C32.9346 464.042 33.3824 464.481 33.9348 464.471C34.4872 464.461 34.935 464.005 34.935 463.453L32.9346 463.49ZM34.935 469.406C34.935 468.854 34.4872 468.415 33.9348 468.425C33.3824 468.435 32.9346 468.891 32.9346 469.443L34.935 469.406ZM32.9346 475.396C32.9346 475.948 33.3824 476.388 33.9348 476.378C34.4872 476.368 34.935 475.912 34.935 475.36L32.9346 475.396ZM34.935 481.313C34.935 480.761 34.4872 480.322 33.9348 480.332C33.3824 480.342 32.9346 480.798 32.9346 481.35L34.935 481.313ZM32.9346 487.303C32.9346 487.855 33.3824 488.295 33.9348 488.285C34.4872 488.275 34.935 487.819 34.935 487.267L32.9346 487.303ZM34.935 493.22C34.935 492.668 34.4872 492.229 33.9348 492.239C33.3824 492.249 32.9346 492.705 32.9346 493.257L34.935 493.22ZM32.9346 499.21C32.9346 499.762 33.3824 500.202 33.9348 500.192C34.4872 500.181 34.935 499.726 34.935 499.174L32.9346 499.21ZM34.935 505.127C34.935 504.575 34.4872 504.136 33.9348 504.146C33.3824 504.156 32.9346 504.612 32.9346 505.164L34.935 505.127ZM32.9346 511.117C32.9346 511.669 33.3824 512.109 33.9348 512.098C34.4872 512.088 34.935 511.633 34.935 511.081L32.9346 511.117ZM34.935 517.034C34.935 516.482 34.4872 516.043 33.9348 516.053C33.3824 516.063 32.9346 516.518 32.9346 517.071L34.935 517.034ZM32.9346 523.024C32.9346 523.576 33.3824 524.015 33.9348 524.005C34.4872 523.995 34.935 523.54 34.935 522.987L32.9346 523.024ZM34.935 528.941C34.935 528.389 34.4872 527.949 33.9348 527.96C33.3824 527.97 32.9346 528.425 32.9346 528.977L34.935 528.941ZM32.9346 534.931C32.9346 535.483 33.3825 535.922 33.9348 535.912C34.4872 535.902 34.935 535.446 34.935 534.894L32.9346 534.931ZM34.935 540.848C34.935 540.296 34.4872 539.856 33.9348 539.867C33.3825 539.877 32.9346 540.332 32.9346 540.884L34.935 540.848ZM32.9347 546.838C32.9347 547.39 33.3825 547.829 33.9348 547.819C34.4872 547.809 34.935 547.353 34.935 546.801L32.9347 546.838ZM34.935 552.755C34.935 552.203 34.4872 551.763 33.9348 551.773C33.3825 551.783 32.9347 552.239 32.9347 552.791L34.935 552.755ZM32.9347 558.745C32.9347 559.297 33.3825 559.736 33.9348 559.726C34.4872 559.716 34.935 559.26 34.935 558.708L32.9347 558.745ZM34.935 564.662C34.935 564.11 34.4872 563.67 33.9348 563.68C33.3825 563.69 32.9347 564.146 32.9347 564.698L34.935 564.662ZM32.9347 570.652C32.9347 571.204 33.3825 571.643 33.9349 571.633C34.4872 571.623 34.935 571.167 34.935 570.615L32.9347 570.652ZM34.935 576.569C34.935 576.017 34.4872 575.577 33.9349 575.587C33.3825 575.597 32.9347 576.053 32.9347 576.605L34.935 576.569ZM32.9347 582.559C32.9347 583.111 33.3825 583.55 33.9349 583.54C34.4872 583.53 34.935 583.074 34.935 582.522L32.9347 582.559ZM34.935 588.476C34.935 587.924 34.4872 587.484 33.9349 587.494C33.3825 587.504 32.9347 587.96 32.9347 588.512L34.935 588.476ZM32.9347 594.466C32.9347 595.018 33.3825 595.457 33.9349 595.447C34.4872 595.437 34.935 594.981 34.935 594.429L32.9347 594.466ZM34.9351 600.383C34.9351 599.83 34.4872 599.391 33.9349 599.401C33.3825 599.411 32.9347 599.867 32.9347 600.419L34.9351 600.383ZM31.167 602.378C30.6147 602.378 30.1587 602.825 30.1487 603.378C30.1386 603.93 30.5781 604.377 31.1304 604.377L31.167 602.378ZM25.5581 604.378C26.1104 604.378 26.5663 603.93 26.5764 603.378C26.5865 602.826 26.1469 602.378 25.5946 602.378L25.5581 604.378ZM20.0223 602.378C19.47 602.378 19.0141 602.826 19.004 603.378C18.9939 603.93 19.4335 604.377 19.9858 604.377L20.0223 602.378ZM14.4134 604.378C14.9657 604.378 15.4216 603.93 15.4317 603.378C15.4418 602.826 15.0023 602.378 14.45 602.378L14.4134 604.378ZM8.87762 602.378C8.32532 602.378 7.86942 602.826 7.85933 603.378C7.84924 603.93 8.28879 604.378 8.84109 604.378L8.87762 602.378ZM3.26876 604.378C3.82106 604.378 4.27697 603.93 4.28705 603.378C4.29714 602.826 3.85759 602.378 3.30529 602.378L3.26876 604.378ZM12.915 9.02203L15.5401 9.02337L15.5777 7.02376L12.9526 7.02242L12.915 9.02203ZM20.7904 9.02603L26.0406 9.0287L26.0782 7.02909L20.8279 7.02642L20.7904 9.02603ZM31.2908 9.03137L33.916 9.0327L33.9535 7.03309L31.3284 7.03176L31.2908 9.03137ZM32.9345 8.05115L32.9345 11.0279L34.9349 10.9914L34.9349 8.01464L32.9345 8.05115ZM32.9345 16.9813L32.9345 22.9348L34.9349 22.8983L34.9349 16.9448L32.9345 16.9813ZM32.9346 28.8882L32.9346 34.8417L34.9349 34.8052L34.9349 28.8517L32.9346 28.8882ZM32.9346 40.7951L32.9346 46.7486L34.9349 46.712L34.9349 40.7586L32.9346 40.7951ZM32.9346 52.702L32.9346 58.6555L34.9349 58.6189L34.9349 52.6655L32.9346 52.702ZM32.9346 64.6089L32.9346 70.5624L34.9349 70.5258L34.9349 64.5724L32.9346 64.6089ZM32.9346 76.5158L32.9346 82.4693L34.935 82.4327L34.9349 76.4793L32.9346 76.5158ZM32.9346 88.4227L32.9346 94.3762L34.935 94.3396L34.935 88.3862L32.9346 88.4227ZM32.9346 100.33L32.9346 106.283L34.935 106.247L34.935 100.293L32.9346 100.33ZM32.9346 112.236L32.9346 118.19L34.935 118.153L34.935 112.2L32.9346 112.236ZM32.9346 124.143L32.9346 130.097L34.935 130.06L34.935 124.107L32.9346 124.143ZM32.9346 136.05L32.9346 142.004L34.935 141.967L34.935 136.014L32.9346 136.05ZM32.9346 147.957L32.9346 153.911L34.935 153.874L34.935 147.921L32.9346 147.957ZM32.9346 159.864L32.9346 165.817L34.935 165.781L34.935 159.828L32.9346 159.864ZM32.9346 171.771L32.9346 177.724L34.935 177.688L34.935 171.734L32.9346 171.771ZM32.9346 183.678L32.9346 189.631L34.935 189.595L34.935 183.641L32.9346 183.678ZM32.9346 195.585L32.9346 201.538L34.935 201.502L34.935 195.548L32.9346 195.585ZM32.9346 207.492L32.9346 213.445L34.935 213.409L34.935 207.455L32.9346 207.492ZM32.9346 219.398L32.9346 225.352L34.935 225.315L34.935 219.362L32.9346 219.398ZM32.9346 231.305L32.9346 237.259L34.935 237.222L34.935 231.269L32.9346 231.305ZM32.9346 243.212L32.9346 249.166L34.935 249.129L34.935 243.176L32.9346 243.212ZM32.9346 255.119L32.9346 261.073L34.935 261.036L34.935 255.083L32.9346 255.119ZM32.9346 267.026L32.9346 272.979L34.935 272.943L34.935 266.989L32.9346 267.026ZM32.9346 278.933L32.9346 284.886L34.935 284.85L34.935 278.896L32.9346 278.933ZM32.9346 290.84L32.9346 296.793L34.935 296.757L34.935 290.803L32.9346 290.84ZM32.9346 302.747L32.9346 308.7L34.935 308.664L34.935 302.71L32.9346 302.747ZM32.9346 314.654L32.9346 320.607L34.935 320.57L34.935 314.617L32.9346 314.654ZM32.9346 326.56L32.9346 332.514L34.935 332.477L34.935 326.524L32.9346 326.56ZM32.9346 338.467L32.9346 344.421L34.935 344.384L34.935 338.431L32.9346 338.467ZM32.9346 350.374L32.9346 356.328L34.935 356.291L34.935 350.338L32.9346 350.374ZM32.9346 362.281L32.9346 368.234L34.935 368.198L34.935 362.245L32.9346 362.281ZM32.9346 374.188L32.9346 380.141L34.935 380.105L34.935 374.151L32.9346 374.188ZM32.9346 386.095L32.9346 392.048L34.935 392.012L34.935 386.058L32.9346 386.095ZM32.9346 398.002L32.9346 403.955L34.935 403.919L34.935 397.965L32.9346 398.002ZM32.9346 409.909L32.9346 415.862L34.935 415.826L34.935 409.872L32.9346 409.909ZM32.9346 421.815L32.9346 427.769L34.935 427.732L34.935 421.779L32.9346 421.815ZM32.9346 433.722L32.9346 439.676L34.935 439.639L34.935 433.686L32.9346 433.722ZM32.9346 445.629L32.9346 451.583L34.935 451.546L34.935 445.593L32.9346 445.629ZM32.9346 457.536L32.9346 463.49L34.935 463.453L34.935 457.5L32.9346 457.536ZM32.9346 469.443L32.9346 475.396L34.935 475.36L34.935 469.406L32.9346 469.443ZM32.9346 481.35L32.9346 487.303L34.935 487.267L34.935 481.313L32.9346 481.35ZM32.9346 493.257L32.9346 499.21L34.935 499.174L34.935 493.22L32.9346 493.257ZM32.9346 505.164L32.9346 511.117L34.935 511.081L34.935 505.127L32.9346 505.164ZM32.9346 517.071L32.9346 523.024L34.935 522.987L34.935 517.034L32.9346 517.071ZM32.9346 528.977L32.9346 534.931L34.935 534.894L34.935 528.941L32.9346 528.977ZM32.9346 540.884L32.9347 546.838L34.935 546.801L34.935 540.848L32.9346 540.884ZM32.9347 552.791L32.9347 558.745L34.935 558.708L34.935 552.755L32.9347 552.791ZM32.9347 564.698L32.9347 570.652L34.935 570.615L34.935 564.662L32.9347 564.698ZM32.9347 576.605L32.9347 582.559L34.935 582.522L34.935 576.569L32.9347 576.605ZM32.9347 588.512L32.9347 594.466L34.935 594.429L34.935 588.476L32.9347 588.512ZM32.9347 600.419L32.9347 603.396L34.9351 603.359L34.9351 600.383L32.9347 600.419ZM33.9531 602.378L31.167 602.378L31.1304 604.377L33.9166 604.377L33.9531 602.378ZM25.5946 602.378L20.0223 602.378L19.9858 604.377L25.5581 604.378L25.5946 602.378ZM14.45 602.378L8.87762 602.378L8.84109 604.378L14.4134 604.378L14.45 602.378ZM3.30529 602.378L0.51912 602.378L0.482595 604.378L3.26876 604.378L3.30529 602.378Z" fill="#749CC7"/>
</svg>
