<svg width="36" height="45" viewBox="0 0 36 45" fill="none" xmlns="http://www.w3.org/2000/svg">
<path d="M29.7264 23.9C29.7478 22.2379 30.1892 20.6083 31.0097 19.1627C31.8302 17.7171 33.0029 16.5026 34.4189 15.6321C33.5194 14.3474 32.3327 13.2901 30.9531 12.5443C29.5735 11.7984 28.0389 11.3846 26.4714 11.3355C23.1276 10.9845 19.8859 13.3364 18.1819 13.3364C16.445 13.3364 13.8215 11.3704 10.9964 11.4285C9.16903 11.4875 7.38814 12.0189 5.82722 12.9709C4.2663 13.9228 2.97859 15.2628 2.08955 16.8604C-1.76158 23.5281 1.11101 33.3273 4.80008 38.7169C6.64579 41.356 8.80291 44.304 11.6254 44.1995C14.3875 44.0849 15.419 42.4382 18.753 42.4382C22.0561 42.4382 23.0239 44.1995 25.9037 44.133C28.8675 44.0849 30.7348 41.4821 32.5158 38.818C33.8419 36.9375 34.8624 34.8592 35.5394 32.6599C33.8175 31.9317 32.3481 30.7127 31.3144 29.1549C30.2807 27.5971 29.7284 25.7695 29.7264 23.9Z" fill="white"/>
<path d="M24.2866 7.79113C25.9026 5.85121 26.6987 3.35777 26.5059 0.840332C24.0371 1.09964 21.7565 2.27959 20.1187 4.14508C19.318 5.05642 18.7047 6.11665 18.3139 7.26516C17.9231 8.41367 17.7625 9.62793 17.8413 10.8385C19.0762 10.8513 20.2978 10.5836 21.4143 10.0557C22.5307 9.52788 23.5128 8.75357 24.2866 7.79113Z" fill="white"/>
</svg>
