<svg width="41" height="45" viewBox="0 0 41 45" fill="none" xmlns="http://www.w3.org/2000/svg">
<path d="M4.87158 10.339L15.746 21.2505C16.4834 21.9913 16.4834 23.1907 15.746 23.9298L4.85747 35.0336L4.87158 10.339ZM8.63046 4.99785L20.8137 12.0182L25.1371 14.5088L21.0783 18.5817C20.341 19.3207 19.1451 19.3207 18.4078 18.5817L5.33725 5.47234C6.1169 4.668 7.52449 4.34344 8.63046 4.99785ZM7.26519 40.4276C6.53317 40.4276 5.88229 40.1013 5.41486 39.6303L18.4078 26.5986C19.1451 25.8595 20.341 25.8595 21.0783 26.5986L25.0789 30.6133L8.57577 40.0766C8.18242 40.3059 7.7291 40.4276 7.26519 40.4276ZM35.0061 24.8012L28.4655 28.6694L23.7401 23.9298C23.0027 23.1907 23.0027 21.9913 23.7401 21.2505L28.5185 16.4579L35.0273 20.2909L35.0696 20.3138C35.8934 20.7619 36.4031 21.6138 36.4031 22.5399C36.4031 23.473 35.8863 24.3285 35.0061 24.8012ZM37.0593 17.0259L10.5267 1.73639C9.54063 1.15078 8.41173 0.840332 7.26519 0.840332C4.31242 0.840332 1.72654 2.85295 1.12857 5.57465C1.06331 5.83571 0.911615 6.51304 0.925726 7.15687L0.927492 37.9529C0.948659 38.5773 1.11799 39.4222 1.14445 39.5245C1.88176 42.2797 4.39885 44.2024 7.26519 44.2024C8.39586 44.2024 9.50535 43.9025 10.4596 43.3451L37.0028 28.1244C39.0631 27.0184 40.3437 24.8859 40.3437 22.5575C40.3437 20.2539 39.086 18.1354 37.0593 17.0259Z" fill="white"/>
</svg>
