<svg width="66" height="30" viewBox="0 0 66 30" fill="none" xmlns="http://www.w3.org/2000/svg">
<g clip-path="url(#clip0_5_58208)">
<path d="M29.2754 7.1709H37.5875V22.1063H29.2754V7.1709Z" fill="#FF5F00"/>
<path d="M29.806 14.6387C29.806 11.6041 31.2309 8.9126 33.4211 7.17102C31.8115 5.90441 29.7796 5.13916 27.563 5.13916C22.3119 5.13916 18.0635 9.38758 18.0635 14.6387C18.0635 19.8899 22.3119 24.1383 27.563 24.1383C29.7796 24.1383 31.8115 23.3731 33.4211 22.1065C31.2309 20.3913 29.806 17.6733 29.806 14.6387Z" fill="#EB001B"/>
<path d="M48.8049 14.6387C48.8049 19.8899 44.5565 24.1383 39.3053 24.1383C37.0888 24.1383 35.0569 23.3731 33.4473 22.1065C35.6638 20.3649 37.0624 17.6733 37.0624 14.6387C37.0624 11.6041 35.6374 8.9126 33.4473 7.17102C35.0569 5.90441 37.0888 5.13916 39.3053 5.13916C44.5565 5.13916 48.8049 9.41397 48.8049 14.6387Z" fill="#F79E1B"/>
</g>
<defs>
<clipPath id="clip0_5_58208">
<rect width="30.7417" height="18.9991" fill="white" transform="translate(18.0576 5.13916)"/>
</clipPath>
</defs>
</svg>
