<svg width="66" height="30" viewBox="0 0 66 30" fill="none" xmlns="http://www.w3.org/2000/svg">
<path d="M21.0334 9.69801C21.428 9.22125 21.7157 8.55542 21.7157 7.88959C21.7157 7.79917 21.7075 7.70875 21.691 7.63477C21.0417 7.65943 20.2608 8.07044 19.7922 8.62118C19.4223 9.0404 19.0853 9.69801 19.0853 10.3721C19.0853 10.4707 19.1017 10.5693 19.1099 10.6022C19.151 10.6104 19.2168 10.6187 19.2826 10.6187C19.8662 10.6187 20.5978 10.2241 21.0334 9.69801ZM21.4938 10.7584C20.5156 10.7584 19.7182 11.3502 19.2168 11.3502C18.6743 11.3502 17.9591 10.7913 17.1125 10.7913C15.5013 10.7913 13.8655 12.1229 13.8655 14.6383C13.8655 16.2001 14.4738 17.8523 15.2218 18.9209C15.863 19.8251 16.422 20.565 17.2275 20.565C18.0249 20.565 18.3784 20.0306 19.373 20.0306C20.3841 20.0306 20.606 20.5485 21.4938 20.5485C22.3651 20.5485 22.9487 19.7429 23.4995 18.9538C24.116 18.0496 24.3708 17.1618 24.3872 17.1207C24.3297 17.1043 22.661 16.422 22.661 14.5068C22.661 12.8463 23.9762 12.0983 24.0502 12.0407C23.1789 10.7913 21.8554 10.7584 21.4938 10.7584ZM27.3143 8.55542V20.417H29.435V16.496H32.0079C34.4082 16.496 36.0851 14.8931 36.0851 12.5504C36.0851 10.1666 34.4657 8.55542 32.0984 8.55542H27.3143ZM29.435 10.2899H31.5394C33.0683 10.2899 33.9314 11.079 33.9314 12.5504C33.9314 13.9807 33.0437 14.7862 31.5312 14.7862H29.435V10.2899ZM39.4642 20.565C40.6397 20.565 41.6261 20.0553 42.1275 19.184H42.2673V20.417H44.2319V14.2766C44.2319 12.3778 42.9331 11.2598 40.6233 11.2598C38.486 11.2598 36.9982 12.2627 36.8338 13.8327H38.7573C38.9464 13.2162 39.5875 12.8792 40.5246 12.8792C41.6261 12.8792 42.218 13.3806 42.218 14.2766V15.0493L39.8999 15.189C37.7134 15.3123 36.4886 16.2576 36.4886 17.8688C36.4886 19.5128 37.7298 20.565 39.4642 20.565ZM40.0643 18.9949C39.1601 18.9949 38.5107 18.5428 38.5107 17.7701C38.5107 17.0221 39.045 16.6029 40.1876 16.5289L42.218 16.3892V17.1207C42.218 18.1894 41.2973 18.9949 40.0643 18.9949ZM46.5013 23.6721C48.5152 23.6721 49.477 22.9406 50.2414 20.7294L53.4884 11.4324H51.3347L49.2386 18.4853H49.0988L46.9945 11.4324H44.7586L47.9727 20.4499L47.8658 20.8691C47.6028 21.7158 47.1178 22.0446 46.2547 22.0446C46.115 22.0446 45.8108 22.0363 45.6957 22.0199V23.6393C45.8273 23.6639 46.378 23.6721 46.5013 23.6721Z" fill="white"/>
</svg>
