<svg width="45" height="44" viewBox="0 0 45 44" fill="none" xmlns="http://www.w3.org/2000/svg">
<path d="M42.9319 7.29297V18.2327H31.9922" stroke="#749DCA" stroke-width="2.0353" stroke-linecap="round" stroke-linejoin="round"/>
<path d="M2.82031 36.4656V25.5259H13.7601" stroke="#749DCA" stroke-width="2.0353" stroke-linecap="round" stroke-linejoin="round"/>
<path d="M7.39677 16.4095C8.32149 13.7964 9.8931 11.4601 11.965 9.61856C14.0368 7.77706 16.5414 6.49042 19.245 5.8787C21.9486 5.26697 24.7632 5.35009 27.426 6.12031C30.0888 6.89053 32.5131 8.32273 34.4726 10.2833L42.9327 18.2328M2.82031 25.526L11.2804 33.4755C13.24 35.4361 15.6643 36.8683 18.3271 37.6385C20.9899 38.4087 23.8044 38.4919 26.508 37.8801C29.2116 37.2684 31.7162 35.9818 33.7881 34.1403C35.8599 32.2988 37.4315 29.9625 38.3562 27.3493" stroke="#749DCA" stroke-width="2.0353" stroke-linecap="round" stroke-linejoin="round"/>
</svg>
