<svg width="66" height="30" viewBox="0 0 66 30" fill="none" xmlns="http://www.w3.org/2000/svg">
<path d="M31.9158 14.3991V19.5783H30.261V6.78857H34.6479C35.7597 6.78857 36.7078 7.15669 37.4835 7.89291C38.2764 8.62914 38.6728 9.52801 38.6728 10.5895C38.6728 11.6768 38.2764 12.5756 37.4835 13.3033C36.7164 14.031 35.7683 14.3905 34.6479 14.3905H31.9158V14.3991ZM31.9158 8.36375V12.8239H34.6824C35.3374 12.8239 35.889 12.6013 36.3199 12.1647C36.7595 11.7281 36.9836 11.1974 36.9836 10.5981C36.9836 10.0074 36.7595 9.48521 36.3199 9.04861C35.889 8.59489 35.346 8.37231 34.6824 8.37231H31.9158V8.36375Z" fill="white"/>
<path d="M43.0018 10.5381C44.2256 10.5381 45.1909 10.8634 45.8977 11.514C46.6044 12.1646 46.9578 13.0549 46.9578 14.185V19.5782H45.3805V18.3626H45.3116C44.6307 19.3642 43.7171 19.8607 42.5795 19.8607C41.6056 19.8607 40.7954 19.5782 40.1404 19.0047C39.4854 18.4311 39.1578 17.7206 39.1578 16.8645C39.1578 15.957 39.5026 15.2379 40.1921 14.7072C40.8816 14.1678 41.8038 13.9025 42.9501 13.9025C43.9326 13.9025 44.7428 14.0822 45.3719 14.4418V14.0651C45.3719 13.4915 45.1478 13.0121 44.6911 12.6098C44.2343 12.2074 43.6999 12.0105 43.088 12.0105C42.1658 12.0105 41.4332 12.3958 40.8988 13.1748L39.4423 12.2674C40.2438 11.1117 41.4332 10.5381 43.0018 10.5381ZM40.8643 16.8902C40.8643 17.3182 41.0453 17.6777 41.4159 17.9603C41.7779 18.2428 42.2089 18.3883 42.7001 18.3883C43.3982 18.3883 44.0188 18.1315 44.5618 17.6178C45.1047 17.1042 45.3805 16.5049 45.3805 15.8115C44.8634 15.4092 44.1481 15.2037 43.2259 15.2037C42.5536 15.2037 41.9934 15.3663 41.5452 15.6831C41.0884 16.017 40.8643 16.4193 40.8643 16.8902Z" fill="white"/>
<path d="M55.9528 10.8208L50.4369 23.4222H48.7304L50.7816 19.0134L47.1445 10.8208H48.9458L51.5659 17.1044H51.6004L54.1515 10.8208H55.9528Z" fill="white"/>
<path d="M25.3307 13.3548C25.3307 12.8189 25.2824 12.3061 25.1928 11.813H18.2565V14.638L22.2512 14.6389C22.0892 15.5789 21.5678 16.3801 20.7688 16.9143V18.7472H23.1467C24.5352 17.4708 25.3307 15.584 25.3307 13.3548Z" fill="#4285F4"/>
<path d="M20.77 16.9141C20.1081 17.3575 19.2557 17.6169 18.2585 17.6169C16.3322 17.6169 14.6981 16.3277 14.1129 14.5898H11.66V16.4801C12.8753 18.8754 15.373 20.519 18.2585 20.519C20.2529 20.519 21.9284 19.8675 23.1479 18.7461L20.77 16.9141Z" fill="#34A853"/>
<path d="M13.8819 13.1878C13.8819 12.6999 13.9638 12.2282 14.1129 11.7847V9.89453H11.66C11.1576 10.885 10.8749 12.003 10.8749 13.1878C10.8749 14.3727 11.1584 15.4907 11.66 16.4812L14.1129 14.591C13.9638 14.1475 13.8819 13.6758 13.8819 13.1878Z" fill="#FABB05"/>
<path d="M18.2585 8.75756C19.3471 8.75756 20.3218 9.12995 21.0915 9.85762L23.1987 7.76623C21.9189 6.58228 20.2503 5.85547 18.2585 5.85547C15.3738 5.85547 12.8753 7.49913 11.66 9.89443L14.1129 11.7846C14.6981 10.0468 16.3322 8.75756 18.2585 8.75756Z" fill="#E94235"/>
</svg>
