<svg width="66" height="30" viewBox="0 0 66 30" fill="none" xmlns="http://www.w3.org/2000/svg">
<g clip-path="url(#clip0_5_58205)">
<path d="M39.5028 7.77783C36.4956 7.77783 33.8083 9.33645 33.8083 12.2161C33.8083 15.5186 38.5744 15.7467 38.5744 17.4057C38.5744 18.1043 37.7738 18.7296 36.4065 18.7296C34.466 18.7296 33.0156 17.8558 33.0156 17.8558L32.395 20.7617C32.395 20.7617 34.0658 21.4998 36.284 21.4998C39.5718 21.4998 42.1588 19.8646 42.1588 16.9357C42.1588 13.4461 37.3729 13.2248 37.3729 11.6849C37.3729 11.1377 38.0301 10.5381 39.3935 10.5381C40.9319 10.5381 42.187 11.1736 42.187 11.1736L42.7943 8.36696C42.7943 8.36696 41.4287 7.77783 39.5028 7.77783ZM11.9903 7.98965L11.9175 8.41329C11.9175 8.41329 13.1826 8.64482 14.322 9.10667C15.7891 9.63628 15.8937 9.94458 16.1407 10.9022L18.8332 21.2814H22.4425L28.003 7.98965H24.4019L20.829 17.0268L19.3711 9.36648C19.2374 8.48977 18.5601 7.98965 17.7311 7.98965H11.9903ZM29.451 7.98965L26.6261 21.2814H30.06L32.8749 7.98965H29.451ZM48.603 7.98965C47.7749 7.98965 47.3362 8.43296 47.0143 9.20762L41.9834 21.2814H45.5845L46.2812 19.2691H50.6683L51.0919 21.2814H54.2693L51.4974 7.98965H48.603ZM49.0713 11.5807L50.1387 16.5684H47.2791L49.0713 11.5807Z" fill="#1434CB"/>
</g>
<defs>
<clipPath id="clip0_5_58205">
<rect width="42.3942" height="13.7644" fill="white" transform="translate(11.8932 7.75684)"/>
</clipPath>
</defs>
</svg>
