<svg width="116" height="30" viewBox="0 0 116 30" fill="none" xmlns="http://www.w3.org/2000/svg">
<g clip-path="url(#clip0_5_58178)">
<path d="M15.99 13.1203L19.6919 9.42473L23.3957 13.1223L25.5497 10.9718L19.6919 5.12354L13.8361 10.9699L15.99 13.1203Z" fill="#F3BA2F"/>
<path d="M14.4677 14.6387L12.3137 12.4883L10.1597 14.6388L12.3136 16.7892L14.4677 14.6387Z" fill="#F3BA2F"/>
<path d="M15.9932 16.1571L19.6951 19.8527L23.3987 16.1553L25.5539 18.3045L25.5528 18.3057L19.6951 24.1539L13.8391 18.3077L13.8361 18.3047L15.9932 16.1571Z" fill="#F3BA2F"/>
<path d="M27.0727 16.7902L29.2268 14.6396L27.0729 12.4892L24.9188 14.6398L27.0727 16.7902Z" fill="#F3BA2F"/>
<path d="M21.8757 14.6377H21.8766L19.6908 12.4556L18.0755 14.0682H18.0754L17.8899 14.2535L17.507 14.6358L17.504 14.6388L17.507 14.6419L19.6908 16.8221L21.8766 14.64L21.8776 14.6388L21.8757 14.6377Z" fill="#F3BA2F"/>
<path d="M32.5774 9.73486H37.2622C38.4249 9.73486 39.3042 10.0328 39.9001 10.6286C40.3612 11.09 40.5917 11.662 40.5917 12.3442V12.3731C40.5917 12.6613 40.556 12.9161 40.4842 13.1371C40.4126 13.3583 40.3168 13.5575 40.1971 13.7353C40.0777 13.9133 39.9389 14.0694 39.7811 14.2038C39.6232 14.3385 39.4535 14.4539 39.2718 14.5498C39.8563 14.7711 40.3164 15.0712 40.6518 15.4509C40.9871 15.8307 41.155 16.3569 41.155 17.0296V17.0583C41.155 17.5197 41.0661 17.9233 40.8883 18.2695C40.7105 18.6153 40.4558 18.9038 40.1241 19.1345C39.7924 19.3652 39.3936 19.5381 38.9275 19.6535C38.4614 19.7688 37.9448 19.8263 37.378 19.8263H32.5774V9.73486ZM36.7938 13.8147C37.2849 13.8147 37.6749 13.7308 37.9635 13.5624C38.2523 13.3942 38.3966 13.1226 38.3966 12.7479V12.7191C38.3966 12.3828 38.2714 12.1258 38.0212 11.9478C37.7708 11.77 37.4098 11.681 36.9382 11.681H34.7433V13.8147H36.7938ZM37.386 17.8803C37.8769 17.8803 38.2617 17.7916 38.5412 17.6137C38.8203 17.4359 38.96 17.1594 38.96 16.7846V16.7559C38.96 16.4195 38.8299 16.1528 38.5701 15.9556C38.3101 15.7589 37.8914 15.6603 37.3137 15.6603H34.7433V17.8805L37.386 17.8803Z" fill="#F3BA2F"/>
<path d="M43.9464 9.73486H46.1704V19.8266H43.9464V9.73486Z" fill="#F3BA2F"/>
<path d="M49.5431 9.73486H51.5933L56.33 15.9486V9.73486H58.5249V19.8266H56.6333L51.7379 13.4112V19.8266H49.5431V9.73486Z" fill="#F3BA2F"/>
<path d="M65.2555 9.66309H67.3059L71.6383 19.8269H69.3132L68.389 17.5635H64.1146L63.1905 19.8269H60.923L65.2555 9.66309ZM67.5948 15.6026L66.2517 12.3301L64.9091 15.6026H67.5948Z" fill="#F3BA2F"/>
<path d="M74.0411 9.73486H76.0918L80.8281 15.9486V9.73486H83.0231V19.8266H81.1315L76.2361 13.4112V19.8266H74.0411V9.73486Z" fill="#F3BA2F"/>
<path d="M91.0231 19.9996C90.2814 19.9996 89.5934 19.865 88.9579 19.5961C88.3224 19.3272 87.7738 18.9594 87.3117 18.4931C86.8495 18.027 86.4884 17.4767 86.2288 16.8424C85.9688 16.208 85.8389 15.5304 85.8389 14.8095V14.7808C85.8389 14.06 85.9688 13.3849 86.2288 12.7553C86.4885 12.1258 86.8495 11.5731 87.3117 11.0974C87.7737 10.6217 88.3274 10.2467 88.9722 9.9728C89.617 9.69894 90.3299 9.56201 91.1096 9.56201C91.581 9.56201 92.0118 9.60064 92.4017 9.6773C92.7916 9.75441 93.1453 9.85992 93.4633 9.99445C93.7811 10.1291 94.0744 10.2925 94.3443 10.4846C94.6134 10.677 94.8639 10.8883 95.095 11.119L93.6801 12.7481C93.2849 12.3926 92.8832 12.1136 92.4741 11.9119C92.0648 11.7102 91.6053 11.6092 91.095 11.6092C90.6714 11.6092 90.279 11.691 89.9183 11.8543C89.5573 12.0177 89.2467 12.2435 88.9867 12.5318C88.727 12.8201 88.5248 13.1542 88.3801 13.5337C88.236 13.9136 88.1639 14.3195 88.1639 14.752V14.7807C88.1639 15.2131 88.236 15.6218 88.3801 16.006C88.5248 16.3906 88.7241 16.7269 88.9796 17.0151C89.2345 17.3034 89.5427 17.5319 89.9035 17.7001C90.2649 17.8684 90.6619 17.9523 91.095 17.9523C91.6729 17.9523 92.161 17.8466 92.5605 17.6352C92.9601 17.424 93.3574 17.1355 93.752 16.7701L95.1672 18.1975C94.9072 18.4763 94.6373 18.7262 94.3586 18.947C94.0793 19.1683 93.7737 19.358 93.4414 19.5167C93.1095 19.6751 92.7457 19.7955 92.3514 19.877C91.9564 19.9586 91.5137 19.9996 91.0231 19.9996Z" fill="#F3BA2F"/>
<path d="M97.7892 9.73486H105.399V11.7101H99.9843V13.7572H104.75V15.7323H99.9843V17.8516H105.472V19.8266H97.7892V9.73486Z" fill="#F3BA2F"/>
</g>
<defs>
<clipPath id="clip0_5_58178">
<rect width="95.1528" height="19.0306" fill="white" transform="translate(10.2472 5.12354)"/>
</clipPath>
</defs>
</svg>
